<?xml version="1.0" encoding="utf-8"?>
<!-- Generator: Adobe Illustrator 25.2.0, SVG Export Plug-In . SVG Version: 6.00 Build 0)  -->
<svg version="1.1" id="Layer_1" xmlns="http://www.w3.org/2000/svg" xmlns:xlink="http://www.w3.org/1999/xlink" x="0px" y="0px"
	 viewBox="0 0 6000.77 1147.69" style="enable-background:new 0 0 6000.77 1147.69;" xml:space="preserve">
<style type="text/css">
	.st0{fill:#8DC263;}
	.st1{fill:#A8CC65;}
	.st2{fill:#82504A;}
	.st3{fill:#6C372F;}
	.st4{fill:#8DC860;}
	.st5{fill:#6FB244;}
	.st6{fill:#EAF0BA;}
	.st7{fill:#B8D986;}
	.st8{fill:none;stroke:#EAF0BA;stroke-width:30;stroke-linecap:round;stroke-miterlimit:10;}
	.st9{fill:none;stroke:#000000;stroke-width:30;stroke-linecap:round;stroke-linejoin:round;stroke-miterlimit:10;}
	.st10{fill:#EE7778;stroke:#000000;stroke-width:30;stroke-linecap:round;stroke-linejoin:round;stroke-miterlimit:10;}
</style>
<g>
	<path class="st0" d="M1788.03,1012.93c-16.88,12.47-37.59,21.81-62.16,28.05c-24.56,6.22-50.42,9.34-77.55,9.34
		c-70.41,0-124.86-17.95-163.36-53.89c-38.5-35.94-57.75-88.73-57.75-158.41V594.93h-91.3v-132h91.3V318.82h171.61v144.11h147.39
		v132h-147.39v240.89c0,24.94,6.41,44.2,19.25,57.77c12.83,13.56,30.98,20.34,54.45,20.34c27.13,0,50.22-7.33,69.3-22
		L1788.03,1012.93z"/>
	<path class="st0" d="M2127.38,462.93c34.83-14.66,74.97-22,120.44-22v158.39c-19.06-1.47-31.91-2.2-38.5-2.2
		c-49.13,0-87.63,13.75-115.5,41.25s-41.8,68.75-41.8,123.75v279.41h-171.59v-591.8h163.89v78.09
		C2064.84,499.23,2092.53,477.6,2127.38,462.93z"/>
	<path class="st0" d="M2916.63,794.03h-447.69c8.06,36.67,27.13,65.64,57.19,86.91s67.47,31.89,112.2,31.89
		c30.8,0,58.11-4.58,81.95-13.75c23.83-9.16,46.02-23.64,66.55-43.45l91.3,99c-55.73,63.81-137.13,95.7-244.19,95.7
		c-66.75,0-125.78-13.02-177.11-39.05c-51.34-26.03-90.94-62.14-118.8-108.34c-27.88-46.2-41.8-98.64-41.8-157.31
		c0-57.92,13.75-110.17,41.25-156.73s65.27-82.88,113.3-108.91s101.75-39.05,161.16-39.05c57.92,0,110.34,12.47,157.28,37.41
		s83.78,60.69,110.56,107.25c26.77,46.56,40.16,100.64,40.16,162.23C2919.94,750.03,2918.83,765.43,2916.63,794.03z M2515.13,603.73
		c-26.41,22-42.53,52.08-48.39,90.2h291.5c-5.88-37.41-22-67.28-48.41-89.66c-26.41-22.36-58.67-33.55-96.8-33.55
		C2574.16,570.73,2541.53,581.73,2515.13,603.73z"/>
	<path class="st0" d="M3606.32,794.03h-447.69c8.06,36.67,27.13,65.64,57.19,86.91s67.47,31.89,112.2,31.89
		c30.8,0,58.11-4.58,81.95-13.75c23.83-9.16,46.02-23.64,66.55-43.45l91.3,99c-55.73,63.81-137.13,95.7-244.19,95.7
		c-66.75,0-125.78-13.02-177.11-39.05c-51.34-26.03-90.94-62.14-118.8-108.34c-27.88-46.2-41.8-98.64-41.8-157.31
		c0-57.92,13.75-110.17,41.25-156.73s65.27-82.88,113.3-108.91s101.75-39.05,161.16-39.05c57.92,0,110.34,12.47,157.28,37.41
		s83.78,60.69,110.56,107.25c26.77,46.56,40.16,100.64,40.16,162.23C3609.63,750.03,3608.53,765.43,3606.32,794.03z M3204.82,603.73
		c-26.41,22-42.53,52.08-48.39,90.2h291.5c-5.88-37.41-22-67.28-48.41-89.66c-26.41-22.36-58.67-33.55-96.8-33.55
		C3263.85,570.73,3231.23,581.73,3204.82,603.73z"/>
	<path class="st1" d="M4322.42,225.32v816.2h-163.91v-68.2c-42.53,51.34-104.14,77-184.8,77c-55.73,0-106.16-12.45-151.25-37.39
		c-45.09-24.94-80.48-60.5-106.14-106.7c-25.67-46.19-38.5-99.73-38.5-160.61c0-60.86,12.83-114.39,38.5-160.59
		c25.66-46.19,61.05-81.75,106.14-106.69s95.52-37.41,151.25-37.41c75.53,0,134.56,23.84,177.11,71.5V225.32H4322.42z
		 M4111.22,864.98c28.59-29.69,42.91-69.48,42.91-119.36c0-49.86-14.31-89.64-42.91-119.34c-28.59-29.69-64.53-44.55-107.8-44.55
		c-44,0-80.31,14.86-108.91,44.55c-28.59,29.7-42.89,69.48-42.89,119.34c0,49.88,14.3,89.67,42.89,119.36
		c28.59,29.7,64.91,44.55,108.91,44.55C4046.69,909.53,4082.63,894.68,4111.22,864.98z"/>
	<path class="st1" d="M5052.8,794.03h-447.69c8.06,36.67,27.13,65.64,57.19,86.91s67.47,31.89,112.2,31.89
		c30.8,0,58.11-4.58,81.95-13.75c23.83-9.16,46.02-23.64,66.55-43.45l91.3,99c-55.73,63.81-137.13,95.7-244.19,95.7
		c-66.75,0-125.78-13.02-177.11-39.05c-51.34-26.03-90.94-62.14-118.8-108.34c-27.88-46.2-41.8-98.64-41.8-157.31
		c0-57.92,13.75-110.17,41.25-156.73s65.27-82.88,113.3-108.91s101.75-39.05,161.16-39.05c57.92,0,110.34,12.47,157.28,37.41
		s83.78,60.69,110.56,107.25c26.77,46.56,40.16,100.64,40.16,162.23C5056.12,750.03,5055.01,765.43,5052.8,794.03z M4651.3,603.73
		c-26.41,22-42.53,52.08-48.39,90.2h291.5c-5.88-37.41-22-67.28-48.41-89.66c-26.41-22.36-58.67-33.55-96.8-33.55
		C4710.33,570.73,4677.71,581.73,4651.3,603.73z"/>
	<path class="st1" d="M5354.2,462.93H5506v132h-147.39v446.59H5187V594.93h-91.3v-132h91.3v-26.41c0-67.47,19.98-121,59.95-160.59
		s96.25-59.41,168.86-59.41c25.66,0,50.05,2.75,73.14,8.25s42.34,13.39,57.75,23.66l-45.09,124.3
		c-19.81-13.94-42.91-20.91-69.3-20.91c-52.08,0-78.11,28.61-78.11,85.8V462.93z M5688.61,339.73c-19.81-18.33-29.7-41.06-29.7-68.2
		c0-27.13,9.89-49.86,29.7-68.2c19.8-18.33,45.47-27.5,77-27.5s57.19,8.81,77,26.41c19.8,17.59,29.7,39.59,29.7,66
		c0,28.59-9.91,52.25-29.7,70.95c-19.81,18.7-45.47,28.05-77,28.05S5708.41,358.07,5688.61,339.73z M5679.81,449.73h171.59v591.8
		h-171.59V449.73z"/>
</g>
<g id="_x32__18_">
	<path d="M1011.83,754.54c-0.42-15.17-2.54-30.3-6.33-45c-2.58-10.01-5.92-19.83-10-29.33c-4.42-10.29-14.03-21.24-17.06-31.65
		c-2.4-8.26,5.49-23.28,7.86-32.17c3.14-11.8,5.8-23.73,7.95-35.76c4.16-23.24,6.44-46.81,6.85-70.41
		c1.6-90.84-25.29-180.86-75.5-256.51C824.48,101.39,637.09,19.68,456.97,56.79c-176.16,36.3-319.98,180.08-356.03,356.35
		c-8.97,43.83-11.24,88.99-6.82,133.51c0.91,9.11,5.15,22.45,2.45,30.85c-3.72,11.57-13.04,23.18-17.92,34.56
		c-6.13,14.32-11.01,29.17-14.52,44.35c-18.36,79.43,2.63,164.18,54.48,226.86c54.8,66.26,139.82,103.77,225.81,96.84
		c34.65-2.79,68.6-12.66,99.46-28.64c8.14-4.21,8.26-6.08,12.91,0.94c2.67,4.03,4.84,8.53,7.18,12.76
		c3.67,6.63,7.27,13.31,10.76,20.04c2.67,5.16,18,40.23,17.33,56.97c-0.7,17.58,3.29,26.4,20.11,33.99
		c27.74,12.51,74.71,13.68,100.23-5.14c8.83-6.51,10.08-13.87,10.92-24.36c0.48-5.98,1.8-7.61,5.3-12.94
		c13.42-20.43,30.02-37.49,43.44-57.92c6.3-9.6,39.63-37.75,39.63-37.75s6.8,8.04,16.88,12.23c11.62,4.83,23.7,8.58,36.01,11.17
		c18.81,3.95,38.22,5.2,57.38,3.7C928.96,956.79,1014.71,861.95,1011.83,754.54z"/>
	<g>
		<path class="st2" d="M526.47,1056.03c0,0,6.16,8.11,31.38,8.11c25.22,0,31.13-8.11,31.13-8.11l-0.37-9.88l130.33-138.02h-10
			l-124.62,102.32l1.05-198.48l-38.55,6.43c-5.71,44.97-18.44,178.48-18.44,178.48l-99.36-137.39h-12.14
			c0,0,108.9,126.69,110.33,159.53C527.54,1026.51,527.19,1039.87,526.47,1056.03z"/>
		<path class="st3" d="M516.81,1054.64l17.94,6.25c-1.08-27.51-2.13-58.47,0.14-76.13c6.61-51.4,19.07-44.27,34.78-23.56
			c15.71,20.7,3.86,95.53,19.25,93.11l-0.31-8.14l145.42-154.52h-10l-139.71,118.82l1.05-198.48l-38.55,6.43
			c-5.71,44.97-18.44,148.56-18.44,148.56l-99.36-107.48h-12.14c0,0,97.83,121.97,99.26,154.81
			C516.47,1021.79,517.53,1038.48,516.81,1054.64z"/>
	</g>
	<g>
		<path class="st4" d="M323.45,468.94c-134.1,0-246,111.9-246,246.01c0,134.11,111.9,246,246,246c134.11,0,246-111.9,246-246
			C569.46,580.85,457.56,468.94,323.45,468.94z"/>
		<path class="st5" d="M359.63,924.78c-134.11,0-246.01-111.9-246.01-246c0-58,20.96-111.83,55.57-154.26
			c-55.68,45.41-91.74,114.33-91.74,190.44c0,134.11,111.9,246,246,246c76.11,0,145.02-36.06,190.44-91.74
			C471.45,903.82,417.63,924.78,359.63,924.78z"/>
	</g>
	<g>
		
			<ellipse transform="matrix(0.7071 -0.7071 0.7071 0.7071 -195.107 533.5927)" class="st4" cx="546.55" cy="502.31" rx="434.63" ry="434.62"/>
		<path class="st6" d="M546.55,100.31c231.45,0,425.49,188.69,434.31,418.31c0.21-5.42,0.31-10.85,0.31-16.31
			c0-236.92-197.71-434.62-434.62-434.62c-236.92,0-434.63,197.7-434.63,434.62c0,5.46,0.11,10.9,0.31,16.31
			C121.06,289.01,315.09,100.31,546.55,100.31z"/>
		<path class="st5" d="M546.55,869.42c-225.56,0-415.44-179.23-433.14-400.87c-0.89,11.16-1.49,22.4-1.49,33.76
			c0,236.92,197.71,434.62,434.63,434.62c236.91,0,434.62-197.7,434.62-434.62c0-11.36-0.59-22.59-1.49-33.76
			C961.99,690.19,772.1,869.42,546.55,869.42z"/>
	</g>
	<g>
		
			<ellipse transform="matrix(0.7071 -0.7071 0.7071 0.7071 -301.3216 792.6927)" class="st4" cx="806.2" cy="760.07" rx="185.71" ry="185.71"/>
		<path class="st5" d="M972.36,678.18c2.25,11.39,3.47,23.12,3.47,35.1c0,101.23-84.47,185.71-185.71,185.71
			c-71.98,0-135.46-42.74-166.16-103.82c16.79,84.93,92.98,150.61,182.24,150.61c101.23,0,185.71-84.47,185.71-185.71
			C991.91,730.83,984.83,703,972.36,678.18z"/>
	</g>
	<g>
		<path class="st7" d="M534.88,351.57c-15.55,0-15.55,24.11,0,24.11C550.44,375.68,550.44,351.57,534.88,351.57z"/>
		<path class="st7" d="M390.18,454.47c-15.55,0-15.55,24.12,0,24.12S405.73,454.47,390.18,454.47z"/>
		<path class="st7" d="M470.57,599.18c-15.55,0-15.55,24.12,0,24.12C486.12,623.29,486.12,599.18,470.57,599.18z"/>
		<path class="st7" d="M621.71,570.23c-15.55,0-15.55,24.12,0,24.12C637.27,594.35,637.27,570.23,621.71,570.23z"/>
		<path class="st7" d="M515.59,464.12c-15.55,0-15.55,24.12,0,24.12C531.14,488.24,531.14,464.12,515.59,464.12z"/>
		<path class="st7" d="M341.94,544.51h-6.43c-6.57,0-12.06,5.48-12.06,12.06c0,6.57,5.48,12.06,12.06,12.06h6.43
			c6.57,0,12.06-5.49,12.06-12.06C354,549.99,348.51,544.51,341.94,544.51z"/>
		<path class="st7" d="M740.69,448.04c-15.55,0-15.55,24.12,0,24.12C756.25,472.16,756.25,448.04,740.69,448.04z"/>
		<path class="st7" d="M740.69,306.54c-15.55,0-15.55,24.12,0,24.12C756.25,330.66,756.25,306.54,740.69,306.54z"/>
		<path class="st7" d="M464.14,267.96c-15.54,0-15.54,24.12,0,24.12C479.69,292.08,479.69,267.96,464.14,267.96z"/>
		<path class="st7" d="M309.79,393.37c-15.55,0-15.55,24.12,0,24.12C325.33,417.49,325.33,393.37,309.79,393.37z"/>
		<path class="st7" d="M367.67,287.25c-15.55,0-15.55,24.12,0,24.12C383.22,311.37,383.22,287.25,367.67,287.25z"/>
		<path class="st7" d="M441.63,358c-15.55,0-15.55,24.12,0,24.12C457.18,382.12,457.18,358,441.63,358z"/>
		<path class="st7" d="M212.9,554.58c-15.55,0-15.55,24.12,0,24.12S228.45,554.58,212.9,554.58z"/>
		<path class="st7" d="M212.9,815.89c-15.55,0-15.55,24.12,0,24.12C228.45,840.01,228.45,815.89,212.9,815.89z"/>
		<path class="st7" d="M374.53,747.5c-15.55,0-15.55,24.11,0,24.11C390.08,771.62,390.08,747.5,374.53,747.5z"/>
		<path class="st7" d="M890.64,767.6c-15.56,0-15.56,24.11,0,24.11C906.19,791.71,906.19,767.6,890.64,767.6z"/>
		<path class="st7" d="M768.44,735.44c-15.56,0-15.56,24.12,0,24.12C783.98,759.56,783.98,735.44,768.44,735.44z"/>
		<path class="st7" d="M781.3,796.54c-15.55,0-15.55,24.12,0,24.12C796.85,820.66,796.85,796.54,781.3,796.54z"/>
		<path class="st7" d="M845.61,722.57c-15.55,0-15.55,24.12,0,24.12C861.16,746.69,861.16,722.57,845.61,722.57z"/>
		<path class="st7" d="M747.13,663.49c-15.56,0-15.56,24.12,0,24.12C762.68,687.61,762.68,663.49,747.13,663.49z"/>
		<path class="st7" d="M669.95,470.55c-15.56,0-15.56,24.12,0,24.12C685.5,494.67,685.5,470.55,669.95,470.55z"/>
		<path class="st7" d="M666.73,322.63c-15.56,0-15.56,24.12,0,24.12C682.29,346.75,682.29,322.63,666.73,322.63z"/>
		<path class="st7" d="M615.28,229.37c-15.56,0-15.56,24.11,0,24.11C630.83,253.48,630.83,229.37,615.28,229.37z"/>
		<path class="st7" d="M615.28,409.45c-15.56,0-15.56,24.12,0,24.12C630.83,433.57,630.83,409.45,615.28,409.45z"/>
		<path class="st7" d="M866.11,412.67c-15.56,0-15.56,24.11,0,24.11C881.66,436.78,881.66,412.67,866.11,412.67z"/>
		<path class="st7" d="M817.87,570.23c-15.55,0-15.55,24.12,0,24.12C833.43,594.35,833.43,570.23,817.87,570.23z"/>
		<path class="st7" d="M502.73,708.51c-15.55,0-15.55,24.12,0,24.12S518.28,708.51,502.73,708.51z"/>
		<path class="st7" d="M380.53,650.63c-15.55,0-15.55,24.11,0,24.11C396.09,674.75,396.09,650.63,380.53,650.63z"/>
		<path class="st7" d="M647.44,653.84c-15.56,0-15.56,24.12,0,24.12C662.99,677.96,662.99,653.84,647.44,653.84z"/>
	</g>
	<path class="st8" d="M703.19,210.3c0,0,83.62,23.31,132.95,112.32"/>
	<path class="st8" d="M861.71,382.52c0,0,11.04,36.87,8.37,84.41"/>
</g>
<ellipse transform="matrix(0.785 -0.6195 0.6195 0.785 -155.0454 322.2449)" cx="386.75" cy="384.5" rx="50" ry="50"/>
<ellipse transform="matrix(0.9232 -0.3842 0.3842 0.9232 -74.8865 294.1628)" cx="698.75" cy="334.5" rx="50" ry="50"/>
<path class="st9" d="M399.75,914.5c0,0,102,33.61,126,91.8c24,58.2,33,118.2,33,118.2l101-16"/>
<path class="st9" d="M670.75,876.45c0,0,102,33.61,126,91.8c24,58.2,33,118.2,33,118.2l101-16"/>
<path class="st9" d="M408.19,473.81c0,0,55.87,75.42,174.59,47.49c118.72-27.93,122.15-99.16,122.15-99.16"/>
<path class="st10" d="M629.24,622.5c0,0-99.5-79.33-155.83-18c-58.04,63.19,86.02,218.73,206.02,226.23c0,0,72-68.16,105.66-138.2
	c33.66-70.03,18.83-151.08-38.51-160.41C689.25,522.79,629.24,622.5,629.24,622.5z"/>
<g>
	<ellipse transform="matrix(0.785 -0.6195 0.6195 0.785 -247.2771 616.4818)" cx="764.55" cy="664.5" rx="50" ry="50"/>
	<path class="st9" d="M764.55,664.5c0,0,52.2,86,102.2,70s64-108,64-108"/>
</g>
<g>
	<ellipse transform="matrix(0.785 -0.6195 0.6195 0.785 -347.7846 466.8721)" cx="498.75" cy="734.5" rx="50" ry="50"/>
	<path class="st9" d="M216.75,704.5c0,0-20,102,66,118s216-94,216-94"/>
</g>
</svg>
