<svg xmlns="http://www.w3.org/2000/svg" viewBox="0 0 954.31 1091.6"><defs><style>.cls-1{fill:#82504a;}.cls-2{fill:#6c372f;}.cls-3{fill:#8dc860;}.cls-4{fill:#6fb244;}.cls-5{fill:#eaf0ba;}.cls-6{fill:#b8d986;}.cls-7,.cls-8{fill:none;}.cls-7{stroke:#eaf0ba;stroke-miterlimit:10;}.cls-7,.cls-8,.cls-9{stroke-linecap:round;stroke-width:30px;}.cls-8,.cls-9{stroke:#000;stroke-linejoin:round;}.cls-9{fill:#ee7778;}</style></defs><g id="Layer_2" data-name="Layer 2"><g id="Layer_1-2" data-name="Layer 1"><g id="_2" data-name="2"><path d="M954.24,706.64a202.7,202.7,0,0,0-16.33-74.33c-4.42-10.29-14-21.24-17.06-31.65-2.4-8.26,5.49-23.28,7.86-32.17q4.71-17.7,7.95-35.76a443.51,443.51,0,0,0,6.85-70.41c1.6-90.84-25.29-180.86-75.5-256.51C766.89,53.49,579.5-28.22,399.38,8.89,223.22,45.19,79.4,189,43.35,365.24a446.82,446.82,0,0,0-6.82,133.51c.91,9.11,5.15,22.45,2.45,30.85-3.72,11.57-13,23.18-17.92,34.56A263.77,263.77,0,0,0,6.54,608.51C-11.82,687.94,9.17,772.69,61,835.37c54.8,66.26,139.82,103.77,225.81,96.84a262.77,262.77,0,0,0,99.46-28.64c8.14-4.21,8.26-6.08,12.91.94,2.67,4,4.84,8.53,7.18,12.76q5.5,9.94,10.76,20c2.67,5.16,18,40.23,17.33,57-.7,17.58,3.29,26.4,20.11,34,27.74,12.51,74.71,13.68,100.23-5.14,8.83-6.51,10.08-13.87,10.92-24.36.48-6,1.8-7.61,5.3-12.94,13.42-20.43,30-37.49,43.44-57.92,6.3-9.6,39.63-37.75,39.63-37.75A49.69,49.69,0,0,0,671,902.39a201.9,201.9,0,0,0,93.39,14.87C871.37,908.89,957.12,814.05,954.24,706.64Z"/><path class="cls-1" d="M468.88,1008.13s6.16,8.11,31.38,8.11,31.13-8.11,31.13-8.11l-.37-9.88,130.33-138h-10L526.73,962.55l1-198.48-38.55,6.43c-5.71,45-18.44,178.48-18.44,178.48L371.43,811.59H359.29s108.9,126.69,110.33,159.53C470,978.61,469.6,992,468.88,1008.13Z"/><path class="cls-2" d="M459.22,1006.74l17.94,6.25c-1.08-27.51-2.13-58.47.14-76.13,6.61-51.4,19.07-44.27,34.78-23.56s3.86,95.53,19.25,93.11l-.31-8.14L676.44,843.75h-10L526.73,962.57l1-198.48-38.55,6.43c-5.71,45-18.44,148.56-18.44,148.56L371.43,811.6H359.29s97.83,122,99.26,154.81C458.88,973.89,459.94,990.58,459.22,1006.74Z"/><path class="cls-3" d="M265.86,421c-134.1,0-246,111.9-246,246s111.9,246,246,246,246-111.9,246-246S400,421,265.86,421Z"/><path class="cls-4" d="M302,876.88c-134.11,0-246-111.9-246-246,0-58,21-111.83,55.57-154.26C55.92,522,19.86,591,19.86,667.06c0,134.11,111.9,246,246,246,76.11,0,145-36.06,190.44-91.74C413.86,855.92,360,876.88,302,876.88Z"/><ellipse class="cls-3" cx="488.95" cy="454.41" rx="434.63" ry="434.62" transform="translate(-178.1 478.83) rotate(-45)"/><path class="cls-5" d="M489,52.41c231.45,0,425.49,188.69,434.31,418.31q.32-8.13.31-16.31C923.58,217.49,725.87,19.79,489,19.79S54.33,217.49,54.33,454.41q0,8.19.31,16.31C63.47,241.11,257.5,52.41,489,52.41Z"/><path class="cls-4" d="M489,821.52c-225.56,0-415.44-179.23-433.14-400.87-.89,11.16-1.49,22.4-1.49,33.76C54.33,691.33,252,889,489,889s434.62-197.7,434.62-434.62c0-11.36-.59-22.59-1.49-33.76C904.4,642.29,714.51,821.52,489,821.52Z"/><circle class="cls-3" cx="748.59" cy="712.17" r="185.71"/><path class="cls-4" d="M914.77,630.28a180.94,180.94,0,0,1,3.47,35.1c0,101.23-84.47,185.71-185.71,185.71-72,0-135.46-42.74-166.16-103.82,16.79,84.93,93,150.61,182.24,150.61,101.23,0,185.71-84.47,185.71-185.71A182,182,0,0,0,914.77,630.28Z"/><path class="cls-6" d="M477.29,303.67c-15.55,0-15.55,24.11,0,24.11S492.85,303.67,477.29,303.67Z"/><path class="cls-6" d="M332.59,406.57c-15.55,0-15.55,24.12,0,24.12S348.14,406.57,332.59,406.57Z"/><path class="cls-6" d="M413,551.28c-15.55,0-15.55,24.12,0,24.12S428.53,551.28,413,551.28Z"/><path class="cls-6" d="M564.12,522.33c-15.55,0-15.55,24.12,0,24.12S579.68,522.33,564.12,522.33Z"/><path class="cls-6" d="M458,416.22c-15.55,0-15.55,24.12,0,24.12S473.55,416.22,458,416.22Z"/><path class="cls-6" d="M284.35,496.61h-6.43a12.06,12.06,0,0,0,0,24.12h6.43a12.06,12.06,0,0,0,0-24.12Z"/><path class="cls-6" d="M683.1,400.14c-15.55,0-15.55,24.12,0,24.12S698.66,400.14,683.1,400.14Z"/><path class="cls-6" d="M683.1,258.64c-15.55,0-15.55,24.12,0,24.12S698.66,258.64,683.1,258.64Z"/><path class="cls-6" d="M406.55,220.06c-15.54,0-15.54,24.12,0,24.12S422.1,220.06,406.55,220.06Z"/><path class="cls-6" d="M252.2,345.47c-15.55,0-15.55,24.12,0,24.12S267.74,345.47,252.2,345.47Z"/><path class="cls-6" d="M310.08,239.35c-15.55,0-15.55,24.12,0,24.12S325.63,239.35,310.08,239.35Z"/><path class="cls-6" d="M384,310.1c-15.55,0-15.55,24.12,0,24.12S399.59,310.1,384,310.1Z"/><path class="cls-6" d="M155.31,506.68c-15.55,0-15.55,24.12,0,24.12S170.86,506.68,155.31,506.68Z"/><path class="cls-6" d="M155.31,768c-15.55,0-15.55,24.12,0,24.12S170.86,768,155.31,768Z"/><path class="cls-6" d="M316.94,699.6c-15.55,0-15.55,24.11,0,24.11S332.49,699.6,316.94,699.6Z"/><path class="cls-6" d="M833.05,719.7c-15.56,0-15.56,24.11,0,24.11S848.6,719.7,833.05,719.7Z"/><path class="cls-6" d="M710.85,687.54c-15.56,0-15.56,24.12,0,24.12S726.39,687.54,710.85,687.54Z"/><path class="cls-6" d="M723.71,748.64c-15.55,0-15.55,24.12,0,24.12S739.26,748.64,723.71,748.64Z"/><path class="cls-6" d="M788,674.67c-15.55,0-15.55,24.12,0,24.12S803.57,674.67,788,674.67Z"/><path class="cls-6" d="M689.54,615.59c-15.56,0-15.56,24.12,0,24.12S705.09,615.59,689.54,615.59Z"/><path class="cls-6" d="M612.36,422.65c-15.56,0-15.56,24.12,0,24.12S627.91,422.65,612.36,422.65Z"/><path class="cls-6" d="M609.14,274.73c-15.56,0-15.56,24.12,0,24.12S624.7,274.73,609.14,274.73Z"/><path class="cls-6" d="M557.69,181.47c-15.56,0-15.56,24.11,0,24.11S573.24,181.47,557.69,181.47Z"/><path class="cls-6" d="M557.69,361.55c-15.56,0-15.56,24.12,0,24.12S573.24,361.55,557.69,361.55Z"/><path class="cls-6" d="M808.52,364.77c-15.56,0-15.56,24.11,0,24.11S824.07,364.77,808.52,364.77Z"/><path class="cls-6" d="M760.28,522.33c-15.55,0-15.55,24.12,0,24.12S775.84,522.33,760.28,522.33Z"/><path class="cls-6" d="M445.14,660.61c-15.55,0-15.55,24.12,0,24.12S460.69,660.61,445.14,660.61Z"/><path class="cls-6" d="M322.94,602.73c-15.55,0-15.55,24.11,0,24.11S338.5,602.73,322.94,602.73Z"/><path class="cls-6" d="M589.85,605.94c-15.56,0-15.56,24.12,0,24.12S605.4,605.94,589.85,605.94Z"/><path class="cls-7" d="M645.6,162.4s83.62,23.31,132.95,112.32"/><path class="cls-7" d="M804.12,334.62s11,36.87,8.37,84.41"/></g><circle cx="329.16" cy="336.58" r="50"/><circle cx="641.12" cy="286.61" r="50"/><path class="cls-8" d="M342.16,866.6s102,33.61,126,91.8,33,118.2,33,118.2l101-16"/><path class="cls-8" d="M613.16,828.55s102,33.61,126,91.8,33,118.2,33,118.2l101-16"/><path class="cls-8" d="M350.6,425.91s55.87,75.42,174.59,47.49,122.15-99.16,122.15-99.16"/><path class="cls-9" d="M571.65,574.6s-99.5-79.33-155.83-18c-58,63.19,86,218.73,206,226.23,0,0,72-68.16,105.66-138.2S746.33,493.55,689,484.22,571.65,574.6,571.65,574.6Z"/><circle cx="706.96" cy="616.57" r="50"/><path class="cls-8" d="M707,616.6s52.2,86,102.2,70,64-108,64-108"/><circle cx="441.16" cy="686.57" r="50"/><path class="cls-8" d="M159.16,656.6s-20,102,66,118,216-94,216-94"/></g></g></svg>