<svg xmlns="http://www.w3.org/2000/svg" viewBox="0 0 954.31 1091.6"><defs><style>.cls-1{fill:#231f20;}.cls-2{fill:#82504a;}.cls-3{fill:#6c372f;}.cls-4{fill:#8dc860;}.cls-5{fill:#6fb244;}.cls-6{fill:#eaf0ba;}.cls-7{fill:#b8d986;}.cls-8,.cls-9{fill:none;}.cls-8{stroke:#eaf0ba;stroke-miterlimit:10;}.cls-10,.cls-8,.cls-9{stroke-linecap:round;stroke-width:30px;}.cls-10,.cls-9{stroke:#231f20;stroke-linejoin:round;}.cls-10{fill:#ee7778;}</style></defs><g id="Layer_2" data-name="Layer 2"><g id="Layer_1-2" data-name="Layer 1"><g id="_2" data-name="2"><path class="cls-1" d="M954.24,706.64a202.85,202.85,0,0,0-16.33-74.33c-4.42-10.29-14-21.24-17.06-31.64-2.41-8.26,5.49-23.29,7.85-32.18q4.71-17.7,7.95-35.75a443.51,443.51,0,0,0,6.85-70.41c1.6-90.85-25.29-180.87-75.5-256.51C766.89,53.48,579.5-28.23,399.38,8.89,223.22,45.18,79.4,189,43.35,365.23a446.84,446.84,0,0,0-6.82,133.51c.9,9.11,5.15,22.45,2.45,30.85-3.72,11.57-13,23.17-17.92,34.56A261.68,261.68,0,0,0,6.54,608.5C-11.82,687.92,9.17,772.67,61,835.36c54.8,66.25,139.81,103.77,225.81,96.84a262.77,262.77,0,0,0,99.46-28.64c8.13-4.21,8.25-6.08,12.91.94,2.67,4,4.84,8.53,7.18,12.76,3.67,6.64,7.28,13.31,10.76,20,2.67,5.16,18,40.23,17.33,57-.71,17.58,3.29,26.4,20.1,34,27.74,12.51,74.71,13.68,100.23-5.14,8.83-6.51,10.08-13.87,10.92-24.36.48-6,1.8-7.61,5.3-12.94,13.42-20.43,30-37.49,43.44-57.92,6.3-9.6,39.62-37.74,39.62-37.74A49.84,49.84,0,0,0,671,902.39a202.35,202.35,0,0,0,93.4,14.87C871.37,908.88,957.12,814.05,954.24,706.64Z"/><path class="cls-2" d="M468.88,1008.13s6.16,8.1,31.38,8.1,31.13-8.1,31.13-8.1l-.37-9.88,130.33-138h-10L526.73,962.55l1-198.47-38.55,6.42c-5.71,45-18.44,178.48-18.44,178.48L371.43,811.59H359.29s108.9,126.69,110.33,159.53C469.94,978.61,469.6,992,468.88,1008.13Z"/><path class="cls-3" d="M459.22,1006.73l17.94,6.25c-1.09-27.51-2.14-58.47.13-76.13,6.61-51.4,19.07-44.27,34.78-23.56s3.86,95.53,19.25,93.1l-.3-8.14L676.43,843.73h-10L526.73,962.55l1-198.47-38.55,6.42c-5.71,45-18.44,148.57-18.44,148.57L371.43,811.59H359.29s97.83,122,99.26,154.81C458.88,973.89,459.94,990.57,459.22,1006.73Z"/><path class="cls-4" d="M265.86,421c-134.1,0-246,111.9-246,246s111.9,246,246,246,246-111.9,246-246S400,421,265.86,421Z"/><path class="cls-5" d="M302,876.87c-134.11,0-246-111.9-246-246,0-58,21-111.82,55.57-154.26C55.92,522,19.86,590.94,19.86,667c0,134.11,111.9,246,246,246,76.11,0,145-36.06,190.43-91.74C413.86,855.91,360,876.87,302,876.87Z"/><circle class="cls-4" cx="488.96" cy="454.41" r="434.63" transform="translate(-178.1 478.84) rotate(-45)"/><path class="cls-6" d="M489,52.41c231.45,0,425.49,188.69,434.31,418.31q.32-8.13.31-16.31C923.58,217.48,725.87,19.78,489,19.78S54.33,217.48,54.33,454.41q0,8.19.32,16.31C63.46,241.1,257.5,52.41,489,52.41Z"/><path class="cls-5" d="M489,821.52c-225.56,0-415.44-179.23-433.14-400.87-.9,11.16-1.49,22.4-1.49,33.76C54.33,691.33,252,889,489,889s434.62-197.7,434.62-434.62c0-11.36-.59-22.6-1.48-33.76C904.39,642.29,714.51,821.52,489,821.52Z"/><circle class="cls-4" cx="748.61" cy="712.17" r="185.71" transform="translate(-284.32 737.94) rotate(-45)"/><path class="cls-5" d="M914.77,630.28a180.92,180.92,0,0,1,3.47,35.09c0,101.24-84.48,185.71-185.71,185.71-72,0-135.46-42.73-166.16-103.82,16.79,84.93,93,150.62,182.24,150.62,101.24,0,185.71-84.48,185.71-185.71A182,182,0,0,0,914.77,630.28Z"/><path class="cls-7" d="M477.29,303.66c-15.55,0-15.55,24.12,0,24.12S492.84,303.66,477.29,303.66Z"/><path class="cls-7" d="M332.59,406.57c-15.55,0-15.55,24.12,0,24.12S348.14,406.57,332.59,406.57Z"/><path class="cls-7" d="M413,551.28c-15.56,0-15.56,24.11,0,24.11S428.53,551.28,413,551.28Z"/><path class="cls-7" d="M564.12,522.33c-15.55,0-15.55,24.12,0,24.12S579.68,522.33,564.12,522.33Z"/><path class="cls-7" d="M458,416.21c-15.55,0-15.55,24.12,0,24.12S473.55,416.21,458,416.21Z"/><path class="cls-7" d="M284.35,496.61h-6.43a12.06,12.06,0,1,0,0,24.12h6.43a12.06,12.06,0,1,0,0-24.12Z"/><path class="cls-7" d="M683.1,400.13c-15.55,0-15.55,24.12,0,24.12S698.66,400.13,683.1,400.13Z"/><path class="cls-7" d="M683.1,258.64c-15.55,0-15.55,24.12,0,24.12S698.66,258.64,683.1,258.64Z"/><path class="cls-7" d="M406.55,220.05c-15.55,0-15.55,24.12,0,24.12S422.1,220.05,406.55,220.05Z"/><path class="cls-7" d="M252.19,345.46c-15.55,0-15.55,24.12,0,24.12S267.74,345.46,252.19,345.46Z"/><path class="cls-7" d="M310.08,239.35c-15.56,0-15.56,24.12,0,24.12S325.63,239.35,310.08,239.35Z"/><path class="cls-7" d="M384,310.09c-15.55,0-15.55,24.12,0,24.12S399.59,310.09,384,310.09Z"/><path class="cls-7" d="M155.31,506.67c-15.55,0-15.55,24.12,0,24.12S170.86,506.67,155.31,506.67Z"/><path class="cls-7" d="M155.31,768c-15.55,0-15.55,24.12,0,24.12S170.86,768,155.31,768Z"/><path class="cls-7" d="M316.94,699.6c-15.55,0-15.55,24.11,0,24.11S332.49,699.6,316.94,699.6Z"/><path class="cls-7" d="M833,719.69c-15.55,0-15.55,24.12,0,24.12S848.6,719.69,833,719.69Z"/><path class="cls-7" d="M710.85,687.53c-15.56,0-15.56,24.12,0,24.12S726.39,687.53,710.85,687.53Z"/><path class="cls-7" d="M723.7,748.63c-15.55,0-15.55,24.12,0,24.12S739.26,748.63,723.7,748.63Z"/><path class="cls-7" d="M788,674.67c-15.55,0-15.55,24.12,0,24.12S803.57,674.67,788,674.67Z"/><path class="cls-7" d="M689.53,615.59c-15.55,0-15.55,24.12,0,24.12S705.09,615.59,689.53,615.59Z"/><path class="cls-7" d="M612.36,422.64c-15.56,0-15.56,24.12,0,24.12S627.91,422.64,612.36,422.64Z"/><path class="cls-7" d="M609.14,274.72c-15.56,0-15.56,24.12,0,24.12S624.69,274.72,609.14,274.72Z"/><path class="cls-7" d="M557.69,181.46c-15.56,0-15.56,24.12,0,24.12S573.24,181.46,557.69,181.46Z"/><path class="cls-7" d="M557.69,361.54c-15.56,0-15.56,24.12,0,24.12S573.24,361.54,557.69,361.54Z"/><path class="cls-7" d="M808.52,364.76c-15.56,0-15.56,24.12,0,24.12S824.07,364.76,808.52,364.76Z"/><path class="cls-7" d="M760.28,522.33c-15.56,0-15.56,24.12,0,24.12S775.83,522.33,760.28,522.33Z"/><path class="cls-7" d="M445.14,660.61c-15.55,0-15.55,24.12,0,24.12S460.69,660.61,445.14,660.61Z"/><path class="cls-7" d="M322.94,602.73c-15.55,0-15.55,24.11,0,24.11S338.49,602.73,322.94,602.73Z"/><path class="cls-7" d="M589.85,605.94c-15.56,0-15.56,24.12,0,24.12S605.4,605.94,589.85,605.94Z"/><path class="cls-8" d="M645.6,162.4s83.62,23.31,132.95,112.32"/><path class="cls-8" d="M804.12,334.61s11,36.87,8.37,84.42"/></g><circle class="cls-1" cx="329.16" cy="336.6" r="50" transform="translate(-137.75 276.27) rotate(-38.28)"/><circle class="cls-1" cx="641.16" cy="286.59" r="50" transform="translate(-60.9 268.36) rotate(-22.6)"/><path class="cls-9" d="M342.16,866.6s102,33.6,126,91.8,33,118.2,33,118.2l101-16"/><path class="cls-9" d="M613.16,828.55s102,33.61,126,91.8,33,118.2,33,118.2l101-16"/><path class="cls-9" d="M350.6,425.9s55.87,75.43,174.59,47.49,122.15-99.16,122.15-99.16"/><path class="cls-10" d="M571.65,574.6s-99.49-79.34-155.83-18c-58,63.19,86,218.72,206,226.22,0,0,72-68.16,105.66-138.19S746.33,493.55,689,484.22,571.65,574.6,571.65,574.6Z"/><circle class="cls-1" cx="706.96" cy="616.6" r="50" transform="translate(-229.98 570.51) rotate(-38.28)"/><path class="cls-9" d="M707,616.6s52.2,86,102.2,70,64-108,64-108"/><circle class="cls-1" cx="441.16" cy="686.6" r="50" transform="translate(-330.49 420.9) rotate(-38.28)"/><path class="cls-9" d="M159.16,656.6s-20,102,66,118,216-94,216-94"/></g></g></svg>