<svg width="354" height="218" viewBox="0 0 354 218" fill="none" xmlns="http://www.w3.org/2000/svg">
<path fill-rule="evenodd" clip-rule="evenodd" d="M202.966 3.75862C202.966 5.83445 201.283 7.51724 199.207 7.51724C197.131 7.51724 195.448 5.83445 195.448 3.75862C195.448 1.68279 197.131 0 199.207 0C201.283 0 202.966 1.68279 202.966 3.75862ZM323.241 33.8276C323.241 35.9034 321.559 37.5862 319.483 37.5862C317.407 37.5862 315.724 35.9034 315.724 33.8276C315.724 31.7518 317.407 30.069 319.483 30.069C321.559 30.069 323.241 31.7518 323.241 33.8276ZM199.207 37.5862C201.283 37.5862 202.966 35.9034 202.966 33.8276C202.966 31.7518 201.283 30.069 199.207 30.069C197.131 30.069 195.448 31.7518 195.448 33.8276C195.448 35.9034 197.131 37.5862 199.207 37.5862ZM229.276 37.5862C231.352 37.5862 233.035 35.9034 233.035 33.8276C233.035 31.7518 231.352 30.069 229.276 30.069C227.2 30.069 225.518 31.7518 225.518 33.8276C225.518 35.9034 227.2 37.5862 229.276 37.5862ZM263.104 33.8276C263.104 35.9034 261.421 37.5862 259.345 37.5862C257.269 37.5862 255.586 35.9034 255.586 33.8276C255.586 31.7518 257.269 30.069 259.345 30.069C261.421 30.069 263.104 31.7518 263.104 33.8276ZM289.414 37.5862C291.49 37.5862 293.173 35.9034 293.173 33.8276C293.173 31.7518 291.49 30.069 289.414 30.069C287.338 30.069 285.655 31.7518 285.655 33.8276C285.655 35.9034 287.338 37.5862 289.414 37.5862ZM349.552 37.5862C351.627 37.5862 353.31 35.9034 353.31 33.8276C353.31 31.7518 351.627 30.069 349.552 30.069C347.476 30.069 345.793 31.7518 345.793 33.8276C345.793 35.9034 347.476 37.5862 349.552 37.5862ZM229.276 7.51724C231.352 7.51724 233.035 5.83445 233.035 3.75862C233.035 1.68279 231.352 0 229.276 0C227.2 0 225.518 1.68279 225.518 3.75862C225.518 5.83445 227.2 7.51724 229.276 7.51724ZM263.104 3.75862C263.104 5.83445 261.421 7.51724 259.345 7.51724C257.269 7.51724 255.586 5.83445 255.586 3.75862C255.586 1.68279 257.269 0 259.345 0C261.421 0 263.104 1.68279 263.104 3.75862ZM289.414 7.51724C291.49 7.51724 293.173 5.83445 293.173 3.75862C293.173 1.68279 291.49 0 289.414 0C287.338 0 285.655 1.68279 285.655 3.75862C285.655 5.83445 287.338 7.51724 289.414 7.51724ZM323.241 3.75862C323.241 5.83445 321.559 7.51724 319.483 7.51724C317.407 7.51724 315.724 5.83445 315.724 3.75862C315.724 1.68279 317.407 0 319.483 0C321.559 0 323.241 1.68279 323.241 3.75862ZM349.552 7.51724C351.627 7.51724 353.31 5.83445 353.31 3.75862C353.31 1.68279 351.627 0 349.552 0C347.476 0 345.793 1.68279 345.793 3.75862C345.793 5.83445 347.476 7.51724 349.552 7.51724ZM33.8276 37.5862C35.9034 37.5862 37.5862 35.9034 37.5862 33.8276C37.5862 31.7518 35.9034 30.069 33.8276 30.069C31.7517 30.069 30.0689 31.7518 30.0689 33.8276C30.0689 35.9034 31.7517 37.5862 33.8276 37.5862ZM3.75862 37.5862C5.83445 37.5862 7.51724 35.9034 7.51724 33.8276C7.51724 31.7518 5.83445 30.069 3.75862 30.069C1.68279 30.069 0 31.7518 0 33.8276C0 35.9034 1.68279 37.5862 3.75862 37.5862ZM67.6549 33.8276C67.6549 35.9034 65.9721 37.5862 63.8963 37.5862C61.8205 37.5862 60.1377 35.9034 60.1377 33.8276C60.1377 31.7518 61.8205 30.069 63.8963 30.069C65.9721 30.069 67.6549 31.7518 67.6549 33.8276ZM93.9657 37.5862C96.0415 37.5862 97.7243 35.9034 97.7243 33.8276C97.7243 31.7518 96.0415 30.069 93.9657 30.069C91.8898 30.069 90.207 31.7518 90.207 33.8276C90.207 35.9034 91.8898 37.5862 93.9657 37.5862ZM127.793 33.8276C127.793 35.9034 126.11 37.5862 124.034 37.5862C121.959 37.5862 120.276 35.9034 120.276 33.8276C120.276 31.7518 121.959 30.069 124.034 30.069C126.11 30.069 127.793 31.7518 127.793 33.8276ZM154.103 37.5862C156.179 37.5862 157.862 35.9034 157.862 33.8276C157.862 31.7518 156.179 30.069 154.103 30.069C152.028 30.069 150.345 31.7518 150.345 33.8276C150.345 35.9034 152.028 37.5862 154.103 37.5862ZM3.75864 7.51724C5.83447 7.51724 7.51726 5.83445 7.51726 3.75862C7.51726 1.68279 5.83447 0 3.75864 0C1.68281 0 2.10466e-05 1.68279 2.10466e-05 3.75862C2.10466e-05 5.83445 1.68281 7.51724 3.75864 7.51724ZM109 67.6552C111.076 67.6552 112.759 65.9724 112.759 63.8966C112.759 61.8207 111.076 60.1379 109 60.1379C106.924 60.1379 105.242 61.8207 105.242 63.8966C105.242 65.9724 106.924 67.6552 109 67.6552ZM22.5519 63.8966C22.5519 65.9724 20.8691 67.6552 18.7933 67.6552C16.7175 67.6552 15.0347 65.9724 15.0347 63.8966C15.0347 61.8207 16.7175 60.1379 18.7933 60.1379C20.8691 60.1379 22.5519 61.8207 22.5519 63.8966ZM109 97.7241C111.076 97.7241 112.759 96.0414 112.759 93.9655C112.759 91.8897 111.076 90.2069 109 90.2069C106.924 90.2069 105.242 91.8897 105.242 93.9655C105.242 96.0414 106.924 97.7241 109 97.7241ZM18.7933 97.7242C20.8692 97.7242 22.552 96.0414 22.552 93.9655C22.552 91.8897 20.8692 90.2069 18.7933 90.2069C16.7175 90.2069 15.0347 91.8897 15.0347 93.9655C15.0347 96.0414 16.7175 97.7242 18.7933 97.7242ZM48.8622 97.7242C50.938 97.7242 52.6208 96.0414 52.6208 93.9655C52.6208 91.8897 50.938 90.2069 48.8622 90.2069C46.7864 90.2069 45.1036 91.8897 45.1036 93.9655C45.1036 96.0414 46.7864 97.7242 48.8622 97.7242ZM82.6902 93.9655C82.6902 96.0414 81.0074 97.7242 78.9315 97.7242C76.8557 97.7242 75.1729 96.0414 75.1729 93.9655C75.1729 91.8897 76.8557 90.2069 78.9315 90.2069C81.0074 90.2069 82.6902 91.8897 82.6902 93.9655ZM142.828 93.9655C142.828 96.0414 141.145 97.7241 139.069 97.7241C136.993 97.7241 135.311 96.0414 135.311 93.9655C135.311 91.8897 136.993 90.2069 139.069 90.2069C141.145 90.2069 142.828 91.8897 142.828 93.9655ZM169.139 97.7242C171.214 97.7242 172.897 96.0414 172.897 93.9655C172.897 91.8897 171.214 90.2069 169.139 90.2069C167.063 90.2069 165.38 91.8897 165.38 93.9655C165.38 96.0414 167.063 97.7242 169.139 97.7242ZM48.8622 67.6552C50.938 67.6552 52.6208 65.9724 52.6208 63.8966C52.6208 61.8207 50.938 60.1379 48.8622 60.1379C46.7863 60.1379 45.1035 61.8207 45.1035 63.8966C45.1035 65.9724 46.7863 67.6552 48.8622 67.6552ZM82.6901 63.8966C82.6901 65.9724 81.0073 67.6552 78.9315 67.6552C76.8557 67.6552 75.1729 65.9724 75.1729 63.8966C75.1729 61.8207 76.8557 60.1379 78.9315 60.1379C81.0073 60.1379 82.6901 61.8207 82.6901 63.8966ZM142.828 63.8966C142.828 65.9724 141.145 67.6552 139.069 67.6552C136.993 67.6552 135.311 65.9724 135.311 63.8966C135.311 61.8207 136.993 60.1379 139.069 60.1379C141.145 60.1379 142.828 61.8207 142.828 63.8966ZM169.139 67.6552C171.214 67.6552 172.897 65.9724 172.897 63.8966C172.897 61.8207 171.214 60.1379 169.139 60.1379C167.063 60.1379 165.38 61.8207 165.38 63.8966C165.38 65.9724 167.063 67.6552 169.139 67.6552ZM33.8276 7.51724C35.9034 7.51724 37.5862 5.83445 37.5862 3.75862C37.5862 1.68279 35.9034 0 33.8276 0C31.7518 0 30.069 1.68279 30.069 3.75862C30.069 5.83445 31.7518 7.51724 33.8276 7.51724ZM323.241 63.8966C323.241 65.9724 321.559 67.6552 319.483 67.6552C317.407 67.6552 315.724 65.9724 315.724 63.8966C315.724 61.8207 317.407 60.1379 319.483 60.1379C321.559 60.1379 323.241 61.8207 323.241 63.8966ZM202.966 63.8966C202.966 65.9724 201.283 67.6552 199.207 67.6552C197.131 67.6552 195.448 65.9724 195.448 63.8966C195.448 61.8207 197.131 60.1379 199.207 60.1379C201.283 60.1379 202.966 61.8207 202.966 63.8966ZM323.241 93.9655C323.241 96.0414 321.559 97.7241 319.483 97.7241C317.407 97.7241 315.724 96.0414 315.724 93.9655C315.724 91.8897 317.407 90.2069 319.483 90.2069C321.559 90.2069 323.241 91.8897 323.241 93.9655ZM199.207 97.7242C201.283 97.7242 202.966 96.0414 202.966 93.9655C202.966 91.8897 201.283 90.2069 199.207 90.2069C197.131 90.2069 195.448 91.8897 195.448 93.9655C195.448 96.0414 197.131 97.7242 199.207 97.7242ZM229.276 97.7242C231.352 97.7242 233.035 96.0414 233.035 93.9655C233.035 91.8897 231.352 90.2069 229.276 90.2069C227.2 90.2069 225.518 91.8897 225.518 93.9655C225.518 96.0414 227.2 97.7242 229.276 97.7242ZM263.104 93.9655C263.104 96.0414 261.421 97.7242 259.345 97.7242C257.269 97.7242 255.586 96.0414 255.586 93.9655C255.586 91.8897 257.269 90.2069 259.345 90.2069C261.421 90.2069 263.104 91.8897 263.104 93.9655ZM289.414 97.7242C291.49 97.7242 293.173 96.0414 293.173 93.9655C293.173 91.8897 291.49 90.2069 289.414 90.2069C287.338 90.2069 285.655 91.8897 285.655 93.9655C285.655 96.0414 287.338 97.7242 289.414 97.7242ZM349.552 97.7242C351.627 97.7242 353.31 96.0414 353.31 93.9655C353.31 91.8897 351.627 90.2069 349.552 90.2069C347.476 90.2069 345.793 91.8897 345.793 93.9655C345.793 96.0414 347.476 97.7242 349.552 97.7242ZM229.276 67.6552C231.352 67.6552 233.035 65.9724 233.035 63.8966C233.035 61.8207 231.352 60.1379 229.276 60.1379C227.2 60.1379 225.518 61.8207 225.518 63.8966C225.518 65.9724 227.2 67.6552 229.276 67.6552ZM263.104 63.8966C263.104 65.9724 261.421 67.6552 259.345 67.6552C257.269 67.6552 255.586 65.9724 255.586 63.8966C255.586 61.8207 257.269 60.1379 259.345 60.1379C261.421 60.1379 263.104 61.8207 263.104 63.8966ZM289.414 67.6552C291.49 67.6552 293.173 65.9724 293.173 63.8966C293.173 61.8207 291.49 60.1379 289.414 60.1379C287.338 60.1379 285.655 61.8207 285.655 63.8966C285.655 65.9724 287.338 67.6552 289.414 67.6552ZM349.552 67.6552C351.627 67.6552 353.31 65.9724 353.31 63.8966C353.31 61.8207 351.627 60.1379 349.552 60.1379C347.476 60.1379 345.793 61.8207 345.793 63.8966C345.793 65.9724 347.476 67.6552 349.552 67.6552ZM63.8963 7.51724C65.9722 7.51724 67.655 5.83445 67.655 3.75862C67.655 1.68279 65.9722 0 63.8963 0C61.8205 0 60.1377 1.68279 60.1377 3.75862C60.1377 5.83445 61.8205 7.51724 63.8963 7.51724ZM97.7243 3.75862C97.7243 5.83445 96.0415 7.51724 93.9657 7.51724C91.8898 7.51724 90.2071 5.83445 90.2071 3.75862C90.2071 1.68279 91.8898 0 93.9657 0C96.0415 0 97.7243 1.68279 97.7243 3.75862ZM124.034 7.51724C126.11 7.51724 127.793 5.83445 127.793 3.75862C127.793 1.68279 126.11 0 124.034 0C121.959 0 120.276 1.68279 120.276 3.75862C120.276 5.83445 121.959 7.51724 124.034 7.51724ZM157.862 3.75862C157.862 5.83445 156.179 7.51724 154.103 7.51724C152.028 7.51724 150.345 5.83445 150.345 3.75862C150.345 1.68279 152.028 0 154.103 0C156.179 0 157.862 1.68279 157.862 3.75862Z" fill="#42E0D1"/>
<path fill-rule="evenodd" clip-rule="evenodd" d="M323.241 124.034C323.241 126.11 321.559 127.793 319.483 127.793C317.407 127.793 315.724 126.11 315.724 124.034C315.724 121.959 317.407 120.276 319.483 120.276C321.559 120.276 323.241 121.959 323.241 124.034ZM202.966 124.035C202.966 126.11 201.283 127.793 199.207 127.793C197.131 127.793 195.448 126.11 195.448 124.035C195.448 121.959 197.131 120.276 199.207 120.276C201.283 120.276 202.966 121.959 202.966 124.035ZM323.241 154.103C323.241 156.179 321.559 157.862 319.483 157.862C317.407 157.862 315.724 156.179 315.724 154.103C315.724 152.028 317.407 150.345 319.483 150.345C321.559 150.345 323.241 152.028 323.241 154.103ZM199.207 157.862C201.283 157.862 202.966 156.179 202.966 154.103C202.966 152.028 201.283 150.345 199.207 150.345C197.131 150.345 195.448 152.028 195.448 154.103C195.448 156.179 197.131 157.862 199.207 157.862ZM229.276 157.862C231.352 157.862 233.035 156.179 233.035 154.103C233.035 152.028 231.352 150.345 229.276 150.345C227.2 150.345 225.518 152.028 225.518 154.103C225.518 156.179 227.2 157.862 229.276 157.862ZM263.104 154.103C263.104 156.179 261.421 157.862 259.345 157.862C257.269 157.862 255.586 156.179 255.586 154.103C255.586 152.028 257.269 150.345 259.345 150.345C261.421 150.345 263.104 152.028 263.104 154.103ZM289.414 157.862C291.49 157.862 293.173 156.179 293.173 154.103C293.173 152.028 291.49 150.345 289.414 150.345C287.338 150.345 285.655 152.028 285.655 154.103C285.655 156.179 287.338 157.862 289.414 157.862ZM349.552 157.862C351.627 157.862 353.31 156.179 353.31 154.103C353.31 152.028 351.627 150.345 349.552 150.345C347.476 150.345 345.793 152.028 345.793 154.103C345.793 156.179 347.476 157.862 349.552 157.862ZM229.276 127.793C231.352 127.793 233.035 126.11 233.035 124.035C233.035 121.959 231.352 120.276 229.276 120.276C227.2 120.276 225.518 121.959 225.518 124.035C225.518 126.11 227.2 127.793 229.276 127.793ZM263.104 124.035C263.104 126.11 261.421 127.793 259.345 127.793C257.269 127.793 255.586 126.11 255.586 124.035C255.586 121.959 257.269 120.276 259.345 120.276C261.421 120.276 263.104 121.959 263.104 124.035ZM289.414 127.793C291.49 127.793 293.173 126.11 293.173 124.035C293.173 121.959 291.49 120.276 289.414 120.276C287.338 120.276 285.655 121.959 285.655 124.035C285.655 126.11 287.338 127.793 289.414 127.793ZM349.552 127.793C351.627 127.793 353.31 126.11 353.31 124.035C353.31 121.959 351.627 120.276 349.552 120.276C347.476 120.276 345.793 121.959 345.793 124.035C345.793 126.11 347.476 127.793 349.552 127.793ZM33.8276 157.862C35.9034 157.862 37.5862 156.179 37.5862 154.103C37.5862 152.028 35.9034 150.345 33.8276 150.345C31.7517 150.345 30.0689 152.028 30.0689 154.103C30.0689 156.179 31.7517 157.862 33.8276 157.862ZM3.75862 157.862C5.83445 157.862 7.51724 156.179 7.51724 154.103C7.51724 152.028 5.83445 150.345 3.75862 150.345C1.68279 150.345 0 152.028 0 154.103C0 156.179 1.68279 157.862 3.75862 157.862ZM67.6549 154.103C67.6549 156.179 65.9721 157.862 63.8963 157.862C61.8205 157.862 60.1377 156.179 60.1377 154.103C60.1377 152.028 61.8205 150.345 63.8963 150.345C65.9721 150.345 67.6549 152.028 67.6549 154.103ZM93.9657 157.862C96.0415 157.862 97.7243 156.179 97.7243 154.103C97.7243 152.028 96.0415 150.345 93.9657 150.345C91.8898 150.345 90.207 152.028 90.207 154.103C90.207 156.179 91.8898 157.862 93.9657 157.862ZM127.793 154.103C127.793 156.179 126.11 157.862 124.034 157.862C121.959 157.862 120.276 156.179 120.276 154.103C120.276 152.028 121.959 150.345 124.034 150.345C126.11 150.345 127.793 152.028 127.793 154.103ZM154.103 157.862C156.179 157.862 157.862 156.179 157.862 154.103C157.862 152.028 156.179 150.345 154.103 150.345C152.028 150.345 150.345 152.028 150.345 154.103C150.345 156.179 152.028 157.862 154.103 157.862ZM3.75864 127.793C5.83447 127.793 7.51726 126.11 7.51726 124.035C7.51726 121.959 5.83447 120.276 3.75864 120.276C1.68281 120.276 2.10466e-05 121.959 2.10466e-05 124.035C2.10466e-05 126.11 1.68281 127.793 3.75864 127.793ZM109 187.931C111.076 187.931 112.759 186.248 112.759 184.172C112.759 182.097 111.076 180.414 109 180.414C106.924 180.414 105.242 182.097 105.242 184.172C105.242 186.248 106.924 187.931 109 187.931ZM22.5519 184.172C22.5519 186.248 20.8691 187.931 18.7933 187.931C16.7175 187.931 15.0347 186.248 15.0347 184.172C15.0347 182.097 16.7175 180.414 18.7933 180.414C20.8691 180.414 22.5519 182.097 22.5519 184.172ZM109 218C111.076 218 112.759 216.317 112.759 214.241C112.759 212.166 111.076 210.483 109 210.483C106.924 210.483 105.242 212.166 105.242 214.241C105.242 216.317 106.924 218 109 218ZM18.7933 218C20.8692 218 22.552 216.317 22.552 214.241C22.552 212.166 20.8692 210.483 18.7933 210.483C16.7175 210.483 15.0347 212.166 15.0347 214.241C15.0347 216.317 16.7175 218 18.7933 218ZM48.8622 218C50.938 218 52.6208 216.317 52.6208 214.241C52.6208 212.166 50.938 210.483 48.8622 210.483C46.7864 210.483 45.1036 212.166 45.1036 214.241C45.1036 216.317 46.7864 218 48.8622 218ZM82.6902 214.241C82.6902 216.317 81.0074 218 78.9315 218C76.8557 218 75.1729 216.317 75.1729 214.241C75.1729 212.166 76.8557 210.483 78.9315 210.483C81.0074 210.483 82.6902 212.166 82.6902 214.241ZM142.828 214.241C142.828 216.317 141.145 218 139.069 218C136.993 218 135.311 216.317 135.311 214.241C135.311 212.166 136.993 210.483 139.069 210.483C141.145 210.483 142.828 212.166 142.828 214.241ZM169.139 218C171.214 218 172.897 216.317 172.897 214.241C172.897 212.166 171.214 210.483 169.139 210.483C167.063 210.483 165.38 212.166 165.38 214.241C165.38 216.317 167.063 218 169.139 218ZM48.8622 187.931C50.938 187.931 52.6208 186.248 52.6208 184.172C52.6208 182.097 50.938 180.414 48.8622 180.414C46.7863 180.414 45.1035 182.097 45.1035 184.172C45.1035 186.248 46.7863 187.931 48.8622 187.931ZM82.6901 184.172C82.6901 186.248 81.0073 187.931 78.9315 187.931C76.8557 187.931 75.1729 186.248 75.1729 184.172C75.1729 182.097 76.8557 180.414 78.9315 180.414C81.0073 180.414 82.6901 182.097 82.6901 184.172ZM142.828 184.172C142.828 186.248 141.145 187.931 139.069 187.931C136.993 187.931 135.311 186.248 135.311 184.172C135.311 182.097 136.993 180.414 139.069 180.414C141.145 180.414 142.828 182.097 142.828 184.172ZM169.139 187.931C171.214 187.931 172.897 186.248 172.897 184.172C172.897 182.097 171.214 180.414 169.139 180.414C167.063 180.414 165.38 182.097 165.38 184.172C165.38 186.248 167.063 187.931 169.139 187.931ZM33.8276 127.793C35.9034 127.793 37.5862 126.11 37.5862 124.034C37.5862 121.959 35.9034 120.276 33.8276 120.276C31.7518 120.276 30.069 121.959 30.069 124.034C30.069 126.11 31.7518 127.793 33.8276 127.793ZM323.241 184.172C323.241 186.248 321.559 187.931 319.483 187.931C317.407 187.931 315.724 186.248 315.724 184.172C315.724 182.097 317.407 180.414 319.483 180.414C321.559 180.414 323.241 182.097 323.241 184.172ZM202.966 184.172C202.966 186.248 201.283 187.931 199.207 187.931C197.131 187.931 195.448 186.248 195.448 184.172C195.448 182.097 197.131 180.414 199.207 180.414C201.283 180.414 202.966 182.097 202.966 184.172ZM323.241 214.241C323.241 216.317 321.559 218 319.483 218C317.407 218 315.724 216.317 315.724 214.241C315.724 212.166 317.407 210.483 319.483 210.483C321.559 210.483 323.241 212.166 323.241 214.241ZM199.207 218C201.283 218 202.966 216.317 202.966 214.241C202.966 212.166 201.283 210.483 199.207 210.483C197.131 210.483 195.448 212.166 195.448 214.241C195.448 216.317 197.131 218 199.207 218ZM229.276 218C231.352 218 233.035 216.317 233.035 214.241C233.035 212.166 231.352 210.483 229.276 210.483C227.2 210.483 225.518 212.166 225.518 214.241C225.518 216.317 227.2 218 229.276 218ZM263.104 214.241C263.104 216.317 261.421 218 259.345 218C257.269 218 255.586 216.317 255.586 214.241C255.586 212.166 257.269 210.483 259.345 210.483C261.421 210.483 263.104 212.166 263.104 214.241ZM289.414 218C291.49 218 293.173 216.317 293.173 214.241C293.173 212.166 291.49 210.483 289.414 210.483C287.338 210.483 285.655 212.166 285.655 214.241C285.655 216.317 287.338 218 289.414 218ZM349.552 218C351.627 218 353.31 216.317 353.31 214.241C353.31 212.166 351.627 210.483 349.552 210.483C347.476 210.483 345.793 212.166 345.793 214.241C345.793 216.317 347.476 218 349.552 218ZM229.276 187.931C231.352 187.931 233.035 186.248 233.035 184.172C233.035 182.097 231.352 180.414 229.276 180.414C227.2 180.414 225.518 182.097 225.518 184.172C225.518 186.248 227.2 187.931 229.276 187.931ZM263.104 184.172C263.104 186.248 261.421 187.931 259.345 187.931C257.269 187.931 255.586 186.248 255.586 184.172C255.586 182.097 257.269 180.414 259.345 180.414C261.421 180.414 263.104 182.097 263.104 184.172ZM289.414 187.931C291.49 187.931 293.173 186.248 293.173 184.172C293.173 182.097 291.49 180.414 289.414 180.414C287.338 180.414 285.655 182.097 285.655 184.172C285.655 186.248 287.338 187.931 289.414 187.931ZM349.552 187.931C351.627 187.931 353.31 186.248 353.31 184.172C353.31 182.097 351.627 180.414 349.552 180.414C347.476 180.414 345.793 182.097 345.793 184.172C345.793 186.248 347.476 187.931 349.552 187.931ZM63.8963 127.793C65.9722 127.793 67.655 126.11 67.655 124.035C67.655 121.959 65.9722 120.276 63.8963 120.276C61.8205 120.276 60.1377 121.959 60.1377 124.035C60.1377 126.11 61.8205 127.793 63.8963 127.793ZM97.7243 124.035C97.7243 126.11 96.0415 127.793 93.9657 127.793C91.8898 127.793 90.2071 126.11 90.2071 124.035C90.2071 121.959 91.8898 120.276 93.9657 120.276C96.0415 120.276 97.7243 121.959 97.7243 124.035ZM124.034 127.793C126.11 127.793 127.793 126.11 127.793 124.034C127.793 121.959 126.11 120.276 124.034 120.276C121.959 120.276 120.276 121.959 120.276 124.034C120.276 126.11 121.959 127.793 124.034 127.793ZM157.862 124.034C157.862 126.11 156.179 127.793 154.103 127.793C152.028 127.793 150.345 126.11 150.345 124.034C150.345 121.959 152.028 120.276 154.103 120.276C156.179 120.276 157.862 121.959 157.862 124.034Z" fill="#42E0D1"/>
</svg>
