<svg xmlns="http://www.w3.org/2000/svg" width="42" height="42" viewBox="0 0 42 42"><defs><style>.a{fill:none;opacity:0;}.b{fill:#fff;}</style></defs><g transform="translate(-236 -444)"><g transform="translate(236 444)"><path class="a" d="M0,0H42V42H0Z"/><path class="b" d="M5.258.875v1.75A.874.874,0,0,1,4.4,3.5H1.846A1.812,1.812,0,0,1,.008,1.907,1.747,1.747,0,0,1,.516.507,1.664,1.664,0,0,1,1.741,0H4.383A.877.877,0,0,1,5.258.875Z" transform="translate(32.28 22.995)"/><path class="b" d="M27.195,10.15a3.535,3.535,0,0,0-.945,3.465,3.814,3.814,0,0,0,3.727,2.66H31.5a1.755,1.755,0,0,1,1.75,1.75v.332a6.6,6.6,0,0,1-6.58,6.58H6.58A6.6,6.6,0,0,1,0,18.358V6.58A6.537,6.537,0,0,1,2.625,1.33,6.486,6.486,0,0,1,6.58,0H26.67a6.6,6.6,0,0,1,6.58,6.58v.77A1.755,1.755,0,0,1,31.5,9.1H29.715A3.488,3.488,0,0,0,27.195,10.15Z" transform="translate(4.287 12.058)"/><path class="b" d="M14.909,4.935a.722.722,0,0,1-.6,1.207L.874,6.125A.87.87,0,0,1,.261,4.638L3.1,1.785a6.169,6.169,0,0,1,8.68,0l3.063,3.1C14.856,4.9,14.891,4.918,14.909,4.935Z" transform="translate(13.441 3.5)"/></g></g></svg>