<svg xmlns="http://www.w3.org/2000/svg" width="24" height="24" viewBox="0 0 24 24"><defs><style>.a{fill:#0bab64;}.b{fill:none;opacity:0;}</style></defs><g transform="translate(-684 -444)"><path class="a" d="M9.869,4.7A6.026,6.026,0,0,1,4.7,9.872a5.938,5.938,0,0,1-4.28-1.1A1,1,0,0,1,.709,7,9.486,9.486,0,0,0,7.009.7a1,1,0,0,1,1.77-.29A6.019,6.019,0,0,1,9.869,4.7Z" transform="translate(696.051 456.048)"/><path class="a" d="M7.99,0a7.99,7.99,0,1,0,7.99,7.99A7.994,7.994,0,0,0,7.99,0Z" transform="translate(686 446)"/><path class="b" d="M0,0H24V24H0Z" transform="translate(684 444)"/></g></svg>