<?xml version="1.0" encoding="utf-8"?>
<!-- Generator: Adobe Illustrator 25.2.0, SVG Export Plug-In . SVG Version: 6.00 Build 0)  -->
<svg version="1.1" id="Layer_1" xmlns="http://www.w3.org/2000/svg" xmlns:xlink="http://www.w3.org/1999/xlink" x="0px" y="0px"
	 viewBox="0 0 512 512" style="enable-background:new 0 0 512 512;" xml:space="preserve">
<style type="text/css">
	.st0{fill:#10AC68;}
</style>
<path class="st0" d="M438.5,66.2l-128,64c-71,35.5-112.6,82.1-123.7,138.6c-15.7,80,42.5,169.8,61,177.5c2.6,1.1,5.4,1.7,8.2,1.7
	c142.5,0,234.7-75.3,234.7-192c0-142.7-19.2-177.5-27.6-185.7C456.6,63.8,446.7,62.1,438.5,66.2L438.5,66.2z M276.3,404.6
	c-0.5-75.7,45.6-143.9,116.1-171.6c10.9-4.5,16.1-17,11.6-27.9c-4.5-10.9-17-16.1-27.9-11.6c-0.2,0.1-0.4,0.2-0.6,0.2
	c-70.5,27.6-121.9,89.3-136.4,163.6c-11.4-25.2-15-53.3-10.5-80.6c8.5-42.7,42.4-79.1,100.9-108.3l107.3-53.7
	c9.1,46.5,12.8,93.9,11.2,141.2C448,342.7,382.7,398.3,276.3,404.6L276.3,404.6z"/>
<path class="st0" d="M182.5,168.5c10.5,5.3,23.4,1,28.6-9.6c5.3-10.5,1-23.4-9.6-28.6l-128-64c-8.2-4.1-18.1-2.5-24.6,4
	c-8.4,8.2-27.6,42.9-27.6,185.6c-1.5,77.4,47.1,146.9,120.2,172.2c10.9,4.5,23.4-0.7,27.8-11.6c4.5-10.9-0.7-23.4-11.6-27.8
	c-0.2-0.1-0.4-0.2-0.6-0.2C100.4,369.6,62.6,315.8,64,256c-1.7-47.3,2.1-94.7,11.2-141.2L182.5,168.5z"/>
</svg>
