<svg xmlns="http://www.w3.org/2000/svg" width="21" height="21" viewBox="0 0 21 21">
  <g id="_6100222344a9783fbdf5a4f2_Group_3004" data-name="6100222344a9783fbdf5a4f2_Group 3004" transform="translate(-0.152)">
    <path id="Path_7012" data-name="Path 7012" d="M10.652,21A10.5,10.5,0,1,0,.152,10.5,10.5,10.5,0,0,0,10.652,21ZM7.48,15.257H5.017a2.231,2.231,0,0,1-1.051-.113.7.7,0,0,1-.321-.552c-.012-.208.133-.461.422-.968h0L9.46,4.176c.294-.514.44-.771.627-.867a.706.706,0,0,1,.643,0c.187.1.334.352.628.866L12.6,6.346h0a3.115,3.115,0,0,1,.368.757,1.408,1.408,0,0,1,0,.653,3.114,3.114,0,0,1-.367.758L9.378,14.156a3.12,3.12,0,0,1-.474.711,1.411,1.411,0,0,1-.572.332A3.129,3.129,0,0,1,7.48,15.257Zm8.788,0H13.412a2.244,2.244,0,0,1-1.059-.114.7.7,0,0,1-.32-.556c-.01-.209.138-.463.435-.972l1.426-2.446c.293-.5.439-.754.625-.848a.706.706,0,0,1,.638,0c.186.094.332.345.626.847h0l1.43,2.446c.3.509.447.764.436.973a.7.7,0,0,1-.319.556A2.246,2.246,0,0,1,16.268,15.257Z" transform="translate(0)" fill="#fff"/>
  </g>
</svg>
