<svg xmlns="http://www.w3.org/2000/svg" width="24" height="24" viewBox="0 0 24 24"><defs><style>.a{fill:none;opacity:0;}.b{fill:#0bab64;}</style></defs><g transform="translate(-108 -636)"><path class="a" d="M0,0H24V24H0Z" transform="translate(108 636)"/><path class="b" d="M9.576,8.115H1.236c-1.18,0-1.59-.79-.9-1.75L4.506.525a1.034,1.034,0,0,1,1.8,0l4.17,5.84C11.166,7.325,10.756,8.115,9.576,8.115Z" transform="translate(114.594 637.945)"/><path class="b" d="M12.826,7.94H1.646c-1.58,0-2.12-1.05-1.19-2.33L4.446,0h5.58l3.99,5.61C14.946,6.89,14.406,7.94,12.826,7.94Z" transform="translate(112.764 646.06)"/><path class="b" d="M1.5,0V4a.755.755,0,0,1-.75.75A.755.755,0,0,1,0,4V0Z" transform="translate(119.25 654)"/></g></svg>