<?xml version="1.0" encoding="UTF-8"?>
<svg xmlns="http://www.w3.org/2000/svg" xmlns:xlink="http://www.w3.org/1999/xlink" width="24px" height="24px" viewBox="0 0 24 24" version="1.1">
<g id="surface1">
<path style=" stroke:none;fill-rule:nonzero;fill:rgb(100%,100%,100%);fill-opacity:1;" d="M 11.957031 3.050781 C 12.21875 3.050781 12.429688 2.839844 12.429688 2.578125 L 12.429688 0.472656 C 12.429688 0.210938 12.21875 0 11.957031 0 C 11.699219 0 11.484375 0.210938 11.484375 0.472656 L 11.484375 2.578125 C 11.484375 2.839844 11.699219 3.050781 11.957031 3.050781 Z M 11.957031 3.050781 "/>
<path style=" stroke:none;fill-rule:nonzero;fill:rgb(100%,100%,100%);fill-opacity:1;" d="M 23.496094 16.21875 L 22.664062 15.386719 C 22.367188 15.089844 21.972656 14.925781 21.550781 14.925781 C 21.28125 14.925781 21.023438 14.992188 20.792969 15.121094 L 19.222656 13.550781 L 19.296875 13.472656 C 19.9375 12.835938 19.933594 11.796875 19.296875 11.160156 C 19.070312 10.933594 18.785156 10.78125 18.476562 10.714844 C 18.519531 10.566406 18.542969 10.414062 18.542969 10.257812 C 18.542969 9.816406 18.371094 9.40625 18.0625 9.097656 C 17.835938 8.871094 17.550781 8.71875 17.242188 8.65625 C 17.285156 8.507812 17.304688 8.355469 17.304688 8.195312 C 17.304688 7.757812 17.136719 7.347656 16.828125 7.039062 C 16.59375 6.804688 16.308594 6.65625 16.003906 6.59375 C 16.167969 6.039062 16.027344 5.414062 15.59375 4.976562 C 15.230469 4.617188 14.734375 4.460938 14.257812 4.511719 L 11.144531 3.921875 C 10.671875 3.832031 10.078125 3.769531 9.703125 4.113281 C 9.679688 4.132812 9.65625 4.160156 9.632812 4.1875 C 9.050781 3.976562 8.375 4.101562 7.910156 4.566406 C 7.601562 4.875 7.429688 5.285156 7.429688 5.722656 C 7.429688 5.878906 7.453125 6.035156 7.496094 6.183594 C 7.1875 6.246094 6.902344 6.398438 6.675781 6.625 C 6.367188 6.933594 6.195312 7.34375 6.195312 7.78125 C 6.195312 7.941406 6.21875 8.09375 6.261719 8.242188 C 5.953125 8.304688 5.667969 8.457031 5.441406 8.683594 C 5.128906 8.992188 4.960938 9.40625 4.960938 9.84375 C 4.960938 10.179688 5.0625 10.5 5.246094 10.769531 C 5.011719 10.847656 4.796875 10.980469 4.617188 11.160156 C 3.980469 11.796875 3.980469 12.835938 4.617188 13.472656 L 4.695312 13.550781 L 3.121094 15.121094 C 2.539062 14.84375 1.820312 14.945312 1.335938 15.429688 L 0.503906 16.261719 C 0.207031 16.558594 0.0429688 16.953125 0.0429688 17.375 C 0.0429688 17.796875 0.207031 18.191406 0.503906 18.488281 L 1.542969 19.527344 C 1.726562 19.710938 2.027344 19.710938 2.210938 19.527344 C 2.394531 19.34375 2.394531 19.042969 2.210938 18.859375 L 1.167969 17.820312 C 1.050781 17.703125 0.984375 17.542969 0.984375 17.375 C 0.984375 17.203125 1.050781 17.046875 1.167969 16.929688 L 2.003906 16.097656 C 2.210938 15.886719 2.53125 15.859375 2.773438 16.003906 C 2.789062 16.027344 2.808594 16.050781 2.832031 16.074219 C 2.875 16.117188 2.917969 16.148438 2.96875 16.167969 L 7.753906 20.949219 C 7.777344 20.996094 7.808594 21.042969 7.847656 21.085938 C 7.886719 21.125 7.933594 21.15625 7.980469 21.179688 C 8.082031 21.292969 8.140625 21.4375 8.140625 21.59375 C 8.140625 21.765625 8.074219 21.921875 7.957031 22.039062 L 7.121094 22.871094 C 6.875 23.117188 6.476562 23.117188 6.230469 22.875 L 5.1875 21.832031 C 5.003906 21.648438 4.703125 21.648438 4.519531 21.832031 C 4.335938 22.015625 4.335938 22.316406 4.519531 22.5 L 5.5625 23.542969 C 5.871094 23.847656 6.273438 24 6.675781 24 C 7.078125 24 7.480469 23.847656 7.789062 23.542969 L 8.621094 22.707031 C 8.917969 22.410156 9.082031 22.015625 9.082031 21.59375 C 9.082031 21.292969 9 21.007812 8.84375 20.757812 L 10.613281 18.992188 C 10.613281 18.988281 10.617188 18.988281 10.617188 18.984375 C 10.820312 18.777344 11.386719 18.816406 11.929688 18.855469 C 12.316406 18.878906 12.75 18.910156 13.171875 18.863281 L 15.109375 20.796875 C 14.984375 21.027344 14.917969 21.285156 14.917969 21.554688 C 14.917969 21.972656 15.082031 22.367188 15.378906 22.664062 L 16.210938 23.5 C 16.507812 23.796875 16.902344 23.957031 17.324219 23.957031 C 17.746094 23.957031 18.140625 23.796875 18.4375 23.5 L 23.496094 18.445312 C 23.792969 18.148438 23.957031 17.753906 23.957031 17.332031 C 23.957031 16.910156 23.792969 16.515625 23.496094 16.21875 Z M 10.96875 4.847656 L 13.015625 5.234375 L 11.792969 6.460938 C 11.601562 6.371094 11.34375 6.199219 11.058594 5.925781 C 10.667969 5.554688 10.386719 5.125 10.363281 4.855469 C 10.359375 4.835938 10.359375 4.820312 10.359375 4.808594 C 10.421875 4.792969 10.585938 4.777344 10.96875 4.847656 Z M 8.578125 5.234375 C 8.816406 4.996094 9.1875 4.96875 9.457031 5.148438 C 9.609375 5.792969 10.15625 6.375 10.40625 6.609375 C 10.585938 6.785156 11.171875 7.308594 11.765625 7.453125 C 11.84375 7.566406 11.886719 7.703125 11.886719 7.847656 C 11.886719 8.035156 11.816406 8.207031 11.6875 8.335938 C 11.554688 8.46875 11.382812 8.539062 11.195312 8.539062 C 11.011719 8.539062 10.835938 8.46875 10.707031 8.335938 L 8.578125 6.210938 C 8.445312 6.082031 8.375 5.910156 8.375 5.722656 C 8.375 5.535156 8.445312 5.363281 8.578125 5.234375 Z M 7.34375 7.292969 C 7.472656 7.164062 7.648438 7.089844 7.832031 7.089844 C 8.019531 7.089844 8.191406 7.164062 8.324219 7.292969 L 10.039062 9.003906 C 10.308594 9.273438 10.308594 9.714844 10.039062 9.984375 C 9.910156 10.113281 9.734375 10.1875 9.546875 10.1875 C 9.359375 10.1875 9.1875 10.113281 9.054688 9.984375 L 7.753906 8.683594 C 7.753906 8.683594 7.75 8.679688 7.75 8.679688 L 7.34375 8.273438 C 7.210938 8.140625 7.140625 7.96875 7.140625 7.78125 C 7.140625 7.597656 7.210938 7.421875 7.34375 7.292969 Z M 6.105469 9.351562 C 6.238281 9.222656 6.410156 9.152344 6.597656 9.152344 C 6.78125 9.152344 6.957031 9.222656 7.085938 9.351562 L 8.390625 10.652344 C 8.519531 10.785156 8.589844 10.957031 8.589844 11.140625 C 8.589844 11.328125 8.519531 11.5 8.386719 11.632812 C 8.257812 11.761719 8.085938 11.832031 7.898438 11.832031 C 7.710938 11.832031 7.539062 11.761719 7.40625 11.632812 L 6.105469 10.332031 C 5.976562 10.203125 5.90625 10.027344 5.90625 9.84375 C 5.90625 9.65625 5.976562 9.484375 6.105469 9.351562 Z M 5.285156 11.828125 C 5.414062 11.695312 5.589844 11.625 5.777344 11.625 C 5.960938 11.625 6.136719 11.695312 6.265625 11.828125 L 6.742188 12.300781 C 6.871094 12.429688 6.941406 12.601562 6.941406 12.789062 C 6.941406 12.976562 6.871094 13.148438 6.738281 13.277344 C 6.609375 13.410156 6.4375 13.480469 6.25 13.480469 C 6.0625 13.480469 5.890625 13.410156 5.757812 13.277344 L 5.699219 13.21875 C 5.699219 13.21875 5.699219 13.21875 5.695312 13.214844 L 5.285156 12.804688 C 5.015625 12.535156 5.015625 12.097656 5.285156 11.828125 Z M 14.90625 17.191406 C 14.722656 17.007812 14.421875 17.007812 14.238281 17.191406 L 13.816406 17.613281 C 13.417969 18.011719 12.695312 17.960938 11.996094 17.910156 C 11.238281 17.859375 10.449219 17.804688 9.941406 18.328125 L 8.203125 20.0625 L 3.855469 15.722656 L 5.394531 14.183594 C 5.648438 14.339844 5.941406 14.425781 6.25 14.425781 C 6.6875 14.425781 7.101562 14.253906 7.40625 13.945312 C 7.714844 13.640625 7.886719 13.226562 7.886719 12.789062 C 7.886719 12.785156 7.886719 12.78125 7.886719 12.777344 C 7.890625 12.777344 7.894531 12.777344 7.898438 12.777344 C 8.335938 12.777344 8.746094 12.609375 9.054688 12.300781 C 9.363281 11.992188 9.535156 11.582031 9.535156 11.140625 C 9.535156 11.136719 9.535156 11.132812 9.535156 11.128906 C 9.539062 11.128906 9.542969 11.128906 9.546875 11.128906 C 9.984375 11.128906 10.398438 10.960938 10.707031 10.652344 C 11.027344 10.332031 11.1875 9.90625 11.183594 9.484375 C 11.1875 9.484375 11.191406 9.484375 11.195312 9.484375 C 11.636719 9.484375 12.046875 9.3125 12.355469 9.003906 C 12.664062 8.699219 12.832031 8.285156 12.832031 7.847656 C 12.832031 7.542969 12.75 7.25 12.59375 6.996094 L 13.941406 5.648438 C 14.042969 5.546875 14.167969 5.484375 14.296875 5.457031 C 14.3125 5.457031 14.324219 5.453125 14.339844 5.453125 C 14.546875 5.421875 14.765625 5.488281 14.925781 5.644531 C 15.195312 5.917969 15.195312 6.355469 14.925781 6.625 L 14.515625 7.035156 C 14.515625 7.035156 14.511719 7.035156 14.511719 7.039062 L 14.039062 7.511719 C 13.855469 7.695312 13.851562 7.992188 14.039062 8.179688 C 14.222656 8.363281 14.519531 8.363281 14.707031 8.179688 L 15.117188 7.765625 L 15.179688 7.703125 C 15.449219 7.4375 15.890625 7.4375 16.160156 7.707031 C 16.289062 7.835938 16.363281 8.011719 16.363281 8.195312 C 16.363281 8.382812 16.289062 8.554688 16.160156 8.683594 L 15.273438 9.570312 C 15.089844 9.753906 15.085938 10.054688 15.269531 10.238281 C 15.457031 10.421875 15.753906 10.421875 15.9375 10.238281 L 16.414062 9.765625 C 16.542969 9.636719 16.71875 9.566406 16.902344 9.566406 C 17.089844 9.566406 17.265625 9.636719 17.394531 9.765625 C 17.527344 9.898438 17.597656 10.070312 17.597656 10.257812 C 17.597656 10.441406 17.527344 10.617188 17.394531 10.746094 L 16.570312 11.570312 C 16.386719 11.753906 16.386719 12.054688 16.570312 12.238281 C 16.664062 12.328125 16.785156 12.375 16.90625 12.375 C 17.027344 12.375 17.148438 12.328125 17.238281 12.238281 L 17.640625 11.832031 C 17.644531 11.832031 17.648438 11.828125 17.648438 11.828125 C 17.78125 11.695312 17.953125 11.625 18.140625 11.625 C 18.324219 11.625 18.5 11.695312 18.628906 11.828125 C 18.898438 12.097656 18.898438 12.535156 18.628906 12.804688 L 17.566406 13.867188 C 17.382812 14.050781 17.382812 14.351562 17.566406 14.535156 C 17.660156 14.628906 17.78125 14.671875 17.902344 14.671875 C 18.023438 14.671875 18.144531 14.628906 18.234375 14.535156 L 18.554688 14.21875 L 20.082031 15.742188 L 15.734375 20.085938 L 14.175781 18.527344 C 14.285156 18.460938 14.386719 18.375 14.484375 18.28125 L 14.90625 17.859375 C 15.089844 17.675781 15.089844 17.378906 14.90625 17.191406 Z M 22.832031 17.777344 L 17.769531 22.832031 C 17.652344 22.949219 17.492188 23.015625 17.324219 23.015625 C 17.15625 23.015625 16.996094 22.949219 16.878906 22.832031 L 16.042969 21.996094 C 15.925781 21.878906 15.859375 21.722656 15.859375 21.554688 C 15.859375 21.382812 15.925781 21.226562 16.042969 21.109375 L 21.105469 16.054688 C 21.222656 15.9375 21.378906 15.871094 21.550781 15.871094 C 21.71875 15.871094 21.878906 15.9375 21.996094 16.054688 L 22.832031 16.886719 C 22.949219 17.003906 23.015625 17.164062 23.015625 17.332031 C 23.015625 17.5 22.949219 17.660156 22.832031 17.777344 Z M 22.832031 17.777344 "/>
<path style=" stroke:none;fill-rule:nonzero;fill:rgb(100%,100%,100%);fill-opacity:1;" d="M 5.691406 2.652344 C 5.78125 2.742188 5.902344 2.789062 6.023438 2.789062 C 6.144531 2.789062 6.265625 2.742188 6.355469 2.652344 C 6.542969 2.464844 6.542969 2.167969 6.355469 1.984375 L 4.636719 0.265625 C 4.453125 0.0820312 4.152344 0.0820312 3.96875 0.265625 C 3.785156 0.453125 3.785156 0.75 3.96875 0.933594 Z M 5.691406 2.652344 "/>
<path style=" stroke:none;fill-rule:nonzero;fill:rgb(100%,100%,100%);fill-opacity:1;" d="M 17.894531 2.789062 C 18.015625 2.789062 18.132812 2.742188 18.226562 2.652344 L 19.945312 0.933594 C 20.128906 0.75 20.128906 0.453125 19.945312 0.265625 C 19.761719 0.0820312 19.464844 0.0820312 19.277344 0.265625 L 17.558594 1.984375 C 17.375 2.167969 17.375 2.464844 17.558594 2.652344 C 17.652344 2.742188 17.773438 2.789062 17.894531 2.789062 Z M 17.894531 2.789062 "/>
<path style=" stroke:none;fill-rule:nonzero;fill:rgb(100%,100%,100%);fill-opacity:1;" d="M 2.945312 20.304688 C 2.761719 20.492188 2.765625 20.792969 2.949219 20.972656 L 2.953125 20.976562 C 3.042969 21.066406 3.164062 21.109375 3.28125 21.109375 C 3.402344 21.109375 3.527344 21.0625 3.617188 20.96875 C 3.800781 20.78125 3.796875 20.484375 3.613281 20.300781 C 3.425781 20.117188 3.128906 20.121094 2.945312 20.304688 Z M 2.945312 20.304688 "/>
<path style=" stroke:none;fill-rule:nonzero;fill:rgb(100%,100%,100%);fill-opacity:1;" d="M 16.058594 16.511719 C 16.132812 16.511719 16.203125 16.496094 16.273438 16.460938 C 16.503906 16.34375 16.597656 16.058594 16.480469 15.828125 C 16.363281 15.59375 16.082031 15.5 15.847656 15.617188 L 15.84375 15.621094 C 15.613281 15.738281 15.519531 16.019531 15.636719 16.253906 C 15.71875 16.417969 15.886719 16.511719 16.058594 16.511719 Z M 16.058594 16.511719 "/>
</g>
</svg>
