<svg width="423" height="159" viewBox="0 0 423 159" fill="none" xmlns="http://www.w3.org/2000/svg">
<g clip-path="url(#clip0_686_110)">
<path d="M252.804 41.337L254.694 46.8166C255.734 46.1917 258.853 45.2304 259.562 45.2304L257.908 41.337C255.797 41.8497 254.096 41.8497 252.804 41.337V41.337Z" fill="#FF9566"/>
<path d="M254.364 42.1541C253.939 41.9619 253.655 41.337 252.71 41.1448C249.875 40.5199 250.726 42.1061 250.442 42.4906C249.97 43.1155 248.268 43.2597 248.079 43.5481C247.607 44.2691 250.017 47.0569 250.773 47.7298C251.482 48.3547 254.222 47.874 255.593 46.2878C255.908 45.9033 255.498 44.5254 254.364 42.1541V42.1541Z" fill="#FF9566"/>
<path d="M250.158 43.1635C250.111 43.1635 247.89 43.6442 247.89 43.6923C247.418 44.3652 249.875 47.2011 250.584 47.874C251.056 48.3066 252.568 48.0663 253.797 47.5376C251.529 47.7779 250.962 46.9127 250.489 46.1437C249.686 45.0381 250.253 44.4133 250.158 43.1635V43.1635Z" fill="#FF9566"/>
<path d="M252.899 45.0381C253.938 45.2304 254.789 44.6536 255.309 43.9326C254.883 42.779 254.269 41.3851 252.71 41.1447C249.544 40.6641 250.725 42.1061 250.442 42.4906C250.253 42.7309 251.906 44.8458 252.899 45.0381Z" fill="#FF9566"/>
<path d="M248.788 43.3077C247.748 43.7403 246.661 44.1249 246.378 44.4133C246.094 44.6536 246.519 45.8552 247.086 45.8072C247.795 45.8072 249.78 44.8939 249.922 44.7017C250.016 44.5575 249.355 43.0674 248.788 43.3077Z" fill="#FF9566"/>
<path d="M250.489 44.7978C249.45 45.2304 248.41 45.663 248.126 45.9033C247.843 46.1436 248.221 47.3453 248.835 47.2972C249.544 47.2972 251.529 46.384 251.623 46.1917C251.765 46.0475 251.103 44.5574 250.489 44.7978Z" fill="#FF9566"/>
<path d="M249.733 41.8177C249.922 42.9713 250.063 44.1249 250.205 44.4613C250.394 44.7978 251.623 44.6536 251.764 44.0768C251.906 43.4039 251.481 41.1928 251.339 41.0486C251.197 40.9044 249.638 41.1928 249.733 41.8177V41.8177Z" fill="#FF9566"/>
<path d="M267.358 26.4845C266.224 37.684 262.491 39.7028 261.404 40.9525C260.365 42.2022 265.799 47.5376 267.216 46.2878C268.681 45.0381 272.272 39.4624 272.131 36.8668C272.005 35.1685 270.414 31.7077 267.358 26.4845V26.4845Z" fill="#FFBF4D"/>
<path d="M263.72 44.8459C265.043 46.0475 266.555 46.8646 267.216 46.2879C268.681 45.0381 272.272 39.4624 272.131 36.8669C272.036 35.7613 270.855 33.5503 269.532 31.3873C269.107 39.174 265.279 43.1155 263.72 44.8459V44.8459Z" fill="#FFA840"/>
<path d="M265.185 47.105C266.886 48.2105 268.445 46.384 269.107 44.942C269.721 43.4519 263.673 39.0779 262.161 39.174C261.184 39.2702 260.743 40.1834 260.838 41.9138C263.074 44.958 264.523 46.6884 265.185 47.105V47.105Z" fill="#F9E9B7"/>
<path d="M260.837 41.6254C260.837 41.7536 260.837 41.8497 260.837 41.9138C263.074 44.958 264.523 46.6884 265.184 47.105C266.885 48.2105 268.445 46.384 269.106 44.942C269.39 44.2691 268.303 43.0194 266.885 41.8658C266.224 43.3077 264.995 43.0194 263.294 41.9619C262.869 41.6735 261.687 42.6829 260.837 41.6254V41.6254Z" fill="#EAD496"/>
<path d="M255.734 41.5774C253.419 41.9619 252.001 44.4133 252.852 46.6243C261.357 48.5149 266.099 48.595 267.075 46.8647C268.02 45.1343 264.665 42.1061 262.633 41.289C261.357 40.7602 258.428 41.0967 255.734 41.5774V41.5774Z" fill="#FFB882"/>
<path d="M252.379 45.4226L252.852 46.6243C261.357 48.5149 266.098 48.595 267.075 46.8646C267.736 45.663 266.271 43.7884 264.618 42.4906C264.854 43.0193 264.854 43.5481 264.618 44.0287C263.436 46.0956 255.451 45.9033 252.379 45.4226V45.4226Z" fill="#FF9566"/>
<path d="M275.722 20.284C281.581 15.0447 281.25 10.19 278.179 7.1138C276.163 5.03093 273.69 4.88673 270.76 6.68121L275.722 20.284Z" fill="#7A3039"/>
<path d="M268.02 35.521C276.195 47.9702 266.981 51.9116 268.209 52.921L285.078 59.5541C291.599 56.8144 289.331 29.9934 282.385 25.5713C276.006 21.4856 271.895 22.1105 269.202 24.1773C267.075 25.8116 265.327 31.3873 268.02 35.521V35.521Z" fill="#FFBF4D"/>
<path d="M272.556 28.311C276.1 28.6475 280.542 24.5619 278.746 23.5525C276.761 22.495 274.556 22.7353 272.131 24.2735L272.556 28.311Z" fill="#F75C81"/>
<path d="M269.06 51.3829C268.351 52.1519 267.878 52.6326 268.209 52.921L285.078 59.5541C291.599 56.8144 289.331 29.9934 282.385 25.5713C281.881 25.2508 280.621 26.1641 278.605 28.3111C276.998 29.753 277.424 37.9243 276.431 41.7696C274.683 48.3066 275.014 50.3254 272.415 51.0464C271.186 51.3829 270.147 51.9116 269.06 51.3829V51.3829Z" fill="#FFA840"/>
<path d="M277.612 24.1773L277.282 17.1597L271.139 18.3133L271.186 25.3309C273.36 27.7022 275.502 27.3177 277.612 24.1773V24.1773Z" fill="#FFB882"/>
<path d="M279.833 52.3442C277.848 52.0077 269.248 51.6713 268.587 52.1519C267.783 52.7768 258.427 57.8718 257.577 58.9293C256.978 59.6342 255.718 68.6867 253.797 86.0867L254.316 86.3751L263.72 63.063C272.446 61.4287 277.171 60.2591 277.896 59.5541C279.313 58.1602 280.92 52.5365 279.833 52.3442V52.3442Z" fill="#542F36"/>
<path d="M269.154 55.6608C271.327 54.6033 273.926 52.969 274.493 51.9597C272.603 51.9597 268.87 51.9597 268.587 52.1519C268.114 52.5365 264.617 54.4591 261.688 56.2376C261.688 56.2696 261.688 56.2856 261.688 56.2856C262.16 57.247 266.177 57.1508 269.154 55.6608Z" fill="#633B41"/>
<path d="M285.881 54.9879C282.668 51.3348 274.446 52.1039 273.784 52.6326C273.028 53.2094 265.468 57.8718 264.712 58.9293C264.176 59.6343 263.688 68.6868 263.247 86.0868L264.286 86.6155L271.185 63.063C279.785 61.4287 284.416 60.2591 285.078 59.5542C286.401 58.1602 286.59 55.805 285.881 54.9879V54.9879Z" fill="#542F36"/>
<path d="M277.092 58.4967C281.061 57.247 283.944 55.5647 284.889 54.1227C281.297 51.479 274.351 52.1519 273.784 52.6326C273.028 53.2094 265.468 57.8718 264.712 58.9293C264.68 58.9613 264.664 58.9934 264.664 59.0254C266.555 60.2752 271.847 60.0829 277.092 58.4967V58.4967Z" fill="#633B41"/>
<path d="M253.135 48.2105C252.404 48.2105 251.812 48.1244 251.812 48.0182C251.812 47.912 252.404 47.826 253.135 47.826C253.866 47.826 254.458 47.912 254.458 48.0182C254.458 48.1244 253.866 48.2105 253.135 48.2105Z" fill="#42262A"/>
<path d="M257.86 48.3066C257.051 48.3066 256.396 48.2205 256.396 48.1144C256.396 48.0082 257.051 47.9221 257.86 47.9221C258.669 47.9221 259.325 48.0082 259.325 48.1144C259.325 48.2205 258.669 48.3066 257.86 48.3066Z" fill="#42262A"/>
<path d="M278.699 25.7155C277.801 28.4072 278.983 36.5785 275.958 45.2304C275.344 47.0088 281.392 50.3735 282.574 48.4989C283.755 46.6243 286.118 38.0204 285.929 35.3287C285.125 24.5138 279.361 23.7447 278.699 25.7155V25.7155Z" fill="#FFBF4D"/>
<path d="M279.03 48.4508C280.495 49.1237 282.007 49.0757 282.432 48.1624C283.661 45.6149 286.638 37.4436 286.496 35.2806C286.071 28.5994 283.33 26.3403 282.102 25.6193C283.519 26.9652 283.188 30.2818 283.33 34.6558C283.425 37.4917 280.4 46.3359 279.172 48.2585C279.14 48.3226 279.093 48.3867 279.03 48.4508V48.4508Z" fill="#FFA840"/>
<g style="mix-blend-mode:multiply" opacity="0.6">
<path d="M282.905 26.1961C282.999 26.1961 282.999 26.1 282.999 26.0519C282.81 25.8597 282.605 25.6994 282.385 25.5713C281.156 24.7702 280.006 24.1453 278.935 23.6967C278.872 23.6646 278.809 23.6166 278.746 23.5525C278.368 23.3602 277.974 23.216 277.565 23.1199L277.281 17.1597L275.013 17.5923C273.69 18.6017 272.367 19.8033 271.186 21.1972V23.0718C270.43 23.3602 269.768 23.7447 269.201 24.1773C268.949 24.4017 268.697 24.658 268.445 24.9464C265.61 29.8492 267.075 34.9923 270.477 35.0884C278.321 35.3287 279.124 27.7823 282.905 26.1961V26.1961Z" fill="#843131"/>
</g>
<path d="M267.453 10.142C265.279 14.0834 264.287 17.1276 264.476 19.2746C264.728 22.5431 264.255 26.7249 263.058 31.8199C268.918 31.9801 272.777 31.0508 274.635 29.0321C276.998 26.4845 276.573 19.9956 277.14 10.5746L267.453 10.142Z" fill="#914047"/>
<path d="M266.177 31.7238C269.012 31.4834 272.934 30.8586 274.635 29.0321C276.998 26.4845 276.573 19.9956 277.14 10.5746L274.872 10.0939C275.769 13.2663 276.006 21.1011 273.643 26.1481C271.989 29.6089 269.201 30.8105 266.177 31.7238Z" fill="#7A3039"/>
<path d="M268.729 5.23922C265.799 6.72928 265.563 15.5735 265.657 17.7845C265.705 20.0436 272.462 19.4188 273.123 18.2652C273.785 17.0635 275.108 12.2088 277.801 9.94972C279.361 8.60386 273.549 2.88397 268.729 5.23922V5.23922Z" fill="#FFB882"/>
<path d="M280.447 15.7177C282.715 14.2757 282.857 6.96962 279.36 4.7105C275.706 2.33923 273.769 2.46741 273.548 5.09504C276.95 6.63316 279.88 11.4879 279.691 14.7564C278.683 16.3586 278.935 16.679 280.447 15.7177Z" fill="#F9E9B7"/>
<path d="M279.691 14.7564C278.683 16.3586 278.935 16.679 280.448 15.7177C282.29 14.516 282.716 9.421 280.873 6.34476C280.259 7.35415 278.983 8.17128 277.376 8.41161C278.841 10.4304 279.786 12.8337 279.691 14.7564V14.7564Z" fill="#E5CF93"/>
<path d="M275.675 18.6497C276.21 19.3547 277.266 19.6591 278.841 19.563V18.2652L279.691 18.5055C279.912 17.1917 279.896 15.8779 279.644 14.5641C276.462 16.5829 275.139 17.9448 275.675 18.6497V18.6497Z" fill="#7A3039"/>
<path d="M276.998 18.3133C277.943 18.3133 280.164 16.9674 279.644 15.4293C279.124 13.9873 277.659 14.6122 276.525 16.2464C276.147 16.7751 275.06 18.3613 276.998 18.3133Z" fill="#FFB882"/>
<path d="M278.274 50.8061C280.069 51.479 283.377 50.6619 282.857 47.826C281.96 42.9232 277.093 42.6348 275.722 43.1636C274.84 43.516 274.588 44.7497 274.966 46.8647C276.478 49.2359 277.581 50.5497 278.274 50.8061V50.8061Z" fill="#F9E9B7"/>
<path d="M274.919 46.432C274.919 46.6243 274.935 46.7685 274.966 46.8646C276.478 49.2359 277.581 50.5497 278.274 50.8061C280.069 51.479 283.377 50.6619 282.857 47.826C282.527 45.9514 281.629 44.7978 280.542 44.0287C280.573 44.1569 280.605 44.2691 280.636 44.3652C281.156 47.2492 277.801 48.0663 276.006 47.3934C275.722 47.2972 275.297 46.9127 274.919 46.432Z" fill="#EAD496"/>
<path d="M262.396 44.6536L264.853 48.8354C274.052 50.6939 279.203 50.774 280.305 49.0757C281.392 47.3934 279.313 44.7497 276.95 43.8845C274.635 42.9713 265.704 44.221 262.396 44.6536Z" fill="#FFB882"/>
<path d="M264.476 48.2105L264.854 48.8354C274.619 51.0144 280.053 51.2547 281.156 49.5564C282.101 48.1144 280.069 45.663 278.037 44.4133C278.463 45.1823 278.604 45.9995 278.132 46.6724C276.809 48.7392 267.831 48.7392 264.476 48.2105V48.2105Z" fill="#FF9566"/>
<path d="M256.585 64.0724V78.0116C256.585 78.3481 256.821 78.6365 257.152 78.6365C257.482 78.6365 257.719 78.3481 257.719 78.0116V64.0724C257.719 63.7359 257.482 63.4956 257.152 63.4956C256.821 63.4956 256.585 63.7359 256.585 64.0724Z" fill="#492C34"/>
<path d="M277.282 17.8326C277.896 17.8326 279.455 16.9193 279.077 15.8138C278.699 14.8525 277.707 15.2851 276.904 16.3906C276.668 16.7751 275.911 17.8326 277.282 17.8326Z" fill="#D3583C"/>
<path d="M276.998 17.9287C277.423 17.9287 278.415 17.3519 278.179 16.6309C277.943 16.0061 277.281 16.2464 276.761 16.9674C276.62 17.2558 276.1 17.9287 276.998 17.9287Z" fill="#FFB882"/>
<path d="M267.311 6.87347C266.429 7.8348 265.515 8.13922 264.57 7.78673C267.027 9.66132 270.902 9.37292 272.509 6.39281C269.894 5.78397 268.162 5.94419 267.311 6.87347V6.87347Z" fill="#914047"/>
<path d="M275.911 10.142C277.202 10.4624 277.801 11.0072 277.706 11.7762C278.982 9.421 277.47 6.72928 273.737 6.53702C273.895 8.61989 274.619 9.82155 275.911 10.142V10.142Z" fill="#7A3039"/>
<path d="M278.179 9.61327C276.856 4.99891 272.745 1.77847 270.477 1.1536C268.208 0.576808 263.956 -0.769049 263.294 0.528741C262.885 1.36189 264.208 3.50885 267.263 6.96962C269.673 5.33537 273.548 6.63316 278.179 9.61327V9.61327Z" fill="#F75C81"/>
<path d="M267.075 6.72929C267.17 6.82542 267.233 6.90553 267.264 6.96962C267.705 6.68122 268.178 6.47293 268.682 6.34476C268.115 6.3768 267.579 6.50498 267.075 6.72929Z" fill="#DB426E"/>
<path d="M277.139 8.9884C277.486 9.18066 277.832 9.38895 278.179 9.61326C276.856 4.99889 272.745 1.77845 270.477 1.15359C268.586 0.672927 265.279 -0.336466 263.908 0.0961311C265.515 0.0480648 268.114 0.865192 269.72 1.24972C271.847 1.82652 275.627 4.75856 277.139 8.9884V8.9884Z" fill="#DB426E"/>
<path d="M266.555 15.4293C266.215 15.4293 265.94 14.9343 265.94 14.3238C265.94 13.7132 266.215 13.2182 266.555 13.2182C266.894 13.2182 267.169 13.7132 267.169 14.3238C267.169 14.9343 266.894 15.4293 266.555 15.4293Z" fill="#4F3131"/>
<path d="M268.729 12.4492C268.209 11.7763 266.792 18.9862 266.981 19.6591C267.044 19.8834 267.815 19.7392 269.296 19.2265C268.981 14.8044 268.792 12.5453 268.729 12.4492V12.4492Z" fill="#FFB882"/>
<path d="M266.744 19.8995C266.807 20.0917 267.611 19.8995 269.154 19.3227C269.154 19.2586 269.154 19.1945 269.154 19.1304C268.682 19.1785 267.17 19.8514 267.075 19.6111C266.886 19.0343 268.067 14.1315 268.54 12.6414C268.02 12.7376 266.555 19.2746 266.744 19.8995V19.8995Z" fill="#EF8F6F"/>
<path d="M270.666 15.4293C270.327 15.4293 270.052 14.9343 270.052 14.3238C270.052 13.7132 270.327 13.2182 270.666 13.2182C271.005 13.2182 271.28 13.7132 271.28 14.3238C271.28 14.9343 271.005 15.4293 270.666 15.4293Z" fill="#4F3131"/>
<path d="M269.768 11.3917C270.382 12.2088 272.981 11.8243 273.17 11.3436C273.406 10.8149 273.501 10.2862 272.934 10.0459C272.367 9.80552 269.91 9.22872 269.579 9.66132C269.248 10.0459 269.484 11.0072 269.768 11.3917Z" fill="#914047"/>
<path d="M268.114 9.61325C267.878 9.22872 266.082 9.80551 265.657 10.0458C265.232 10.3342 265.326 10.863 265.468 11.3917C265.657 11.8724 267.547 12.2569 268.02 11.3917C268.209 11.0072 268.398 10.0458 268.114 9.61325Z" fill="#914047"/>
<path d="M266.602 22.495C266.933 22.9276 268.54 23.216 269.249 23.0718C269.721 23.0077 270.068 22.1586 270.288 20.5243L266.13 20.3801C266.256 21.5337 266.413 22.2387 266.602 22.495V22.495Z" fill="#542A29"/>
<path d="M269.768 22.0143C269.925 21.5657 270.036 21.0851 270.099 20.5724L266.318 20.4282C266.381 20.9729 266.46 21.4376 266.555 21.8221L269.768 22.0143Z" fill="#FFF7E9"/>
</g>
<path d="M15.647 117.76C15.647 116.16 16.9749 114.832 18.5749 114.832C20.191 114.832 21.487 116.16 21.487 117.76V135.168H15.6309V117.76H15.647Z" fill="#566375"/>
<path d="M21.5037 135.168C19.5517 140.592 19.2957 147.424 20.7037 155.664C16.5117 151.216 14.8317 144.384 15.6637 135.168H21.5198H21.5037Z" fill="#EEFCFF"/>
<path d="M33.8877 117.76C33.8877 116.16 35.1997 114.832 36.8157 114.832C38.4317 114.832 39.7438 116.16 39.7438 117.76V135.168H33.8877V117.76Z" fill="#566375"/>
<path d="M39.7278 135.168C37.7758 140.592 37.5038 147.424 38.8957 155.664C34.7198 151.216 33.0398 144.384 33.8718 135.168H39.7278Z" fill="#EEFCFF"/>
<path d="M54.7041 117.76C54.7041 116.16 56.0161 114.832 57.6321 114.832C59.2481 114.832 60.5601 116.16 60.5601 117.76V135.168H54.7041V117.76Z" fill="#566375"/>
<path d="M60.5598 135.168C58.6078 140.592 58.3359 147.424 59.7279 155.664C55.5518 151.216 53.8718 144.384 54.7038 135.168H60.5598Z" fill="#EEFCFF"/>
<path d="M75.5361 117.76C75.5361 116.16 76.8321 114.832 78.4641 114.832C80.0801 114.832 81.3921 116.16 81.3921 117.76V135.168H75.5361V117.76Z" fill="#566375"/>
<path d="M81.3919 135.168C79.4399 140.592 79.1679 147.424 80.5599 155.664C76.3839 151.216 74.7038 144.384 75.5358 135.168H81.3919Z" fill="#EEFCFF"/>
<path d="M98.976 117.76C98.976 116.16 100.288 114.832 101.888 114.832C103.504 114.832 104.816 116.16 104.816 117.76V135.168H98.96V117.76H98.976Z" fill="#566375"/>
<path d="M104.815 135.168C102.863 140.592 102.591 147.424 103.983 155.664C99.8077 151.216 98.1277 144.384 98.9597 135.168H104.815Z" fill="#EEFCFF"/>
<path d="M110.048 124.8C110.048 126.352 108.784 127.6 107.232 127.6H3.56758C2.03158 127.6 0.767578 126.336 0.767578 124.8C0.767578 123.248 2.03158 121.984 3.56758 121.984H107.232C108.784 121.984 110.048 123.248 110.048 124.8Z" fill="#627184"/>
<path d="M112.656 124.8C112.656 126.352 111.488 127.6 110.032 127.6H12.7682C11.3282 127.6 10.1602 126.336 10.1602 124.8C10.1602 123.248 11.3282 121.984 12.7682 121.984H110.032C111.488 121.984 112.656 123.248 112.656 124.8Z" fill="#566375"/>
<path d="M288.784 128.64H8.5918V112.944H288.784V128.64Z" fill="#E29805"/>
<path d="M174.047 116.256H33.4072V67.68H174.047V116.256Z" fill="#E29805"/>
<path d="M53.3917 128.64H5.13574V112.944H53.3917V128.64Z" fill="#FFBE17"/>
<path d="M37.3274 116.256H17.0234V67.68H37.3274V116.256Z" fill="#FFBE17"/>
<path d="M138.271 105.936H65.0879V84.592H138.271V105.936Z" fill="#FFBE17"/>
<path d="M355.104 67.776L363.536 64.656L365.471 69.8879L357.04 72.96L355.104 67.76V67.776Z" fill="#212121"/>
<path d="M384.079 151.664L394.239 147.616L396.175 152.832L387.743 155.936L384.079 151.664Z" fill="#212121"/>
<path d="M418.287 89.808L421.407 98.224L416.159 100.16L413.071 91.744L418.287 89.824V89.808Z" fill="#212121"/>
<path d="M335.104 120.448L338.224 128.848L333.008 130.784L329.888 122.384L335.104 120.448Z" fill="#212121"/>
<path d="M391.295 65.728L399.455 69.488L397.103 74.528L388.943 70.784L391.295 65.728Z" fill="#212121"/>
<path d="M354.176 146.064L362.336 149.808L359.984 154.848L351.84 151.104L354.176 146.064Z" fill="#212121"/>
<path d="M420.304 125.904L416.56 134.032L411.488 131.728L415.248 123.568L420.304 125.904Z" fill="#212121"/>
<path d="M339.808 88.88L336.032 97.024L330.96 94.688L334.72 86.544L339.808 88.864V88.88Z" fill="#212121"/>
<path d="M407.056 74.976L413.2 81.552L409.12 85.344L402.992 78.768L407.056 74.976Z" fill="#212121"/>
<path d="M342.176 135.264L348.304 141.824L344.24 145.616L338.112 139.056L342.176 135.264Z" fill="#212121"/>
<path d="M411.04 141.632L404.464 147.744L400.656 143.664L407.248 137.568L411.04 141.632Z" fill="#212121"/>
<path d="M350.64 76.928L344.032 83.0399L340.24 78.976L346.816 72.864L350.624 76.928H350.64Z" fill="#212121"/>
<path d="M422.928 108.144L422.464 117.104L416.896 116.816L417.344 107.856L422.928 108.144Z" fill="#212121"/>
<path d="M334.384 103.776L333.92 112.736L328.368 112.448L328.816 103.488L334.4 103.776H334.384Z" fill="#212121"/>
<path d="M377.792 157.456L366.864 157.088L366.08 151.344L378.096 151.904L377.808 157.456H377.792Z" fill="#212121"/>
<path d="M382.208 69.136L373.232 68.688L373.488 63.136L382.496 63.584L382.208 69.136Z" fill="#212121"/>
<path d="M419.424 108.256C420.576 132.672 401.936 153.408 377.792 154.528C353.68 155.664 333.2 136.784 332.032 112.384C330.896 87.952 349.52 67.232 373.648 66.096C397.792 64.976 418.256 83.84 419.424 108.272V108.256Z" fill="#212121"/>
<path d="M417.264 108.464C418.384 131.872 400.672 151.712 377.712 152.8C354.768 153.856 335.28 135.76 334.176 112.368C333.056 88.96 350.784 69.152 373.728 68.048C396.672 66.976 416.176 85.056 417.264 108.448V108.464Z" fill="#212121"/>
<path d="M410.192 109.456C411.136 129.12 396.256 145.776 376.96 146.688C357.664 147.6 341.296 132.4 340.352 112.736C339.44 93.072 354.304 76.416 373.584 75.488C392.864 74.592 409.248 89.808 410.176 109.456H410.192Z" fill="#212121"/>
<path d="M402.176 109.184C402.896 124.368 391.393 137.264 376.497 137.968C361.585 138.656 348.929 126.912 348.225 111.712C347.505 96.512 358.977 83.648 373.889 82.928C388.801 82.24 401.456 93.984 402.176 109.184Z" fill="#212121"/>
<path d="M390.224 109.488C390.624 118.096 384.128 125.376 375.712 125.76C367.248 126.176 360.112 119.52 359.696 110.944C359.296 102.336 365.792 95.056 374.224 94.656C382.656 94.256 389.808 100.912 390.224 109.488Z" fill="#212121"/>
<path d="M381.392 109.68C381.584 113.44 378.736 116.624 375.056 116.784C371.376 116.96 368.256 114.064 368.096 110.32C367.92 106.576 370.752 103.392 374.432 103.2C378.096 103.024 381.232 105.92 381.392 109.68Z" fill="#212121"/>
<path d="M348.864 66.848L357.456 64.144L359.12 69.456L350.544 72.144L348.864 66.848Z" fill="#373737"/>
<path d="M375.632 151.168L384.208 148.432L385.888 153.76L377.312 156.448L375.632 151.168Z" fill="#373737"/>
<path d="M410.945 91.8399L413.649 100.384L408.337 102.064L405.601 93.5199L410.929 91.8399H410.945Z" fill="#373737"/>
<path d="M326.432 118.544L329.136 127.104L323.824 128.768L321.12 120.224L326.448 118.544H326.432Z" fill="#373737"/>
<path d="M385.089 66.512L393.073 70.64L390.497 75.568L382.513 71.44L385.089 66.496V66.512Z" fill="#373737"/>
<path d="M344.257 145.008L352.241 149.136L349.665 154.08L341.681 149.952L344.257 145.008Z" fill="#373737"/>
<path d="M411.264 127.984L407.136 135.936L402.176 133.376L406.288 125.408L411.264 127.984Z" fill="#373737"/>
<path d="M332.576 87.232L328.448 95.184L323.504 92.608L327.632 84.656L332.576 87.232Z" fill="#373737"/>
<path d="M400.4 76.496L406.24 83.344L401.968 86.912L396.16 80.08L400.4 76.496Z" fill="#373737"/>
<path d="M332.784 133.664L338.592 140.496L334.32 144.112L328.528 137.264L332.784 133.68V133.664Z" fill="#373737"/>
<path d="M401.249 143.264L394.401 149.072L390.785 144.832L397.649 139.008L401.233 143.264H401.249Z" fill="#373737"/>
<path d="M343.937 75.792L337.089 81.6L333.473 77.344L340.337 71.552L343.921 75.792H343.937Z" fill="#373737"/>
<path d="M414.72 110.368L413.856 119.296L408.304 118.736L409.168 109.824L414.72 110.352V110.368Z" fill="#373737"/>
<path d="M326.464 101.84L325.6 110.768L320.048 110.24L320.912 101.312L326.464 101.84Z" fill="#373737"/>
<path d="M367.296 157.52L358.368 156.656L358.896 151.12L367.856 151.984L367.296 157.536V157.52Z" fill="#373737"/>
<path d="M375.84 69.4879L366.896 68.6399L367.424 63.072L376.384 63.936L375.824 69.4879H375.84Z" fill="#373737"/>
<path d="M411.184 110.336C411.184 134.768 391.584 154.592 367.456 154.592C343.312 154.592 323.712 134.768 323.712 110.336C323.712 85.872 343.312 66.064 367.456 66.064C391.6 66.064 411.184 85.872 411.184 110.336Z" fill="#373737"/>
<path d="M409.055 110.416C409.055 133.84 390.415 152.832 367.455 152.832C344.463 152.832 325.855 133.824 325.855 110.416C325.855 86.992 344.463 68.016 367.455 68.016C390.415 68.016 409.055 87.008 409.055 110.416Z" fill="#373737"/>
<path d="M401.936 111.088C401.936 130.752 386.272 146.72 366.976 146.72C347.68 146.72 332.032 130.768 332.032 111.088C332.032 91.424 347.68 75.456 366.976 75.456C386.272 75.456 401.936 91.424 401.936 111.088Z" fill="#474747"/>
<path fill-rule="evenodd" clip-rule="evenodd" d="M366.976 147.2C347.44 147.2 331.536 130.992 331.536 111.072C331.536 91.152 347.44 74.944 366.976 74.944C386.512 74.944 402.4 91.152 402.4 111.072C402.4 130.992 386.512 147.2 366.976 147.2ZM366.976 75.936C347.968 75.936 332.496 91.696 332.496 111.088C332.496 130.464 347.968 146.24 366.976 146.24C385.952 146.24 401.44 130.464 401.44 111.088C401.44 91.712 385.952 75.936 366.976 75.936Z" fill="#E5931C"/>
<path d="M393.92 110.416C393.92 125.648 381.84 137.968 366.912 137.968C352 137.968 339.904 125.648 339.904 110.416C339.904 95.216 352 82.864 366.912 82.864C381.84 82.864 393.92 95.216 393.92 110.416Z" fill="#FDCA00"/>
<path d="M381.968 110.176C381.968 118.784 375.136 125.76 366.688 125.76C358.256 125.76 351.408 118.784 351.408 110.176C351.408 101.584 358.256 94.608 366.688 94.608C375.136 94.608 381.968 101.568 381.968 110.176Z" fill="#EEEEEE"/>
<path d="M373.152 109.952C373.152 113.712 370.16 116.752 366.48 116.752C362.816 116.752 359.808 113.712 359.808 109.952C359.808 106.208 362.816 103.152 366.48 103.152C370.16 103.152 373.152 106.208 373.152 109.952Z" fill="#474747"/>
<path d="M410.943 91.84L418.287 89.808L421.407 98.224L413.663 100.384L410.959 91.84H410.943Z" fill="#333333"/>
<path d="M414.72 110.368L422.944 108.16L422.48 117.12L413.84 119.312L414.704 110.384L414.72 110.368Z" fill="#333333"/>
<path d="M411.264 127.984L420.304 125.904L416.56 134.032L407.136 135.936L411.264 127.984Z" fill="#333333"/>
<path d="M401.247 143.264L411.04 141.632L404.463 147.744L394.399 149.072L401.247 143.264Z" fill="#333333"/>
<path d="M385.888 153.76L396.177 152.832L387.745 155.936L377.312 156.448L385.888 153.76Z" fill="#333333"/>
<path d="M367.264 156.912L368.816 157.024L377.792 157.472L367.296 157.536L367.264 156.928V156.912Z" fill="#212121"/>
<path d="M400.399 76.496L407.055 74.96L413.199 81.536L406.239 83.344L400.399 76.496Z" fill="#333333"/>
<path d="M385.088 66.512L391.296 65.728L399.456 69.488L393.072 70.64L385.088 66.512Z" fill="#333333"/>
<path d="M367.439 63.072L373.487 63.136L382.495 63.584L376.415 63.952L367.455 63.088L367.439 63.072Z" fill="#333333"/>
<path d="M357.456 64.128L363.536 64.656L358.224 66.64L357.456 64.144V64.128Z" fill="#333333"/>
<path d="M385.728 95.264C385.728 97.264 384.112 98.848 382.128 98.848C380.128 98.848 378.512 97.248 378.512 95.264C378.512 93.264 380.128 91.648 382.128 91.648C384.128 91.648 385.728 93.264 385.728 95.264Z" fill="#474747"/>
<path d="M355.024 94.128C355.024 96.112 353.408 97.712 351.424 97.712C349.424 97.712 347.808 96.112 347.808 94.128C347.808 92.128 349.424 90.512 351.424 90.512C353.408 90.512 355.024 92.128 355.024 94.128Z" fill="#474747"/>
<path d="M384.575 125.968C384.575 127.968 382.975 129.584 380.975 129.584C379.007 129.584 377.359 127.968 377.359 125.968C377.359 123.984 379.007 122.368 380.975 122.368C382.975 122.368 384.575 123.984 384.575 125.968Z" fill="#474747"/>
<path d="M370.928 131.648C370.928 133.632 369.312 135.248 367.345 135.248C365.345 135.248 363.729 133.632 363.729 131.648C363.729 129.664 365.345 128.032 367.345 128.032C369.328 128.032 370.928 129.648 370.928 131.648Z" fill="#474747"/>
<path d="M369.808 88.048C369.808 90.032 368.192 91.632 366.208 91.632C364.208 91.632 362.592 90.016 362.592 88.048C362.592 86.064 364.208 84.432 366.208 84.432C368.192 84.432 369.808 86.048 369.808 88.048Z" fill="#474747"/>
<path d="M392.176 109.648C392.176 111.648 390.56 113.264 388.576 113.264C386.592 113.264 384.992 111.648 384.992 109.648C384.992 107.664 386.592 106.064 388.576 106.064C390.56 106.064 392.176 107.664 392.176 109.648Z" fill="#474747"/>
<path d="M348.96 109.648C348.96 111.648 347.328 113.264 345.344 113.264C343.36 113.264 341.744 111.648 341.744 109.648C341.744 107.664 343.36 106.064 345.344 106.064C347.328 106.064 348.96 107.664 348.96 109.648Z" fill="#474747"/>
<path d="M355.024 125.968C355.024 127.968 353.408 129.584 351.424 129.584C349.424 129.584 347.808 127.968 347.808 125.968C347.808 123.984 349.424 122.368 351.424 122.368C353.408 122.368 355.024 123.984 355.024 125.968Z" fill="#474747"/>
<path d="M170.192 88.288L176.8 85.856L178.304 89.968L171.696 92.4L170.192 88.304V88.288Z" fill="#212121"/>
<path d="M192.896 153.984L200.832 150.816L202.368 154.896L195.745 157.328L192.896 153.968V153.984Z" fill="#212121"/>
<path d="M219.664 105.552L222.096 112.144L218 113.648L215.568 107.072L219.664 105.552Z" fill="#212121"/>
<path d="M154.544 129.552L156.976 136.128L152.88 137.632L150.448 131.04L154.544 129.536V129.552Z" fill="#212121"/>
<path d="M198.512 86.704L204.912 89.632L203.088 93.616L196.688 90.656L198.512 86.704Z" fill="#212121"/>
<path d="M169.472 149.6L175.872 152.528L174.032 156.48L167.648 153.552L169.472 149.6Z" fill="#212121"/>
<path d="M221.248 133.808L218.304 140.192L214.32 138.336L217.28 132L221.248 133.808Z" fill="#212121"/>
<path d="M158.208 104.848L155.281 111.232L151.312 109.408L154.241 103.04L158.208 104.848Z" fill="#212121"/>
<path d="M210.864 93.936L215.664 99.072L212.464 102.048L207.648 96.928L210.848 93.936H210.864Z" fill="#212121"/>
<path d="M160.08 141.152L164.864 146.272L161.68 149.264L156.864 144.112L160.064 141.152H160.08Z" fill="#212121"/>
<path d="M213.984 146.128L208.832 150.912L205.872 147.712L211.024 142.928L214 146.112L213.984 146.128Z" fill="#212121"/>
<path d="M166.689 95.472L161.538 100.256L158.562 97.056L163.714 92.272L166.689 95.456V95.472Z" fill="#212121"/>
<path d="M223.296 119.92L222.944 126.928L218.592 126.72L218.944 119.712L223.312 119.92H223.296Z" fill="#212121"/>
<path d="M153.968 116.496L153.616 123.504L149.248 123.28L149.6 116.288L153.968 116.496Z" fill="#212121"/>
<path d="M187.952 158.528L179.376 158.224L178.752 153.712L188.16 154.16L187.952 158.512V158.528Z" fill="#212121"/>
<path d="M191.408 89.376L184.384 89.024L184.592 84.688L191.616 85.04L191.408 89.376Z" fill="#212121"/>
<path d="M220.528 120C221.44 139.104 206.848 155.344 187.952 156.24C169.056 157.136 153.024 142.336 152.128 123.216C151.216 104.112 165.808 87.872 184.704 87.008C203.584 86.096 219.632 100.896 220.512 120.016L220.528 120Z" fill="#212121"/>
<path d="M218.848 120.176C219.712 138.464 205.856 154.016 187.888 154.848C169.936 155.696 154.656 141.52 153.808 123.232C152.928 104.912 166.816 89.392 184.784 88.528C202.736 87.68 218 101.84 218.848 120.176Z" fill="#212121"/>
<path d="M213.312 120.944C214.048 136.336 202.4 149.392 187.312 150.112C172.224 150.816 159.392 138.896 158.672 123.52C157.952 108.144 169.584 95.072 184.688 94.384C199.776 93.664 212.592 105.568 213.312 120.96V120.944Z" fill="#212121"/>
<path d="M207.04 120.736C207.6 132.64 198.576 142.704 186.928 143.264C175.248 143.824 165.344 134.608 164.784 122.72C164.208 110.8 173.232 100.72 184.896 100.176C196.544 99.616 206.464 108.816 207.024 120.72L207.04 120.736Z" fill="#212121"/>
<path d="M197.696 120.96C198 127.696 192.912 133.408 186.304 133.728C179.712 134.032 174.112 128.816 173.792 122.08C173.456 115.36 178.56 109.664 185.168 109.344C191.776 109.024 197.36 114.224 197.696 120.944V120.96Z" fill="#212121"/>
<path d="M190.768 121.12C190.928 124.064 188.704 126.544 185.824 126.704C182.944 126.848 180.496 124.544 180.352 121.616C180.208 118.688 182.432 116.208 185.328 116.064C188.192 115.936 190.656 118.208 190.768 121.136V121.12Z" fill="#212121"/>
<path d="M165.312 87.584L172.032 85.456L173.344 89.632L166.624 91.744L165.328 87.584H165.312Z" fill="#373737"/>
<path d="M186.256 153.584L192.976 151.472L194.304 155.616L187.584 157.744L186.256 153.584Z" fill="#373737"/>
<path d="M213.903 107.152L216.031 113.84L211.855 115.168L209.728 108.48L213.903 107.168V107.152Z" fill="#373737"/>
<path d="M147.728 128.064L149.856 134.736L145.68 136.032L143.552 129.344L147.728 128.048V128.064Z" fill="#373737"/>
<path d="M193.664 87.328L199.904 90.56L197.888 94.432L191.648 91.2L193.648 87.328H193.664Z" fill="#373737"/>
<path d="M161.697 148.768L167.952 152.016L165.92 155.872L159.665 152.64L161.681 148.768H161.697Z" fill="#373737"/>
<path d="M214.161 135.424L210.913 141.648L207.057 139.664L210.289 133.424L214.161 135.424Z" fill="#373737"/>
<path d="M152.544 103.536L149.312 109.776L145.44 107.776L148.672 101.536L152.544 103.536Z" fill="#373737"/>
<path d="M205.664 95.12L210.224 100.496L206.88 103.312L202.336 97.952L205.68 95.12H205.664Z" fill="#373737"/>
<path d="M152.72 139.888L157.264 145.248L153.92 148.064L149.376 142.704L152.72 139.888Z" fill="#373737"/>
<path d="M206.32 147.392L200.944 151.952L198.128 148.624L203.488 144.08L206.304 147.392H206.32Z" fill="#373737"/>
<path d="M161.472 94.592L156.112 99.136L153.264 95.824L158.64 91.28L161.472 94.592Z" fill="#373737"/>
<path d="M216.848 121.648L216.16 128.64L211.824 128.224L212.496 121.248L216.848 121.648Z" fill="#373737"/>
<path d="M147.776 114.992L147.088 121.984L142.752 121.568L143.424 114.576L147.776 114.992Z" fill="#373737"/>
<path d="M179.744 158.592L172.736 157.888L173.184 153.568L180.192 154.24L179.76 158.592H179.744Z" fill="#373737"/>
<path d="M186.433 89.648L179.425 88.976L179.841 84.64L186.865 85.328L186.433 89.664V89.648Z" fill="#373737"/>
<path d="M214.112 121.616C214.112 140.752 198.784 156.272 179.872 156.272C160.96 156.272 145.616 140.752 145.616 121.616C145.616 102.464 160.96 86.96 179.872 86.96C198.784 86.96 214.112 102.464 214.112 121.616Z" fill="#373737"/>
<path d="M212.432 121.696C212.432 140.032 197.84 154.896 179.856 154.896C161.872 154.896 147.296 140.032 147.296 121.696C147.296 103.36 161.872 88.4959 179.856 88.4959C197.84 88.4959 212.432 103.376 212.432 121.696Z" fill="#373737"/>
<path d="M206.832 122.208C206.832 137.616 194.592 150.112 179.472 150.112C164.352 150.112 152.112 137.616 152.112 122.208C152.112 106.8 164.352 94.32 179.472 94.32C194.592 94.32 206.832 106.8 206.832 122.208Z" fill="#474747"/>
<path fill-rule="evenodd" clip-rule="evenodd" d="M179.472 150.608C164.112 150.608 151.632 137.872 151.632 122.208C151.632 106.56 164.112 93.824 179.472 93.824C194.864 93.824 207.312 106.56 207.312 122.208C207.312 137.872 194.848 150.608 179.472 150.608ZM179.472 94.8C164.672 94.8 152.608 107.088 152.608 122.192C152.608 137.312 164.656 149.616 179.472 149.616C194.288 149.616 206.352 137.312 206.352 122.192C206.352 107.088 194.304 94.8 179.472 94.8Z" fill="#E5931C"/>
<path d="M200.592 121.696C200.592 133.616 191.12 143.264 179.456 143.264C167.776 143.264 158.32 133.616 158.32 121.696C158.32 109.792 167.776 100.128 179.456 100.128C191.12 100.128 200.592 109.776 200.592 121.696Z" fill="#FDCA00"/>
<path d="M191.232 121.504C191.232 128.24 185.872 133.696 179.264 133.696C172.656 133.696 167.296 128.24 167.296 121.504C167.296 114.768 172.656 109.328 179.264 109.328C185.888 109.328 191.232 114.768 191.232 121.504Z" fill="#EEEEEE"/>
<path d="M184.32 121.344C184.32 124.288 181.984 126.656 179.104 126.656C176.224 126.656 173.888 124.288 173.888 121.344C173.888 118.384 176.224 116.016 179.104 116.016C181.968 116.016 184.32 118.4 184.32 121.344Z" fill="#474747"/>
<path d="M213.904 107.152L219.664 105.552L222.096 112.144L216.032 113.824L213.904 107.136V107.152Z" fill="#333333"/>
<path d="M216.848 121.648L223.296 119.92L222.944 126.928L216.176 128.64L216.864 121.648H216.848Z" fill="#333333"/>
<path d="M214.16 135.424L221.264 133.808L218.32 140.192L210.928 141.648L214.176 135.424H214.16Z" fill="#333333"/>
<path d="M206.32 147.392L213.984 146.128L208.832 150.912L200.96 151.936L206.336 147.376L206.32 147.392Z" fill="#333333"/>
<path d="M194.304 155.616L202.368 154.896L195.744 157.328L187.584 157.728L194.304 155.6V155.616Z" fill="#333333"/>
<path d="M179.712 158.128L180.928 158.192L187.952 158.528L179.728 158.576L179.712 158.112V158.128Z" fill="#212121"/>
<path d="M205.664 95.12L210.864 93.936L215.664 99.072L210.224 100.48L205.664 95.104V95.12Z" fill="#333333"/>
<path d="M193.664 87.328L198.496 86.704L204.896 89.632L199.904 90.5439L193.664 87.312V87.328Z" fill="#333333"/>
<path d="M179.84 84.64L184.592 84.688L191.616 85.04L186.864 85.328L179.84 84.64Z" fill="#333333"/>
<path d="M172.016 85.456L176.8 85.856L172.64 87.424L172.016 85.456Z" fill="#333333"/>
<path d="M194.176 109.808C194.176 111.392 192.896 112.64 191.344 112.64C189.792 112.64 188.528 111.392 188.528 109.808C188.528 108.256 189.808 107.008 191.344 107.008C192.896 107.008 194.176 108.256 194.176 109.808Z" fill="#474747"/>
<path d="M170.112 108.944C170.112 110.512 168.848 111.76 167.296 111.76C165.744 111.76 164.464 110.512 164.464 108.944C164.464 107.392 165.744 106.096 167.296 106.096C168.848 106.096 170.112 107.376 170.112 108.944Z" fill="#474747"/>
<path d="M193.28 133.872C193.28 135.424 192.032 136.688 190.448 136.688C188.896 136.688 187.632 135.424 187.632 133.872C187.632 132.32 188.896 131.024 190.448 131.024C192.016 131.024 193.28 132.304 193.28 133.872Z" fill="#474747"/>
<path d="M182.592 138.32C182.592 139.872 181.344 141.152 179.776 141.152C178.224 141.152 176.96 139.872 176.96 138.32C176.96 136.768 178.24 135.504 179.776 135.504C181.344 135.504 182.592 136.784 182.592 138.32Z" fill="#474747"/>
<path d="M181.711 104.192C181.711 105.744 180.431 107.008 178.895 107.008C177.327 107.008 176.063 105.728 176.063 104.192C176.063 102.624 177.327 101.36 178.895 101.36C180.447 101.36 181.711 102.624 181.711 104.192Z" fill="#474747"/>
<path d="M199.216 121.104C199.216 122.672 197.936 123.92 196.4 123.92C194.88 123.92 193.584 122.656 193.584 121.104C193.584 119.536 194.88 118.288 196.4 118.288C197.952 118.288 199.216 119.536 199.216 121.104Z" fill="#474747"/>
<path d="M165.392 121.104C165.392 122.672 164.112 123.92 162.576 123.92C161.008 123.92 159.76 122.656 159.76 121.104C159.76 119.536 161.024 118.288 162.576 118.288C164.112 118.288 165.392 119.536 165.392 121.104Z" fill="#474747"/>
<path d="M170.112 133.872C170.112 135.424 168.848 136.688 167.296 136.688C165.744 136.688 164.464 135.424 164.464 133.872C164.464 132.32 165.744 131.024 167.296 131.024C168.848 131.024 170.112 132.304 170.112 133.872Z" fill="#474747"/>
<path d="M397.2 52.368V135.984H306.736H213.12H167.937C156.305 135.984 146.896 126.56 146.896 114.96V77.616C146.896 66 156.305 56.576 167.937 56.576H213.12H232.064H242.576H252.816C249.088 60.368 246.768 65.552 246.768 71.296V75.248C246.768 86.864 256.176 96.288 267.808 96.288H307.392L337.232 21.856H392.992V52.368H397.2Z" fill="#F5AB00"/>
<path d="M359.328 56.576V135.984H268.88H175.264H130.08C118.464 135.984 109.056 126.56 109.056 114.96V77.616C109.056 66 118.464 56.576 130.08 56.576H175.264H194.208H204.72H214.96C211.232 60.368 208.928 65.552 208.928 71.296V75.248C208.928 86.864 218.352 96.288 229.968 96.288H269.536L299.392 21.856H355.136V56.576H359.328Z" fill="#FFBE17"/>
<path d="M271.184 68.64C269.728 69.824 267.568 69.6 266.368 68.128L257.216 56.88L227.488 81.024C226.848 81.552 225.52 80.976 224.528 79.744C223.536 78.528 223.248 77.104 223.888 76.576L253.6 52.432L244.496 41.216C243.28 39.744 243.52 37.6 244.976 36.4C246.432 35.216 248.592 35.44 249.792 36.896L271.68 63.808C272.864 65.28 272.64 67.424 271.168 68.64H271.184Z" fill="#212121"/>
<path d="M266.976 68.64C265.52 69.824 263.36 69.6 262.16 68.128L253.024 56.88L223.28 81.024C222.64 81.552 221.312 80.976 220.32 79.744C219.312 78.528 219.04 77.104 219.68 76.576L249.408 52.432L240.288 41.216C239.104 39.744 239.328 37.6 240.8 36.4C242.256 35.216 244.416 35.44 245.6 36.896L267.488 63.808C268.688 65.28 268.464 67.424 266.976 68.64Z" fill="#404041"/>
<path d="M230.224 77.984C230.224 83.504 227.152 87.984 223.376 87.984C219.616 87.984 216.544 83.504 216.544 77.984C216.544 72.464 219.616 68.016 223.376 68.016C227.168 68.016 230.224 72.48 230.224 77.984Z" fill="#F5AB00"/>
<path d="M142.575 68.336H136.367V36.448C136.367 30.288 142.479 24.672 149.695 21.856L149.855 32.128C146.271 32.592 142.671 29.44 142.671 33.856L142.591 68.336H142.575Z" fill="#373737"/>
<path d="M138.368 68.336H132.145V36.448C132.145 30.288 138.256 24.672 145.473 21.856L145.617 32.128C142.033 32.592 138.433 29.44 138.433 33.856L138.368 68.336Z" fill="#404041"/>
<path d="M145.487 23.904V21.856H149.695L145.487 23.904Z" fill="#373737"/>
<path d="M145.632 30.88L149.84 32.112H145.632V30.88Z" fill="#373737"/>
<path d="M346.656 137.216H162.479V128.176H346.656V137.216Z" fill="#51535C"/>
<path d="M346.656 127.248H162.479V118.208H346.656V127.248Z" fill="#51535C"/>
<path d="M346.976 129.424H155.472V126.304H346.976V129.424Z" fill="#757373"/>
<path d="M159.472 106.544C170.848 98.112 189.632 93.36 215.824 92.288L263.52 92.592C255.264 103.68 250.944 112.208 250.528 118.192L161.568 119.024L159.488 106.544H159.472Z" fill="#757373"/>
<path fill-rule="evenodd" clip-rule="evenodd" d="M160.816 119.504L158.592 106.368L158.832 106.224C158.992 106.112 176.56 93.392 215.584 91.856L264.4 92.1439L263.92 92.8479C263.776 92.9919 251.616 109.472 251.04 118.24L250.976 118.688L160.832 119.52L160.816 119.504ZM160.048 106.72L162.048 118.528L249.648 117.728C250.512 109.632 259.824 96.272 262.144 93.0719L215.6 92.784C179.52 94.224 162.16 105.248 160.048 106.704V106.72Z" fill="#51535C"/>
<path d="M267.087 121.616H155.455V116.944H267.087V121.616Z" fill="#43454C"/>
<path d="M267.087 132.864H155.455V128.176H267.087V132.864Z" fill="#43454C"/>
<path d="M183.151 61.2159L180.656 94.752L163.184 94.8159L160.688 61.68L183.167 61.2L183.151 61.2159Z" fill="#757373"/>
<path d="M180.688 94.72L171.888 94.736V61.392L183.184 61.152L180.688 94.72Z" fill="#43454C"/>
<g opacity="0.4">
<g opacity="0.4">
<path opacity="0.4" fill-rule="evenodd" clip-rule="evenodd" d="M179.231 77.008H164.959C164.367 77.008 163.871 76.528 163.871 75.936V67.2C163.871 66.608 164.367 66.128 164.959 66.128H179.231C179.823 66.128 180.319 66.608 180.319 67.2V75.936C180.319 76.528 179.823 77.008 179.231 77.008ZM164.959 66.608C164.623 66.608 164.367 66.8799 164.367 67.2159V75.952C164.367 76.304 164.623 76.544 164.959 76.544H179.231C179.567 76.544 179.839 76.304 179.839 75.952V67.2159C179.839 66.8799 179.551 66.608 179.231 66.608H164.959Z" fill="#373737"/>
</g>
</g>
<g opacity="0.8">
<g opacity="0.8">
<g opacity="0.8">
<path opacity="0.8" d="M173.279 68.016H177.887C178.015 68.016 178.111 68.208 178.111 68.432C178.111 68.672 178.015 68.864 177.887 68.864H173.279C173.167 68.864 173.055 68.672 173.055 68.432C173.055 68.192 173.167 68.016 173.279 68.016Z" fill="#373737"/>
</g>
</g>
<g opacity="0.8">
<g opacity="0.8">
<path opacity="0.8" d="M166.287 68.016H170.895C171.023 68.016 171.119 68.208 171.119 68.432C171.119 68.672 171.023 68.864 170.895 68.864H166.287C166.175 68.864 166.047 68.672 166.047 68.432C166.047 68.192 166.175 68.016 166.287 68.016Z" fill="#373737"/>
</g>
</g>
</g>
<g opacity="0.8">
<g opacity="0.8">
<g opacity="0.8">
<path opacity="0.8" d="M173.279 71.12H177.887C178.015 71.12 178.111 71.296 178.111 71.552C178.111 71.776 178.015 71.968 177.887 71.968H173.279C173.167 71.968 173.055 71.776 173.055 71.552C173.055 71.296 173.167 71.12 173.279 71.12Z" fill="#373737"/>
</g>
</g>
<g opacity="0.8">
<g opacity="0.8">
<path opacity="0.8" d="M166.287 71.12H170.895C171.023 71.12 171.119 71.296 171.119 71.552C171.119 71.776 171.023 71.968 170.895 71.968H166.287C166.175 71.968 166.047 71.776 166.047 71.552C166.047 71.296 166.175 71.12 166.287 71.12Z" fill="#373737"/>
</g>
</g>
</g>
<g opacity="0.8">
<g opacity="0.8">
<g opacity="0.8">
<path opacity="0.8" d="M173.279 74.208H177.887C178.015 74.208 178.111 74.4 178.111 74.64C178.111 74.864 178.015 75.056 177.887 75.056H173.279C173.167 75.056 173.055 74.864 173.055 74.64C173.055 74.4 173.167 74.208 173.279 74.208Z" fill="#373737"/>
</g>
</g>
<g opacity="0.8">
<g opacity="0.8">
<path opacity="0.8" d="M166.287 74.208H170.895C171.023 74.208 171.119 74.4 171.119 74.64C171.119 74.864 171.023 75.056 170.895 75.056H166.287C166.175 75.056 166.047 74.864 166.047 74.64C166.047 74.4 166.175 74.208 166.287 74.208Z" fill="#373737"/>
</g>
</g>
</g>
<path d="M358.72 55.248L359.328 135.984L247.312 137.232C248.496 94.72 264.304 67.664 294.752 56.032C326.992 45.104 348.304 44.848 358.72 55.248Z" fill="#191919"/>
<path d="M248.111 137.328L239.327 136.88C240.719 103.216 251.087 78.064 270.095 62.096C302.895 34.544 356.783 44.816 358.719 45.248V55.248C358.271 55.152 305.007 44.8 275.439 69.648C258.575 83.824 249.359 106.592 248.095 137.328H248.111Z" fill="#474747"/>
<path d="M291.999 67.776L300.431 64.656L302.367 69.8879L293.951 72.96L291.999 67.76V67.776Z" fill="#212121"/>
<path d="M320.975 151.664L331.135 147.616L333.071 152.832L324.639 155.936L320.975 151.664Z" fill="#212121"/>
<path d="M355.167 89.808L358.303 98.224L353.055 100.16L349.951 91.744L355.167 89.824V89.808Z" fill="#212121"/>
<path d="M271.999 120.448L275.135 128.848L269.903 130.784L266.783 122.384L271.999 120.448Z" fill="#212121"/>
<path d="M328.177 65.728L336.337 69.488L334.001 74.528L325.841 70.784L328.177 65.728Z" fill="#212121"/>
<path d="M291.073 146.064L299.233 149.808L296.865 154.848L288.721 151.104L291.057 146.064H291.073Z" fill="#212121"/>
<path d="M357.201 125.904L353.457 134.032L348.385 131.728L352.145 123.568L357.201 125.904Z" fill="#212121"/>
<path d="M276.687 88.88L272.912 97.024L267.855 94.688L271.616 86.544L276.687 88.864V88.88Z" fill="#212121"/>
<path d="M343.936 74.976L350.063 81.552L345.983 85.344L339.855 78.768L343.92 74.976H343.936Z" fill="#212121"/>
<path d="M279.072 135.264L285.2 141.824L281.136 145.616L275.008 139.056L279.072 135.264Z" fill="#212121"/>
<path d="M347.92 141.632L341.36 147.744L337.536 143.664L344.128 137.568L347.92 141.632Z" fill="#212121"/>
<path d="M287.52 76.928L280.943 83.0399L277.151 78.976L283.727 72.864L287.52 76.928Z" fill="#212121"/>
<path d="M359.824 108.144L359.36 117.104L353.808 116.816L354.256 107.856L359.824 108.144Z" fill="#212121"/>
<path d="M271.28 103.776L270.816 112.736L265.264 112.448L265.712 103.488L271.296 103.776H271.28Z" fill="#212121"/>
<path d="M314.688 157.456L303.744 157.088L302.96 151.344L314.976 151.904L314.688 157.456Z" fill="#212121"/>
<path d="M319.104 69.136L310.128 68.688L310.384 63.136L319.392 63.584L319.104 69.136Z" fill="#212121"/>
<path d="M356.304 108.256C357.472 132.672 338.832 153.408 314.688 154.528C290.576 155.664 270.081 136.784 268.913 112.384C267.777 87.952 286.433 67.232 310.528 66.096C334.672 64.976 355.152 83.84 356.304 108.272V108.256Z" fill="#212121"/>
<path d="M354.175 108.464C355.279 131.872 337.567 151.712 314.623 152.8C291.679 153.856 272.175 135.76 271.071 112.368C269.967 88.96 287.695 69.152 310.623 68.048C333.567 66.976 353.071 85.056 354.159 108.448L354.175 108.464Z" fill="#212121"/>
<path d="M347.087 109.456C348.015 129.12 333.135 145.776 313.855 146.688C294.575 147.6 278.191 132.4 277.279 112.736C276.351 93.072 291.231 76.416 310.495 75.488C329.775 74.592 346.159 89.808 347.103 109.456H347.087Z" fill="#212121"/>
<path d="M339.072 109.184C339.792 124.368 328.288 137.264 313.392 137.968C298.481 138.656 285.841 126.912 285.121 111.712C284.417 96.512 295.889 83.648 310.8 82.928C325.696 82.24 338.352 93.984 339.072 109.184Z" fill="#212121"/>
<path d="M327.12 109.488C327.52 118.096 321.008 125.376 312.608 125.76C304.144 126.176 297.008 119.52 296.592 110.944C296.192 102.336 302.688 95.056 311.12 94.656C319.552 94.256 326.704 100.912 327.12 109.488Z" fill="#212121"/>
<path d="M318.288 109.68C318.48 113.44 315.632 116.624 311.952 116.784C308.272 116.96 305.152 114.064 304.992 110.32C304.8 106.576 307.632 103.392 311.328 103.2C314.976 103.024 318.128 105.92 318.288 109.68Z" fill="#212121"/>
<path d="M285.759 66.848L294.335 64.144L296.015 69.456L287.439 72.144L285.775 66.848H285.759Z" fill="#373737"/>
<path d="M312.511 151.168L321.087 148.432L322.767 153.76L314.207 156.448L312.511 151.168Z" fill="#373737"/>
<path d="M347.823 91.8399L350.543 100.384L345.231 102.064L342.495 93.5199L347.823 91.8399Z" fill="#373737"/>
<path d="M263.311 118.544L266.031 127.104L260.719 128.768L257.999 120.224L263.311 118.544Z" fill="#373737"/>
<path d="M321.968 66.512L329.968 70.64L327.392 75.568L319.408 71.44L321.984 66.496L321.968 66.512Z" fill="#373737"/>
<path d="M281.136 145.008L289.12 149.136L286.576 154.08L278.592 149.952L281.152 145.008H281.136Z" fill="#373737"/>
<path d="M348.16 127.984L344.016 135.936L339.072 133.376L343.184 125.408L348.16 127.984Z" fill="#373737"/>
<path d="M269.472 87.232L265.344 95.184L260.384 92.608L264.512 84.656L269.472 87.232Z" fill="#373737"/>
<path d="M337.296 76.496L343.104 83.344L338.848 86.912L333.04 80.08L337.296 76.496Z" fill="#373737"/>
<path d="M269.664 133.664L275.472 140.496L271.232 144.112L265.424 137.264L269.664 133.68V133.664Z" fill="#373737"/>
<path d="M338.144 143.264L331.296 149.072L327.68 144.832L334.544 139.008L338.128 143.264H338.144Z" fill="#373737"/>
<path d="M280.832 75.792L273.984 81.6L270.368 77.344L277.216 71.552L280.832 75.792Z" fill="#373737"/>
<path d="M351.6 110.368L350.736 119.296L345.184 118.736L346.064 109.824L351.616 110.352L351.6 110.368Z" fill="#373737"/>
<path d="M263.359 101.84L262.495 110.768L256.943 110.24L257.807 101.312L263.359 101.84Z" fill="#373737"/>
<path d="M304.192 157.52L295.264 156.656L295.792 151.12L304.736 151.984L304.192 157.536V157.52Z" fill="#373737"/>
<path d="M312.735 69.4879L303.775 68.6399L304.319 63.072L313.263 63.936L312.735 69.4879Z" fill="#373737"/>
<path d="M348.079 110.336C348.079 134.768 328.479 154.592 304.351 154.592C280.207 154.592 260.607 134.768 260.607 110.336C260.607 85.872 280.207 66.064 304.351 66.064C328.495 66.064 348.079 85.872 348.079 110.336Z" fill="#373737"/>
<path d="M345.935 110.416C345.935 133.84 327.311 152.832 304.351 152.832C281.359 152.832 262.751 133.824 262.751 110.416C262.751 86.992 281.375 68.016 304.351 68.016C327.311 68.016 345.935 87.008 345.935 110.416Z" fill="#373737"/>
<path d="M338.831 111.088C338.831 130.752 323.167 146.72 303.855 146.72C284.559 146.72 268.911 130.768 268.911 111.088C268.911 91.424 284.575 75.456 303.855 75.456C323.151 75.456 338.831 91.424 338.831 111.088Z" fill="#474747"/>
<path fill-rule="evenodd" clip-rule="evenodd" d="M303.855 147.2C284.335 147.2 268.415 130.992 268.415 111.072C268.415 91.152 284.319 74.944 303.855 74.944C323.407 74.944 339.295 91.152 339.295 111.072C339.295 130.992 323.407 147.2 303.855 147.2ZM303.855 75.936C284.863 75.936 269.391 91.696 269.391 111.088C269.391 130.464 284.863 146.24 303.855 146.24C322.847 146.24 338.303 130.464 338.303 111.088C338.303 91.712 322.831 75.936 303.855 75.936Z" fill="#E5931C"/>
<path d="M330.816 110.416C330.816 125.648 318.72 137.968 303.824 137.968C288.912 137.968 276.8 125.648 276.8 110.416C276.8 95.216 288.896 82.864 303.824 82.864C318.736 82.864 330.816 95.216 330.816 110.416Z" fill="#FDCA00"/>
<path d="M318.864 110.176C318.864 118.784 312.032 125.76 303.6 125.76C295.168 125.76 288.304 118.784 288.304 110.176C288.304 101.584 295.152 94.608 303.6 94.608C312.032 94.608 318.864 101.568 318.864 110.176Z" fill="#EEEEEE"/>
<path d="M310.031 109.952C310.031 113.712 307.055 116.752 303.375 116.752C299.695 116.752 296.703 113.712 296.703 109.952C296.703 106.208 299.695 103.152 303.375 103.152C307.055 103.152 310.031 106.208 310.031 109.952Z" fill="#474747"/>
<path d="M347.823 91.84L355.151 89.808L358.287 98.224L350.543 100.384L347.823 91.84Z" fill="#333333"/>
<path d="M351.6 110.368L359.824 108.16L359.36 117.12L350.72 119.312L351.584 110.384L351.6 110.368Z" fill="#333333"/>
<path d="M348.159 127.984L357.199 125.904L353.455 134.032L344.031 135.936L348.175 127.984H348.159Z" fill="#333333"/>
<path d="M338.143 143.264L347.919 141.632L341.359 147.744L331.295 149.072L338.143 143.264Z" fill="#333333"/>
<path d="M322.783 153.76L333.071 152.832L324.639 155.936L314.207 156.448L322.767 153.76H322.783Z" fill="#333333"/>
<path d="M304.16 156.912L305.696 157.024L314.672 157.472L304.176 157.536L304.145 156.928L304.16 156.912Z" fill="#212121"/>
<path d="M337.295 76.496L343.935 74.96L350.063 81.536L343.103 83.344L337.295 76.496Z" fill="#333333"/>
<path d="M321.968 66.512L328.176 65.728L336.336 69.488L329.968 70.64L321.968 66.512Z" fill="#333333"/>
<path d="M304.335 63.072L310.367 63.136L319.375 63.584L313.279 63.952L304.335 63.088V63.072Z" fill="#333333"/>
<path d="M294.335 64.128L300.431 64.656L295.103 66.64L294.319 64.144L294.335 64.128Z" fill="#333333"/>
<path d="M322.608 95.264C322.608 97.264 321.008 98.848 319.008 98.848C317.008 98.848 315.392 97.248 315.392 95.264C315.392 93.264 317.008 91.648 319.008 91.648C321.008 91.648 322.608 93.264 322.608 95.264Z" fill="#474747"/>
<path d="M291.903 94.128C291.903 96.112 290.303 97.712 288.303 97.712C286.319 97.712 284.703 96.112 284.703 94.128C284.703 92.128 286.319 90.512 288.303 90.512C290.303 90.512 291.903 92.128 291.903 94.128Z" fill="#474747"/>
<path d="M321.488 125.968C321.488 127.968 319.871 129.584 317.871 129.584C315.903 129.584 314.271 127.968 314.271 125.968C314.271 123.984 315.903 122.368 317.871 122.368C319.855 122.368 321.488 123.984 321.488 125.968Z" fill="#474747"/>
<path d="M307.823 131.648C307.823 133.632 306.207 135.248 304.239 135.248C302.239 135.248 300.623 133.632 300.623 131.648C300.623 129.664 302.239 128.032 304.239 128.032C306.207 128.032 307.823 129.648 307.823 131.648Z" fill="#474747"/>
<path d="M306.687 88.048C306.687 90.032 305.087 91.632 303.103 91.632C301.103 91.632 299.487 90.016 299.487 88.048C299.487 86.064 301.103 84.432 303.103 84.432C305.087 84.432 306.687 86.048 306.687 88.048Z" fill="#474747"/>
<path d="M329.055 109.648C329.055 111.648 327.439 113.264 325.455 113.264C323.471 113.264 321.871 111.648 321.871 109.648C321.871 107.664 323.487 106.064 325.455 106.064C327.439 106.064 329.055 107.664 329.055 109.648Z" fill="#474747"/>
<path d="M285.856 109.648C285.856 111.648 284.224 113.264 282.24 113.264C280.24 113.264 278.64 111.648 278.64 109.648C278.64 107.664 280.24 106.064 282.24 106.064C284.224 106.064 285.856 107.664 285.856 109.648Z" fill="#474747"/>
<path d="M291.903 125.968C291.903 127.968 290.303 129.584 288.303 129.584C286.319 129.584 284.703 127.968 284.703 125.968C284.703 123.984 286.319 122.368 288.303 122.368C290.303 122.368 291.903 123.984 291.903 125.968Z" fill="#474747"/>
<path d="M401.536 55.248H358.72V45.248H401.536V55.248Z" fill="#373737"/>
<path d="M165.472 138L126.512 137.088L109.904 135.984L108.672 104.816L108.848 76.256C154 73.984 172.88 94.56 165.472 138Z" fill="#191919"/>
<path d="M108.672 70.9439C154.096 72.0479 174.672 94.352 170.384 137.872L165.472 138C165.872 93.888 146.944 73.6 108.672 77.136V70.9439Z" fill="#424141"/>
<path d="M108.847 77.136L108.831 73.584C166.831 76.192 168.895 126.08 168.543 137.92L165.631 138C166.031 93.888 147.103 73.6 108.847 77.136Z" fill="#373737"/>
<path d="M107.088 88.288L113.696 85.856L115.184 89.968L108.592 92.4L107.088 88.304V88.288Z" fill="#212121"/>
<path d="M129.776 153.984L137.728 150.816L139.249 154.896L132.624 157.328L129.776 153.968V153.984Z" fill="#212121"/>
<path d="M156.543 105.552L158.975 112.144L154.879 113.648L152.447 107.072L156.527 105.552H156.543Z" fill="#212121"/>
<path d="M91.4398 129.552L93.8717 136.128L89.7757 137.632L87.3438 131.04L91.4398 129.536V129.552Z" fill="#212121"/>
<path d="M135.408 86.704L141.808 89.632L139.984 93.616L133.584 90.656L135.408 86.704Z" fill="#212121"/>
<path d="M106.352 149.6L112.736 152.528L110.912 156.48L104.512 153.552L106.336 149.6H106.352Z" fill="#212121"/>
<path d="M158.144 133.808L155.2 140.192L151.232 138.336L154.192 132L158.16 133.808H158.144Z" fill="#212121"/>
<path d="M95.088 104.848L92.16 111.232L88.208 109.408L91.136 103.04L95.104 104.848H95.088Z" fill="#212121"/>
<path d="M147.761 93.936L152.561 99.072L149.361 102.048L144.561 96.928L147.761 93.936Z" fill="#212121"/>
<path d="M96.9764 141.152L101.76 146.272L98.5764 149.264L93.7764 144.112L96.9764 141.152Z" fill="#212121"/>
<path d="M150.896 146.128L145.729 150.912L142.752 147.712L147.904 142.928L150.896 146.112V146.128Z" fill="#212121"/>
<path d="M103.568 95.472L98.4164 100.256L95.4404 97.056L100.592 92.272L103.568 95.456V95.472Z" fill="#212121"/>
<path d="M160.176 119.92L159.824 126.928L155.472 126.72L155.824 119.712L160.176 119.92Z" fill="#212121"/>
<path d="M90.8641 116.496L90.5122 123.504L86.1602 123.28L86.5122 116.288L90.8801 116.496H90.8641Z" fill="#212121"/>
<path d="M124.848 158.528L116.288 158.224L115.664 153.712L125.072 154.16L124.864 158.512L124.848 158.528Z" fill="#212121"/>
<path d="M128.304 89.376L121.264 89.024L121.488 84.688L128.512 85.04L128.304 89.376Z" fill="#212121"/>
<path d="M157.408 120C158.32 139.104 143.728 155.344 124.848 156.24C105.952 157.136 89.9199 142.336 89.0239 123.216C88.1119 104.112 102.704 87.872 121.6 87.008C140.48 86.096 156.528 100.896 157.408 120.016V120Z" fill="#212121"/>
<path d="M155.76 120.176C156.608 138.464 142.752 154.016 124.8 154.848C106.832 155.696 91.5683 141.52 90.7043 123.232C89.8403 104.912 103.712 89.392 121.664 88.528C139.632 87.68 154.896 101.84 155.744 120.176H155.76Z" fill="#212121"/>
<path d="M150.208 120.944C150.928 136.336 139.28 149.392 124.192 150.112C109.104 150.816 96.2562 138.896 95.5682 123.52C94.8322 108.144 106.48 95.072 121.584 94.384C136.656 93.664 149.488 105.568 150.208 120.96V120.944Z" fill="#212121"/>
<path d="M143.936 120.736C144.512 132.64 135.472 142.704 123.824 143.264C112.16 143.824 102.256 134.608 101.68 122.72C101.104 110.8 110.128 100.72 121.792 100.176C133.456 99.616 143.376 108.816 143.92 120.72L143.936 120.736Z" fill="#212121"/>
<path d="M134.576 120.96C134.88 127.696 129.808 133.408 123.2 133.728C116.592 134.032 110.992 128.816 110.688 122.08C110.352 115.36 115.472 109.664 122.064 109.344C128.672 109.024 134.272 114.224 134.592 120.944L134.576 120.96Z" fill="#212121"/>
<path d="M127.664 121.12C127.808 124.064 125.584 126.544 122.688 126.704C119.808 126.848 117.36 124.544 117.216 121.616C117.072 118.688 119.28 116.208 122.192 116.064C125.056 115.936 127.52 118.208 127.664 121.136V121.12Z" fill="#212121"/>
<path d="M102.191 87.584L108.911 85.456L110.223 89.632L103.503 91.744L102.207 87.584H102.191Z" fill="#373737"/>
<path d="M123.151 153.584L129.871 151.472L131.199 155.616L124.479 157.744L123.151 153.584Z" fill="#373737"/>
<path d="M150.783 107.152L152.911 113.84L148.751 115.168L146.639 108.48L150.799 107.168L150.783 107.152Z" fill="#373737"/>
<path d="M84.6234 128.064L86.7513 134.736L82.5913 136.032L80.4473 129.344L84.6234 128.048V128.064Z" fill="#373737"/>
<path d="M130.561 87.328L136.817 90.56L134.785 94.432L128.545 91.2L130.561 87.328Z" fill="#373737"/>
<path d="M98.5766 148.768L104.832 152.016L102.816 155.872L96.5605 152.64L98.5605 148.768H98.5766Z" fill="#373737"/>
<path d="M151.058 135.424L147.81 141.648L143.938 139.664L147.186 133.424L151.058 135.424Z" fill="#373737"/>
<path d="M89.4403 103.536L86.1923 109.776L82.3203 107.776L85.5522 101.536L89.4403 103.536Z" fill="#373737"/>
<path d="M142.56 95.12L147.12 100.496L143.776 103.312L139.232 97.952L142.576 95.12H142.56Z" fill="#373737"/>
<path d="M89.6005 139.888L94.1604 145.248L90.8165 148.064L86.2725 142.704L89.6165 139.888H89.6005Z" fill="#373737"/>
<path d="M143.216 147.392L137.84 151.952L135.024 148.624L140.384 144.08L143.2 147.392H143.216Z" fill="#373737"/>
<path d="M98.3684 94.592L92.9925 99.136L90.1445 95.824L95.5205 91.28L98.3684 94.592Z" fill="#373737"/>
<path d="M153.744 121.648L153.072 128.64L148.72 128.224L149.392 121.248L153.744 121.648Z" fill="#373737"/>
<path d="M84.6717 114.992L83.9677 121.984L79.6318 121.568L80.3198 114.576L84.6717 114.992Z" fill="#373737"/>
<path d="M116.639 158.592L109.615 157.888L110.063 153.568L117.071 154.24L116.655 158.592H116.639Z" fill="#373737"/>
<path d="M123.311 89.648L116.319 88.976L116.735 84.64L123.759 85.328L123.311 89.664V89.648Z" fill="#373737"/>
<path d="M150.992 121.616C150.992 140.752 135.664 156.272 116.752 156.272C97.84 156.272 82.4961 140.752 82.4961 121.616C82.4961 102.464 97.84 86.96 116.752 86.96C135.664 86.96 150.992 102.464 150.992 121.616Z" fill="#373737"/>
<path d="M149.311 121.696C149.311 140.032 134.719 154.896 116.751 154.896C98.7677 154.896 84.1758 140.032 84.1758 121.696C84.1758 103.36 98.7677 88.4959 116.751 88.4959C134.719 88.4959 149.311 103.376 149.311 121.696Z" fill="#373737"/>
<path d="M143.729 122.208C143.729 137.616 131.488 150.112 116.368 150.112C101.248 150.112 89.0244 137.616 89.0244 122.208C89.0244 106.8 101.264 94.32 116.368 94.32C131.488 94.32 143.729 106.8 143.729 122.208Z" fill="#474747"/>
<path fill-rule="evenodd" clip-rule="evenodd" d="M116.367 150.608C101.007 150.608 88.5273 137.872 88.5273 122.208C88.5273 106.56 101.007 93.824 116.367 93.824C131.743 93.824 144.223 106.56 144.223 122.208C144.223 137.872 131.743 150.608 116.367 150.608ZM116.367 94.8C101.567 94.8 89.5033 107.088 89.5033 122.192C89.5033 137.312 101.567 149.616 116.367 149.616C131.183 149.616 143.247 137.312 143.247 122.192C143.247 107.088 131.183 94.8 116.367 94.8Z" fill="#E5931C"/>
<path d="M137.488 121.696C137.488 133.616 128.016 143.264 116.336 143.264C104.656 143.264 95.2002 133.616 95.2002 121.696C95.2002 109.792 104.656 100.128 116.336 100.128C128.016 100.128 137.488 109.776 137.488 121.696Z" fill="#FDCA00"/>
<path d="M128.111 121.504C128.111 128.24 122.751 133.696 116.143 133.696C109.535 133.696 104.191 128.24 104.191 121.504C104.191 114.768 109.551 109.328 116.143 109.328C122.767 109.328 128.111 114.768 128.111 121.504Z" fill="#EEEEEE"/>
<path d="M121.216 121.344C121.216 124.288 118.848 126.656 115.984 126.656C113.104 126.656 110.768 124.288 110.768 121.344C110.768 118.384 113.104 116.016 115.984 116.016C118.848 116.016 121.216 118.4 121.216 121.344Z" fill="#474747"/>
<path d="M150.783 107.152L156.543 105.552L158.975 112.144L152.911 113.824L150.783 107.136V107.152Z" fill="#333333"/>
<path d="M153.743 121.648L160.175 119.92L159.823 126.928L153.071 128.64L153.743 121.648Z" fill="#333333"/>
<path d="M151.057 135.424L158.145 133.808L155.201 140.192L147.809 141.648L151.057 135.424Z" fill="#333333"/>
<path d="M143.216 147.392L150.896 146.128L145.728 150.912L137.84 151.936L143.216 147.376V147.392Z" fill="#333333"/>
<path d="M131.184 155.616L139.232 154.896L132.608 157.328L124.464 157.728L131.184 155.6V155.616Z" fill="#333333"/>
<path d="M116.607 158.128L117.823 158.192L124.848 158.528L116.639 158.576L116.607 158.112V158.128Z" fill="#212121"/>
<path d="M142.561 95.12L147.76 93.936L152.56 99.072L147.121 100.48L142.561 95.104V95.12Z" fill="#333333"/>
<path d="M130.56 87.328L135.408 86.704L141.808 89.632L136.816 90.5439L130.56 87.312V87.328Z" fill="#333333"/>
<path d="M116.735 84.64L121.487 84.688L128.511 85.04L123.759 85.328L116.735 84.64Z" fill="#333333"/>
<path d="M108.911 85.456L113.695 85.856L109.535 87.424L108.911 85.456Z" fill="#333333"/>
<path d="M131.072 109.808C131.072 111.392 129.792 112.64 128.24 112.64C126.688 112.64 125.424 111.392 125.424 109.808C125.424 108.256 126.688 107.008 128.24 107.008C129.808 107.008 131.072 108.256 131.072 109.808Z" fill="#474747"/>
<path d="M107.008 108.944C107.008 110.512 105.744 111.76 104.176 111.76C102.624 111.76 101.344 110.512 101.344 108.944C101.344 107.392 102.624 106.096 104.176 106.096C105.744 106.096 107.008 107.376 107.008 108.944Z" fill="#474747"/>
<path d="M130.16 133.872C130.16 135.424 128.896 136.688 127.328 136.688C125.776 136.688 124.512 135.424 124.512 133.872C124.512 132.32 125.776 131.024 127.328 131.024C128.896 131.024 130.16 132.304 130.16 133.872Z" fill="#474747"/>
<path d="M119.488 138.32C119.488 139.872 118.224 141.152 116.656 141.152C115.12 141.152 113.84 139.872 113.84 138.32C113.84 136.768 115.12 135.504 116.656 135.504C118.224 135.504 119.488 136.784 119.488 138.32Z" fill="#474747"/>
<path d="M118.591 104.192C118.591 105.744 117.311 107.008 115.759 107.008C114.207 107.008 112.943 105.728 112.943 104.192C112.943 102.624 114.223 101.36 115.759 101.36C117.311 101.36 118.591 102.624 118.591 104.192Z" fill="#474747"/>
<path d="M136.113 121.104C136.113 122.672 134.848 123.92 133.296 123.92C131.743 123.92 130.479 122.656 130.479 121.104C130.479 119.536 131.759 118.288 133.296 118.288C134.848 118.288 136.113 119.536 136.113 121.104Z" fill="#474747"/>
<path d="M102.272 121.104C102.272 122.672 100.992 123.92 99.4557 123.92C97.8877 123.92 96.6396 122.656 96.6396 121.104C96.6396 119.536 97.9037 118.288 99.4557 118.288C100.992 118.288 102.272 119.536 102.272 121.104Z" fill="#474747"/>
<path d="M107.008 133.872C107.008 135.424 105.744 136.688 104.176 136.688C102.624 136.688 101.344 135.424 101.344 133.872C101.344 132.32 102.624 131.024 104.176 131.024C105.744 131.024 107.008 132.304 107.008 133.872Z" fill="#474747"/>
<path d="M262.018 44.0287L263.908 49.5083C264.995 48.8834 268.114 47.9221 268.775 47.9221L267.169 43.9807C265.027 44.4934 263.31 44.5094 262.018 44.0287V44.0287Z" fill="#FFB882"/>
<path d="M263.578 44.8459C263.2 44.6536 262.917 44.0287 261.972 43.8365C259.136 43.2116 259.987 44.7978 259.656 45.1823C259.231 45.8072 257.53 45.9514 257.341 46.2398C256.868 46.9608 259.278 49.7486 259.987 50.4215C260.743 51.0464 263.436 50.5657 264.807 48.9796C265.153 48.595 264.744 47.2171 263.578 44.8459V44.8459Z" fill="#FFB882"/>
<path d="M259.42 45.8072C259.372 45.8553 257.151 46.3359 257.151 46.3359C256.679 47.0569 259.089 49.8928 259.845 50.5658C260.317 50.9984 261.782 50.758 263.011 50.2293C260.743 50.4696 260.223 49.6044 259.703 48.8354C258.947 47.7298 259.467 47.105 259.42 45.8072V45.8072Z" fill="#FFB882"/>
<path d="M262.113 47.7298C263.2 47.9221 264.051 47.3453 264.57 46.6243C264.145 45.4707 263.531 44.0768 261.971 43.8364C258.805 43.3558 259.987 44.7978 259.656 45.1823C259.514 45.4226 261.121 47.5376 262.113 47.7298V47.7298Z" fill="#FFB882"/>
<path d="M258.049 45.9994C256.962 46.432 255.923 46.8166 255.639 47.0569C255.356 47.3453 255.734 48.5469 256.348 48.4989C257.057 48.4989 259.041 47.5856 259.136 47.3934C259.278 47.2492 258.616 45.711 258.049 45.9994Z" fill="#FFB882"/>
<path d="M259.75 47.4895C258.711 47.9221 257.624 48.3547 257.341 48.595C257.057 48.8353 257.482 50.037 258.049 49.9889C258.758 49.9889 260.743 49.0757 260.884 48.8834C260.979 48.7392 260.317 47.2492 259.75 47.4895Z" fill="#FFB882"/>
<path d="M261.31 49.0757C260.932 49.2199 259.372 49.8448 259.089 50.037C258.711 50.3254 259.183 51.3348 259.798 51.3829C260.317 51.3829 262.444 50.3254 262.538 50.1332C262.633 49.989 261.829 48.8354 261.31 49.0757V49.0757Z" fill="#FFB882"/>
<path d="M258.049 45.9994C256.962 46.432 255.923 46.8166 255.639 47.0569C255.356 47.3453 255.734 48.5469 256.348 48.4989C257.057 48.4989 259.041 47.5856 259.136 47.3934C259.278 47.2492 258.616 45.711 258.049 45.9994Z" fill="#FFB882"/>
<path d="M258.995 44.5094C259.184 45.663 259.278 46.8166 259.467 47.153C259.656 47.4895 260.885 47.3453 260.979 46.7685C261.121 46.0475 260.743 43.8845 260.601 43.7403C260.46 43.5961 258.853 43.8845 258.995 44.5094V44.5094Z" fill="#FFB882"/>
<path d="M259.75 47.4895C258.711 47.9221 257.624 48.3547 257.341 48.595C257.057 48.8353 257.482 50.037 258.049 49.9889C258.758 49.9889 260.743 49.0757 260.884 48.8834C260.979 48.7392 260.317 47.2492 259.75 47.4895Z" fill="#FFB882"/>
<path d="M252.096 46.432C251.718 46.6243 250.158 47.2011 249.875 47.4414C249.497 47.7298 249.969 48.7392 250.583 48.7392C251.103 48.7392 253.23 47.6818 253.324 47.5376C253.466 47.3453 252.615 46.1917 252.096 46.432Z" fill="#FFB882"/>
<path d="M248.835 43.3558C247.796 43.7884 246.709 44.221 246.425 44.4613C246.142 44.7017 246.567 45.9033 247.134 45.8552C247.843 45.8552 249.827 44.942 249.922 44.7497C250.064 44.6055 249.402 43.1155 248.835 43.3558V43.3558Z" fill="#FFB882"/>
<path d="M250.537 44.8459C249.497 45.3265 248.41 45.711 248.127 45.9514C247.843 46.2398 248.268 47.3934 248.835 47.3934C249.544 47.3453 251.529 46.432 251.671 46.2878C251.765 46.0956 251.104 44.6055 250.537 44.8459Z" fill="#FFB882"/>
<defs>
<clipPath id="clip0_686_110">
<rect width="43" height="87" fill="white" transform="matrix(-1 0 0 1 289 0)"/>
</clipPath>
</defs>
</svg>
