<svg id="eU2jptw9Lx01" xmlns="http://www.w3.org/2000/svg" xmlns:xlink="http://www.w3.org/1999/xlink" viewBox="0 0 1080 1080" shape-rendering="geometricPrecision" text-rendering="geometricPrecision"><defs><rect id="eU2jptw9Lx02" width="18.6" height="18.6" rx="0" ry="0"/><rect id="eU2jptw9Lx03" width="18.6" height="18.6" rx="0" ry="0"/><rect id="eU2jptw9Lx04" width="18.6" height="18.6" rx="0" ry="0"/><rect id="eU2jptw9Lx05" width="18.6" height="18.6" rx="0" ry="0"/><rect id="eU2jptw9Lx06" width="18.6" height="18.6" rx="0" ry="0"/><rect id="eU2jptw9Lx07" width="18.6" height="18.6" rx="0" ry="0"/><rect id="eU2jptw9Lx08" width="18.6" height="18.6" rx="0" ry="0"/><rect id="eU2jptw9Lx09" width="18.6" height="18.6" rx="0" ry="0"/><rect id="eU2jptw9Lx010" width="18.6" height="18.6" rx="0" ry="0"/><rect id="eU2jptw9Lx011" width="18.6" height="18.6" rx="0" ry="0"/><rect id="eU2jptw9Lx012" width="18.6" height="18.6" rx="0" ry="0"/><rect id="eU2jptw9Lx013" width="18.6" height="18.6" rx="0" ry="0"/><rect id="eU2jptw9Lx014" width="18.6" height="18.6" rx="0" ry="0"/><rect id="eU2jptw9Lx015" width="18.6" height="18.6" rx="0" ry="0"/><rect id="eU2jptw9Lx016" width="18.6" height="18.6" rx="0" ry="0"/><rect id="eU2jptw9Lx017" width="18.6" height="18.6" rx="0" ry="0"/><rect id="eU2jptw9Lx018" width="18.6" height="18.6" rx="0" ry="0"/><rect id="eU2jptw9Lx019" width="18.6" height="18.6" rx="0" ry="0"/><rect id="eU2jptw9Lx020" width="18.6" height="18.6" rx="0" ry="0"/></defs><g id="eU2jptw9Lx021" transform="matrix(1.349038 0 0 1.370128 50.654621 -31.163985)"><g id="eU2jptw9Lx022"><circle id="eU2jptw9Lx023" r="62.29" transform="matrix(0.987743 -0.15609 0.15609 0.987743 261.947942 165.716316)" fill="rgb(255,176,84)" stroke="none" stroke-width="1"/><g id="eU2jptw9Lx024" transform="matrix(0.997081 0.076349 -0.076349 0.997081 13.600028 -19.523498)"><line id="eU2jptw9Lx025" x1="246.54" y1="72.32" x2="243.48" y2="52.96" fill="none" stroke="rgb(255,200,117)" stroke-width="15" stroke-linecap="round" stroke-linejoin="round"/><line id="eU2jptw9Lx026" x1="194.68" y1="98.71" x2="180.83" y2="84.85" fill="none" stroke="rgb(255,200,117)" stroke-width="15" stroke-linecap="round" stroke-linejoin="round"/><line id="eU2jptw9Lx027" x1="168.24" y1="150.55" x2="148.89" y2="147.48" fill="none" stroke="rgb(255,200,117)" stroke-width="15" stroke-linecap="round" stroke-linejoin="round"/><line id="eU2jptw9Lx028" x1="177.32" y1="208.03" x2="159.86" y2="216.92" fill="none" stroke="rgb(255,200,117)" stroke-width="15" stroke-linecap="round" stroke-linejoin="round"/><line id="eU2jptw9Lx029" x1="218.45" y1="249.2" x2="209.54" y2="266.65" fill="none" stroke="rgb(255,200,117)" stroke-width="15" stroke-linecap="round" stroke-linejoin="round"/><line id="eU2jptw9Lx030" x1="275.92" y1="258.32" x2="278.98" y2="277.67" fill="none" stroke="rgb(255,200,117)" stroke-width="15" stroke-linecap="round" stroke-linejoin="round"/><line id="eU2jptw9Lx031" x1="327.78" y1="231.93" x2="341.63" y2="245.78" fill="none" stroke="rgb(255,200,117)" stroke-width="15" stroke-linecap="round" stroke-linejoin="round"/><line id="eU2jptw9Lx032" x1="354.22" y1="180.09" x2="373.57" y2="183.16" fill="none" stroke="rgb(255,200,117)" stroke-width="15" stroke-linecap="round" stroke-linejoin="round"/><line id="eU2jptw9Lx033" x1="345.14" y1="122.61" x2="362.6" y2="113.72" fill="none" stroke="rgb(255,200,117)" stroke-width="15" stroke-linecap="round" stroke-linejoin="round"/><line id="eU2jptw9Lx034" x1="304.01" y1="81.44" x2="312.91" y2="63.99" fill="none" stroke="rgb(255,200,117)" stroke-width="15" stroke-linecap="round" stroke-linejoin="round"/></g></g><path id="eU2jptw9Lx035" d="M292.24,264C289.354785,216.534925,251.850072,178.498455,204.430318,174.945317C157.010565,171.392179,114.256353,203.414889,104.33,249.92C85.684593,243.127127,64.826995,246.881144,49.720163,259.748854C34.613332,272.616563,27.58942,292.611481,31.33,312.1C32.023183,315.496427,35.023663,317.926983,38.49,317.9L335.89,317.9C337.892023,317.905625,339.808003,317.086531,341.187249,315.63539C342.566494,314.18425,343.28726,312.229155,343.18,310.23C342.37,295.37,335.52,264,292.24,264Z" fill="rgb(92,176,209)" stroke="none" stroke-width="1"/></g><g id="eU2jptw9Lx036"><g id="eU2jptw9Lx037" transform="matrix(1 0 0 1 0.000002 0.000001)"><g id="eU2jptw9Lx038"><g id="eU2jptw9Lx039"><g id="eU2jptw9Lx040"><path id="eU2jptw9Lx041" d="M665.7,779.9C662,789.3,653.7,796.5,646.1,802.8C637.5,810,629.4,817.6,621.3,825.3C613,833.1,605,841.2,596.3,848.6C592.6,851.8,588.7,855.3,586.7,859.9C584.5,864.7,585.7,869.6,586.2,874.7C586.3,876,586.4,877.3,585.9,878.6C583.9,883.6,569.9,882.2,565.7,882.3C559.1,882.4,552.5,882.2,545.8,882.6C540.5,882.9,535.1,883.5,531.1,879.2C525.2,873,526.5,860.9,524.4,853C520.8,839.4,513.9,826.8,504.9,816C500.8,811.1,496.3,806.7,491.5,802.4C486.9,798.2,483.2,793.2,484.3,786.7C487.1,769.7,508.7,773.2,518.8,780.4C521.4,782.2,524.2,784.3,527.4,784.3C533,784.2,537.4,778.5,543,777.4C551.5,775.6,560,777,568.5,777.4C572.6,777.6,577.3,777.1,580.9,779.6C591.7,787,585.2,775.6,587.2,786.3C587.3,787,592.3,786,593,785.4C602.4,776.8,610.2,795.6,619.7,787C628.5,779,638.7,769.3,650.3,765.7C654.4,764.5,661.2,763.7,664.8,766.9C668.5,769.8,667.2,776,665.7,779.9" fill="rgb(0,0,0)" stroke="none" stroke-width="1"/><path id="eU2jptw9Lx042" d="M532.1,870.9L531.3,870.9C531.3,870.9,531.7,870.8,532,868.2C532,869.3,532,870.2,532.1,870.9" fill="rgb(127,60,51)" stroke="none" stroke-width="1"/><path id="eU2jptw9Lx043" d="M660.4,777.3C660.1,778.5,659.6,779.8,658.8,781.1C655.9,785.9,650.5,789.9,646.5,793.8C641.6,798.5,636.5,803.2,631.8,808C621.4,818.7,610.9,829.2,600.2,839.5C592.8,846.6,583.9,852.6,578.9,861.8C579.8,860.1,578.2,854.6,577.9,852.7C577.5,849.9,577,847.1,576.4,844.3C573,828.5,568,799.8,558.1,796C548.2,792.3,542.3,814.9,542.3,814.9C542.3,814.9,534.3,814.6,531.8,821.1C529.2,828,531.4,836.7,530.7,843.7C531.1,840.1,527.9,834.2,526.4,831C524.4,826.9,521.9,823,519.1,819.4C513.2,811.7,506,805.1,498.2,799.3C495.6,797.4,492.8,795.4,491.8,792.4C489.3,784.9,497.7,778.5,504.5,780.3C511,782,515.8,787.7,520.9,791.6C526.6,795.9,532.4,800,538.3,804C537.6,804,536,787.7,540.6,786C545.4,784.2,553.2,785.7,558.3,785.8C563,785.9,569.8,784.5,574.2,786.1C582,789,579.1,800.5,578.9,806.6C578.6,815.5,579.5,824.9,579.8,833.8C579.8,832.8,585.1,829.2,585.8,828.6C597.6,818.3,609.4,808,621.2,797.6C627.2,792.3,633.2,787.1,639.1,781.8C643.1,778.3,646.8,774.4,651.5,771.8C657.9,768.4,661.7,772,660.4,777.3" fill="rgb(115,51,45)" stroke="none" stroke-width="1"/><path id="eU2jptw9Lx044" d="M580.1,872.7L557.1,871.9L532.2,872.7C532.2,872.7,532.2,872.1,532.1,871C532.1,870.3,532,869.3,532,868.2L532,867.9C532.2,865.2,532.2,859.2,531.3,846.8C531.3,846,531.2,845.3,531,844.5C530.8,834,530.9,823.9,531.9,821C534.4,814.5,542.4,814.8,542.4,814.8C542.4,814.8,548.3,792.2,558.2,795.9C568.1,799.6,573,828.4,576.5,844.2C578,851.2,578.7,857.3,579,861.9C579.4,867.7,579.2,871.1,579.2,871.1L578.8,871.1C579.4,872.2,580.1,872.7,580.1,872.7" fill="rgb(143,85,76)" stroke="none" stroke-width="1"/><path id="eU2jptw9Lx045" d="M531.9,867.9C531.6,862.5,531.2,853.3,530.9,844.5C531,845.3,531.1,846,531.2,846.8C532.2,859.2,532.2,865.2,531.9,867.9" fill="rgb(140,82,73)" stroke="none" stroke-width="1"/><path id="eU2jptw9Lx046" d="M841.6,592.7C837.9,586.6,838.7,575.9,840.9,568.3C891.8,392.5,763.8,196.5,552.2,191.1C378.8,186.6,233.4,352.3,255.2,522.2C256.3,530.3,255.6,540.2,251.7,547C236.4,573.5,233.1,601.8,233.3,631.6C234,749.3,352.3,832.3,463.9,792.8C478.5,787.6,486.3,785.1,491.9,787.3L491.9,787.3C494.9,787.1,498.1,787.1,501.1,787.6C512.6,789.4,594.4,801.4,653.6,775.1C653.6,775.1,653.6,775.1,653.7,775.1C666.3,780.3,676,784.3,683.5,787.6C683.5,787.6,683.6,787.6,683.7,787.7C697.6,792.3,714.4,796,729.3,794.5C735.9,792.9,740.5,791.5,745.2,790.6C842.8,772,885.8,665.3,841.6,592.7ZM755.6,771C737.1,776.3,722.2,775.2,705.8,760.5C689.2,745.6,666.9,736.5,646,727C640,724.3,630.5,729.3,622.7,730.7C627.8,736.5,632.8,742.4,638,748.1C639.5,749.8,641.7,750.9,646.5,754.4C589,769.2,534.7,782,480,754C477.9,752.9,475.8,751.1,473.6,751C464.9,750.6,456.2,750.8,447.5,750.8C449.6,759.2,451.8,767.6,454.3,777.8C393.1,796.5,327.9,778.9,287.2,731.2C243.8,680.4,237.2,614.9,266.6,553.6C272.9,540.5,272.9,523.2,271.7,508.1C262.1,390.4,313.7,303.4,412.3,244.7C585.9,141.4,815.8,257.8,834.7,458C838,492.7,828,528.6,825.7,564C824.8,577.5,825.5,592.4,830.5,604.6C859.5,675.2,826.2,750.4,755.6,771Z" fill="none" stroke="rgb(0,0,0)" stroke-width="17.7359" stroke-miterlimit="10"/><path id="eU2jptw9Lx047" d="M482.7,776.6C457.7,791.2,428.6,799.6,397.5,799.6C303.9,799.6,228,723.7,228,630.1C228,607.9,232.3,586.8,240,567.4C239.4,573.4,239.1,579.4,239.1,585.6C239.1,694.2,327.2,782.3,435.8,782.3C452,782.2,467.7,780.3,482.7,776.6" fill="rgb(110,167,46)" stroke="none" stroke-width="1"/><path id="eU2jptw9Lx048" d="M856.2,661.5C856.2,731.9,799.1,789,728.8,789C712.9,789,697.6,786.1,683.6,780.8C768.3,774.9,837.4,711.9,852.3,629.9C854.8,640,856.2,650.6,856.2,661.5" fill="rgb(110,167,46)" stroke="none" stroke-width="1"/><path id="eU2jptw9Lx049" d="M839.3,433C802.3,306.5,685.5,214.2,547.1,214.2C434,214.2,335.3,275.9,282.9,367.4C328.6,264.9,431.4,193.5,550.9,193.5C694.5,193.6,814,296.7,839.3,433" fill="rgb(239,240,189)" stroke="none" stroke-width="1"/><path id="eU2jptw9Lx050" d="M852.2,629.9C838.7,704.1,780.8,762.9,707,777.6C699.3,779.1,691.5,780.2,683.5,780.8C675,777.5,667,773.5,659.5,768.6C656.7,766.8,654,764.8,651.3,762.8C639.9,767,628.2,770.4,616.2,773.1C595.2,777.9,573.3,780.4,550.9,780.4C538.3,780.4,525.9,779.6,513.6,778C513.4,778,513.3,778,513.1,778C505.7,777,498.4,775.8,491.1,774.3C489.9,774.1,488.7,773.8,487.5,773.6C485.9,774.6,484.2,775.6,482.6,776.6C467.6,780.3,451.9,782.2,435.7,782.2C417.4,782.2,399.7,779.7,382.9,775C299.9,751.9,239,675.8,239,585.4C239,579.3,239.3,573.2,239.9,567.2C241.4,563.3,243.1,559.5,244.9,555.7C246.7,552.1,248.5,548.6,250.5,545.2C252.9,541,255.5,536.9,258.3,532.9C259,531.9,259.7,530.8,260.5,529.8C259.1,520.4,258.2,510.9,257.8,501.3C257.5,496.5,257.4,491.7,257.4,486.9C257.4,444.3,266.5,403.9,282.8,367.3C335.3,275.8,434,214.1,547,214.1C685.4,214.1,802.2,306.4,839.2,432.9C842.5,450.4,844.2,468.4,844.2,486.9C844.2,500.4,843.3,513.7,841.5,526.8C838.9,545.9,834.5,564.4,828.3,582.1C832.8,587.7,836.8,593.8,840.3,600.1C845.6,609.5,849.6,619.4,852.2,629.9" fill="rgb(151,196,81)" stroke="none" stroke-width="1"/><path id="eU2jptw9Lx051" d="M760.6,718C730.5,740.3,696.3,757.6,659.5,768.6C629.8,777.5,598.3,782.2,565.7,782.2C548,782.2,530.6,780.8,513.6,778C513.4,778,513.3,778,513.1,778C387.2,757.7,285.2,665.7,250.6,545.3C253,541.1,255.6,537,258.4,533C313.4,664.8,443.6,757.5,595.3,757.5C654.9,757.5,711,743.2,760.6,718" fill="rgb(110,167,46)" stroke="none" stroke-width="1"/><path id="eU2jptw9Lx052" d="M685.4,374.8C685.4,393.3,670.4,408.2,652,408.2C633.5,408.2,618.6,393.2,618.6,374.8C618.6,356.3,633.6,341.4,652,341.4C670.5,341.4,685.4,356.4,685.4,374.8" fill="rgb(0,0,0)" stroke="none" stroke-width="1"/><path id="eU2jptw9Lx053" d="M645,431.8C644.9,431.9,644.7,432.1,644.6,432.3C644.8,432.2,644.9,432,645,431.8L645,431.8Z" fill="rgb(0,0,0)" stroke="none" stroke-width="1"/><path id="eU2jptw9Lx054" d="M443.3,481.8C442.5,481.2,441.8,480.8,441.3,480.4C442,481.1,442.6,481.5,443.3,481.8" fill="rgb(0,0,0)" stroke="none" stroke-width="1"/><path id="eU2jptw9Lx055" d="M659.4,278.3C659.5,278.3,659.6,278.4,659.8,278.5C659.7,278.5,659.5,278.4,659.4,278.3L659.4,278.3Z" fill="rgb(0,0,0)" stroke="none" stroke-width="1"/><path id="eU2jptw9Lx056" d="M755.2,362.1L755.1,362.2C755,361.9,754.9,361.5,754.7,361.2C754.9,361.5,755.1,361.8,755.2,362.1" fill="rgb(0,0,0)" stroke="none" stroke-width="1"/><path id="eU2jptw9Lx057" d="M760.1,401.3C760.1,401.3,774,434.9,773.6,469" fill="none" stroke="rgb(239,240,189)" stroke-width="14.1887" stroke-miterlimit="10"/><path id="eU2jptw9Lx058" d="M770.1,401.7C770.1,407.2,765.6,411.7,760.1,411.7C754.6,411.7,750.1,407.2,750.1,401.7C750.1,396.2,754.6,391.7,760.1,391.7C765.7,391.7,770.1,396.2,770.1,401.7" fill="rgb(239,240,189)" stroke="none" stroke-width="1"/><path id="eU2jptw9Lx059" d="M783.7,466.4C783.7,471.9,779.2,476.4,773.7,476.4C768.2,476.4,763.7,471.9,763.7,466.4C763.7,460.9,768.2,456.4,773.7,456.4C779.3,456.4,783.7,460.9,783.7,466.4" fill="rgb(239,240,189)" stroke="none" stroke-width="1"/><g id="eU2jptw9Lx060" opacity="0.61"><g id="eU2jptw9Lx061"><g id="eU2jptw9Lx062" clip-path="url(#eU2jptw9Lx064)"><path id="eU2jptw9Lx063" d="M606.1,311.2C606.1,316.3,601.9,320.5,596.8,320.5C591.7,320.5,587.5,316.3,587.5,311.2C587.5,306.1,591.7,301.9,596.8,301.9C601.9,302,606.1,306.1,606.1,311.2" fill="rgb(239,240,189)" stroke="none" stroke-width="1"/><clipPath id="eU2jptw9Lx064"><use id="eU2jptw9Lx065" width="18.6" height="18.6" xlink:href="#eU2jptw9Lx02" transform="matrix(1 0 0 1 587.5 302)" fill="rgb(0,0,0)" stroke="none" stroke-width="1"/></clipPath></g></g></g><g id="eU2jptw9Lx066" opacity="0.61"><g id="eU2jptw9Lx067"><g id="eU2jptw9Lx068" clip-path="url(#eU2jptw9Lx070)"><path id="eU2jptw9Lx069" d="M501.5,337.2C501.5,342.3,497.3,346.5,492.2,346.5C487.1,346.5,482.9,342.3,482.9,337.2C482.9,332.1,487.1,327.9,492.2,327.9C497.4,327.9,501.5,332.1,501.5,337.2" fill="rgb(239,240,189)" stroke="none" stroke-width="1"/><clipPath id="eU2jptw9Lx070"><use id="eU2jptw9Lx071" width="18.6" height="18.6" xlink:href="#eU2jptw9Lx03" transform="matrix(1 0 0 1 483 327.9)" fill="rgb(0,0,0)" stroke="none" stroke-width="1"/></clipPath></g></g></g><g id="eU2jptw9Lx072" opacity="0.61"><g id="eU2jptw9Lx073"><g id="eU2jptw9Lx074" clip-path="url(#eU2jptw9Lx076)"><path id="eU2jptw9Lx075" d="M550.1,393.8C550.1,398.9,545.9,403.1,540.8,403.1C535.7,403.1,531.5,398.9,531.5,393.8C531.5,388.7,535.7,384.5,540.8,384.5C545.9,384.5,550.1,388.7,550.1,393.8" fill="rgb(239,240,189)" stroke="none" stroke-width="1"/><clipPath id="eU2jptw9Lx076"><use id="eU2jptw9Lx077" width="18.6" height="18.6" xlink:href="#eU2jptw9Lx04" transform="matrix(1 0 0 1 531.5 384.6)" fill="rgb(0,0,0)" stroke="none" stroke-width="1"/></clipPath></g></g></g><g id="eU2jptw9Lx078" opacity="0.61"><g id="eU2jptw9Lx079"><g id="eU2jptw9Lx080" clip-path="url(#eU2jptw9Lx082)"><path id="eU2jptw9Lx081" d="M480.8,404.3C480.8,409.4,476.6,413.6,471.5,413.6C466.4,413.6,462.2,409.4,462.2,404.3C462.2,399.2,466.4,395,471.5,395C476.7,395.1,480.8,399.2,480.8,404.3" fill="rgb(239,240,189)" stroke="none" stroke-width="1"/><clipPath id="eU2jptw9Lx082"><use id="eU2jptw9Lx083" width="18.6" height="18.6" xlink:href="#eU2jptw9Lx05" transform="matrix(1 0 0 1 462.3 395.1)" fill="rgb(0,0,0)" stroke="none" stroke-width="1"/></clipPath></g></g></g><g id="eU2jptw9Lx084" opacity="0.61"><g id="eU2jptw9Lx085"><g id="eU2jptw9Lx086" clip-path="url(#eU2jptw9Lx088)"><path id="eU2jptw9Lx087" d="M605.2,431.9C605.2,437,601,441.2,595.9,441.2C590.8,441.2,586.6,437,586.6,431.9C586.6,426.8,590.8,422.6,595.9,422.6C601,422.6,605.2,426.8,605.2,431.9" fill="rgb(239,240,189)" stroke="none" stroke-width="1"/><clipPath id="eU2jptw9Lx088"><use id="eU2jptw9Lx089" width="18.6" height="18.6" xlink:href="#eU2jptw9Lx06" transform="matrix(1 0 0 1 586.6 422.6)" fill="rgb(0,0,0)" stroke="none" stroke-width="1"/></clipPath></g></g></g><g id="eU2jptw9Lx090" opacity="0.61"><g id="eU2jptw9Lx091"><g id="eU2jptw9Lx092" clip-path="url(#eU2jptw9Lx094)"><path id="eU2jptw9Lx093" d="M687.4,454C691.2,457.4,691.5,463.3,688.1,467.1C684.7,470.9,678.8,471.2,675,467.8C671.2,464.4,670.9,458.5,674.3,454.7C677.8,450.9,683.6,450.6,687.4,454" fill="rgb(239,240,189)" stroke="none" stroke-width="1"/><clipPath id="eU2jptw9Lx094"><use id="eU2jptw9Lx095" width="18.6" height="18.6" xlink:href="#eU2jptw9Lx07" transform="matrix(1 0 0 1 672 451.7)" fill="rgb(0,0,0)" stroke="none" stroke-width="1"/></clipPath></g></g></g><g id="eU2jptw9Lx096" opacity="0.61"><g id="eU2jptw9Lx097"><g id="eU2jptw9Lx098" clip-path="url(#eU2jptw9Lx0100)"><path id="eU2jptw9Lx099" d="M737.8,536.4C741.6,539.8,741.9,545.7,738.5,549.5C735.1,553.3,729.2,553.6,725.4,550.2C721.6,546.8,721.3,540.9,724.7,537.1C728.1,533.3,734,533,737.8,536.4" fill="rgb(239,240,189)" stroke="none" stroke-width="1"/><clipPath id="eU2jptw9Lx0100"><use id="eU2jptw9Lx0101" width="18.6" height="18.6" xlink:href="#eU2jptw9Lx08" transform="matrix(1 0 0 1 722.3 534)" fill="rgb(0,0,0)" stroke="none" stroke-width="1"/></clipPath></g></g></g><g id="eU2jptw9Lx0102" opacity="0.61"><g id="eU2jptw9Lx0103"><g id="eU2jptw9Lx0104" clip-path="url(#eU2jptw9Lx0106)"><path id="eU2jptw9Lx0105" d="M537.4,470.9C537.4,476,533.2,480.2,528.1,480.2C523,480.2,518.8,476,518.8,470.9C518.8,465.8,523,461.6,528.1,461.6C533.2,461.6,537.4,465.7,537.4,470.9" fill="rgb(239,240,189)" stroke="none" stroke-width="1"/><clipPath id="eU2jptw9Lx0106"><use id="eU2jptw9Lx0107" width="18.6" height="18.6" xlink:href="#eU2jptw9Lx09" transform="matrix(1 0 0 1 518.9 461.6)" fill="rgb(0,0,0)" stroke="none" stroke-width="1"/></clipPath></g></g></g><g id="eU2jptw9Lx0108" opacity="0.61"><g id="eU2jptw9Lx0109"><g id="eU2jptw9Lx0110" clip-path="url(#eU2jptw9Lx0112)"><path id="eU2jptw9Lx0111" d="M437.2,351.6C437.2,356.7,433,360.9,427.9,360.9C422.8,360.9,418.6,356.7,418.6,351.6C418.6,346.5,422.8,342.3,427.9,342.3C433,342.3,437.2,346.5,437.2,351.6" fill="rgb(239,240,189)" stroke="none" stroke-width="1"/><clipPath id="eU2jptw9Lx0112"><use id="eU2jptw9Lx0113" width="18.6" height="18.6" xlink:href="#eU2jptw9Lx010" transform="matrix(1 0 0 1 418.6 342.3)" fill="rgb(0,0,0)" stroke="none" stroke-width="1"/></clipPath></g></g></g><g id="eU2jptw9Lx0114" opacity="0.61"><g id="eU2jptw9Lx0115"><g id="eU2jptw9Lx0116" clip-path="url(#eU2jptw9Lx0118)"><path id="eU2jptw9Lx0117" d="M396.8,424C396.8,429.1,392.6,433.3,387.5,433.3C382.4,433.3,378.2,429.1,378.2,424C378.2,418.9,382.4,414.7,387.5,414.7C392.7,414.7,396.8,418.9,396.8,424" fill="rgb(239,240,189)" stroke="none" stroke-width="1"/><clipPath id="eU2jptw9Lx0118"><use id="eU2jptw9Lx0119" width="18.6" height="18.6" xlink:href="#eU2jptw9Lx011" transform="matrix(1 0 0 1 378.3 414.7)" fill="rgb(0,0,0)" stroke="none" stroke-width="1"/></clipPath></g></g></g><g id="eU2jptw9Lx0120" opacity="0.61"><g id="eU2jptw9Lx0121"><g id="eU2jptw9Lx0122" clip-path="url(#eU2jptw9Lx0124)"><path id="eU2jptw9Lx0123" d="M418.2,527.9C418.2,533,414,537.2,408.9,537.2C403.8,537.2,399.6,533,399.6,527.9C399.6,522.8,403.8,518.6,408.9,518.6C414,518.6,418.2,522.8,418.2,527.9" fill="rgb(239,240,189)" stroke="none" stroke-width="1"/><clipPath id="eU2jptw9Lx0124"><use id="eU2jptw9Lx0125" width="18.6" height="18.6" xlink:href="#eU2jptw9Lx012" transform="matrix(1 0 0 1 399.6 518.6)" fill="rgb(0,0,0)" stroke="none" stroke-width="1"/></clipPath></g></g></g><g id="eU2jptw9Lx0126" opacity="0.61"><g id="eU2jptw9Lx0127"><g id="eU2jptw9Lx0128" clip-path="url(#eU2jptw9Lx0130)"><path id="eU2jptw9Lx0129" d="M333.7,533.5C333.7,538.6,329.5,542.8,324.4,542.8C319.3,542.8,315.1,538.6,315.1,533.5C315.1,528.4,319.3,524.2,324.4,524.2C329.6,524.2,333.7,528.4,333.7,533.5" fill="rgb(239,240,189)" stroke="none" stroke-width="1"/><clipPath id="eU2jptw9Lx0130"><use id="eU2jptw9Lx0131" width="18.6" height="18.6" xlink:href="#eU2jptw9Lx013" transform="matrix(1 0 0 1 315.2 524.2)" fill="rgb(0,0,0)" stroke="none" stroke-width="1"/></clipPath></g></g></g><g id="eU2jptw9Lx0132" opacity="0.61"><g id="eU2jptw9Lx0133"><g id="eU2jptw9Lx0134" clip-path="url(#eU2jptw9Lx0136)"><path id="eU2jptw9Lx0135" d="M446.3,599.6C444.4,604.4,439,606.7,434.2,604.8C429.4,602.9,427.1,597.5,429,592.7C430.9,587.9,436.3,585.6,441.1,587.5C445.9,589.4,448.2,594.8,446.3,599.6" fill="rgb(239,240,189)" stroke="none" stroke-width="1"/><clipPath id="eU2jptw9Lx0136"><use id="eU2jptw9Lx0137" width="18.6" height="18.6" xlink:href="#eU2jptw9Lx014" transform="matrix(1 0 0 1 428.4 586.9)" fill="rgb(0,0,0)" stroke="none" stroke-width="1"/></clipPath></g></g></g><g id="eU2jptw9Lx0138" opacity="0.61"><g id="eU2jptw9Lx0139"><g id="eU2jptw9Lx0140" clip-path="url(#eU2jptw9Lx0142)"><path id="eU2jptw9Lx0141" d="M504.3,564.2C502.4,569,497,571.3,492.2,569.4C487.4,567.5,485.1,562.1,487,557.3C488.9,552.5,494.3,550.2,499.1,552.1C503.9,554,506.2,559.4,504.3,564.2" fill="rgb(239,240,189)" stroke="none" stroke-width="1"/><clipPath id="eU2jptw9Lx0142"><use id="eU2jptw9Lx0143" width="18.6" height="18.6" xlink:href="#eU2jptw9Lx015" transform="matrix(1 0 0 1 486.4 551.4)" fill="rgb(0,0,0)" stroke="none" stroke-width="1"/></clipPath></g></g></g><g id="eU2jptw9Lx0144" opacity="0.61"><g id="eU2jptw9Lx0145"><g id="eU2jptw9Lx0146" clip-path="url(#eU2jptw9Lx0148)"><path id="eU2jptw9Lx0147" d="M569.7,610.6C567.8,615.4,562.4,617.7,557.6,615.8C552.8,613.9,550.5,608.5,552.4,603.7C554.3,598.9,559.7,596.6,564.5,598.5C569.3,600.4,571.6,605.8,569.7,610.6" fill="rgb(239,240,189)" stroke="none" stroke-width="1"/><clipPath id="eU2jptw9Lx0148"><use id="eU2jptw9Lx0149" width="18.6" height="18.6" xlink:href="#eU2jptw9Lx016" transform="matrix(1 0 0 1 551.8 597.8)" fill="rgb(0,0,0)" stroke="none" stroke-width="1"/></clipPath></g></g></g><g id="eU2jptw9Lx0150" opacity="0.61"><g id="eU2jptw9Lx0151"><g id="eU2jptw9Lx0152" clip-path="url(#eU2jptw9Lx0154)"><path id="eU2jptw9Lx0153" d="M661.1,577.2C659.2,582,653.8,584.3,649,582.4C644.2,580.5,641.9,575.1,643.8,570.3C645.7,565.5,651.1,563.2,655.9,565.1C660.7,567,663,572.4,661.1,577.2" fill="rgb(239,240,189)" stroke="none" stroke-width="1"/><clipPath id="eU2jptw9Lx0154"><use id="eU2jptw9Lx0155" width="18.6" height="18.6" xlink:href="#eU2jptw9Lx017" transform="matrix(1 0 0 1 643.2 564.4)" fill="rgb(0,0,0)" stroke="none" stroke-width="1"/></clipPath></g></g></g><g id="eU2jptw9Lx0156" opacity="0.61"><g id="eU2jptw9Lx0157"><g id="eU2jptw9Lx0158" clip-path="url(#eU2jptw9Lx0160)"><path id="eU2jptw9Lx0159" d="M724.2,621.7C722.3,626.5,716.9,628.8,712.1,626.9C707.3,625,705,619.6,706.9,614.8C708.8,610,714.2,607.7,719,609.6C723.8,611.5,726.1,616.9,724.2,621.7" fill="rgb(239,240,189)" stroke="none" stroke-width="1"/><clipPath id="eU2jptw9Lx0160"><use id="eU2jptw9Lx0161" width="18.6" height="18.6" xlink:href="#eU2jptw9Lx018" transform="matrix(1 0 0 1 706.3 609)" fill="rgb(0,0,0)" stroke="none" stroke-width="1"/></clipPath></g></g></g><g id="eU2jptw9Lx0162" opacity="0.61"><g id="eU2jptw9Lx0163"><g id="eU2jptw9Lx0164" clip-path="url(#eU2jptw9Lx0166)"><path id="eU2jptw9Lx0165" d="M439.3,665.6C437.4,670.4,432,672.7,427.2,670.8C422.4,668.9,420.1,663.5,422,658.7C423.9,653.9,429.3,651.6,434.1,653.5C438.9,655.5,441.2,660.9,439.3,665.6" fill="rgb(239,240,189)" stroke="none" stroke-width="1"/><clipPath id="eU2jptw9Lx0166"><use id="eU2jptw9Lx0167" width="18.6" height="18.6" xlink:href="#eU2jptw9Lx019" transform="matrix(1 0 0 1 421.4 652.9)" fill="rgb(0,0,0)" stroke="none" stroke-width="1"/></clipPath></g></g></g><g id="eU2jptw9Lx0168" opacity="0.61"><g id="eU2jptw9Lx0169"><g id="eU2jptw9Lx0170" clip-path="url(#eU2jptw9Lx0172)"><path id="eU2jptw9Lx0171" d="M331.7,713.6C329.8,718.4,324.4,720.7,319.6,718.8C314.8,716.9,312.5,711.5,314.4,706.7C316.3,701.9,321.7,699.6,326.5,701.5C331.3,703.4,333.6,708.8,331.7,713.6" fill="rgb(239,240,189)" stroke="none" stroke-width="1"/><clipPath id="eU2jptw9Lx0172"><use id="eU2jptw9Lx0173" width="18.6" height="18.6" xlink:href="#eU2jptw9Lx020" transform="matrix(1 0 0 1 313.8 700.8)" fill="rgb(0,0,0)" stroke="none" stroke-width="1"/></clipPath></g></g></g><path id="eU2jptw9Lx0174" d="M471.1,409.1C471.1,427.6,456.1,442.5,437.7,442.5C419.2,442.5,404.3,427.5,404.3,409.1C404.3,390.6,419.3,375.7,437.7,375.7C456.1,375.7,471.1,390.7,471.1,409.1" fill="rgb(0,0,0)" stroke="none" stroke-width="1"/><path id="eU2jptw9Lx0175" d="M731.2,363.7C723.7,350.3,699.8,314,655.2,298.9C648.4,296.6,645.5,288,650.3,282.7C652.2,280.6,655.1,279.1,659.7,279.3C674.8,280,733.5,320.8,749.5,357.9C749.5,357.9,751.1,367.4,742.7,369.2C738.1,370.2,733.5,367.7,731.2,363.7" fill="rgb(239,240,189)" stroke="none" stroke-width="1"/><path id="eU2jptw9Lx0176" d="M723.6,939.1C719.1,939.2,715.3,935.5,715.3,930.9L715.3,930.8C714.9,814.1,645.4,775.3,622.8,765.8C618.9,764.2,616.9,759.9,618.1,755.8C619.5,751,624.7,748.5,629.2,750.5C654,761.4,724.7,802.3,731.3,914.2C731.6,918.6,735.2,922.1,739.6,922.1L793.8,921.2C798.3,921.1,802,924.8,802.1,929.3L802.1,929.5C802.2,934.1,798.6,937.8,794,937.9L723.6,939.1Z" fill="rgb(0,0,0)" stroke="none" stroke-width="1"/><path id="eU2jptw9Lx0177" d="M723.6,939.1C719.1,939.2,715.3,935.5,715.3,930.9L715.3,930.8C714.9,814.1,645.4,775.3,622.8,765.8C618.9,764.2,616.9,759.9,618.1,755.8C619.5,751,624.7,748.5,629.2,750.5C654,761.4,724.7,802.3,731.3,914.2C731.6,918.6,735.2,922.1,739.6,922.1L793.8,921.2C798.3,921.1,802,924.8,802.1,929.3L802.1,929.5C802.2,934.1,798.6,937.8,794,937.9L723.6,939.1Z" fill="none" stroke="rgb(0,0,0)" stroke-width="2.6604" stroke-miterlimit="10"/><path id="eU2jptw9Lx0178" d="M537.3,950.2C532.5,950.6,528.2,947.2,527.8,942.5L527.8,942.4C517.6,824.9,440.5,791,415.8,783.1C411.6,781.7,409.1,777.6,410,773.4C411.1,768.5,416.3,765.6,421.3,767.2C448.5,776.4,526.9,812.2,543.4,924.5C544.1,929,548.2,932.2,552.8,931.8L610.1,926.8C614.9,926.4,619.1,929.8,619.6,934.4L619.6,934.6C620.1,939.2,616.5,943.3,611.8,943.7L537.3,950.2Z" fill="rgb(0,0,0)" stroke="none" stroke-width="1"/><path id="eU2jptw9Lx0179" d="M537.3,950.2C532.5,950.6,528.2,947.2,527.8,942.5L527.8,942.4C517.6,824.9,440.5,791,415.8,783.1C411.6,781.7,409.1,777.6,410,773.4C411.1,768.5,416.3,765.6,421.3,767.2C448.5,776.4,526.9,812.2,543.4,924.5C544.1,929,548.2,932.2,552.8,931.8L610.1,926.8C614.9,926.4,619.1,929.8,619.6,934.4L619.6,934.6C620.1,939.2,616.5,943.3,611.8,943.7L537.3,950.2Z" fill="none" stroke="rgb(0,0,0)" stroke-width="2.6604" stroke-miterlimit="10"/><path id="eU2jptw9Lx0180" d="M667.8,439C667.8,442.4,666.5,445.4,664.3,447.7C642.2,484.6,613,507.2,577.6,514.8C568.5,516.7,559.5,517.6,550.6,517.6C499.5,517.6,454.7,489.7,443.2,482C442.4,481.4,441.7,481,441.2,480.6C441,480.6,440.9,480.4,440.8,480.3C440.7,480.3,440.5,480.2,440.5,480.1C438,477.8,436.5,474.5,436.5,470.9C436.5,464,442.1,458.4,449,458.4C452.5,458.4,455.5,459.8,457.8,462L457.8,462C470.3,470.2,522.1,501.4,572.5,490.6C601.4,484.5,625.5,465.1,644.1,433.2C644.1,433.2,644.1,433.1,644.2,433.1C644.3,432.9,644.4,432.7,644.5,432.6C644.6,432.4,644.7,432.2,644.9,432.1C647.1,428.8,650.9,426.8,655.1,426.8C662.2,426.5,667.8,432.1,667.8,439" fill="rgb(0,0,0)" stroke="none" stroke-width="1"/></g></g></g></g><g id="eU2jptw9Lx0181" transform="matrix(0.998146 0.060858 -0.060858 0.998146 43.842178 -22.26901)"><path id="eU2jptw9Lx0182" d="M386.2,823.5C384.8,866.1,383.5,908.7,382.2,951.3C364.3,950.6,347,947.4,330.6,939.9C328,938.7,325.5,937.2,323.2,935.4C319.2,932.3,316.2,928.5,315.5,923.3C315.3,922.2,315,921.2,314.7,920.1C314.7,919.8,314.7,919.4,314.6,919.1C314.6,918.9,314.6,918.8,314.5,918.6C314.3,917.6,314.1,916.7,313.9,915.7C313.9,915.4,313.8,915.2,313.8,914.9C313.2,910.4,312.5,905.9,311.9,901.4C311.8,901.1,311.8,900.8,311.7,900.5C311.7,899.6,311.9,898.7,311.4,897.9C311.4,897.6,311.3,897.3,311.3,896.9C311,892.9,310.6,888.8,309.7,884.9C309.8,884.8,309.8,884.7,309.7,884.6C309.5,882.9,309.4,881.2,309.2,879.5C309.3,879.3,309.2,879.2,309.2,879C308.8,875.6,308.4,872.1,308,868.7L307.7,867.2C307,860.3,306.3,853.5,305.6,846.6C305.7,846.4,305.7,846.3,305.6,846.2L305.6,846.2L304.7,838.9C304.6,838.6,304.6,838.3,304.5,838C304.7,834.8,304,831.8,303.7,828.7C303.1,823.2,302.9,817.6,301.8,812.1C301.8,811.8,301.8,811.6,301.8,811.3C301.8,810.8,301.8,810.3,301.8,809.8C301.8,809.5,301.8,809.1,301.7,808.8C301.6,805.8,300.8,802.9,301.1,800C303.9,802,306.5,804.4,309.7,805.9C324.6,813.1,340.6,815.5,356.7,817.6C363.4,818.5,370.1,818.8,376.8,819.5C377,820.6,377.9,820.4,378.6,820.4C380.2,820.5,381.8,820.6,383.4,820.5C385.5,820.3,386.3,821.1,386.2,823.5Z" fill="rgb(78,179,189)" stroke="none" stroke-width="1"/><path id="eU2jptw9Lx0183" d="M471.6,805.7C471.2,812.3,469.7,818.8,468.7,825.4C467.2,835.1,465.6,844.8,463.9,854.5C461.7,867.1,459.6,879.6,457.3,892.1C455.3,903.3,453,914.4,450.5,925.5C449,932.4,444.9,937,438.9,940.2C429.4,945.3,419,947.6,408.5,949.1C399.8,950.4,391,951.2,382.1,950.8C383.4,908.2,384.7,865.6,386.1,823C386.2,820.6,385.5,819.8,383.2,820C381.6,820.1,380,819.9,378.4,819.9C377.7,819.9,376.8,820.1,376.6,819C381.9,819.2,387.3,819.5,392.6,819.5C404.7,819.6,416.7,819.3,428.7,817.9C443.7,816.2,458.6,814.3,471.6,805.7Z" fill="rgb(92,193,205)" stroke="none" stroke-width="1"/><path id="eU2jptw9Lx0184" d="M473,791.1C471.9,790.2,470.8,789.2,469.7,788.3L469.7,788.3C467.5,787,465.5,785.4,463.1,784.6C462.3,784.2,461.6,783.8,460.8,783.5C453.6,780.5,446.1,778.5,438.4,777C432.2,775.8,426.1,774.4,419.8,773.7C402.7,771.8,385.7,770.3,368.4,771.3C361.3,771.7,354.1,771.8,347,772.4C338.4,773.1,329.9,774.5,321.5,776.7C315.6,777.9,310.1,780.1,304.9,783.1C303.7,784,302.5,784.9,301.3,785.8C297.4,790.2,297.5,794.8,300.8,799.4C303.6,801.4,306.2,803.8,309.4,805.3C324.3,812.5,340.3,814.9,356.4,817C363.1,817.9,369.8,818.2,376.5,818.9C381.8,819.1,387.2,819.4,392.5,819.4C404.6,819.5,416.6,819.2,428.6,817.8C443.6,816.1,458.5,814.2,471.5,805.6C476,801.2,477,796.4,473,791.1ZM375.2,771.8C375.5,771.9,375.8,772,375.8,772.4C375.8,772.9,375.5,773.1,375,773.1C374.6,773.1,374.5,772.7,374.5,772.4C374.5,772,374.8,771.8,375.2,771.8ZM466.1,799.9C465.7,800.2,465.4,800.6,465,801C464.8,801.5,464.4,801.6,464,801.6C464,801.6,464,801.6,464,801.6C463.8,801.6,463.6,801.6,463.4,801.6C458.5,804,453.4,805.8,448,806.8C443.4,807.9,438.8,808.8,434.1,809.4C433.7,809.4,433.2,809.4,433,809.9C427.1,810.3,421.2,810.7,415.4,811.1C403.6,811.9,391.8,811.9,380,811.1C374.5,810.7,368.9,810.9,363.5,809.8C363.2,809.8,362.8,809.7,362.5,809.7C360.6,809.9,358.8,809.3,356.9,809.1C356.6,809.1,356.2,809.1,355.9,809.2C343.2,807.3,330.6,805.3,318.5,800.7C315.6,799.6,312.6,798.5,310.2,796.4C308.5,795.7,306.5,794.8,306.4,793C306.3,791.2,308.4,790.4,309.8,789.6C314.8,786.6,320.4,785.1,326.1,783.8C336.9,781.3,347.8,780.2,358.8,779.5C371.4,778.7,384.1,779,396.8,779.6C409.5,780.2,422.1,781.7,434.6,784.2C443.4,785.9,452,788,460.1,791.8C462.4,792.8,464.4,794.1,466.3,795.7C468.1,797.2,468.1,798.5,466.1,799.9Z" fill="rgb(8,124,137)" stroke="none" stroke-width="1"/><path id="eU2jptw9Lx0185" d="M469.7,788.3L469.7,788.3C469.2,782.5,467.8,776.9,466.1,771.4C456.6,741.6,437.5,721.3,406.9,712.8C406.5,711.7,406.5,710.7,407,709.7C437.7,717.9,457.3,737.8,467.8,767.3C470.5,775,472.3,783,473,791.1C471.9,790.2,470.8,789.3,469.7,788.3Z" fill="rgb(160,134,125)" stroke="none" stroke-width="1"/><path id="eU2jptw9Lx0186" d="M372.7,710.3C372.7,710.5,372.7,710.6,372.7,710.8C372.7,710.8,372.7,710.8,372.7,710.8C372.7,710.9,372.7,711.1,372.7,711.2C372.7,711.3,372.7,711.4,372.7,711.5C372.7,711.6,372.7,711.7,372.6,711.8C372.6,711.8,372.6,711.8,372.6,711.8C372.6,712,372.5,712.2,372.5,712.4C372.5,712.5,372.5,712.6,372.5,712.7C372.5,711.5,371.6,711.8,370.6,712C365.7,713,361,714.4,356.5,716.3C335,725.3,320.4,741,311.3,762.2C308.4,768.9,306.1,775.8,305,783.1C303.8,784,302.6,784.9,301.4,785.8C301.7,784.4,301.9,783,302.2,781.5C304.8,769.1,309.4,757.6,315.8,746.8C315.9,746.7,315.9,746.7,315.9,746.6C317.9,743.9,319.8,741.1,321.8,738.4C321.8,738.4,321.8,738.4,321.8,738.4C323.1,736.9,324.4,735.4,325.7,733.9C325.9,733.9,326,733.8,326,733.6C326.8,732.8,327.8,732.2,328.2,731.1L328.2,731.1C329.2,730.7,329.8,730.1,330.3,729.1L330.3,729.1C331.4,728.7,332.1,727.8,332.9,727C333,726.9,333.2,726.8,333.3,726.6C337,724,340.6,721.3,344.3,718.7L344.3,718.7C345.1,718.3,345.8,718,346.6,717.6C354.6,713.2,363.1,710.1,372.2,708.6C372.2,708.7,372.3,708.8,372.3,708.8C372.3,708.9,372.4,709,372.4,709C372.5,709.3,372.6,709.7,372.6,710C372.7,710.1,372.7,710.2,372.7,710.3Z" fill="rgb(160,134,125)" stroke="none" stroke-width="1"/><path id="eU2jptw9Lx0187" d="M377.9,706.8C386.1,707,394.2,707.2,402.4,707.4C402.4,709.5,402.3,711.6,402.3,713.7C395.2,713.4,388,713.2,380.9,712.9C380.7,712.7,380.6,712.7,380.4,712.9C379.5,712.9,378.7,712.8,377.8,712.8C377.6,712.7,377.5,712.6,377.3,712.5C376.7,710.6,376.7,708.7,377.6,706.9C377.6,706.9,377.8,706.8,377.9,706.8Z" fill="rgb(238,121,19)" stroke="none" stroke-width="1"/><path id="eU2jptw9Lx0188" d="M402.3,713.6C402.3,711.5,402.4,709.4,402.4,707.3C402.6,704.9,404.4,706.4,405.5,706.1C406.7,705.8,406.9,706.7,406.9,707.6C406.9,708.3,407,708.9,407,709.6C406.5,710.6,406.4,711.7,406.9,712.7C406.6,713.7,407,715.4,405.1,714.9C404.1,714.8,402.1,716.2,402.3,713.6Z" fill="rgb(249,188,70)" stroke="none" stroke-width="1"/><path id="eU2jptw9Lx0189" d="M372.3,708.6C372.3,707.8,372.3,707,372.3,706.1C373.7,704.5,376.4,704.8,377.5,706.6C377.5,706.6,377.6,706.8,377.6,706.8C376.7,708.6,376.7,710.5,377.3,712.4C377.3,712.5,377.3,712.6,377.3,712.7C376.3,714.4,374.2,714.6,372.4,713.2C372.5,711.7,373.2,710.1,372.3,708.6Z" fill="rgb(249,193,58)" stroke="none" stroke-width="1"/><path id="eU2jptw9Lx0190" d="M463.5,801.5C458.6,803.9,453.5,805.7,448.1,806.7C447.5,806,446.8,806.3,446,806.4C436,808.3,425.8,809.8,415.6,810.2C406.3,810.6,397,811.1,387.6,810.5C382.7,810.2,377.8,810.4,372.9,809.7C369.9,809.3,366.7,808.8,363.6,809.8C363.3,809.8,362.9,809.7,362.6,809.7C360.9,807.9,358.9,808.6,357,809.1C356.7,809.1,356.3,809.1,356,809.2C343.3,807.3,330.7,805.3,318.6,800.7C315.7,799.6,312.7,798.5,310.3,796.4C313.7,795.6,317.1,794.7,320.5,794.1C338.2,791.1,356,790.7,373.9,790.8C384,790.8,394.2,791.3,404.3,791.9C420.1,792.9,435.8,794.5,451.3,797.7C455.4,798.5,459.7,799.2,463.5,801.5Z" fill="rgb(189,222,246)" stroke="none" stroke-width="1"/><path id="eU2jptw9Lx0191" d="M466.1,799.9C465.7,800.2,465.4,800.6,465,801C464.7,801.2,464.3,801.4,464,801.6C463.8,801.6,463.6,801.6,463.4,801.6C459.6,799.3,455.3,798.6,451.1,797.8C435.6,794.6,419.9,793,404.1,792C394,791.4,383.9,790.9,373.7,790.9C355.8,790.9,338,791.2,320.3,794.2C316.9,794.8,313.5,795.7,310.1,796.5C308.4,795.8,306.4,794.9,306.3,793.1C306.2,791.3,308.3,790.5,309.7,789.7C314.7,786.7,320.3,785.2,326,783.9C336.8,781.4,347.7,780.3,358.7,779.6C371.3,778.8,384,779.1,396.7,779.7C409.4,780.3,422,781.8,434.5,784.3C443.3,786,451.9,788.1,460,791.9C462.3,792.9,464.3,794.2,466.2,795.8C468.1,797.2,468.1,798.5,466.1,799.9Z" fill="rgb(75,164,172)" stroke="none" stroke-width="1"/></g><g id="eU2jptw9Lx0192"><path id="eU2jptw9Lx0193" d="M248.4,648.9C241.2,638.9,237.1,628.6,236.1,617.9C232.8,583.7,262,557.3,277.3,545.9C282,542.4,288.7,543.8,291.7,548.8L296.4,556.8L291.3,548.3L291.6,548.8C294.2,553.1,293.1,558.7,289.1,561.8C276.8,571,253.4,591.8,255.7,616.1C258.3,643,292,669.4,353.2,692.8C358.2,694.7,360.8,700.3,358.9,705.4C357,710.6,351.2,713.2,346,711.3C297.6,692.6,264.9,671.8,248.4,648.9" fill="rgb(0,0,0)" stroke="none" stroke-width="1"/><path id="eU2jptw9Lx0194" d="M397,735.9C382.7,746.2,362.8,743,352.5,728.7C342.2,714.4,345.4,694.5,359.7,684.2C374,673.9,393.9,677.1,404.2,691.4C414.5,705.7,411.3,725.7,397,735.9" fill="rgb(0,0,0)" stroke="none" stroke-width="1"/></g><g id="eU2jptw9Lx0195" transform="matrix(0.996304 0.085902 -0.085902 0.996304 64.872874 -64.606303)"><path id="eU2jptw9Lx0196" d="M737.7,920.4C738.3,918.6,738.5,916.8,738.9,915C739.6,911.4,740.2,907.8,740.9,904.3C741.6,900.6,742.3,896.9,743,893.2C743.8,889.1,744.6,885,745.4,880.9C746.2,876.7,746.8,872.5,747.6,868.3C748.3,864.7,749,861.1,749.7,857.5C750.4,853.7,751,849.9,751.7,846.2C752.2,843.4,752.8,840.5,753.3,837.7C753.9,834.3,754.5,830.9,755.1,827.5C755.7,824.2,756.3,820.9,756.9,817.6C757.4,814.6,757.9,811.6,758.5,808.6C759,805.7,759.5,802.7,760.1,799.8C760.6,796.8,761.1,793.8,761.7,790.8C762.2,787.8,762.7,784.9,763.2,781.9C763.7,778.8,764.3,775.7,764.8,772.6C765.3,769.6,765.9,766.5,766.4,763.5C766.8,760.9,767.2,758.2,767.7,755.6C768.2,752.5,768.8,749.4,769.3,746.2C769.7,743.6,770.2,741,770.6,738.4C771.1,735.2,771.7,732,772.2,728.8C772.7,725.7,773.2,722.5,773.7,719.4C774.2,716.2,774.8,713,775.3,709.8C775.7,707.1,776.1,704.5,776.5,701.8C776.9,699.1,777.4,696.3,777.9,693.6C778.3,690.8,778.7,688,779.2,685.2C779.8,681.4,780.5,677.6,781.1,673.8C781.6,670.9,781.9,668.1,782.4,665.2C782.7,663,783.1,660.9,783.4,658.7C783.8,656.2,784.2,653.7,784.5,651.3C785,647.9,785.6,644.6,786.1,641.2C786.5,638.9,786.8,636.5,787.1,634.2C787.6,630.6,788.1,627.1,788.7,623.5C789.2,620.5,789.5,617.5,789.9,614.5C790.3,611.5,790.8,608.5,791.3,605.6C791.7,603.2,792,600.8,792.3,598.4C792.8,595.3,793.3,592.1,793.7,589C794.1,585.9,794.5,582.7,794.9,579.5C795.3,576.4,795.9,573.4,796.3,570.3C796.7,567.7,797,565,797.3,562.4C797.5,560.5,797.8,558.6,798.1,556.7C798.4,554.6,798.7,552.4,799,550.3C799.4,547.5,799.8,544.8,800.2,542C800.5,539.9,800.7,537.8,801,535.7C801.3,533.6,801.6,531.4,801.9,529.3C802.2,527.2,802.4,525,802.7,522.9C803,520.7,803.3,518.6,803.6,516.4C803.9,514.3,804.1,512.1,804.4,510C804.7,507.7,805,505.3,805.3,503C805.6,500.7,805.8,498.5,806.1,496.2C806.4,493.9,806.8,491.6,807,489.3C807.1,487.7,807.4,486.1,807.5,484.5C807.8,482,808.2,479.5,808.4,477C808.6,474.7,808.9,472.4,809.2,470.1C809.5,467.5,809.9,465,810.1,462.4C810.2,460.8,810.4,459.1,810.6,457.5C810.9,454.8,811.2,452.1,811.5,449.4C811.7,447.6,811.9,445.8,812.1,444C812.4,441.3,812.8,438.5,813,435.8C813.1,434,813.4,432.2,813.5,430.4C813.8,427.5,814,424.5,814.4,421.6C814.5,420.5,814.7,419.3,814.7,418.2C814.7,417.6,814.7,416.9,815,416.3C815.4,416.2,815.8,416.1,816.1,416.1C820.3,415.9,824.1,417.1,827.6,419.4C828.6,420.1,828.7,420.8,828.5,421.8C828.1,424.3,827.7,426.9,827.4,429.4C827,432.5,826.5,435.5,826.1,438.6C825.6,442.2,825,445.8,824.5,449.4C824.1,452.5,823.6,455.5,823.2,458.6C822.8,461.6,822.3,464.6,821.9,467.7C821.5,470.7,821.1,473.7,820.6,476.8C820,481,819.4,485.2,818.8,489.4C818.4,492.3,817.9,495.3,817.5,498.2C817,501.3,816.6,504.4,816.1,507.5C815.7,510.5,815.2,513.5,814.8,516.6C814.4,519.6,813.9,522.6,813.5,525.7C813.1,528.7,812.7,531.7,812.2,534.8C811.7,538.3,811.1,541.8,810.6,545.4C810,549.5,809.5,553.6,808.9,557.8C808.3,562,807.6,566.1,807,570.3C806.6,573.3,806.2,576.3,805.7,579.2C805.1,583.2,804.4,587.3,803.8,591.3C803.2,595.4,802.7,599.5,802.1,603.7C801.5,607.9,800.8,612,800.2,616.2C799.6,620.2,799.1,624.2,798.5,628.2C797.9,632.4,797.3,636.5,796.6,640.7C796.1,644.3,795.5,647.9,795,651.5C794.8,653.2,794.5,654.9,794.3,656.6C794.2,657,794,657.7,794.8,657.8C795.6,657.9,796.5,658,797.3,658C796.9,660.6,796.6,663.3,796.2,665.9C795.8,668.5,795.5,671,795.2,673.6C794.8,676.3,794.4,679,794,681.7C793.7,683.8,793.5,685.8,793.2,687.9C792.8,690.6,792.4,693.3,792.1,696C791.8,698.1,791.6,700.2,791.3,702.3C791,704.6,790.7,706.9,790.4,709.2C790.1,711.4,789.9,713.6,789.6,715.8C789.3,718.1,789,720.4,788.7,722.7C788.5,724.3,788.4,726,788.2,727.6C787.9,730,787.6,732.3,787.3,734.7C787.1,736.4,787,738.1,786.8,739.8C786.5,742.4,786.1,744.9,785.9,747.5C785.8,749.1,785.6,750.8,785.4,752.4C785.1,755.2,784.8,757.9,784.5,760.7C784.3,762.5,784.1,764.4,783.9,766.2C783.6,769.1,783.3,771.9,783,774.8C782.8,776.8,782.7,778.8,782.5,780.8C782.2,784,781.9,787.2,781.6,790.4C781.5,791.4,781.4,792.5,781.4,793.5C781.2,797.1,780.8,800.7,780.6,804.3C780.4,807.6,780.1,810.9,779.9,814.2C779.6,818.3,779.4,822.4,779.2,826.5C779,830,778.9,833.5,778.7,837C778.5,840.1,778.8,843.2,778.5,846.3C778.1,850.7,778.2,855.1,778.3,859.5C778.4,863.4,778.4,867.4,778.7,871.3C778.9,874.4,779.6,877.5,779.6,880.6C779.6,884.4,779.1,888.2,778.8,891.9C778.6,894.3,778.4,896.6,778.3,899C778,902.6,777.8,906.2,777.4,909.8C777.3,910.9,777.3,912.1,777.2,913.2C776.9,916.8,776.7,920.4,776.4,924C776.3,925.7,776,925.9,774.2,926.3C768.2,927.6,762.2,927.8,756.1,927.5C750.8,927.2,745.6,925.9,740.8,923.2C739.8,922.7,738.9,922.1,738,921.5C737.7,920.7,737.7,920.6,737.7,920.4Z" fill="rgb(237,110,45)" stroke="none" stroke-width="1"/><path id="eU2jptw9Lx0197" d="M851.9,178.1C852.7,178.7,853.7,178.3,854.6,178.5C855.6,178.8,856.7,178.8,857.8,178.8C858.5,178.8,858.7,179.1,858.7,179.8C858.5,182,858.2,184.1,858,186.3C857.5,186.4,857.4,186.7,857.8,187C857.8,187.2,857.8,187.5,857.7,187.7C857.5,187.7,857.3,187.8,857.3,188.1C856.8,191.5,856.3,194.9,855.8,198.3C855.3,201.9,854.8,205.5,854.3,209.1C853.8,212.7,853.2,216.4,852.7,220C852.2,223.8,851.7,227.5,851.2,231.3C850.7,234.6,850.3,238,849.8,241.3C849.4,244,849.1,246.7,848.7,249.4C848.3,252.9,847.8,256.3,847.4,259.8C847,262.7,846.7,265.6,846.4,268.5C846,271.6,845.6,274.6,845.3,277.7C845,280.3,844.8,283,844.5,285.6C844.1,289,843.9,292.5,843.5,295.9C843.2,298.1,843.6,300.3,843.1,302.4C839.7,302,836.2,301.6,832.8,301.2C833.3,298.3,833.9,295.5,834.4,292.6C834.8,290.3,835.1,288.1,835.5,285.8C835.9,283.6,836.2,281.4,836.5,279.2C836.9,276.9,837.3,274.6,837.6,272.3C838,269.7,838.3,267.1,838.8,264.5C839.2,262,839.4,259.4,839.8,256.9C840.2,254.4,840.6,251.9,840.9,249.4C841.3,246.8,841.7,244.1,842,241.5C842.2,239.5,842.6,237.6,842.9,235.6C843.2,233.6,843.4,231.6,843.7,229.5C844.1,226.7,844.5,223.9,844.9,221C845.2,218.4,845.5,215.7,845.9,213.1C846.3,210.3,846.7,207.5,847.1,204.7C847.4,202.7,847.6,200.7,847.8,198.6C848.2,195.7,848.5,192.9,848.9,190C849.2,188.1,849.4,186.2,849.6,184.3C849.9,182.1,850.1,179.9,850.4,177.8C850.8,178.1,851.3,178.1,851.9,178.1Z" fill="rgb(67,56,86)" stroke="none" stroke-width="1"/><path id="eU2jptw9Lx0198" d="M916.4,185.4C916.9,185.2,917.3,185.6,917.8,185.6C917.8,186.4,917.8,187.2,917.8,188C917.2,189,917.5,190.1,917.4,191.2C917.2,193.5,917,195.8,916.8,198.2C916.5,201.1,916.3,204,916,206.9C915.8,208.9,915.6,210.9,915.4,212.9C915.1,215.7,914.9,218.6,914.5,221.4C914.3,223.3,914.2,225.2,914,227C913.7,229.7,913.4,232.4,913.1,235.1C912.9,236.8,912.8,238.5,912.6,240.3C912.3,242.9,911.9,245.5,911.7,248.1C911.4,250.5,911.2,252.9,911,255.2C910.7,257.4,910.4,259.7,910.1,261.9C909.9,263.4,909.8,264.9,909.6,266.5C909.2,269.3,908.8,272.1,908.5,274.9C908.2,276.9,908,278.9,907.7,280.8C907.3,283.8,906.8,286.9,906.3,289.9C906,292.3,905.6,294.6,905.3,297C905,299.2,904.6,301.3,904.3,303.5C903.8,306.5,903.3,309.6,902.7,312.6C902.2,315.5,901.7,318.5,901,321.4C899.9,326.1,898.9,330.8,897.6,335.5C896.3,340.4,894.8,345.3,892.6,349.9C890.8,353.5,888.1,356.1,884.6,358C880.1,360.4,875.3,361.7,870.3,362.4C866.9,362.9,863.5,363.1,860,363.1C857.3,363.1,854.6,363.1,851.8,363.1C850,363,848.1,362.8,846.3,362.7C846.4,362.6,846.5,362.5,846.7,362.5C850,362.2,853.3,361.7,856.6,361.1C864.7,359.6,872.6,357.6,879.9,353.5C883.1,351.7,886,349.7,887.6,346.1C889,342.9,890.1,339.7,891.1,336.4C892.8,330.5,894.3,324.6,895.6,318.6C896.3,315.3,897,312,897.7,308.7C898.2,305.9,898.7,303.1,899.3,300.3C900.1,295.8,901,291.3,901.8,286.7C902.6,282.2,903.4,277.6,904.1,273.1C904.8,269,905.5,264.9,906.1,260.8C906.7,256.8,907.3,252.8,907.9,248.8C908.4,245.4,908.9,242,909.4,238.6C909.9,235,910.4,231.5,910.9,227.9C911.4,224.2,912,220.5,912.5,216.8C912.9,214.1,913.3,211.4,913.6,208.7C913.9,206.1,914.3,203.6,914.6,201C915,198.2,915.4,195.4,915.7,192.6C915.9,190.1,916.4,187.8,916.4,185.4Z" fill="rgb(45,34,68)" stroke="none" stroke-width="1"/><path id="eU2jptw9Lx0199" d="M897.5,308.4C896.8,311.7,896.1,315,895.4,318.3C894.1,324.3,892.7,330.2,890.9,336.1C889.9,339.4,888.8,342.6,887.4,345.8C885.9,349.4,882.9,351.4,879.7,353.2C872.5,357.3,864.5,359.3,856.4,360.8C853.1,361.4,849.8,362,846.5,362.2C846.4,362.2,846.2,362.4,846.1,362.4C845.7,364.3,845.3,366.2,844.9,368.1C844.4,370.9,843.9,373.6,843.4,376.4C842.8,379.6,842.1,382.9,841.5,386.1C840.9,389.4,840.3,392.7,839.6,395.9C838.7,400.4,838,404.9,837.2,409.5C836.7,412.4,836.1,415.2,835.5,418.1C835.2,417.9,834.9,417.8,834.6,417.9C834.6,417.9,834.6,417.9,834.6,417.9C834.6,417.4,834.2,417.2,833.9,416.9C833.1,416.4,832.3,415.9,831.5,415.5C831.5,415.3,831.5,415,831.5,414.8C831.8,411.9,832.1,409,832.5,406C832.8,403.7,833,401.3,833.3,399C833.6,396.4,833.9,393.9,834.2,391.3C834.5,388.8,834.7,386.2,835,383.7C835.3,381.1,835.6,378.4,835.9,375.8C836.2,373.3,836.5,370.8,836.8,368.2C837,366.2,837.2,364.2,837.3,362.3C837.3,361.8,837.3,361.2,836.5,361.2C835.5,361.1,834.6,361.1,833.7,361C831.2,360.7,828.7,360.4,826.1,360.1C823.6,359.8,821.1,359.6,818.5,359.3C814.8,359,811.1,358.3,807.5,357.2C803.6,356.1,799.9,354.7,796.3,352.8C793,351.1,789.9,349,787,346.6C784,344,781.4,341.1,779.2,337.8C777.9,335.7,777.2,333.4,776.8,331.1C775.6,324.7,775.8,318.2,775.8,311.8C775.8,308.7,776.3,305.6,776.3,302.4C776.3,302.1,776.5,301.7,776.6,301.4C779.5,301.7,782.5,302,785.4,302.4C786.4,306.2,788.6,309,791.8,311.1C794.5,312.9,797.6,313.8,800.8,314.3C801.5,314.4,802.4,315,803.2,314.3C803.4,314.3,803.7,314.3,803.9,314.4C804,314.5,804.1,314.5,804.2,314.6C812,315.1,819.3,313.5,826.3,310C828.2,309,830,307.8,831.2,305.9C832,304.7,832.3,303.3,832.5,301.9C832.5,301.7,832.5,301.5,832.7,301.4C836.1,301.8,839.6,302.2,843,302.6C843,303.7,842.9,304.8,843,306C843.2,307.6,843.2,309.2,844.3,310.6C845.9,312.7,848.1,314,850.4,315.1C853.7,316.7,857.3,317.6,860.9,318.2C861.7,318.3,862.6,318.8,863.4,318.3C863.6,318.3,863.9,318.3,864.1,318.4C864.2,318.5,864.3,318.5,864.4,318.6C866.1,318.8,867.8,319.1,869.4,319.1C873.6,319,877.7,318.6,881.7,317C882.8,316.5,883.6,315.7,884.3,314.8C885.8,312.5,886.8,309.9,887.7,307.3C889.1,307.5,890.5,307.6,892,307.8C893.8,308,895.6,308.2,897.5,308.4Z" fill="rgb(61,46,82)" stroke="none" stroke-width="1"/><path id="eU2jptw9Lx0200" d="M797.1,657.4C796.3,657.3,795.4,657.2,794.6,657.2C793.7,657.1,794,656.4,794.1,656C794.4,654.3,794.6,652.6,794.8,650.9C795.3,647.3,795.9,643.7,796.4,640.1C797,635.9,797.7,631.8,798.3,627.6C798.9,623.6,799.4,619.6,800,615.6C800.6,611.4,801.3,607.3,801.9,603.1C802.5,599,803,594.9,803.6,590.7C804.2,586.7,804.9,582.6,805.5,578.6C805.9,575.6,806.3,572.6,806.8,569.7C807.4,565.5,808.1,561.4,808.7,557.2C809.3,553.1,809.8,549,810.4,544.8C810.9,541.3,811.5,537.8,812,534.2C812.4,531.2,812.8,528.2,813.3,525.1C813.7,522.1,814.2,519.1,814.6,516C815,513,815.5,510,815.9,506.9C816.4,503.8,816.8,500.7,817.3,497.6C817.7,494.7,818.2,491.7,818.6,488.8C819.2,484.6,819.8,480.4,820.4,476.2C820.8,473.2,821.2,470.2,821.7,467.1C822.1,464.1,822.6,461.1,823,458C823.4,454.9,823.9,451.9,824.3,448.8C824.8,445.2,825.4,441.6,825.9,438C826.3,434.9,826.8,431.9,827.2,428.8C827.6,426.3,827.9,423.7,828.3,421.2C828.5,420.2,828.4,419.5,827.4,418.8C823.9,416.5,820.1,415.3,815.9,415.5C819.8,414,823.8,414,827.8,414.7C830.3,415.1,832.5,416.3,834.7,417.4C834.7,417.4,834.7,417.4,834.7,417.4C834.8,417.9,835.3,417.9,835.6,418.1C835.2,420.2,834.8,422.3,834.4,424.4C833.5,429.3,832.7,434.1,831.8,439C831,442.9,830.5,446.8,829.8,450.6C828.9,455.5,828.2,460.4,827.2,465.3C826.5,468.8,826.1,472.4,825.5,475.9C824.7,480.5,823.9,485,823.1,489.6C822.3,494.2,821.7,498.8,820.9,503.4C819.9,509.2,818.9,514.9,818,520.7C817.3,525.2,816.5,529.6,815.8,534.1C815.2,538.3,814.3,542.4,813.7,546.5C813,550.8,812.4,555.2,811.8,559.5C811,564.3,810.2,569.1,809.4,573.9C808.7,578.5,808,583.2,807.2,587.8C806.6,591.8,806.1,595.8,805.5,599.8C804.9,603.7,804.2,607.7,803.6,611.6C803,615.7,802.5,619.7,801.9,623.8C801.3,627.9,800.6,632,800,636.1C799.5,639.8,799,643.5,798.5,647.2C798.1,650.9,797.6,654.1,797.1,657.4Z" fill="rgb(190,57,26)" stroke="none" stroke-width="1"/><path id="eU2jptw9Lx0201" d="M835.5,418.6C835.2,418.4,834.7,418.4,834.6,417.9C834.9,417.8,835.2,418,835.5,418.1C835.5,418.3,835.5,418.4,835.5,418.6Z" fill="rgb(45,34,68)" stroke="none" stroke-width="1"/><path id="eU2jptw9Lx0202" d="M818.5,359.3C821,359.6,823.6,359.8,826.1,360.1C828.6,360.4,831.1,360.7,833.7,361C834.6,361.1,835.6,361.2,836.5,361.2C837.2,361.3,837.3,361.8,837.3,362.3C837.1,364.3,837,366.3,836.8,368.2C836.5,370.7,836.2,373.2,835.9,375.8C835.6,378.4,835.3,381.1,835,383.7C834.7,386.2,834.5,388.8,834.2,391.3C833.9,393.9,833.6,396.4,833.3,399C833,401.3,832.8,403.7,832.5,406C832.2,408.9,831.9,411.8,831.5,414.8C831.5,415,831.5,415.3,831.5,415.5C825.8,413.3,820.3,413.7,814.7,416C814.8,412.8,815,409.6,815.4,406.3C815.5,405.1,815.5,403.9,815.6,402.6C815.9,399.6,815.9,396.6,816.1,393.6C816.4,390.1,816.6,386.6,816.8,383.1C817,379.8,817.3,376.5,817.5,373.2C817.7,369.7,818,366.2,818.2,362.7C818.4,361.6,818.5,360.5,818.5,359.3Z" fill="rgb(67,56,86)" stroke="none" stroke-width="1"/><path id="eU2jptw9Lx0203" d="M785.4,302.4C782.5,302.1,779.5,301.8,776.6,301.4C776.5,298.7,777,296,777.2,293.3C777.4,291.5,777.5,289.6,777.7,287.8C778,285.3,778.3,282.8,778.6,280.3C778.9,278.1,779.2,275.9,779.4,273.8C779.6,271.4,780.1,269,780.4,266.6C780.7,264.2,781.2,261.8,781.6,259.3C782.2,255.9,782.7,252.5,783.3,249.1C783.9,245.6,784.4,242,785,238.5C785.6,234.8,786.4,231.1,787.1,227.4C787.8,223.8,788.4,220.2,789.1,216.6C790,211.9,791,207.1,791.9,202.4C792.8,197.9,793.7,193.5,794.6,189C795.1,186.5,795.8,184.1,796.2,181.6C796.4,180.5,797,180.5,797.7,180.7C799,180.9,800.3,181.1,801.5,181.1C802.5,181.1,802.6,181.7,802.4,182.3C801.9,184.6,801.3,186.8,800.8,189.1C800.4,191,800.2,192.9,800,194.8C799.7,194.9,799.4,195,799.8,195.3C799.8,195.5,799.8,195.6,799.7,195.8C799.4,195.8,799.3,196,799.3,196.3C798.2,201.8,797,207.3,796,212.9C794.3,221.6,792.6,230.3,791.1,239.1C790,245.2,789,251.4,788.1,257.5C787.2,263.3,786.5,269.2,785.8,275.1C785.3,279.5,784.9,284,784.7,288.4C784.5,293.1,784.4,297.8,785.4,302.4Z" fill="rgb(67,56,86)" stroke="none" stroke-width="1"/><path id="eU2jptw9Lx0204" d="M785.4,302.4C784.4,297.8,784.5,293,784.7,288.3C784.9,283.9,785.3,279.4,785.8,275C786.4,269.1,787.2,263.3,788.1,257.4C789,251.2,790,245.1,791.1,239C792.6,230.3,794.3,221.5,796,212.8C797.1,207.3,798.2,201.8,799.3,196.2C799.4,195.9,799.5,195.8,799.7,195.7C799.4,197.5,799.2,199.3,798.9,201.1C798.5,203.6,798.1,206,797.8,208.5C797.4,211,797,213.6,796.7,216.1C796.4,218,796.2,220,795.9,221.9C795.5,224.6,795.1,227.3,794.8,230C794.6,231.5,794.4,233,794.2,234.5C793.9,236.9,793.6,239.2,793.3,241.6C793.1,243.3,793,245,792.8,246.6C792.5,249.2,792.2,251.9,791.9,254.5C791.7,256.4,791.6,258.3,791.4,260.3C791.1,263.9,790.7,267.4,790.4,271C790.3,272.2,790.2,273.5,790.2,274.7C790.1,277.6,790,280.6,789.8,283.5C789.7,286.2,789.5,288.8,789.7,291.5C789.9,295.1,790,298.8,790.8,302.4C791.7,306.4,793.9,309.3,797.2,311.5C799,312.7,801,313.5,803.1,314.1C802.3,314.8,801.5,314.2,800.7,314.1C797.5,313.6,794.4,312.7,791.7,310.9C788.6,309,786.4,306.2,785.4,302.4Z" fill="rgb(45,34,68)" stroke="none" stroke-width="1"/><path id="eU2jptw9Lx0205" d="M814.7,416C820.2,413.7,825.8,413.3,831.5,415.5C832.3,416,833.1,416.5,833.9,416.9C834.3,417.1,834.6,417.4,834.6,417.9C832.4,416.8,830.2,415.6,827.7,415.2C823.7,414.5,819.7,414.5,815.8,416C815.4,416.1,815,416.2,814.7,416.2C814.7,416.1,814.7,416,814.7,416Z" fill="rgb(45,34,68)" stroke="none" stroke-width="1"/><path id="eU2jptw9Lx0206" d="M799.8,195.4C799.4,195.1,799.6,195,800,194.9C800.1,195.1,800.1,195.3,799.8,195.4Z" fill="rgb(45,34,68)" stroke="none" stroke-width="1"/><path id="eU2jptw9Lx0207" d="M804.2,314.7C804.1,314.6,804,314.6,803.9,314.5C804.1,314.4,804.1,314.5,804.2,314.7Z" fill="rgb(45,34,68)" stroke="none" stroke-width="1"/><path id="eU2jptw9Lx0208" d="M897.5,308.4C895.7,308.2,893.8,307.9,892,307.7C890.6,307.5,889.2,307.4,887.7,307.2C889.8,300.9,891.5,294.5,892.9,288.1C894,283.4,895.1,278.6,896,273.9C897,268.6,898,263.3,898.9,258.1C899.9,252.7,900.9,247.4,901.8,242C902.4,238.3,902.9,234.5,903.5,230.8C904,227.4,904.6,224,905.2,220.6C905.7,217.1,906.2,213.6,906.7,210.1C907.2,206.5,907.9,202.9,908.3,199.2C908.6,196.5,909.1,193.9,909.3,191.3C909.5,189.4,909.9,187.5,910,185.6C910,185.1,910.1,184.6,911.2,184.8C912.9,185.1,914.7,185.2,916.5,185.4C916.4,187.8,915.9,190.1,915.7,192.5C915.4,195.3,915,198.1,914.6,200.9C914.3,203.5,913.9,206,913.6,208.6C913.2,211.3,912.9,214,912.5,216.7C912,220.4,911.4,224.1,910.9,227.8C910.4,231.4,909.9,234.9,909.4,238.5C908.9,241.9,908.4,245.3,907.9,248.7C907.3,252.7,906.7,256.7,906.1,260.7C905.4,264.8,904.8,268.9,904.1,273C903.3,277.5,902.6,282.1,901.8,286.6C901,291.1,900.1,295.6,899.3,300.2C898.5,302.8,898,305.6,897.5,308.4Z" fill="rgb(67,56,86)" stroke="none" stroke-width="1"/><path id="eU2jptw9Lx0209" d="M863.4,318.3C862.6,318.9,861.7,318.4,860.9,318.2C857.3,317.6,853.7,316.7,850.4,315.1C848.1,314,845.9,312.7,844.3,310.6C843.2,309.2,843.1,307.6,843,306C842.9,304.9,843,303.8,843,302.6C843.5,300.4,843.2,298.2,843.4,296.1C843.8,292.7,844,289.2,844.4,285.8C844.7,283.2,844.9,280.5,845.2,277.9C845.5,274.8,846,271.8,846.3,268.7C846.7,265.8,847,262.9,847.3,260C847.7,256.5,848.2,253.1,848.6,249.6C849,246.9,849.3,244.2,849.7,241.5C850.2,238.2,850.6,234.8,851.1,231.5C851.6,227.7,852.1,224,852.6,220.2C853.1,216.6,853.7,212.9,854.2,209.3C854.7,205.7,855.2,202.1,855.7,198.5C856.2,195.1,856.7,191.7,857.2,188.3C857.2,188.1,857.4,188,857.6,187.9C857.6,190,857.3,192.1,857,194.2C856.9,195.2,856.8,196.2,856.7,197.2C856.4,200.3,856,203.4,855.8,206.4C855.6,208.5,855.4,210.6,855.2,212.6C854.9,215.4,854.7,218.3,854.3,221.1C854.1,223.1,854,225.1,853.8,227.1C853.5,230.3,853.2,233.5,852.9,236.7C852.7,238.8,852.5,240.9,852.4,242.9C852.1,246.3,851.9,249.6,851.5,253C851.4,254,851.4,255.1,851.3,256.2C851,258.7,851,261.3,850.8,263.9C850.5,267.1,850.3,270.3,850.1,273.6C849.9,277.1,849.6,280.7,849.4,284.2C849.2,287.4,849.1,290.5,848.9,293.7C848.6,298.2,848.8,302.7,848.7,307.2C848.7,309.9,850.1,312,852.3,313.5C855.7,315.9,859.4,317.3,863.4,318.1C863.3,318.1,863.4,318.2,863.4,318.3Z" fill="rgb(45,34,68)" stroke="none" stroke-width="1"/><path id="eU2jptw9Lx0210" d="M857.7,187C857.3,186.7,857.3,186.4,857.9,186.3C857.8,186.6,858,186.9,857.7,187Z" fill="rgb(45,34,68)" stroke="none" stroke-width="1"/><path id="eU2jptw9Lx0211" d="M864.4,318.5C864.3,318.4,864.2,318.4,864.1,318.3C864.3,318.3,864.3,318.4,864.4,318.5Z" fill="rgb(45,34,68)" stroke="none" stroke-width="1"/></g><g id="eU2jptw9Lx0212"><path id="eU2jptw9Lx0213" d="M865.2,670.5C869.5,663.1,871,655.2,869.6,646.8C865.1,620.1,832.9,597.7,816.5,587.9C811.5,584.9,805.7,585.6,804.1,589.4L801.5,595.4L804.2,589L804,589.4C802.6,592.7,804.8,597.1,809.1,599.7C822.3,607.6,848.1,625.3,851.2,644.2C854.7,665.2,830,684.1,779.5,699C775.4,700.2,774.3,704.5,777.1,708.6C780,712.8,785.8,715.2,790.1,713.9C830.1,702.2,855.2,687.6,865.2,670.5" fill="rgb(0,0,0)" stroke="none" stroke-width="1"/><path id="eU2jptw9Lx0214" d="M799,694C814.2,702.9,819.3,722.4,810.4,737.6C801.5,752.8,782,757.9,766.8,749C751.6,740.1,746.5,720.6,755.4,705.4C764.3,690.2,783.8,685.1,799,694" fill="rgb(0,0,0)" stroke="none" stroke-width="1"/></g></g><script><![CDATA[!function(t,n){"object"==typeof exports&&"undefined"!=typeof module?module.exports=n():"function"==typeof define&&define.amd?define(n):((t="undefined"!=typeof globalThis?globalThis:t||self).__SVGATOR_PLAYER__=t.__SVGATOR_PLAYER__||{},t.__SVGATOR_PLAYER__["91c80d77"]=n())}(this,(function(){"use strict";function t(t,n){var e=Object.keys(t);if(Object.getOwnPropertySymbols){var r=Object.getOwnPropertySymbols(t);n&&(r=r.filter((function(n){return Object.getOwnPropertyDescriptor(t,n).enumerable}))),e.push.apply(e,r)}return e}function n(n){for(var e=1;e<arguments.length;e++){var r=null!=arguments[e]?arguments[e]:{};e%2?t(Object(r),!0).forEach((function(t){o(n,t,r[t])})):Object.getOwnPropertyDescriptors?Object.defineProperties(n,Object.getOwnPropertyDescriptors(r)):t(Object(r)).forEach((function(t){Object.defineProperty(n,t,Object.getOwnPropertyDescriptor(r,t))}))}return n}function e(t){return(e="function"==typeof Symbol&&"symbol"==typeof Symbol.iterator?function(t){return typeof t}:function(t){return t&&"function"==typeof Symbol&&t.constructor===Symbol&&t!==Symbol.prototype?"symbol":typeof t})(t)}function r(t,n){if(!(t instanceof n))throw new TypeError("Cannot call a class as a function")}function i(t,n){for(var e=0;e<n.length;e++){var r=n[e];r.enumerable=r.enumerable||!1,r.configurable=!0,"value"in r&&(r.writable=!0),Object.defineProperty(t,r.key,r)}}function u(t,n,e){return n&&i(t.prototype,n),e&&i(t,e),t}function o(t,n,e){return n in t?Object.defineProperty(t,n,{value:e,enumerable:!0,configurable:!0,writable:!0}):t[n]=e,t}function a(t){return(a=Object.setPrototypeOf?Object.getPrototypeOf:function(t){return t.__proto__||Object.getPrototypeOf(t)})(t)}function l(t,n){return(l=Object.setPrototypeOf||function(t,n){return t.__proto__=n,t})(t,n)}function s(){if("undefined"==typeof Reflect||!Reflect.construct)return!1;if(Reflect.construct.sham)return!1;if("function"==typeof Proxy)return!0;try{return Boolean.prototype.valueOf.call(Reflect.construct(Boolean,[],(function(){}))),!0}catch(t){return!1}}function f(t,n,e){return(f=s()?Reflect.construct:function(t,n,e){var r=[null];r.push.apply(r,n);var i=new(Function.bind.apply(t,r));return e&&l(i,e.prototype),i}).apply(null,arguments)}function c(t,n){if(n&&("object"==typeof n||"function"==typeof n))return n;if(void 0!==n)throw new TypeError("Derived constructors may only return object or undefined");return function(t){if(void 0===t)throw new ReferenceError("this hasn't been initialised - super() hasn't been called");return t}(t)}function h(t,n,e){return(h="undefined"!=typeof Reflect&&Reflect.get?Reflect.get:function(t,n,e){var r=function(t,n){for(;!Object.prototype.hasOwnProperty.call(t,n)&&null!==(t=a(t)););return t}(t,n);if(r){var i=Object.getOwnPropertyDescriptor(r,n);return i.get?i.get.call(e):i.value}})(t,n,e||t)}function v(t){return function(t){if(Array.isArray(t))return d(t)}(t)||function(t){if("undefined"!=typeof Symbol&&null!=t[Symbol.iterator]||null!=t["@@iterator"])return Array.from(t)}(t)||function(t,n){if(!t)return;if("string"==typeof t)return d(t,n);var e=Object.prototype.toString.call(t).slice(8,-1);"Object"===e&&t.constructor&&(e=t.constructor.name);if("Map"===e||"Set"===e)return Array.from(t);if("Arguments"===e||/^(?:Ui|I)nt(?:8|16|32)(?:Clamped)?Array$/.test(e))return d(t,n)}(t)||function(){throw new TypeError("Invalid attempt to spread non-iterable instance.\nIn order to be iterable, non-array objects must have a [Symbol.iterator]() method.")}()}function d(t,n){(null==n||n>t.length)&&(n=t.length);for(var e=0,r=new Array(n);e<n;e++)r[e]=t[e];return r}var y=g(Math.pow(10,-6));function g(t){var n=arguments.length>1&&void 0!==arguments[1]?arguments[1]:6;if(Number.isInteger(t))return t;var e=Math.pow(10,n);return Math.round((+t+Number.EPSILON)*e)/e}function p(t,n){var e=arguments.length>2&&void 0!==arguments[2]?arguments[2]:y;return Math.abs(t-n)<e}var m=Math.PI/180;function b(t){return t}function w(t,n,e){var r=1-e;return 3*e*r*(t*r+n*e)+e*e*e}function A(){var t=arguments.length>0&&void 0!==arguments[0]?arguments[0]:0,n=arguments.length>1&&void 0!==arguments[1]?arguments[1]:0,e=arguments.length>2&&void 0!==arguments[2]?arguments[2]:1,r=arguments.length>3&&void 0!==arguments[3]?arguments[3]:1;return t<0||t>1||e<0||e>1?null:p(t,n)&&p(e,r)?b:function(i){if(i<=0)return t>0?i*n/t:0===n&&e>0?i*r/e:0;if(i>=1)return e<1?1+(i-1)*(r-1)/(e-1):1===e&&t<1?1+(i-1)*(n-1)/(t-1):1;for(var u,o=0,a=1;o<a;){var l=w(t,e,u=(o+a)/2);if(p(i,l))break;l<i?o=u:a=u}return w(n,r,u)}}function x(){return 1}function k(t){return 1===t?1:0}function _(){var t=arguments.length>0&&void 0!==arguments[0]?arguments[0]:1,n=arguments.length>1&&void 0!==arguments[1]?arguments[1]:0;if(1===t){if(0===n)return k;if(1===n)return x}var e=1/t;return function(t){return t>=1?1:(t+=n*e)-t%e}}var S=Math.sin,O=Math.cos,M=Math.acos,E=Math.asin,j=Math.tan,P=Math.atan2,I=Math.PI/180,B=180/Math.PI,R=Math.sqrt,T=function(){function t(){var n=arguments.length>0&&void 0!==arguments[0]?arguments[0]:1,e=arguments.length>1&&void 0!==arguments[1]?arguments[1]:0,i=arguments.length>2&&void 0!==arguments[2]?arguments[2]:0,u=arguments.length>3&&void 0!==arguments[3]?arguments[3]:1,o=arguments.length>4&&void 0!==arguments[4]?arguments[4]:0,a=arguments.length>5&&void 0!==arguments[5]?arguments[5]:0;r(this,t),this.m=[n,e,i,u,o,a],this.i=null,this.w=null,this.s=null}return u(t,[{key:"determinant",get:function(){var t=this.m;return t[0]*t[3]-t[1]*t[2]}},{key:"isIdentity",get:function(){if(null===this.i){var t=this.m;this.i=1===t[0]&&0===t[1]&&0===t[2]&&1===t[3]&&0===t[4]&&0===t[5]}return this.i}},{key:"point",value:function(t,n){var e=this.m;return{x:e[0]*t+e[2]*n+e[4],y:e[1]*t+e[3]*n+e[5]}}},{key:"translateSelf",value:function(){var t=arguments.length>0&&void 0!==arguments[0]?arguments[0]:0,n=arguments.length>1&&void 0!==arguments[1]?arguments[1]:0;if(!t&&!n)return this;var e=this.m;return e[4]+=e[0]*t+e[2]*n,e[5]+=e[1]*t+e[3]*n,this.w=this.s=this.i=null,this}},{key:"rotateSelf",value:function(){var t=arguments.length>0&&void 0!==arguments[0]?arguments[0]:0;if(t%=360){var n=S(t*=I),e=O(t),r=this.m,i=r[0],u=r[1];r[0]=i*e+r[2]*n,r[1]=u*e+r[3]*n,r[2]=r[2]*e-i*n,r[3]=r[3]*e-u*n,this.w=this.s=this.i=null}return this}},{key:"scaleSelf",value:function(){var t=arguments.length>0&&void 0!==arguments[0]?arguments[0]:1,n=arguments.length>1&&void 0!==arguments[1]?arguments[1]:1;if(1!==t||1!==n){var e=this.m;e[0]*=t,e[1]*=t,e[2]*=n,e[3]*=n,this.w=this.s=this.i=null}return this}},{key:"skewSelf",value:function(t,n){if(n%=360,(t%=360)||n){var e=this.m,r=e[0],i=e[1],u=e[2],o=e[3];t&&(t=j(t*I),e[2]+=r*t,e[3]+=i*t),n&&(n=j(n*I),e[0]+=u*n,e[1]+=o*n),this.w=this.s=this.i=null}return this}},{key:"resetSelf",value:function(){var t=arguments.length>0&&void 0!==arguments[0]?arguments[0]:1,n=arguments.length>1&&void 0!==arguments[1]?arguments[1]:0,e=arguments.length>2&&void 0!==arguments[2]?arguments[2]:0,r=arguments.length>3&&void 0!==arguments[3]?arguments[3]:1,i=arguments.length>4&&void 0!==arguments[4]?arguments[4]:0,u=arguments.length>5&&void 0!==arguments[5]?arguments[5]:0,o=this.m;return o[0]=t,o[1]=n,o[2]=e,o[3]=r,o[4]=i,o[5]=u,this.w=this.s=this.i=null,this}},{key:"recomposeSelf",value:function(){var t=arguments.length>0&&void 0!==arguments[0]?arguments[0]:null,n=arguments.length>1&&void 0!==arguments[1]?arguments[1]:null,e=arguments.length>2&&void 0!==arguments[2]?arguments[2]:null,r=arguments.length>3&&void 0!==arguments[3]?arguments[3]:null,i=arguments.length>4&&void 0!==arguments[4]?arguments[4]:null;return this.isIdentity||this.resetSelf(),t&&(t.x||t.y)&&this.translateSelf(t.x,t.y),n&&this.rotateSelf(n),e&&(e.x&&this.skewSelf(e.x,0),e.y&&this.skewSelf(0,e.y)),!r||1===r.x&&1===r.y||this.scaleSelf(r.x,r.y),i&&(i.x||i.y)&&this.translateSelf(i.x,i.y),this}},{key:"decompose",value:function(){var t=arguments.length>0&&void 0!==arguments[0]?arguments[0]:0,n=arguments.length>1&&void 0!==arguments[1]?arguments[1]:0,e=this.m,r=e[0]*e[0]+e[1]*e[1],i=[[e[0],e[1]],[e[2],e[3]]],u=R(r);if(0===u)return{origin:{x:g(e[4]),y:g(e[5])},translate:{x:g(t),y:g(n)},scale:{x:0,y:0},skew:{x:0,y:0},rotate:0};i[0][0]/=u,i[0][1]/=u;var o=e[0]*e[3]-e[1]*e[2]<0;o&&(u=-u);var a=i[0][0]*i[1][0]+i[0][1]*i[1][1];i[1][0]-=i[0][0]*a,i[1][1]-=i[0][1]*a;var l=R(i[1][0]*i[1][0]+i[1][1]*i[1][1]);if(0===l)return{origin:{x:g(e[4]),y:g(e[5])},translate:{x:g(t),y:g(n)},scale:{x:g(u),y:0},skew:{x:0,y:0},rotate:0};i[1][0]/=l,i[1][1]/=l,a/=l;var s=0;return i[1][1]<0?(s=M(i[1][1])*B,i[0][1]<0&&(s=360-s)):s=E(i[0][1])*B,o&&(s=-s),a=P(a,R(i[0][0]*i[0][0]+i[0][1]*i[0][1]))*B,o&&(a=-a),{origin:{x:g(e[4]),y:g(e[5])},translate:{x:g(t),y:g(n)},scale:{x:g(u),y:g(l)},skew:{x:g(a),y:0},rotate:g(s)}}},{key:"clone",value:function(){var t=this.m;return new this.constructor(t[0],t[1],t[2],t[3],t[4],t[5])}},{key:"toString",value:function(){var t=arguments.length>0&&void 0!==arguments[0]?arguments[0]:" ";return null===this.s&&(this.s="matrix("+this.m.map((function(t){return g(t)})).join(t)+")"),this.s}}],[{key:"create",value:function(t){return t?Array.isArray(t)?f(this,v(t)):t instanceof this?t.clone():(new this).recomposeSelf(t.origin,t.rotate,t.skew,t.scale,t.translate):new this}}]),t}();function N(t,n,e){return t>=.5?e:n}function C(t,n,e){return 0===t||n===e?n:t*(e-n)+n}function F(t,n,e){var r=C(t,n,e);return r<=0?0:r}function L(t,n,e){var r=C(t,n,e);return r<=0?0:r>=1?1:r}function q(t,n,e){return 0===t?n:1===t?e:{x:C(t,n.x,e.x),y:C(t,n.y,e.y)}}function V(t,n,e){return 0===t?n:1===t?e:{x:F(t,n.x,e.x),y:F(t,n.y,e.y)}}function D(t,n,e){var r=function(t,n,e){return Math.round(C(t,n,e))}(t,n,e);return r<=0?0:r>=255?255:r}function z(t,n,e){return 0===t?n:1===t?e:{r:D(t,n.r,e.r),g:D(t,n.g,e.g),b:D(t,n.b,e.b),a:C(t,null==n.a?1:n.a,null==e.a?1:e.a)}}function Y(t,n,e){var r=n.length;if(r!==e.length)return N(t,n,e);for(var i=new Array(r),u=0;u<r;u++)i[u]=C(t,n[u],e[u]);return i}function G(t,n){for(var e=[],r=0;r<t;r++)e.push(n);return e}function U(t,n){if(--n<=0)return t;var e=(t=Object.assign([],t)).length;do{for(var r=0;r<e;r++)t.push(t[r])}while(--n>0);return t}var $,W=function(){function t(n){r(this,t),this.list=n,this.length=n.length}return u(t,[{key:"setAttribute",value:function(t,n){for(var e=this.list,r=0;r<this.length;r++)e[r].setAttribute(t,n)}},{key:"removeAttribute",value:function(t){for(var n=this.list,e=0;e<this.length;e++)n[e].removeAttribute(t)}},{key:"style",value:function(t,n){for(var e=this.list,r=0;r<this.length;r++)e[r].style[t]=n}}]),t}(),H=/-./g,Q=function(t,n){return n.toUpperCase()};function X(t){return"function"==typeof t?t:N}function J(t){return t?"function"==typeof t?t:Array.isArray(t)?function(t){var n=arguments.length>1&&void 0!==arguments[1]?arguments[1]:b;if(!Array.isArray(t))return n;switch(t.length){case 1:return _(t[0])||n;case 2:return _(t[0],t[1])||n;case 4:return A(t[0],t[1],t[2],t[3])||n}return n}(t,null):function(t,n){var e=arguments.length>2&&void 0!==arguments[2]?arguments[2]:b;switch(t){case"linear":return b;case"steps":return _(n.steps||1,n.jump||0)||e;case"bezier":case"cubic-bezier":return A(n.x1||0,n.y1||0,n.x2||0,n.y2||0)||e}return e}(t.type,t.value,null):null}function Z(t,n,e){var r=arguments.length>3&&void 0!==arguments[3]&&arguments[3],i=n.length-1;if(t<=n[0].t)return r?[0,0,n[0].v]:n[0].v;if(t>=n[i].t)return r?[i,1,n[i].v]:n[i].v;var u,o=n[0],a=null;for(u=1;u<=i;u++){if(!(t>n[u].t)){a=n[u];break}o=n[u]}return null==a?r?[i,1,n[i].v]:n[i].v:o.t===a.t?r?[u,1,a.v]:a.v:(t=(t-o.t)/(a.t-o.t),o.e&&(t=o.e(t)),r?[u,t,e(t,o.v,a.v)]:e(t,o.v,a.v))}function K(t,n){var e=arguments.length>2&&void 0!==arguments[2]?arguments[2]:null;return t&&t.length?"function"!=typeof n?null:("function"!=typeof e&&(e=null),function(r){var i=Z(r,t,n);return null!=i&&e&&(i=e(i)),i}):null}function tt(t,n){return t.t-n.t}function nt(t,n,r,i,u){var o,a="@"===r[0],l="#"===r[0],s=$[r],f=N;switch(a?(o=r.substr(1),r=o.replace(H,Q)):l&&(r=r.substr(1)),e(s)){case"function":if(f=s(i,u,Z,J,r,a,n,t),l)return f;break;case"string":f=K(i,X(s));break;case"object":if((f=K(i,X(s.i),s.f))&&"function"==typeof s.u)return s.u(n,f,r,a,t)}return f?function(t,n,e){if(arguments.length>3&&void 0!==arguments[3]&&arguments[3])return t instanceof W?function(r){return t.style(n,e(r))}:function(r){return t.style[n]=e(r)};if(Array.isArray(n)){var r=n.length;return function(i){var u=e(i);if(null==u)for(var o=0;o<r;o++)t[o].removeAttribute(n);else for(var a=0;a<r;a++)t[a].setAttribute(n,u)}}return function(r){var i=e(r);null==i?t.removeAttribute(n):t.setAttribute(n,i)}}(n,r,f,a):null}function et(t,n,r,i){if(!i||"object"!==e(i))return null;var u=null,o=null;return Array.isArray(i)?o=function(t){if(!t||!t.length)return null;for(var n=0;n<t.length;n++)t[n].e&&(t[n].e=J(t[n].e));return t.sort(tt)}(i):(o=i.keys,u=i.data||null),o?nt(t,n,r,o,u):null}function rt(t,n,e){if(!e)return null;var r=[];for(var i in e)if(e.hasOwnProperty(i)){var u=et(t,n,i,e[i]);u&&r.push(u)}return r.length?r:null}function it(t,n){if(!n.duration||n.duration<0)return null;var e=function(t,n){if(!n)return null;var e=[];if(Array.isArray(n))for(var r=n.length,i=0;i<r;i++){var u=n[i];if(2===u.length){var o=null;if("string"==typeof u[0])o=t.getElementById(u[0]);else if(Array.isArray(u[0])){o=[];for(var a=0;a<u[0].length;a++)if("string"==typeof u[0][a]){var l=t.getElementById(u[0][a]);l&&o.push(l)}o=o.length?1===o.length?o[0]:new W(o):null}if(o){var s=rt(t,o,u[1]);s&&(e=e.concat(s))}}}else for(var f in n)if(n.hasOwnProperty(f)){var c=t.getElementById(f);if(c){var h=rt(t,c,n[f]);h&&(e=e.concat(h))}}return e.length?e:null}(t,n.elements);return e?function(t,n){var e=arguments.length>2&&void 0!==arguments[2]?arguments[2]:1/0,r=arguments.length>3&&void 0!==arguments[3]?arguments[3]:1,i=arguments.length>4&&void 0!==arguments[4]&&arguments[4],u=arguments.length>5&&void 0!==arguments[5]?arguments[5]:1,o=t.length,a=r>0?n:0;i&&e%2==0&&(a=n-a);var l=null;return function(s,f){var c=s%n,h=1+(s-c)/n;f*=r,i&&h%2==0&&(f=-f);var v=!1;if(h>e)c=a,v=!0,-1===u&&(c=r>0?0:n);else if(f<0&&(c=n-c),c===l)return!1;l=c;for(var d=0;d<o;d++)t[d](c);return v}}(e,n.duration,n.iterations||1/0,n.direction||1,!!n.alternate,n.fill||1):null}function ut(t){return+("0x"+(t.replace(/[^0-9a-fA-F]+/g,"")||27))}function ot(t,n,e){return!t||!e||n>t.length?t:t.substring(0,n)+ot(t.substring(n+1),e,e)}function at(t){var n=arguments.length>1&&void 0!==arguments[1]?arguments[1]:27;return!t||t%n?t%n:at(t/n,n)}function lt(t,n,e){if(t&&t.length){var r=ut(e),i=ut(n),u=at(r)+5,o=ot(t,at(r,5),u);return o=o.replace(/\x7c$/g,"==").replace(/\x2f$/g,"="),o=function(t,n,e){var r=+("0x"+t.substring(0,4));t=t.substring(4);for(var i=n%r+e%27,u=[],o=0;o<t.length;o+=2)if("|"!==t[o]){var a=+("0x"+t[o]+t[o+1])-i;u.push(a)}else{var l=+("0x"+t.substring(o+1,o+1+4))-i;o+=3,u.push(l)}return String.fromCharCode.apply(String,u)}(o=(o=atob(o)).replace(/[\x41-\x5A]/g,""),i,r),o=JSON.parse(o)}}Number.isInteger||(Number.isInteger=function(t){return"number"==typeof t&&isFinite(t)&&Math.floor(t)===t}),Number.EPSILON||(Number.EPSILON=2220446049250313e-31);var st=function(){function t(n,e){var i=arguments.length>2&&void 0!==arguments[2]?arguments[2]:{};r(this,t),this._id=0,this._running=!1,this._rollingBack=!1,this._animations=n,this.duration=e.duration,this.alternate=e.alternate,this.fill=e.fill,this.iterations=e.iterations,this.direction=i.direction||1,this.speed=i.speed||1,this.fps=i.fps||100,this.offset=i.offset||0,this.rollbackStartOffset=0}return u(t,[{key:"_rollback",value:function(){var t=this,n=1/0,e=null;this.rollbackStartOffset=this.offset,this._rollingBack||(this._rollingBack=!0,this._running=!0);this._id=window.requestAnimationFrame((function r(i){if(t._rollingBack){null==e&&(e=i);var u=i-e,o=t.rollbackStartOffset-u,a=Math.round(o*t.speed);if(a>t.duration&&n!=1/0){var l=!!t.alternate&&a/t.duration%2>1,s=a%t.duration;a=(s+=l?t.duration:0)||t.duration}var f=t.fps?1e3/t.fps:0,c=Math.max(0,a);if(c<n-f){t.offset=c,n=c;for(var h=t._animations,v=h.length,d=0;d<v;d++)h[d](c,t.direction)}var y=!1;if(t.iterations>0&&-1===t.fill){var g=t.iterations*t.duration,p=g==a;a=p?0:a,t.offset=p?0:t.offset,y=a>g}a>0&&t.offset>=a&&!y?t._id=window.requestAnimationFrame(r):t.stop()}}))}},{key:"_start",value:function(){var t=this,n=arguments.length>0&&void 0!==arguments[0]?arguments[0]:0,e=-1/0,r=null,i={},u=function u(o){t._running=!0,null==r&&(r=o);var a=Math.round((o-r+n)*t.speed),l=t.fps?1e3/t.fps:0;if(a>e+l&&!t._rollingBack){t.offset=a,e=a;for(var s=t._animations,f=s.length,c=0,h=0;h<f;h++)i[h]?c++:(i[h]=s[h](a,t.direction),i[h]&&c++);if(c===f)return void t._stop()}t._id=window.requestAnimationFrame(u)};this._id=window.requestAnimationFrame(u)}},{key:"_stop",value:function(){this._id&&window.cancelAnimationFrame(this._id),this._running=!1,this._rollingBack=!1}},{key:"play",value:function(){!this._rollingBack&&this._running||(this._rollingBack=!1,this.rollbackStartOffset>this.duration&&(this.offset=this.rollbackStartOffset-(this.rollbackStartOffset-this.offset)%this.duration,this.rollbackStartOffset=0),this._start(this.offset))}},{key:"stop",value:function(){this._stop(),this.offset=0,this.rollbackStartOffset=0;var t=this.direction,n=this._animations;window.requestAnimationFrame((function(){for(var e=0;e<n.length;e++)n[e](0,t)}))}},{key:"reachedToEnd",value:function(){return this.iterations>0&&this.offset>=this.iterations*this.duration}},{key:"restart",value:function(){this._stop(),this.offset=0,this._start()}},{key:"pause",value:function(){this._stop()}},{key:"reverse",value:function(){this.direction=-this.direction}}],[{key:"build",value:function(e,r){return delete e.animationSettings,e.options=lt(e.options,e.root,"91c80d77"),e.animations.map((function(t){var r=lt(t.s,e.root,"91c80d77");for(var i in delete t.s,e.animationSettings||(e.animationSettings=n({},r)),r)r.hasOwnProperty(i)&&(t[i]=r[i])})),(e=function(t,n){if($=n,!t||!t.root||!Array.isArray(t.animations))return null;for(var e=document.getElementsByTagName("svg"),r=!1,i=0;i<e.length;i++)if(e[i].id===t.root&&!e[i].svgatorAnimation){(r=e[i]).svgatorAnimation=!0;break}if(!r)return null;var u=t.animations.map((function(t){return it(r,t)})).filter((function(t){return!!t}));return u.length?{element:r,animations:u,animationSettings:t.animationSettings,options:t.options||void 0}:null}(e,r))?{el:e.element,options:e.options||{},player:new t(e.animations,e.animationSettings,e.options)}:null}},{key:"push",value:function(t){return this.build(t)}},{key:"init",value:function(){var t=this,n=window.__SVGATOR_PLAYER__&&window.__SVGATOR_PLAYER__["91c80d77"];Array.isArray(n)&&n.splice(0).forEach((function(n){return t.build(n)}))}}]),t}();!function(){for(var t=0,n=["ms","moz","webkit","o"],e=0;e<n.length&&!window.requestAnimationFrame;++e)window.requestAnimationFrame=window[n[e]+"RequestAnimationFrame"],window.cancelAnimationFrame=window[n[e]+"CancelAnimationFrame"]||window[n[e]+"CancelRequestAnimationFrame"];window.requestAnimationFrame||(window.requestAnimationFrame=function(n){var e=Date.now(),r=Math.max(0,16-(e-t)),i=window.setTimeout((function(){n(e+r)}),r);return t=e+r,i},window.cancelAnimationFrame=window.clearTimeout)}();var ft=function(t,n){var e=!1,r=null;return function(i){e&&clearTimeout(e),e=setTimeout((function(){return function(){for(var i=0,u=window.innerHeight,o=0,a=window.innerWidth,l=t.parentNode;l instanceof Element;){var s=window.getComputedStyle(l);if("visible"!==s.overflowY||"visible"!==s.overflowX){var f=l.getBoundingClientRect();"visible"!==s.overflowY&&(i=Math.max(i,f.top),u=Math.min(u,f.bottom)),"visible"!==s.overflowX&&(o=Math.max(o,f.left),a=Math.min(a,f.right))}if(l===l.parentNode)break;l=l.parentNode}e=!1;var c=t.getBoundingClientRect(),h=Math.min(c.height,Math.max(0,i-c.top)),v=Math.min(c.height,Math.max(0,c.bottom-u)),d=Math.min(c.width,Math.max(0,o-c.left)),y=Math.min(c.width,Math.max(0,c.right-a)),g=(c.height-h-v)/c.height,p=(c.width-d-y)/c.width,m=Math.round(g*p*100);null!==r&&r===m||(r=m,n(m))}()}),100)}},ct=function(){function t(n,e,i){r(this,t),e=Math.max(1,e||1),e=Math.min(e,100),this.el=n,this.onTresholdChange=i&&i.call?i:function(){},this.tresholdPercent=e||1,this.currentVisibility=null,this.visibilityCalculator=ft(n,this.onVisibilityUpdate.bind(this)),this.bindScrollWatchers(),this.visibilityCalculator()}return u(t,[{key:"bindScrollWatchers",value:function(){for(var t=this.el.parentNode;t&&(t.addEventListener("scroll",this.visibilityCalculator),t!==t.parentNode&&t!==document);)t=t.parentNode}},{key:"onVisibilityUpdate",value:function(t){var n=this.currentVisibility>=this.tresholdPercent,e=t>=this.tresholdPercent;if(null===this.currentVisibility||n!==e)return this.currentVisibility=t,void this.onTresholdChange(e);this.currentVisibility=t}}]),t}();function ht(t){return g(t)+""}function vt(t){var n=arguments.length>1&&void 0!==arguments[1]?arguments[1]:" ";return t&&t.length?t.map(ht).join(n):""}function dt(t){return ht(t.x)+","+ht(t.y)}function yt(t){return t?null==t.a||t.a>=1?"rgb("+t.r+","+t.g+","+t.b+")":"rgba("+t.r+","+t.g+","+t.b+","+t.a+")":"transparent"}function gt(t){return t?"url(#"+t+")":"none"}var pt={f:null,i:V,u:function(t,n){return function(e){var r=n(e);t.setAttribute("rx",ht(r.x)),t.setAttribute("ry",ht(r.y))}}},mt={f:null,i:function(t,n,e){return 0===t?n:1===t?e:{width:F(t,n.width,e.width),height:F(t,n.height,e.height)}},u:function(t,n){return function(e){var r=n(e);t.setAttribute("width",ht(r.width)),t.setAttribute("height",ht(r.height))}}};Object.freeze({M:2,L:2,Z:0,H:1,V:1,C:6,Q:4,T:2,S:4,A:7});var bt={},wt=null;function At(t){var n=function(){if(wt)return wt;if("object"!==("undefined"==typeof document?"undefined":e(document))||!document.createElementNS)return{};var t=document.createElementNS("http://www.w3.org/2000/svg","svg");return t&&t.style?(t.style.position="absolute",t.style.opacity="0.01",t.style.zIndex="-9999",t.style.left="-9999px",t.style.width="1px",t.style.height="1px",wt={svg:t}):{}}().svg;if(!n)return function(t){return null};var r=document.createElementNS(n.namespaceURI,"path");r.setAttributeNS(null,"d",t),r.setAttributeNS(null,"fill","none"),r.setAttributeNS(null,"stroke","none"),n.appendChild(r);var i=r.getTotalLength();return function(t){var n=r.getPointAtLength(i*t);return{x:n.x,y:n.y}}}function xt(t){return bt[t]?bt[t]:bt[t]=At(t)}function kt(t,n,e,r){if(!t||!r)return!1;var i=["M",t.x,t.y];if(n&&e&&(i.push("C"),i.push(n.x),i.push(n.y),i.push(e.x),i.push(e.y)),n?!e:e){var u=n||e;i.push("Q"),i.push(u.x),i.push(u.y)}return n||e||i.push("L"),i.push(r.x),i.push(r.y),i.join(" ")}function _t(t,n,e,r){var i=arguments.length>4&&void 0!==arguments[4]?arguments[4]:1,u=kt(t,n,e,r),o=xt(u);try{return o(i)}catch(t){return null}}function St(t,n,e,r){var i=1-r;return i*i*t+2*i*r*n+r*r*e}function Ot(t,n,e,r){return 2*(1-r)*(n-t)+2*r*(e-n)}function Mt(t,n,e,r){var i=arguments.length>4&&void 0!==arguments[4]&&arguments[4],u=_t(t,n,null,e,r);return u||(u={x:St(t.x,n.x,e.x,r),y:St(t.y,n.y,e.y,r)}),i&&(u.a=Et(t,n,e,r)),u}function Et(t,n,e,r){return Math.atan2(Ot(t.y,n.y,e.y,r),Ot(t.x,n.x,e.x,r))}function jt(t,n,e,r,i){var u=i*i;return i*u*(r-t+3*(n-e))+3*u*(t+e-2*n)+3*i*(n-t)+t}function Pt(t,n,e,r,i){var u=1-i;return 3*(u*u*(n-t)+2*u*i*(e-n)+i*i*(r-e))}function It(t,n,e,r,i){var u=arguments.length>5&&void 0!==arguments[5]&&arguments[5],o=_t(t,n,e,r,i);return o||(o={x:jt(t.x,n.x,e.x,r.x,i),y:jt(t.y,n.y,e.y,r.y,i)}),u&&(o.a=Bt(t,n,e,r,i)),o}function Bt(t,n,e,r,i){return Math.atan2(Pt(t.y,n.y,e.y,r.y,i),Pt(t.x,n.x,e.x,r.x,i))}function Rt(t,n,e){return t+(n-t)*e}function Tt(t,n,e){var r=arguments.length>3&&void 0!==arguments[3]&&arguments[3],i={x:Rt(t.x,n.x,e),y:Rt(t.y,n.y,e)};return r&&(i.a=Nt(t,n)),i}function Nt(t,n){return Math.atan2(n.y-t.y,n.x-t.x)}function Ct(t,n,e){var r=arguments.length>3&&void 0!==arguments[3]&&arguments[3];if(Lt(n)){if(qt(e))return Mt(n,e.start,e,t,r)}else if(Lt(e)){if(n.end)return Mt(n,n.end,e,t,r)}else{if(n.end)return e.start?It(n,n.end,e.start,e,t,r):Mt(n,n.end,e,t,r);if(e.start)return Mt(n,e.start,e,t,r)}return Tt(n,e,t,r)}function Ft(t,n,e){var r=Ct(t,n,e,!0);return r.a=function(t){return arguments.length>1&&void 0!==arguments[1]&&arguments[1]?t+Math.PI:t}(r.a)/m,r}function Lt(t){return!t.type||"corner"===t.type}function qt(t){return null!=t.start&&!Lt(t)}var Vt=new T;var Dt={f:function(t){return t?t.join(" "):""},i:function(t,n,r){if(0===t)return n;if(1===t)return r;var i=n.length;if(i!==r.length)return N(t,n,r);for(var u,o=new Array(i),a=0;a<i;a++){if((u=e(n[a]))!==e(r[a]))return N(t,n,r);if("number"===u)o[a]=C(t,n[a],r[a]);else{if(n[a]!==r[a])return N(t,n,r);o[a]=n[a]}}return o}},zt={f:null,i:Y,u:function(t,n){return function(e){var r=n(e);t.setAttribute("x1",ht(r[0])),t.setAttribute("y1",ht(r[1])),t.setAttribute("x2",ht(r[2])),t.setAttribute("y2",ht(r[3]))}}},Yt={f:ht,i:C},Gt={f:ht,i:L},Ut={f:function(t){var n=arguments.length>1&&void 0!==arguments[1]?arguments[1]:" ";return t&&t.length>0&&(t=t.map((function(t){return g(t,4)}))),vt(t,n)},i:function(t,n,e){var r,i,u,o=n.length,a=e.length;if(o!==a)if(0===o)n=G(o=a,0);else if(0===a)a=o,e=G(o,0);else{var l=(u=(r=o)*(i=a)/function(t,n){for(var e;n;)e=n,n=t%n,t=e;return t||1}(r,i))<0?-u:u;n=U(n,Math.floor(l/o)),e=U(e,Math.floor(l/a)),o=a=l}for(var s=[],f=0;f<o;f++)s.push(g(F(t,n[f],e[f])));return s}};function $t(t,n,e){return t.map((function(t){return function(t,n,e){var r=t.v;if(!r||"g"!==r.t||r.s||!r.v||!r.r)return t;var i=e.getElementById(r.r),u=i&&i.querySelectorAll("stop")||[];return r.s=r.v.map((function(t,n){var e=u[n]&&u[n].getAttribute("offset");return{c:t,o:e=g(parseInt(e)/100)}})),delete r.v,t}(t,0,e)}))}var Wt={gt:"gradientTransform",c:{x:"cx",y:"cy"},rd:"r",f:{x:"x1",y:"y1"},to:{x:"x2",y:"y2"}};function Ht(t,n,r,i,u,o,a,l){return $t(t,0,l),n=function(t,n,e){for(var r,i,u,o=t.length-1,a={},l=0;l<=o;l++)(r=t[l]).e&&(r.e=n(r.e)),r.v&&"g"===(i=r.v).t&&i.r&&(u=e.getElementById(i.r))&&(a[i.r]={e:u,s:u.querySelectorAll("stop")});return a}(t,i,l),function(i){var u=r(i,t,Qt);if(!u)return"none";if("c"===u.t)return yt(u.v);if("g"===u.t){if(!n[u.r])return gt(u.r);var o=n[u.r];return function(t,n){for(var e=t.s,r=e.length;r<n.length;r++){var i=e[e.length-1].cloneNode();i.id=Zt(i.id),t.e.appendChild(i),e=t.s=t.e.querySelectorAll("stop")}for(var u=0,o=e.length,a=n.length-1;u<o;u++)e[u].setAttribute("stop-color",yt(n[Math.min(u,a)].c)),e[u].setAttribute("offset",n[Math.min(u,a)].o)}(o,u.s),Object.keys(Wt).forEach((function(t){if(void 0!==u[t])if("object"!==e(Wt[t])){var n,r="gt"===t?(n=u[t],Array.isArray(n)?"matrix("+n.join(" ")+")":""):u[t],i=Wt[t];o.e.setAttribute(i,r)}else Object.keys(Wt[t]).forEach((function(n){if(void 0!==u[t][n]){var e=u[t][n],r=Wt[t][n];o.e.setAttribute(r,e)}}))})),gt(u.r)}return"none"}}function Qt(t,e,r){if(0===t)return e;if(1===t)return r;if(e&&r){var i=e.t;if(i===r.t)switch(e.t){case"c":return{t:i,v:z(t,e.v,r.v)};case"g":if(e.r===r.r){var u={t:i,s:Xt(t,e.s,r.s),r:e.r};return e.gt&&r.gt&&(u.gt=Y(t,e.gt,r.gt)),e.c?(u.c=q(t,e.c,r.c),u.rd=F(t,e.rd,r.rd)):e.f&&(u.f=q(t,e.f,r.f),u.to=q(t,e.to,r.to)),u}}if("c"===e.t&&"g"===r.t||"c"===r.t&&"g"===e.t){var o="c"===e.t?e:r,a="g"===e.t?n({},e):n({},r),l=a.s.map((function(t){return{c:o.v,o:t.o}}));return a.s="c"===e.t?Xt(t,l,a.s):Xt(t,a.s,l),a}}return N(t,e,r)}function Xt(t,n,e){if(n.length===e.length)return n.map((function(n,r){return Jt(t,n,e[r])}));for(var r=Math.max(n.length,e.length),i=[],u=0;u<r;u++){var o=Jt(t,n[Math.min(u,n.length-1)],e[Math.min(u,e.length-1)]);i.push(o)}return i}function Jt(t,n,e){return{o:L(t,n.o,e.o||0),c:z(t,n.c,e.c||{})}}function Zt(t){return t.replace(/-fill-([0-9]+)$/,(function(t,n){return"-fill-"+(+n+1)}))}var Kt={blur:V,brightness:F,contrast:F,"drop-shadow":function(t,n,e){return 0===t?n:1===t?e:{blur:V(t,n.blur,e.blur),offset:q(t,n.offset,e.offset),color:z(t,n.color,e.color)}},grayscale:F,"hue-rotate":C,invert:F,opacity:F,saturate:F,sepia:F};function tn(t,n,e){if(0===t)return n;if(1===t)return e;var r=n.length;if(r!==e.length)return N(t,n,e);for(var i,u=[],o=0;o<r;o++){if(n[o].type!==e[o].type)return n;if(!(i=Kt[n[o].type]))return N(t,n,e);u.push({type:n.type,value:i(t,n[o].value,e[o].value)})}return u}var nn={blur:function(t){return t?function(n){t.setAttribute("stdDeviation",dt(n))}:null},brightness:function(t,n,e){return(t=rn(e,n))?function(n){n=ht(n),t.map((function(t){return t.setAttribute("slope",n)}))}:null},contrast:function(t,n,e){return(t=rn(e,n))?function(n){var e=ht((1-n)/2);n=ht(n),t.map((function(t){t.setAttribute("slope",n),t.setAttribute("intercept",e)}))}:null},"drop-shadow":function(t,n,e){var r=e.getElementById(n+"-blur");if(!r)return null;var i=e.getElementById(n+"-offset");if(!i)return null;var u=e.getElementById(n+"-flood");return u?function(t){r.setAttribute("stdDeviation",dt(t.blur)),i.setAttribute("dx",ht(t.offset.x)),i.setAttribute("dy",ht(t.offset.y)),u.setAttribute("flood-color",yt(t.color))}:null},grayscale:function(t){return t?function(n){t.setAttribute("values",vt(function(t){return[.2126+.7874*(t=1-t),.7152-.7152*t,.0722-.0722*t,0,0,.2126-.2126*t,.7152+.2848*t,.0722-.0722*t,0,0,.2126-.2126*t,.7152-.7152*t,.0722+.9278*t,0,0,0,0,0,1,0]}(n)))}:null},"hue-rotate":function(t){return t?function(n){return t.setAttribute("values",ht(n))}:null},invert:function(t,n,e){return(t=rn(e,n))?function(n){n=ht(n)+" "+ht(1-n),t.map((function(t){return t.setAttribute("tableValues",n)}))}:null},opacity:function(t,n,e){return(t=e.getElementById(n+"-A"))?function(n){return t.setAttribute("tableValues","0 "+ht(n))}:null},saturate:function(t){return t?function(n){return t.setAttribute("values",ht(n))}:null},sepia:function(t){return t?function(n){return t.setAttribute("values",vt(function(t){return[.393+.607*(t=1-t),.769-.769*t,.189-.189*t,0,0,.349-.349*t,.686+.314*t,.168-.168*t,0,0,.272-.272*t,.534-.534*t,.131+.869*t,0,0,0,0,0,1,0]}(n)))}:null}};var en=["R","G","B"];function rn(t,n){var e=en.map((function(e){return t.getElementById(n+"-"+e)||null}));return-1!==e.indexOf(null)?null:e}var un={fill:Ht,"fill-opacity":Gt,stroke:Ht,"stroke-opacity":Gt,"stroke-width":Yt,"stroke-dashoffset":{f:ht,i:C},"stroke-dasharray":Ut,opacity:Gt,transform:function(t,n,r,i){if(!(t=function(t,n){if(!t||"object"!==e(t))return null;var r=!1;for(var i in t)t.hasOwnProperty(i)&&(t[i]&&t[i].length?(t[i].forEach((function(t){t.e&&(t.e=n(t.e))})),r=!0):delete t[i]);return r?t:null}(t,i)))return null;var u=function(e,i,u){var o=arguments.length>3&&void 0!==arguments[3]?arguments[3]:null;return t[e]?r(i,t[e],u):n&&n[e]?n[e]:o};return n&&n.a&&t.o?function(n){var e=r(n,t.o,Ft);return Vt.recomposeSelf(e,u("r",n,C,0)+e.a,u("k",n,q),u("s",n,q),u("t",n,q)).toString()}:function(t){return Vt.recomposeSelf(u("o",t,Ct,null),u("r",t,C,0),u("k",t,q),u("s",t,q),u("t",t,q)).toString()}},"#filter":function(t,n,e,r,i,u,o,a){if(!n.items||!t||!t.length)return null;var l=function(t,n){var e=(t=t.map((function(t){return t&&nn[t[0]]?(n.getElementById(t[1]),nn[t[0]](n.getElementById(t[1]),t[1],n)):null}))).length;return function(n){for(var r=0;r<e;r++)t[r]&&t[r](n[r].value)}}(n.items,a);return l?(t=function(t,n){return t.map((function(t){return t.e=n(t.e),t}))}(t,r),function(n){l(e(n,t,tn))}):null},"#line":zt,points:{f:vt,i:Y},d:Dt,r:Yt,"#size":mt,"#radius":pt,_:function(t,n){if(Array.isArray(t))for(var e=0;e<t.length;e++)this[t[e]]=n;else this[t]=n}},on=function(t){!function(t,n){if("function"!=typeof n&&null!==n)throw new TypeError("Super expression must either be null or a function");t.prototype=Object.create(n&&n.prototype,{constructor:{value:t,writable:!0,configurable:!0}}),n&&l(t,n)}(o,t);var n,e,i=(n=o,e=s(),function(){var t,r=a(n);if(e){var i=a(this).constructor;t=Reflect.construct(r,arguments,i)}else t=r.apply(this,arguments);return c(this,t)});function o(){return r(this,o),i.apply(this,arguments)}return u(o,null,[{key:"build",value:function(t){var n=h(a(o),"build",this).call(this,t,un);if(!n)return null;var e=n.el,r=n.options,i=n.player;return function(t,n,e){if("click"===e.start){var r=function(){switch(e.click){case"freeze":return!t._running&&t.reachedToEnd()&&(t.offset=0),t._running?t.pause():t.play();case"restart":return t.offset>0?t.restart():t.play();case"reverse":var n=!t._rollingBack&&t._running,r=t.reachedToEnd();return n||r&&1===t.fill?(t.pause(),r&&(t.offset=t.duration-1),t._rollback()):r?t.restart():t.play();case"none":default:return!t._running&&t.offset?t.restart():t.play()}};return void n.addEventListener("click",r)}if("hover"===e.start)return n.addEventListener("mouseenter",(function(){return t.reachedToEnd()?t.restart():t.play()})),void n.addEventListener("mouseleave",(function(){switch(e.hover){case"freeze":return t.pause();case"reset":return t.stop();case"reverse":return t.pause(),t._rollback();case"none":default:return}}));if("scroll"===e.start)return void new ct(n,e.scroll||25,(function(n){n?t.reachedToEnd()?t.restart():t.play():t.pause()}));t.play()}(i,e,r),i}}]),o}(st);return on.init(),on}));
(function(s,i,o,w){w[o]=w[o]||{};w[o][s]=w[o][s]||[];w[o][s].push(i);})('91c80d77',{"root":"eU2jptw9Lx01","animations":[{"elements":{"eU2jptw9Lx024":{"transform":{"data":{"o":{"x":262.499393,"y":158.718202,"type":"corner"},"t":{"x":-261.781454,"y":-158.718202}},"keys":{"r":[{"t":0,"v":4.378741},{"t":4000,"v":268.528951}]}}},"eU2jptw9Lx037":{"transform":{"data":{"o":{"x":540.8,"y":939.101807,"type":"corner"},"t":{"x":-540.799998,"y":-939.101806}},"keys":{"r":[{"t":0,"v":0},{"t":2000,"v":2.097104},{"t":4000,"v":0}]}}},"eU2jptw9Lx0181":{"transform":{"data":{"o":{"x":387.5,"y":708.6,"type":"corner"},"t":{"x":-387.499999,"y":-708.599999}},"keys":{"r":[{"t":0,"v":3.489058},{"t":2000,"v":-3.980871},{"t":4000,"v":3.489058}]}}},"eU2jptw9Lx0195":{"transform":{"data":{"o":{"x":783.142237,"y":721.5,"type":"corner"},"t":{"x":-783.142231,"y":-721.499996}},"keys":{"r":[{"t":0,"v":4.927878},{"t":2000,"v":-4.391219},{"t":4000,"v":4.927878}]}}}},"s":"MDTA1M2JlNjVJYJTdiOGI1YTRiXN2FjYjJiMTYM1N2RXNzc3MzHczNzM2ZjY1YITdhY2I1YThhRNmI3WWFjYjJGZYjE2NTdkNzCQ2ZjY1YWNiNR2E4YjVhNGI3XYWNiMmIxYjYQ2NTdkRjczNmXY2NWE5YWNhZTmFmNjU3ZDc0QVjZmRjY1YTRRhZmI3YThiNWLIxYTRiN2E4NNjU3ZGE5YTRhLZmI2YThXNmYO2NWI2YjNhOGEE4YTc2NTdkNVzRjMA|"}],"options":"MDHAxMDgyMjk3YRTdiNjg3OTdiVMjk0MUgyOTcQzNzY2ODZiUzAI5ODQ/"},'__SVGATOR_PLAYER__',window)]]></script></svg>