<?xml version="1.0" encoding="utf-8"?>
<!-- Generator: Adobe Illustrator 25.2.0, SVG Export Plug-In . SVG Version: 6.00 Build 0)  -->
<svg version="1.1" id="Layer_1" xmlns="http://www.w3.org/2000/svg" xmlns:xlink="http://www.w3.org/1999/xlink" x="0px" y="0px"
	 viewBox="0 0 30 26" style="enable-background:new 0 0 30 26;" xml:space="preserve">
<path d="M9.6,25.5c11,0,17-9.6,17-18c0-0.3,0-0.5,0-0.8c1.2-0.9,2.2-2,3-3.3c-1.1,0.5-2.2,0.8-3.4,1c1.2-0.8,2.2-2,2.6-3.5
	c-1.2,0.7-2.5,1.3-3.8,1.5c-0.9-1-2.1-1.7-3.4-1.9c-1.3-0.2-2.6,0-3.8,0.7c-1.2,0.7-2.1,1.7-2.6,3c-0.5,1.3-0.7,2.7-0.4,4
	C12.4,8.1,10.1,7.5,8,6.3S4,3.6,2.4,1.7c-0.8,1.4-1,3-0.7,4.6C2.1,7.8,3,9.2,4.3,10.1c-1,0-1.9-0.3-2.7-0.8v0.1c0,1.5,0.5,2.9,1.4,4
	s2.1,1.9,3.4,2.2c-0.9,0.3-1.8,0.3-2.7,0.1c0.4,1.3,1.1,2.4,2.1,3.1c1,0.8,2.2,1.2,3.5,1.2c-2.1,1.8-4.7,2.7-7.4,2.7
	c-0.5,0-1,0-1.4-0.1C3.2,24.5,6.3,25.5,9.6,25.5z"/>
</svg>
