<!-- <svg viewBox="0 0 96 96" width="32px" color="text" xmlns="http://www.w3.org/2000/svg" class="sc-bdnxRM eHCSxp"><circle cx="48" cy="48" r="48" fill="white"></circle><path fill-rule="evenodd" clip-rule="evenodd" d="M66.4573 43.7107C64.8919 42.1452 64.8919 39.6071 66.4573 38.0416C68.0228 36.4762 70.5609 36.4762 72.1264 38.0416C73.6918 39.6071 73.6918 42.1452 72.1264 43.7107C70.5609 45.2762 68.0228 45.2762 66.4573 43.7107ZM52.9933 57.1747C51.8192 56.0006 51.8192 54.097 52.9933 52.9229C54.1674 51.7488 56.071 51.7488 57.2451 52.9229C58.4192 54.097 58.4192 56.0006 57.2451 57.1747C56.071 58.3488 54.1674 58.3488 52.9933 57.1747ZM74.2523 50.0884C73.0782 48.9143 73.0782 47.0107 74.2523 45.8366C75.4263 44.6625 77.3299 44.6625 78.504 45.8366C79.6781 47.0107 79.6781 48.9143 78.504 50.0884C77.3299 51.2625 75.4263 51.2625 74.2523 50.0884ZM67.166 57.1747C65.9919 56.0006 65.9919 54.097 67.166 52.9229C68.34 51.7488 70.2436 51.7488 71.4177 52.9229C72.5918 54.097 72.5918 56.0006 71.4177 57.1747C70.2436 58.3488 68.34 58.3488 67.166 57.1747ZM82.0472 56.466C81.2645 55.6833 81.2645 54.4142 82.0472 53.6315C82.8299 52.8488 84.099 52.8488 84.8817 53.6315C85.6644 54.4142 85.6644 55.6833 84.8817 56.466C84.099 57.2488 82.8299 57.2488 82.0472 56.466ZM74.9609 63.5523C74.1782 62.7696 74.1782 61.5005 74.9609 60.7178C75.7436 59.9351 77.0127 59.9351 77.7954 60.7178C78.5781 61.5005 78.5781 62.7696 77.7954 63.5523C77.0127 64.3351 75.7436 64.3351 74.9609 63.5523ZM59.371 50.797C57.8056 49.2315 57.8056 46.6934 59.371 45.1279C60.9365 43.5625 63.4746 43.5625 65.0401 45.1279C66.6055 46.6934 66.6055 49.2315 65.0401 50.797C63.4746 52.3625 60.9365 52.3625 59.371 50.797ZM59.371 36.6244C57.8056 35.0589 57.8056 32.5208 59.371 30.9553C60.9365 29.3899 63.4746 29.3899 65.0401 30.9553C66.6055 32.5208 66.6055 35.0589 65.0401 36.6244C63.4746 38.1898 60.9365 38.1898 59.371 36.6244ZM52.2847 43.7107C50.7193 42.1452 50.7193 39.6071 52.2847 38.0416C53.8502 36.4762 56.3883 36.4762 57.9538 38.0416C59.5192 39.6071 59.5192 42.1452 57.9538 43.7107C56.3883 45.2762 53.8502 45.2762 52.2847 43.7107ZM38.0462 43.7107C36.4808 42.1452 36.4808 39.6071 38.0462 38.0416C39.6117 36.4762 42.1498 36.4762 43.7153 38.0416C45.2807 39.6071 45.2807 42.1452 43.7153 43.7107C42.1498 45.2762 39.6117 45.2762 38.0462 43.7107ZM24.5823 57.1747C23.4082 56.0006 23.4082 54.097 24.5823 52.9229C25.7564 51.7488 27.66 51.7488 28.8341 52.9229C30.0081 54.097 30.0081 56.0006 28.8341 57.1747C27.66 58.3488 25.7564 58.3488 24.5823 57.1747ZM45.8412 50.0884C44.6671 48.9143 44.6671 47.0107 45.8412 45.8366C47.0153 44.6625 48.9189 44.6625 50.093 45.8366C51.2671 47.0107 51.2671 48.9143 50.093 50.0884C48.9189 51.2625 47.0153 51.2625 45.8412 50.0884ZM38.7549 57.1747C37.5808 56.0006 37.5808 54.097 38.7549 52.9229C39.929 51.7488 41.8326 51.7488 43.0067 52.9229C44.1807 54.097 44.1807 56.0006 43.0067 57.1747C41.8326 58.3488 39.929 58.3488 38.7549 57.1747ZM11.1183 56.466C10.3356 55.6833 10.3356 54.4142 11.1183 53.6315C11.901 52.8488 13.1701 52.8488 13.9528 53.6315C14.7356 54.4142 14.7356 55.6833 13.9528 56.466C13.1701 57.2488 11.901 57.2488 11.1183 56.466ZM18.2046 63.5523C17.4219 62.7696 17.4219 61.5005 18.2046 60.7178C18.9873 59.9351 20.2564 59.9351 21.0391 60.7178C21.8219 61.5005 21.8219 62.7696 21.0391 63.5523C20.2564 64.3351 18.9873 64.3351 18.2046 63.5523ZM46.5498 63.5523C45.7671 62.7696 45.7671 61.5005 46.5498 60.7178C47.3325 59.9351 48.6016 59.9351 49.3843 60.7178C50.1671 61.5005 50.1671 62.7696 49.3843 63.5523C48.6016 64.3351 47.3325 64.3351 46.5498 63.5523ZM17.496 50.0884C16.3219 48.9143 16.3219 47.0107 17.496 45.8366C18.6701 44.6625 20.5737 44.6625 21.7478 45.8366C22.9218 47.0107 22.9218 48.9143 21.7478 50.0884C20.5737 51.2625 18.6701 51.2625 17.496 50.0884ZM30.9599 50.797C29.3945 49.2315 29.3945 46.6934 30.9599 45.1279C32.5254 43.5625 35.0635 43.5625 36.629 45.1279C38.1944 46.6934 38.1944 49.2315 36.629 50.797C35.0635 52.3625 32.5254 52.3625 30.9599 50.797ZM30.9599 36.6244C29.3945 35.0589 29.3945 32.5208 30.9599 30.9553C32.5254 29.3899 35.0635 29.3899 36.629 30.9553C38.1944 32.5208 38.1944 35.0589 36.629 36.6244C35.0635 38.1898 32.5254 38.1898 30.9599 36.6244ZM23.8736 43.7107C22.3082 42.1452 22.3082 39.6071 23.8736 38.0416C25.4391 36.4762 27.9772 36.4762 29.5427 38.0416C31.1081 39.6071 31.1081 42.1452 29.5427 43.7107C27.9772 45.2762 25.4391 45.2762 23.8736 43.7107Z" fill="#1D222A"></path></svg> -->
<svg viewBox="0 0 40 40" width="40px" color="text" xmlns="http://www.w3.org/2000/svg" class="sc-bdvvtL iuOAKx"><path d="M0 10C0 4.47715 4.47715 0 10 0H30C35.5228 0 40 4.47715 40 10V30C40 35.5228 35.5228 40 30 40H10C4.47715 40 0 35.5228 0 30V10Z" fill="white"></path><path fill-rule="evenodd" clip-rule="evenodd" d="M30 0.416667H10C4.70727 0.416667 0.416667 4.70727 0.416667 10V30C0.416667 35.2927 4.70727 39.5833 10 39.5833H30C35.2927 39.5833 39.5833 35.2927 39.5833 30V10C39.5833 4.70727 35.2927 0.416667 30 0.416667ZM10 0C4.47715 0 0 4.47715 0 10V30C0 35.5228 4.47715 40 10 40H30C35.5228 40 40 35.5228 40 30V10C40 4.47715 35.5228 0 30 0H10Z" fill="#E7E3EB"></path><path fill-rule="evenodd" clip-rule="evenodd" d="M27.6906 18.2129C27.0383 17.5606 27.0383 16.503 27.6906 15.8508C28.3429 15.1985 29.4004 15.1985 30.0527 15.8508C30.705 16.503 30.705 17.5606 30.0527 18.2129C29.4004 18.8651 28.3429 18.8651 27.6906 18.2129ZM22.0806 23.8229C21.5914 23.3337 21.5914 22.5405 22.0806 22.0513C22.5698 21.5621 23.363 21.5621 23.8522 22.0513C24.3414 22.5405 24.3414 23.3337 23.8522 23.8229C23.363 24.3121 22.5698 24.3121 22.0806 23.8229ZM30.9385 20.8702C30.4493 20.381 30.4493 19.5879 30.9385 19.0987C31.4277 18.6094 32.2208 18.6094 32.7101 19.0987C33.1993 19.5879 33.1993 20.381 32.7101 20.8702C32.2208 21.3594 31.4277 21.3594 30.9385 20.8702ZM27.9859 23.8229C27.4966 23.3337 27.4966 22.5405 27.9859 22.0513C28.4751 21.5621 29.2682 21.5621 29.7574 22.0513C30.2466 22.5405 30.2466 23.3337 29.7574 23.8229C29.2682 24.3121 28.4751 24.3121 27.9859 23.8229ZM34.1864 23.5276C33.8602 23.2015 33.8602 22.6727 34.1864 22.3465C34.5125 22.0204 35.0413 22.0204 35.3674 22.3465C35.6936 22.6727 35.6936 23.2015 35.3674 23.5276C35.0413 23.8537 34.5125 23.8537 34.1864 23.5276ZM31.2337 26.4802C30.9076 26.1541 30.9076 25.6253 31.2337 25.2992C31.5599 24.973 32.0887 24.973 32.4148 25.2992C32.7409 25.6253 32.7409 26.1541 32.4148 26.4802C32.0887 26.8064 31.5599 26.8064 31.2337 26.4802ZM24.738 21.1655C24.0857 20.5132 24.0857 19.4557 24.738 18.8034C25.3902 18.1511 26.4478 18.1511 27.1001 18.8034C27.7523 19.4557 27.7523 20.5132 27.1001 21.1655C26.4478 21.8178 25.3902 21.8178 24.738 21.1655ZM24.738 15.2602C24.0857 14.608 24.0857 13.5504 24.738 12.8981C25.3902 12.2459 26.4478 12.2459 27.1001 12.8981C27.7523 13.5504 27.7523 14.608 27.1001 15.2602C26.4478 15.9125 25.3902 15.9125 24.738 15.2602ZM21.7853 18.2129C21.1331 17.5606 21.1331 16.503 21.7853 15.8508C22.4376 15.1985 23.4952 15.1985 24.1474 15.8508C24.7997 16.503 24.7997 17.5606 24.1474 18.2129C23.4952 18.8651 22.4376 18.8651 21.7853 18.2129ZM15.8526 18.2129C15.2004 17.5606 15.2004 16.503 15.8526 15.8508C16.5049 15.1985 17.5625 15.1985 18.2147 15.8508C18.867 16.503 18.867 17.5606 18.2147 18.2129C17.5625 18.8651 16.5049 18.8651 15.8526 18.2129ZM10.2427 23.8229C9.75345 23.3337 9.75345 22.5405 10.2427 22.0513C10.7319 21.5621 11.525 21.5621 12.0142 22.0513C12.5034 22.5405 12.5034 23.3337 12.0142 23.8229C11.525 24.3121 10.7319 24.3121 10.2427 23.8229ZM19.1005 20.8702C18.6113 20.381 18.6113 19.5879 19.1005 19.0987C19.5897 18.6094 20.3829 18.6094 20.8721 19.0987C21.3613 19.5879 21.3613 20.381 20.8721 20.8702C20.3829 21.3594 19.5897 21.3594 19.1005 20.8702ZM16.1479 23.8229C15.6587 23.3337 15.6587 22.5405 16.1479 22.0513C16.6371 21.5621 17.4303 21.5621 17.9195 22.0513C18.4087 22.5405 18.4087 23.3337 17.9195 23.8229C17.4303 24.3121 16.6371 24.3121 16.1479 23.8229ZM4.63267 23.5276C4.30653 23.2015 4.30653 22.6727 4.63267 22.3465C4.9588 22.0204 5.48758 22.0204 5.81372 22.3465C6.13985 22.6727 6.13985 23.2015 5.81372 23.5276C5.48758 23.8537 4.9588 23.8537 4.63267 23.5276ZM7.58529 26.4802C7.25915 26.1541 7.25915 25.6253 7.58529 25.2992C7.91143 24.973 8.4402 24.973 8.76634 25.2992C9.09248 25.6253 9.09248 26.1541 8.76634 26.4802C8.4402 26.8064 7.91143 26.8064 7.58529 26.4802ZM19.3958 26.4802C19.0697 26.1541 19.0697 25.6253 19.3958 25.2992C19.7219 24.973 20.2507 24.973 20.5768 25.2992C20.903 25.6253 20.903 26.1541 20.5768 26.4802C20.2507 26.8064 19.7219 26.8064 19.3958 26.4802ZM7.29003 20.8702C6.80082 20.381 6.80082 19.5879 7.29003 19.0987C7.77924 18.6094 8.5724 18.6094 9.0616 19.0987C9.55081 19.5879 9.55081 20.381 9.0616 20.8702C8.5724 21.3594 7.77924 21.3594 7.29003 20.8702ZM12.9 21.1655C12.2477 20.5132 12.2477 19.4557 12.9 18.8034C13.5523 18.1511 14.6098 18.1511 15.2621 18.8034C15.9144 19.4557 15.9144 20.5132 15.2621 21.1655C14.6098 21.8178 13.5523 21.8178 12.9 21.1655ZM12.9 15.2602C12.2477 14.608 12.2477 13.5504 12.9 12.8981C13.5523 12.2459 14.6098 12.2459 15.2621 12.8981C15.9144 13.5504 15.9144 14.608 15.2621 15.2602C14.6098 15.9125 13.5523 15.9125 12.9 15.2602ZM9.94739 18.2129C9.29512 17.5606 9.29512 16.503 9.94739 15.8508C10.5997 15.1985 11.6572 15.1985 12.3095 15.8508C12.9618 16.503 12.9618 17.5606 12.3095 18.2129C11.6572 18.8651 10.5997 18.8651 9.94739 18.2129Z" fill="#1D222A"></path></svg>