<!-- <svg viewBox="0 0 96 96" width="32px" color="text" xmlns="http://www.w3.org/2000/svg" class="sc-bdnxRM eHCSxp"><circle cx="48" cy="48" r="48" fill="white"></circle><path d="M77.7602 16.9155L51.9419 36.0497L56.7382 24.7733L77.7602 16.9155Z" fill="#E17726"></path><path d="M18.2656 16.9155L43.8288 36.2283L39.2622 24.7733L18.2656 16.9155Z" fill="#E27625"></path><path d="M68.4736 61.2808L61.6108 71.7918L76.3059 75.8482L80.4899 61.5104L68.4736 61.2808Z" fill="#E27625"></path><path d="M15.5356 61.5104L19.6941 75.8482L34.3892 71.7918L27.5519 61.2808L15.5356 61.5104Z" fill="#E27625"></path><path d="M33.5984 43.5251L29.491 49.699L44.0584 50.3624L43.5482 34.6724L33.5984 43.5251Z" fill="#E27625"></path><path d="M62.4274 43.525L52.2991 34.4937L51.9419 50.3622L66.5094 49.6989L62.4274 43.525Z" fill="#E27625"></path><path d="M34.3892 71.7922L43.1654 67.5316L35.6137 61.6128L34.3892 71.7922Z" fill="#E27625"></path><path d="M52.8345 67.5316L61.6107 71.7922L60.3861 61.6128L52.8345 67.5316Z" fill="#E27625"></path><path d="M61.6107 71.7923L52.8345 67.5317L53.5233 73.2465L53.4468 75.6446L61.6107 71.7923Z" fill="#D5BFB2"></path><path d="M34.3892 71.7923L42.5531 75.6446L42.502 73.2465L43.1654 67.5317L34.3892 71.7923Z" fill="#D5BFB2"></path><path d="M42.7062 57.8369L35.4097 55.6939L40.5631 53.3213L42.7062 57.8369Z" fill="#233447"></path><path d="M53.2937 57.8369L55.4367 53.3213L60.6412 55.6939L53.2937 57.8369Z" fill="#233447"></path><path d="M34.3893 71.7918L35.6649 61.2808L27.552 61.5104L34.3893 71.7918Z" fill="#CC6228"></path><path d="M60.3352 61.2808L61.6108 71.7918L68.4736 61.5104L60.3352 61.2808Z" fill="#CC6228"></path><path d="M66.5094 49.6987L51.9419 50.362L53.294 57.8371L55.4371 53.3215L60.6416 55.6941L66.5094 49.6987Z" fill="#CC6228"></path><path d="M35.4098 55.6941L40.5633 53.3215L42.7063 57.8371L44.0584 50.362L29.491 49.6987L35.4098 55.6941Z" fill="#CC6228"></path><path d="M29.491 49.6987L35.6139 61.6129L35.4098 55.6941L29.491 49.6987Z" fill="#E27525"></path><path d="M60.6414 55.6941L60.3862 61.6129L66.5092 49.6987L60.6414 55.6941Z" fill="#E27525"></path><path d="M44.0584 50.3618L42.7063 57.8369L44.4156 66.6641L44.7728 55.0305L44.0584 50.3618Z" fill="#E27525"></path><path d="M51.9415 50.3618L51.2527 55.005L51.5843 66.6641L53.2937 57.8369L51.9415 50.3618Z" fill="#E27525"></path><path d="M53.2938 57.8374L51.5845 66.6646L52.8346 67.532L60.3862 61.6132L60.6413 55.6943L53.2938 57.8374Z" fill="#F5841F"></path><path d="M35.4097 55.6943L35.6138 61.6132L43.1654 67.532L44.4155 66.6646L42.7062 57.8374L35.4097 55.6943Z" fill="#F5841F"></path><path d="M53.4468 75.6443L53.5233 73.2462L52.8855 72.6849H43.1143L42.502 73.2462L42.5531 75.6443L34.3892 71.792L37.2465 74.1391L43.0378 78.1445H52.962L58.7533 74.1391L61.6107 71.792L53.4468 75.6443Z" fill="#C0AC9D"></path><path d="M52.8346 67.5315L51.5845 66.6641H44.4156L43.1655 67.5315L42.5022 73.2462L43.1145 72.6849H52.8857L53.5235 73.2462L52.8346 67.5315Z" fill="#161616"></path><path d="M78.8314 37.2998L80.9999 26.7377L77.7599 16.9155L52.8345 35.4119L62.4271 43.5247L75.9485 47.4791L78.9335 43.984L77.6323 43.04L79.7243 41.1521L78.1426 39.902L80.2091 38.3458L78.8314 37.2998Z" fill="#763E1A"></path><path d="M15 26.7377L17.194 37.2998L15.7909 38.3458L17.8574 39.902L16.2756 41.1521L18.3676 43.04L17.0665 43.984L20.0514 47.4791L33.5984 43.5247L43.1655 35.4119L18.2656 16.9155L15 26.7377Z" fill="#763E1A"></path><path d="M75.9487 47.4793L62.4272 43.5249L66.5092 49.6989L60.3862 61.613L68.4736 61.511H80.4898L75.9487 47.4793Z" fill="#F5841F"></path><path d="M33.5983 43.5249L20.0513 47.4793L15.5356 61.511H27.5519L35.6137 61.613L29.4908 49.6989L33.5983 43.5249Z" fill="#F5841F"></path><path d="M51.9415 50.3617L52.8344 35.4115L56.7378 24.7729H39.262L43.1653 35.4115L44.0583 50.3617L44.3899 55.0559L44.4154 66.664H51.5843L51.6099 55.0559L51.9415 50.3617Z" fill="#F5841F"></path></svg> -->
<svg viewBox="0 0 40 40" width="40px" color="text" xmlns="http://www.w3.org/2000/svg" class="sc-bdvvtL iuOAKx"><path d="M36.0112 3.33337L22.1207 13.6277L24.7012 7.56091L36.0112 3.33337Z" fill="#E17726"></path><path d="M4.00261 3.33337L17.7558 13.7238L15.2989 7.56091L4.00261 3.33337Z" fill="#E27625"></path><path d="M31.0149 27.2023L27.3227 32.8573L35.2287 35.0397L37.4797 27.3258L31.0149 27.2023Z" fill="#E27625"></path><path d="M2.53386 27.3258L4.77116 35.0397L12.6772 32.8573L8.9987 27.2023L2.53386 27.3258Z" fill="#E27625"></path><path d="M12.2518 17.6496L10.0419 20.9712L17.8793 21.3281L17.6048 12.8867L12.2518 17.6496Z" fill="#E27625"></path><path d="M27.762 17.6494L22.3129 12.7905L22.1207 21.3279L29.9581 20.9711L27.762 17.6494Z" fill="#E27625"></path><path d="M12.6772 32.8574L17.3989 30.5652L13.336 27.3809L12.6772 32.8574Z" fill="#E27625"></path><path d="M22.6009 30.5652L27.3226 32.8574L26.6637 27.3809L22.6009 30.5652Z" fill="#E27625"></path><path d="M27.3226 32.8575L22.6009 30.5653L22.9715 33.6399L22.9303 34.9301L27.3226 32.8575Z" fill="#D5BFB2"></path><path d="M12.6772 32.8575L17.0694 34.9301L17.042 33.6399L17.3989 30.5653L12.6772 32.8575Z" fill="#D5BFB2"></path><path d="M17.1518 25.3495L13.2262 24.1965L15.9988 22.92L17.1518 25.3495Z" fill="#233447"></path><path d="M22.848 25.3495L24.001 22.92L26.801 24.1965L22.848 25.3495Z" fill="#233447"></path><path d="M12.6773 32.8573L13.3635 27.2023L8.99876 27.3258L12.6773 32.8573Z" fill="#CC6228"></path><path d="M26.6364 27.2023L27.3227 32.8573L31.0149 27.3258L26.6364 27.2023Z" fill="#CC6228"></path><path d="M29.9581 20.9709L22.1207 21.3278L22.8482 25.3495L24.0011 22.92L26.8012 24.1965L29.9581 20.9709Z" fill="#CC6228"></path><path d="M13.2263 24.1965L15.9989 22.92L17.1519 25.3495L17.8793 21.3278L10.0419 20.9709L13.2263 24.1965Z" fill="#CC6228"></path><path d="M10.0419 20.9709L13.3361 27.3809L13.2263 24.1965L10.0419 20.9709Z" fill="#E27525"></path><path d="M26.8011 24.1965L26.6638 27.3809L29.958 20.9709L26.8011 24.1965Z" fill="#E27525"></path><path d="M17.8793 21.3278L17.1519 25.3494L18.0715 30.0985L18.2637 23.8396L17.8793 21.3278Z" fill="#E27525"></path><path d="M22.1205 21.3278L21.7499 23.8258L21.9283 30.0985L22.848 25.3494L22.1205 21.3278Z" fill="#E27525"></path><path d="M22.848 25.3496L21.9284 30.0987L22.601 30.5654L26.6638 27.381L26.8011 24.1967L22.848 25.3496Z" fill="#F5841F"></path><path d="M13.2262 24.1967L13.336 27.381L17.3989 30.5654L18.0714 30.0987L17.1518 25.3496L13.2262 24.1967Z" fill="#F5841F"></path><path d="M22.9303 34.93L22.9715 33.6398L22.6284 33.3378H17.3714L17.042 33.6398L17.0694 34.93L12.6772 32.8574L14.2145 34.1202L17.3302 36.2751H22.6696L25.7853 34.1202L27.3226 32.8574L22.9303 34.93Z" fill="#C0AC9D"></path><path d="M22.601 30.5653L21.9284 30.0986H18.0715L17.3989 30.5653L17.0421 33.6399L17.3715 33.3379H22.6285L22.9716 33.6399L22.601 30.5653Z" fill="#161616"></path><path d="M36.5875 14.3003L37.7542 8.61779L36.011 3.33337L22.6009 13.2846L27.7618 17.6493L35.0365 19.7768L36.6424 17.8964L35.9424 17.3886L37.0679 16.3728L36.2169 15.7003L37.3287 14.863L36.5875 14.3003Z" fill="#763E1A"></path><path d="M2.24573 8.61779L3.42615 14.3003L2.67123 14.863L3.78302 15.7003L2.93202 16.3728L4.05753 17.3886L3.35752 17.8964L4.96343 19.7768L12.2518 17.6493L17.399 13.2846L4.00263 3.33337L2.24573 8.61779Z" fill="#763E1A"></path><path d="M35.0365 19.777L27.7619 17.6495L29.958 20.9712L26.6638 27.3811L31.0149 27.3262H37.4797L35.0365 19.777Z" fill="#F5841F"></path><path d="M12.2517 17.6495L4.96332 19.777L2.53386 27.3262H8.99869L13.336 27.3811L10.0419 20.9712L12.2517 17.6495Z" fill="#F5841F"></path><path d="M22.1205 21.3276L22.6009 13.2843L24.701 7.56067H15.2988L17.3988 13.2843L17.8792 21.3276L18.0577 23.8531L18.0714 30.0984H21.9283L21.9421 23.8531L22.1205 21.3276Z" fill="#F5841F"></path></svg>