<!-- <svg viewBox="0 0 96 96" width="32px" color="text" xmlns="http://www.w3.org/2000/svg" class="sc-bdnxRM eHCSxp"><circle cx="48" cy="48" r="48" fill="white"></circle><path d="M44.3288 35.3546V21.7134H19.0926C18.581 21.7134 18.24 22.0544 18.24 22.566V41.8342C18.24 42.3457 18.581 42.6867 19.0926 42.6867H28.8119V77.8129C28.8119 78.3244 29.153 78.6654 29.6645 78.6654H45.5224C46.0339 78.6654 46.375 78.3244 46.375 77.8129V35.3546H44.3288Z" fill="#29AEFF"></path><path d="M61.8919 17.2798H55.7534H39.2134C38.7019 17.2798 38.3608 17.6208 38.3608 18.1324V73.3792C38.3608 73.8908 38.7019 74.2318 39.2134 74.2318H55.0713C55.5829 74.2318 55.9239 73.8908 55.9239 73.3792V59.397H62.0624C73.6575 59.397 83.0358 50.0187 83.0358 38.4237C83.0358 26.6581 73.487 17.2798 61.8919 17.2798Z" fill="#2761E7"></path></svg> -->
<svg viewBox="0 0 40 40" width="40px" color="text" xmlns="http://www.w3.org/2000/svg" class="sc-bdvvtL iuOAKx"><path d="M17.6755 13.1415V5.73914H3.98114C3.70355 5.73914 3.51849 5.92419 3.51849 6.20178V16.6576C3.51849 16.9352 3.70355 17.1203 3.98114 17.1203H9.25532V36.1814C9.25532 36.4589 9.44038 36.644 9.71797 36.644H18.3232C18.6008 36.644 18.7859 36.4589 18.7859 36.1814V13.1415H17.6755Z" fill="#29AEFF"></path><path d="M27.2061 3.33337H23.875H14.8997C14.6221 3.33337 14.437 3.51843 14.437 3.79602V33.7756C14.437 34.0532 14.6221 34.2382 14.8997 34.2382H23.5049C23.7825 34.2382 23.9676 34.0532 23.9676 33.7756V26.1882H27.2986C33.5906 26.1882 38.6797 21.099 38.6797 14.807C38.6797 8.4225 33.4981 3.33337 27.2061 3.33337Z" fill="#2761E7"></path></svg>