<!-- <svg viewBox="0 0 96 96" width="32px" color="text" xmlns="http://www.w3.org/2000/svg" class="sc-bdnxRM eHCSxp"><g clip-path="url(#clip0)"><path d="M48.0048 96.0097C74.5172 96.0097 96.0097 74.5172 96.0097 48.0048C96.0097 21.4925 74.5172 0 48.0048 0C21.4925 0 0 21.4925 0 48.0048C0 74.5172 21.4925 96.0097 48.0048 96.0097Z" fill="#3375BB"></path><path d="M48.0048 22.8922L49.3179 21.1833C48.9399 20.8928 48.4766 20.7354 48 20.7354C47.5233 20.7354 47.06 20.8928 46.682 21.1833L48.0048 22.8922ZM70.5783 29.5252H72.7313C72.7352 29.2396 72.6824 28.9561 72.576 28.6909C72.4696 28.4258 72.3118 28.1844 72.1116 27.9806C71.9114 27.7769 71.6729 27.6148 71.4097 27.5037C71.1465 27.3926 70.8639 27.3348 70.5783 27.3335V29.5252ZM48.0048 75.6377L46.8076 77.4335C47.1604 77.6697 47.5754 77.7958 48 77.7958C48.4245 77.7958 48.8395 77.6697 49.1924 77.4335L48.0048 75.6377ZM25.4506 29.5252V27.3625C25.165 27.3638 24.8824 27.4216 24.6192 27.5327C24.356 27.6437 24.1175 27.8058 23.9173 28.0096C23.7171 28.2134 23.5593 28.4548 23.4529 28.7199C23.3465 28.985 23.2937 29.2686 23.2976 29.5542L25.4506 29.5252ZM46.6917 24.5915C56.4626 32.1611 67.6528 31.6783 70.5879 31.6783V27.3625C67.5466 27.3625 57.8047 27.7487 49.3468 21.1833L46.6917 24.5915ZM68.4348 29.4866C68.2707 39.4892 67.8459 46.5471 67.0349 51.7704C66.2238 56.9938 65.1039 60.0448 63.6266 62.2268C62.1494 64.4089 60.257 65.8282 57.486 67.4792C54.715 69.1302 51.1716 70.9646 46.8076 73.8515L49.2406 77.4335C53.373 74.6818 56.8102 72.9246 59.7357 71.1771C62.6835 69.5717 65.2416 67.3367 67.228 64.6309C69.159 61.7344 70.4817 57.8724 71.3314 52.427C72.181 46.9815 72.6155 39.6534 72.7796 29.5542L68.4348 29.4866ZM49.2406 73.8515C44.9055 70.955 41.3718 69.1592 38.6201 67.4888C35.8684 65.8185 33.976 64.4861 32.4892 62.2268C31.0023 59.9676 29.7954 56.9648 28.9651 51.7704C28.1347 46.576 27.7678 39.4892 27.6037 29.4866L23.2976 29.5542C23.4617 39.6534 23.9058 47.0009 24.7458 52.427C25.5858 57.8531 26.8699 61.7151 28.8395 64.6309C30.8164 67.3382 33.3686 69.5739 36.3125 71.1771C39.2091 72.9246 42.6752 74.6818 46.8076 77.4335L49.2406 73.8515ZM25.4506 31.6783C28.3471 31.6783 39.547 32.1611 49.3179 24.5915L46.682 21.1833C38.2049 27.7487 28.463 27.3625 25.441 27.3625L25.4506 31.6783Z" fill="white"></path></g><defs><clipPath id="clip0"><rect width="96" height="96" fill="white"></rect></clipPath></defs></svg> -->
<svg viewBox="0 0 40 40" width="40px" color="text" xmlns="http://www.w3.org/2000/svg" class="sc-bdvvtL iuOAKx"><path opacity="0.9" d="M19.9959 4.8377L20.7771 3.82105C20.5523 3.64825 20.2766 3.55457 19.9931 3.55457C19.7095 3.55457 19.4339 3.64825 19.209 3.82105L19.9959 4.8377ZM33.425 8.7837H34.7059C34.7081 8.61378 34.6767 8.44509 34.6134 8.28737C34.5502 8.12965 34.4563 7.98603 34.3372 7.8648C34.2181 7.74358 34.0762 7.64714 33.9196 7.58107C33.763 7.515 33.5949 7.4806 33.425 7.47985V8.7837ZM19.9959 36.2161L19.2837 37.2845C19.4936 37.425 19.7405 37.5 19.9931 37.5C20.2457 37.5 20.4925 37.425 20.7024 37.2845L19.9959 36.2161ZM6.57841 8.7837V7.49709C6.40847 7.49783 6.24036 7.53223 6.0838 7.5983C5.92723 7.66437 5.7853 7.76081 5.66621 7.88204C5.54712 8.00326 5.45322 8.14688 5.38995 8.3046C5.32667 8.46232 5.29526 8.63101 5.29754 8.80093L6.57841 8.7837ZM19.2148 5.84861C25.0275 10.3518 31.6846 10.0646 33.4307 10.0646V7.49709C31.6214 7.49709 25.8259 7.72684 20.7943 3.82105L19.2148 5.84861ZM32.1499 8.76073C32.0522 14.7113 31.7995 18.91 31.317 22.0174C30.8345 25.1248 30.1682 26.9399 29.2894 28.238C28.4106 29.5361 27.2848 30.3804 25.6364 31.3626C23.9879 32.3448 21.8799 33.4361 19.2837 35.1535L20.7312 37.2845C23.1895 35.6475 25.2343 34.6021 26.9747 33.5625C28.7284 32.6075 30.2502 31.2779 31.4319 29.6682C32.5806 27.9451 33.3675 25.6475 33.873 22.408C34.3785 19.1685 34.6369 14.809 34.7346 8.80093L32.1499 8.76073ZM20.7312 35.1535C18.1522 33.4304 16.05 32.362 14.413 31.3684C12.776 30.3747 11.6502 29.582 10.7656 28.238C9.8811 26.8939 9.16312 25.1076 8.66915 22.0174C8.17519 18.9273 7.95692 14.7113 7.85928 8.76073L5.29754 8.80093C5.39518 14.809 5.6594 19.18 6.15911 22.408C6.65882 25.636 7.42275 27.9336 8.59448 29.6682C9.77051 31.2788 11.2888 32.6088 13.0402 33.5625C14.7633 34.6021 16.8254 35.6475 19.2837 37.2845L20.7312 35.1535ZM6.57841 10.0646C8.30155 10.0646 14.9644 10.3518 20.7771 5.84861L19.209 3.82105C14.166 7.72684 8.37048 7.49709 6.57266 7.49709L6.57841 10.0646Z" fill="#3688EB"></path></svg>