<!-- <svg viewBox="0 0 96 96" width="32px" color="text" xmlns="http://www.w3.org/2000/svg" class="sc-bdnxRM eHCSxp"><path d="M96 48C96 21.4903 74.5097 0 48 0C21.4903 0 0 21.4903 0 48C0 74.5097 21.4903 96 48 96C74.5097 96 96 74.5097 96 48Z" fill="#3389FB"></path><path d="M29.6927 35.4245C39.8036 25.5252 56.1965 25.5252 66.3074 35.4245L67.5242 36.6159C68.0298 37.1109 68.0298 37.9134 67.5242 38.4084L63.3616 42.4839C63.1088 42.7314 62.699 42.7314 62.4462 42.4839L60.7717 40.8444C53.7181 33.9384 42.282 33.9384 35.2284 40.8444L33.4351 42.6002C33.1823 42.8477 32.7725 42.8477 32.5197 42.6002L28.3571 38.5247C27.8515 38.0297 27.8515 37.2272 28.3571 36.7322L29.6927 35.4245ZM74.9161 43.8532L78.6208 47.4805C79.1264 47.9755 79.1264 48.778 78.6208 49.2729L61.9159 65.6288C61.4103 66.1237 60.5907 66.1237 60.0851 65.6288C60.0851 65.6288 60.0851 65.6288 60.0851 65.6288L48.229 54.0206C48.1026 53.8968 47.8977 53.8968 47.7713 54.0206C47.7713 54.0206 47.7713 54.0206 47.7713 54.0206L35.9153 65.6288C35.4098 66.1237 34.5902 66.1237 34.0846 65.6288C34.0846 65.6288 34.0846 65.6288 34.0846 65.6288L17.3792 49.2727C16.8736 48.7778 16.8736 47.9753 17.3792 47.4803L21.0839 43.853C21.5895 43.3581 22.4091 43.3581 22.9146 43.853L34.771 55.4614C34.8974 55.5851 35.1023 55.5851 35.2287 55.4614C35.2287 55.4614 35.2287 55.4614 35.2287 55.4614L47.0844 43.853C47.59 43.358 48.4096 43.358 48.9152 43.853C48.9152 43.853 48.9152 43.853 48.9152 43.853L60.7715 55.4614C60.8979 55.5851 61.1028 55.5851 61.2292 55.4614L73.0854 43.8532C73.5909 43.3583 74.4105 43.3583 74.9161 43.8532Z" fill="white"></path></svg> -->
<svg viewBox="0 0 40 40" width="40px" color="text" xmlns="http://www.w3.org/2000/svg" class="sc-bdvvtL iuOAKx"><path d="M8.68096 12.4756C14.9323 6.39698 25.0677 6.39698 31.3191 12.4756L32.0714 13.2071C32.384 13.511 32.384 14.0038 32.0714 14.3077L29.4978 16.8103C29.3415 16.9622 29.0881 16.9622 28.9318 16.8103L27.8965 15.8036C23.5354 11.563 16.4647 11.563 12.1036 15.8036L10.9948 16.8817C10.8385 17.0336 10.5851 17.0336 10.4288 16.8817L7.85517 14.3791C7.54261 14.0752 7.54261 13.5824 7.85517 13.2785L8.68096 12.4756ZM36.6417 17.6511L38.9322 19.8783C39.2448 20.1823 39.2448 20.675 38.9322 20.979L28.6039 31.022C28.2913 31.3259 27.7846 31.3259 27.472 31.022C27.472 31.022 27.472 31.022 27.472 31.022L20.1416 23.8942C20.0634 23.8182 19.9367 23.8182 19.8586 23.8942C19.8586 23.8942 19.8586 23.8942 19.8586 23.8942L12.5283 31.022C12.2157 31.3259 11.709 31.3259 11.3964 31.022C11.3964 31.022 11.3964 31.022 11.3964 31.022L1.06775 20.9788C0.755186 20.6749 0.755186 20.1821 1.06775 19.8782L3.35833 17.6509C3.6709 17.347 4.17767 17.347 4.49024 17.6509L11.8208 24.7789C11.8989 24.8549 12.0256 24.8549 12.1038 24.7789C12.1038 24.7789 12.1038 24.7789 12.1038 24.7789L19.4339 17.6509C19.7465 17.347 20.2533 17.347 20.5658 17.6509C20.5658 17.6509 20.5658 17.6509 20.5658 17.6509L27.8964 24.7789C27.9745 24.8549 28.1012 24.8549 28.1794 24.7789L35.5098 17.6511C35.8223 17.3471 36.3291 17.3471 36.6417 17.6511Z" fill="#3389FB"></path></svg>