<svg xmlns="http://www.w3.org/2000/svg" width="20" height="20" viewBox="0 0 20 20">
  <g id="vuesax_bold_moneys" data-name="vuesax/bold/moneys" transform="translate(-108 -316)">
    <g id="moneys" transform="translate(108 316)">
      <path id="Vector" d="M0,0H20V20H0Z" fill="none" opacity="0"/>
      <path id="Vector-2" data-name="Vector" d="M14.55,2.6C14.192.792,12.85,0,10.983,0H3.667C1.467,0,0,1.1,0,3.667V7.958c0,1.85.758,2.933,2.008,3.4a3.24,3.24,0,0,0,.592.158,4.873,4.873,0,0,0,1.067.108h7.325c2.2,0,3.667-1.1,3.667-3.667V3.667A4.717,4.717,0,0,0,14.55,2.6ZM3.183,7.067a.625.625,0,0,1-1.25,0v-2.5a.625.625,0,0,1,1.25,0Zm4.142.95a2.2,2.2,0,1,1,2.2-2.2A2.2,2.2,0,0,1,7.325,8.017Zm5.383-.95a.625.625,0,1,1-1.25,0v-2.5a.625.625,0,1,1,1.25,0Z" transform="translate(1.425 2.933)"/>
      <path id="Vector-3" data-name="Vector" d="M13.735,2.741V7.033c0,2.567-1.467,3.675-3.675,3.675H2.743a4.691,4.691,0,0,1-1.667-.275A2.81,2.81,0,0,1,.068,9.816.215.215,0,0,1,.243,9.45H7.56c3.083,0,4.917-1.833,4.917-4.908V.241a.217.217,0,0,1,.367-.175A3.744,3.744,0,0,1,13.735,2.741Z" transform="translate(4.849 6.359)"/>
    </g>
  </g>
</svg>
