<svg xmlns="http://www.w3.org/2000/svg" width="20" height="20" viewBox="0 0 20 20">
  <g id="vuesax_bold_mouse" data-name="vuesax/bold/mouse" transform="translate(-360 -318)">
    <g id="mouse" transform="translate(360 318)">
      <path id="Vector" d="M6.875,0V3.117A1.563,1.563,0,0,1,7.808,4.55V6.217a1.563,1.563,0,1,1-3.125,0V4.55a1.57,1.57,0,0,1,.942-1.433V0A6.257,6.257,0,0,0,0,6.217v4.167a6.25,6.25,0,0,0,12.5,0V6.217A6.263,6.263,0,0,0,6.875,0Z" transform="translate(3.75 1.7)"/>
      <path id="Vector-2" data-name="Vector" d="M0,0H20V20H0Z" transform="translate(20 20) rotate(180)" fill="none" opacity="0"/>
    </g>
  </g>
</svg>
