<svg xmlns="http://www.w3.org/2000/svg" width="20" height="20" viewBox="0 0 20 20">
  <g id="vuesax_bold_activity" data-name="vuesax/bold/activity" transform="translate(-364 -188)">
    <g id="activity" transform="translate(364 188)">
      <path id="Vector" d="M11.825,0H4.842A4.447,4.447,0,0,0,0,4.842v6.975a4.45,4.45,0,0,0,4.842,4.85h6.975a4.447,4.447,0,0,0,4.842-4.842V4.842A4.437,4.437,0,0,0,11.825,0Zm.892,6.633L10.792,9.117a1.423,1.423,0,0,1-.975.55,1.445,1.445,0,0,1-1.083-.3l-1.525-1.2a.183.183,0,0,0-.158-.042.185.185,0,0,0-.142.083L4.925,10.783a.627.627,0,0,1-.492.242.613.613,0,0,1-.383-.133.624.624,0,0,1-.117-.875L5.917,7.442a1.46,1.46,0,0,1,2.058-.258L9.5,8.383a.178.178,0,0,0,.158.042A.185.185,0,0,0,9.8,8.342l1.925-2.483A.616.616,0,0,1,12.6,5.75.637.637,0,0,1,12.717,6.633Z" transform="translate(1.667 1.667)"/>
      <path id="Vector-2" data-name="Vector" d="M0,0H20V20H0Z" transform="translate(20 20) rotate(180)" fill="none" opacity="0"/>
    </g>
  </g>
</svg>
