<svg viewBox="0 0 422.18 188.74" fill="none" xmlns="http://www.w3.org/2000/svg">
<g id="Group 1000006055">
<g id="Path  6751" clip-path="url(#clip0_691_4834)">
<path id="Vector" d="M246.235 66.9945L249.356 75.8751C251.072 74.8624 256.222 73.3044 257.392 73.3044L254.661 66.9945C251.176 67.8254 248.368 67.8254 246.235 66.9945V66.9945Z" fill="#FF9566"/>
<path id="Vector_2" d="M248.81 68.3188C248.108 68.0072 247.64 66.9945 246.079 66.6829C241.398 65.6702 242.802 68.2409 242.334 68.8641C241.554 69.8768 238.745 70.1105 238.433 70.5779C237.653 71.7464 241.632 76.2646 242.88 77.3552C244.051 78.368 248.576 77.5889 250.839 75.0182C251.359 74.395 250.683 72.1619 248.81 68.3188V68.3188Z" fill="#FF9566"/>
<path id="Vector_3" d="M241.866 69.9547C241.788 69.9547 238.121 70.7337 238.121 70.8116C237.341 71.9022 241.398 76.4984 242.568 77.589C243.348 78.2901 245.845 77.9006 247.874 77.0437C244.128 77.4332 243.192 76.031 242.412 74.7845C241.086 72.9928 242.022 71.9801 241.866 69.9547V69.9547Z" fill="#FF9566"/>
<path id="Vector_4" d="M246.391 72.9928C248.107 73.3044 249.512 72.3696 250.37 71.2011C249.668 69.3315 248.654 67.0724 246.079 66.6829C240.851 65.9039 242.802 68.2409 242.334 68.8641C242.022 69.2536 244.753 72.6812 246.391 72.9928Z" fill="#FF9566"/>
<path id="Vector_5" d="M239.603 70.1884C237.887 70.8895 236.092 71.5127 235.624 71.9801C235.156 72.3696 235.858 74.3172 236.794 74.2393C237.965 74.2393 241.242 72.7591 241.476 72.4475C241.632 72.2138 240.539 69.7989 239.603 70.1884Z" fill="#FF9566"/>
<path id="Vector_6" d="M242.412 72.6033C240.695 73.3044 238.979 74.0055 238.511 74.395C238.043 74.7845 238.667 76.7321 239.681 76.6542C240.851 76.6542 244.128 75.174 244.284 74.8624C244.518 74.6287 243.426 72.2138 242.412 72.6033Z" fill="#FF9566"/>
<path id="Vector_7" d="M241.164 67.7735C241.476 69.6431 241.71 71.5127 241.944 72.058C242.256 72.6033 244.285 72.3696 244.519 71.4348C244.753 70.3442 244.051 66.7608 243.817 66.5271C243.583 66.2934 241.008 66.7608 241.164 67.7735V67.7735Z" fill="#FF9566"/>
<path id="Vector_8" d="M270.266 42.9232C268.393 61.074 262.23 64.3459 260.435 66.3713C258.719 68.3967 267.691 77.0437 270.032 75.0182C272.45 72.9928 278.38 63.9564 278.146 59.7497C277.938 56.9972 275.311 51.3884 270.266 42.9232V42.9232Z" fill="#CC3932"/>
<path id="Vector_9" d="M264.258 72.6812C266.443 74.6288 268.94 75.9531 270.032 75.0183C272.45 72.9928 278.38 63.9564 278.146 59.7497C277.99 57.958 276.04 54.3746 273.855 50.8691C273.153 63.489 266.833 69.8768 264.258 72.6812V72.6812Z" fill="#CC3932"/>
<path id="Vector_10" d="M266.677 76.3425C269.486 78.1343 272.06 75.174 273.153 72.837C274.167 70.4221 264.18 63.3331 261.683 63.4889C260.071 63.6447 259.343 65.1249 259.499 67.9293C263.192 72.863 265.584 75.6674 266.677 76.3425V76.3425Z" fill="#A30D0A"/>
<path id="Vector_11" d="M259.499 67.4619C259.499 67.6696 259.499 67.8254 259.499 67.9293C263.192 72.863 265.585 75.6674 266.677 76.3426C269.486 78.1343 272.061 75.174 273.153 72.837C273.621 71.7464 271.827 69.721 269.486 67.8514C268.394 70.1884 266.365 69.721 263.556 68.0072C262.854 67.5398 260.903 69.1757 259.499 67.4619V67.4619Z" fill="#EAD496"/>
<path id="Vector_12" d="M251.072 67.384C247.249 68.0072 244.909 71.9801 246.313 75.5635C260.357 78.6276 268.185 78.7575 269.798 75.953C271.358 73.1486 265.819 68.2409 262.464 66.9166C260.357 66.0597 255.52 66.605 251.072 67.384V67.384Z" fill="#FFB882"/>
<path id="Vector_13" d="M245.533 73.616L246.313 75.5635C260.357 78.6276 268.186 78.7574 269.798 75.953C270.89 74.0055 268.472 70.9674 265.741 68.8641C266.131 69.721 266.131 70.5779 265.741 71.3569C263.79 74.7066 250.605 74.395 245.533 73.616V73.616Z" fill="#FF9566"/>
<path id="Vector_14" d="M284.076 32.874C293.751 24.3829 293.204 16.5149 288.133 11.5293C284.804 8.15359 280.721 7.91989 275.884 10.8282L284.076 32.874Z" fill="#7A3039"/>
<path id="Vector_15" d="M271.358 57.5685C284.856 77.7448 269.642 84.1326 271.67 85.7685L299.524 96.5188C310.291 92.0785 306.546 48.6099 295.077 41.4431C284.544 34.8216 277.756 35.8343 273.309 39.184C269.798 41.8326 266.911 50.8691 271.358 57.5685V57.5685Z" fill="#A30D0A"/>
<path id="Vector_16" d="M278.848 45.8834C284.7 46.4287 292.034 39.8072 289.069 38.1713C285.792 36.4574 282.151 36.847 278.146 39.3398L278.848 45.8834Z" fill="#F75C81"/>
<path id="Vector_17" d="M273.075 83.2757C271.904 84.5221 271.124 85.3011 271.67 85.7685L299.524 96.5188C310.291 92.0784 306.546 48.6099 295.077 41.4431C294.245 40.9238 292.164 42.4039 288.835 45.8834C286.182 48.2204 286.885 61.4635 285.246 67.6956C282.359 78.29 282.905 81.5619 278.614 82.7304C276.586 83.2757 274.869 84.1326 273.075 83.2757V83.2757Z" fill="#CC3932"/>
<path id="Vector_18" d="M287.197 39.184L286.651 27.8105L276.508 29.6801L276.586 41.0536C280.175 44.8967 283.712 44.2735 287.197 39.184V39.184Z" fill="#FFB882"/>
<path id="Vector_19" d="M290.864 84.8337C287.587 84.2884 273.387 83.7431 272.295 84.5221C270.968 85.5348 255.52 93.7923 254.115 95.5061C253.127 96.6486 251.047 111.32 247.874 139.52L248.732 139.987L264.258 102.206C278.666 99.5569 286.469 97.6613 287.665 96.5188C290.006 94.2597 292.658 85.1453 290.864 84.8337V84.8337Z" fill="#542F36"/>
<path id="Vector_20" d="M273.231 90.2089C276.82 88.495 281.111 85.8464 282.047 84.2105C278.926 84.2105 272.763 84.2105 272.295 84.5221C271.514 85.1453 265.741 88.2613 260.903 91.1437C260.903 91.1956 260.903 91.2216 260.903 91.2216C261.684 92.7796 268.315 92.6238 273.231 90.2089Z" fill="#633B41"/>
<path id="Vector_21" d="M300.85 89.1182C295.545 83.1978 281.969 84.4442 280.877 85.3011C279.628 86.2359 267.145 93.7923 265.896 95.5061C265.012 96.6486 264.206 111.32 263.478 139.52L265.194 140.377L276.586 102.206C290.786 99.5569 298.432 97.6613 299.524 96.5188C301.709 94.2597 302.021 90.4425 300.85 89.1182V89.1182Z" fill="#542F36"/>
<path id="Vector_22" d="M286.338 94.805C292.892 92.7796 297.651 90.053 299.212 87.716C293.282 83.4315 281.813 84.5221 280.877 85.3011C279.628 86.2359 267.145 93.7923 265.897 95.5061C265.845 95.558 265.819 95.61 265.819 95.6619C268.939 97.6873 277.678 97.3757 286.338 94.805V94.805Z" fill="#633B41"/>
<path id="Vector_23" d="M246.781 78.1343C245.575 78.1343 244.597 77.9947 244.597 77.8227C244.597 77.6506 245.575 77.511 246.781 77.511C247.988 77.511 248.966 77.6506 248.966 77.8227C248.966 77.9947 247.988 78.1343 246.781 78.1343Z" fill="#42262A"/>
<path id="Vector_24" d="M254.584 78.29C253.248 78.29 252.165 78.1505 252.165 77.9784C252.165 77.8063 253.248 77.6668 254.584 77.6668C255.92 77.6668 257.002 77.8063 257.002 77.9784C257.002 78.1505 255.92 78.29 254.584 78.29Z" fill="#42262A"/>
<path id="Vector_25" d="M288.991 41.6768C287.509 46.0392 289.459 59.2823 284.466 73.3044C283.452 76.1868 293.439 81.6398 295.389 78.6017C297.34 75.5636 301.241 61.6194 300.929 57.2569C299.602 39.7293 290.084 38.4829 288.991 41.6768V41.6768Z" fill="#A30D0A"/>
<path id="Vector_26" d="M289.537 78.5238C291.956 79.6144 294.453 79.5365 295.155 78.0563C297.184 73.9276 302.099 60.6845 301.865 57.179C301.163 46.3508 296.637 42.6895 294.609 41.521C296.95 43.7022 296.403 49.0773 296.637 56.1663C296.794 60.7624 291.8 75.0961 289.772 78.2121C289.72 78.316 289.642 78.4199 289.537 78.5238V78.5238Z" fill="#CC3932"/>
<g id="Vector_27" style="mix-blend-mode:multiply" opacity="0.6">
<path d="M295.935 42.4558C296.091 42.4558 296.091 42.3 296.091 42.2221C295.779 41.9105 295.441 41.6508 295.077 41.4431C293.048 40.1447 291.15 39.132 289.381 38.405C289.277 38.353 289.173 38.2751 289.069 38.1713C288.445 37.8597 287.795 37.626 287.119 37.4702L286.651 27.8105L282.906 28.5116C280.721 30.1475 278.536 32.095 276.586 34.3541V37.3923C275.337 37.8597 274.245 38.4829 273.309 39.184C272.893 39.5475 272.477 39.963 272.061 40.4304C267.379 48.3762 269.798 56.7116 275.415 56.8674C288.367 57.2569 289.694 45.0265 295.935 42.4558V42.4558Z" fill="#843131"/>
</g>
<path id="Vector_28" d="M270.422 16.437C266.833 22.8249 265.195 27.7586 265.507 31.2381C265.923 36.5354 265.143 43.3127 263.166 51.5702C272.841 51.8298 279.212 50.3238 282.281 47.0519C286.182 42.9232 285.48 32.4066 286.417 17.1381L270.422 16.437Z" fill="#333333"/>
<path id="Vector_29" d="M268.315 51.4144C272.997 51.0249 279.473 50.0122 282.281 47.0519C286.182 42.9232 285.48 32.4066 286.417 17.1381L282.671 16.3591C284.154 21.5006 284.544 34.1984 280.643 42.3779C277.912 47.9868 273.309 49.9343 268.315 51.4144Z" fill="#191919"/>
<path id="Vector_30" d="M272.528 8.49116C267.691 10.9061 267.301 25.2398 267.457 28.8232C267.535 32.4845 278.692 31.4718 279.784 29.6022C280.877 27.6547 283.061 19.7867 287.509 16.1254C290.083 13.9442 280.487 4.67403 272.528 8.49116V8.49116Z" fill="#FFB882"/>
<path id="Vector_31" d="M291.878 25.4735C295.623 23.1365 295.857 11.2956 290.083 7.63426C284.05 3.79116 280.851 3.9989 280.487 8.25746C286.104 10.7503 290.942 18.6182 290.629 23.9155C288.965 26.5122 289.381 27.0315 291.878 25.4735Z" fill="#F9E9B7"/>
<path id="Vector_32" d="M290.63 23.9155C288.965 26.5121 289.381 27.0315 291.878 25.4735C294.921 23.526 295.623 15.2685 292.58 10.2829C291.566 11.9188 289.459 13.2431 286.807 13.6326C289.225 16.9044 290.786 20.7994 290.63 23.9155V23.9155Z" fill="#E5CF93"/>
<path id="Vector_33" d="M283.998 30.2254C284.882 31.368 286.625 31.8613 289.225 31.7055V29.6022L290.63 29.9917C290.994 27.8624 290.968 25.7332 290.552 23.6039C285.298 26.8757 283.114 29.0829 283.998 30.2254V30.2254Z" fill="#7A3039"/>
<path id="Vector_34" d="M286.183 29.6801C287.743 29.6801 291.41 27.4989 290.552 25.0061C289.694 22.6691 287.275 23.6818 285.402 26.3304C284.778 27.1873 282.984 29.758 286.183 29.6801Z" fill="#FFB882"/>
<path id="Vector_35" d="M288.289 82.3409C291.254 83.4315 296.716 82.1072 295.857 77.511C294.375 69.5652 286.339 69.0978 284.076 69.9547C282.62 70.526 282.204 72.5254 282.828 75.953C285.324 79.7961 287.145 81.9254 288.289 82.3409V82.3409Z" fill="#F9E9B7"/>
<path id="Vector_36" d="M282.75 75.2519C282.75 75.5635 282.776 75.7972 282.828 75.953C285.324 79.7961 287.145 81.9254 288.289 82.3409C291.254 83.4315 296.716 82.1072 295.857 77.511C295.311 74.4729 293.829 72.6033 292.034 71.3569C292.086 71.5646 292.138 71.7464 292.19 71.9022C293.049 76.5762 287.509 77.9006 284.544 76.8099C284.076 76.6541 283.374 76.0309 282.75 75.2519Z" fill="#EAD496"/>
<path id="Vector_37" d="M262.074 72.3696L266.131 79.147C281.319 82.1591 289.823 82.2889 291.644 79.5365C293.438 76.8099 290.005 72.5254 286.104 71.1232C282.281 69.6431 267.535 71.6685 262.074 72.3696Z" fill="#FFB882"/>
<path id="Vector_38" d="M265.507 78.1343L266.131 79.147C282.255 82.6784 291.228 83.068 293.048 80.3155C294.609 77.9784 291.254 74.0055 287.899 71.9801C288.601 73.2265 288.835 74.5508 288.055 75.6414C285.87 78.9912 271.046 78.9912 265.507 78.1343V78.1343Z" fill="#FF9566"/>
<path id="Vector_39" d="M252.477 103.841V126.433C252.477 126.978 252.867 127.445 253.413 127.445C253.959 127.445 254.35 126.978 254.35 126.433V103.841C254.35 103.296 253.959 102.907 253.413 102.907C252.867 102.907 252.477 103.296 252.477 103.841Z" fill="#492C34"/>
<path id="Vector_40" d="M286.651 28.9011C287.665 28.9011 290.24 27.421 289.616 25.6293C288.991 24.0713 287.353 24.7724 286.027 26.5641C285.636 27.1873 284.388 28.9011 286.651 28.9011Z" fill="#D3583C"/>
<path id="Vector_41" d="M286.183 29.0569C286.885 29.0569 288.523 28.1221 288.133 26.9536C287.743 25.9409 286.651 26.3304 285.792 27.4989C285.558 27.9663 284.7 29.0569 286.183 29.0569Z" fill="#FFB882"/>
<path id="Vector_42" d="M270.188 11.1398C268.732 12.6978 267.223 13.1912 265.663 12.6199C269.72 15.658 276.118 15.1906 278.771 10.3608C274.453 9.37404 271.592 9.63371 270.188 11.1398V11.1398Z" fill="#914047"/>
<path id="Vector_43" d="M284.388 16.437C286.521 16.9564 287.509 17.8392 287.353 19.0856C289.459 15.2685 286.963 10.9061 280.799 10.5945C281.059 13.9702 282.255 15.9177 284.388 16.437V16.437Z" fill="#7A3039"/>
<path id="Vector_44" d="M288.133 15.5801C285.948 8.10167 279.16 2.88234 275.415 1.86963C271.67 0.934822 264.648 -1.24639 263.556 0.856921C262.88 2.2072 265.064 5.68676 270.11 11.2956C274.089 8.64698 280.487 10.7503 288.133 15.5801V15.5801Z" fill="#F75C81"/>
<path id="Vector_45" d="M269.798 10.9061C269.954 11.0619 270.058 11.1917 270.11 11.2956C270.838 10.8282 271.618 10.4906 272.451 10.2829C271.514 10.3348 270.63 10.5425 269.798 10.9061Z" fill="#DB426E"/>
<path id="Vector_46" d="M286.416 14.5674C286.988 14.879 287.561 15.2166 288.133 15.5801C285.948 8.10166 279.16 2.88232 275.415 1.86962C272.294 1.09061 266.833 -0.5453 264.57 0.155805C267.223 0.0779044 271.514 1.40221 274.167 2.02542C277.678 2.96022 283.92 7.71216 286.416 14.5674V14.5674Z" fill="#DB426E"/>
<path id="Vector_47" d="M268.939 25.0061C268.379 25.0061 267.925 24.2039 267.925 23.2144C267.925 22.2248 268.379 21.4226 268.939 21.4226C269.5 21.4226 269.954 22.2248 269.954 23.2144C269.954 24.2039 269.5 25.0061 268.939 25.0061Z" fill="#4F3131"/>
<path id="Vector_48" d="M272.529 20.1763C271.67 19.0856 269.33 30.7707 269.642 31.8613C269.746 32.2249 271.02 31.9912 273.465 31.1602C272.945 23.9934 272.633 20.3321 272.529 20.1763V20.1763Z" fill="#FFB882"/>
<path id="Vector_49" d="M269.252 32.2508C269.356 32.5624 270.682 32.2508 273.231 31.316C273.231 31.2122 273.231 31.1083 273.231 31.0044C272.451 31.0823 269.954 32.1729 269.798 31.7834C269.486 30.8486 271.436 22.9028 272.217 20.4879C271.358 20.6437 268.94 31.2381 269.252 32.2508V32.2508Z" fill="#EF8F6F"/>
<path id="Vector_50" d="M275.727 25.0061C275.167 25.0061 274.713 24.2039 274.713 23.2144C274.713 22.2248 275.167 21.4226 275.727 21.4226C276.288 21.4226 276.742 22.2248 276.742 23.2144C276.742 24.2039 276.288 25.0061 275.727 25.0061Z" fill="#4F3131"/>
<path id="Vector_51" d="M274.245 18.4624C275.259 19.7867 279.551 19.1635 279.863 18.3845C280.253 17.5276 280.409 16.6707 279.473 16.2812C278.536 15.8917 274.479 14.9569 273.933 15.658C273.387 16.2812 273.777 17.8392 274.245 18.4624Z" fill="#333333"/>
<path id="Vector_52" d="M271.514 15.5801C271.124 14.9569 268.159 15.8917 267.457 16.2812C266.755 16.7486 266.911 17.6055 267.145 18.4624C267.457 19.2414 270.578 19.8647 271.358 18.4624C271.67 17.8392 271.982 16.2812 271.514 15.5801Z" fill="#333333"/>
<path id="Vector_53" d="M269.018 36.4575C269.564 37.1586 272.217 37.626 273.387 37.3923C274.167 37.2884 274.739 35.9122 275.104 33.2635L268.238 33.0298C268.446 34.8995 268.706 36.042 269.018 36.4575V36.4575Z" fill="#542A29"/>
<path id="Vector_54" d="M274.245 35.6784C274.505 34.9514 274.687 34.1724 274.791 33.3414L268.549 33.1077C268.653 33.9906 268.783 34.7436 268.939 35.3668L274.245 35.6784Z" fill="#FFF7E9"/>
<path id="Vector_55" d="M261.449 71.3569L264.57 80.2375C266.365 79.2248 271.514 77.6668 272.606 77.6668L269.954 71.279C266.417 72.1099 263.582 72.1359 261.449 71.3569V71.3569Z" fill="#FFB882"/>
<path id="Vector_56" d="M264.024 72.6812C263.4 72.3696 262.932 71.3569 261.372 71.0453C256.69 70.0326 258.095 72.6033 257.548 73.2265C256.846 74.2392 254.037 74.4729 253.725 74.9403C252.945 76.1088 256.924 80.6271 258.095 81.7177C259.343 82.7304 263.79 81.9514 266.053 79.3807C266.625 78.7575 265.949 76.5243 264.024 72.6812V72.6812Z" fill="#FFB882"/>
<path id="Vector_57" d="M257.158 74.2392C257.08 74.3171 253.413 75.0961 253.413 75.0961C252.633 76.2646 256.612 80.8608 257.86 81.9514C258.641 82.6525 261.059 82.263 263.088 81.4061C259.343 81.7956 258.485 80.3934 257.626 79.147C256.378 77.3552 257.236 76.3425 257.158 74.2392V74.2392Z" fill="#FFB882"/>
<path id="Vector_58" d="M261.605 77.3553C263.4 77.6669 264.804 76.732 265.663 75.5635C264.96 73.6939 263.946 71.4348 261.371 71.0453C256.144 70.2663 258.094 72.6033 257.548 73.2265C257.314 73.616 259.967 77.0437 261.605 77.3553V77.3553Z" fill="#FFB882"/>
<path id="Vector_59" d="M254.896 74.5508C253.101 75.2519 251.385 75.8751 250.916 76.2646C250.448 76.732 251.073 78.6795 252.087 78.6016C253.257 78.6016 256.534 77.1215 256.69 76.8099C256.924 76.5762 255.832 74.0834 254.896 74.5508Z" fill="#FFB882"/>
<path id="Vector_60" d="M257.704 76.9658C255.988 77.6669 254.193 78.368 253.725 78.7575C253.257 79.147 253.959 81.0945 254.895 81.0166C256.066 81.0166 259.343 79.5365 259.577 79.2249C259.733 78.9912 258.641 76.5763 257.704 76.9658Z" fill="#FFB882"/>
<path id="Vector_61" d="M260.279 79.5365C259.655 79.7702 257.08 80.7829 256.612 81.0945C255.988 81.5619 256.768 83.1978 257.782 83.2757C258.641 83.2757 262.152 81.5619 262.308 81.2503C262.464 81.0166 261.137 79.147 260.279 79.5365V79.5365Z" fill="#FFB882"/>
<path id="Vector_62" d="M254.896 74.5508C253.101 75.2519 251.385 75.8751 250.916 76.2646C250.448 76.732 251.073 78.6795 252.087 78.6016C253.257 78.6016 256.534 77.1215 256.69 76.8099C256.924 76.5762 255.832 74.0834 254.896 74.5508Z" fill="#FFB882"/>
<path id="Vector_63" d="M256.456 72.1359C256.768 74.0055 256.924 75.8751 257.236 76.4204C257.548 76.9657 259.577 76.732 259.733 75.7972C259.967 74.6287 259.343 71.1232 259.109 70.8895C258.875 70.6558 256.222 71.1232 256.456 72.1359V72.1359Z" fill="#FFB882"/>
<path id="Vector_64" d="M257.704 76.9658C255.988 77.6669 254.193 78.368 253.725 78.7575C253.257 79.147 253.959 81.0945 254.895 81.0166C256.066 81.0166 259.343 79.5365 259.577 79.2249C259.733 78.9912 258.641 76.5763 257.704 76.9658Z" fill="#FFB882"/>
<path id="Vector_65" d="M245.065 75.2519C244.44 75.5635 241.866 76.4983 241.398 76.8878C240.773 77.3552 241.554 78.9912 242.568 78.9912C243.426 78.9912 246.937 77.2773 247.093 77.0436C247.327 76.732 245.923 74.8624 245.065 75.2519Z" fill="#FFB882"/>
<path id="Vector_66" d="M239.681 70.2663C237.965 70.9674 236.17 71.6685 235.702 72.058C235.234 72.4475 235.936 74.395 236.872 74.3171C238.043 74.3171 241.32 72.837 241.476 72.5254C241.71 72.2917 240.617 69.8768 239.681 70.2663V70.2663Z" fill="#FFB882"/>
<path id="Vector_67" d="M242.49 72.6812C240.773 73.4602 238.979 74.0834 238.511 74.4729C238.043 74.9403 238.745 76.8099 239.681 76.8099C240.851 76.732 244.128 75.2519 244.362 75.0182C244.518 74.7066 243.426 72.2917 242.49 72.6812Z" fill="#FFB882"/>
</g>
<g id="&#60;Group&#62;">
<g id="tractor">
<g id="&#60;Group&#62;_2">
<g id="&#60;Group&#62;_3">
<path id="&#60;Path&#62;" d="M14.8798 147.904C14.8798 146.304 16.2077 144.976 17.8078 144.976C19.4238 144.976 20.7198 146.304 20.7198 147.904V165.312H14.8638V147.904H14.8798Z" fill="#566375"/>
<path id="&#60;Path&#62;_2" d="M20.7362 165.312C18.7842 170.736 18.5282 177.568 19.9362 185.808C15.7442 181.36 14.0641 174.528 14.8961 165.312H20.7522H20.7362Z" fill="#EEFCFF"/>
</g>
<g id="&#60;Group&#62;_4">
<path id="&#60;Path&#62;_3" d="M33.1201 147.904C33.1201 146.304 34.4322 144.976 36.0482 144.976C37.6642 144.976 38.9762 146.304 38.9762 147.904V165.312H33.1201V147.904V147.904Z" fill="#566375"/>
<path id="&#60;Path&#62;_4" d="M38.9602 165.312C37.0082 170.736 36.7362 177.568 38.1282 185.808C33.9522 181.36 32.2722 174.528 33.1042 165.312H38.9602Z" fill="#EEFCFF"/>
</g>
<g id="&#60;Group&#62;_5">
<path id="&#60;Path&#62;_5" d="M53.936 147.904C53.936 146.304 55.2481 144.976 56.8641 144.976C58.4801 144.976 59.792 146.304 59.792 147.904V165.312H53.936V147.904V147.904Z" fill="#566375"/>
<path id="&#60;Path&#62;_6" d="M59.7922 165.312C57.8402 170.736 57.5683 177.568 58.9603 185.808C54.7843 181.36 53.1042 174.528 53.9362 165.312H59.7922Z" fill="#EEFCFF"/>
</g>
<g id="&#60;Group&#62;_6">
<path id="&#60;Path&#62;_7" d="M74.7681 147.904C74.7681 146.304 76.064 144.976 77.696 144.976C79.312 144.976 80.624 146.304 80.624 147.904V165.312H74.7681V147.904V147.904Z" fill="#566375"/>
<path id="&#60;Path&#62;_8" d="M80.6243 165.312C78.6723 170.736 78.4002 177.568 79.7922 185.808C75.6162 181.36 73.9363 174.528 74.7683 165.312H80.6243Z" fill="#EEFCFF"/>
</g>
<g id="&#60;Group&#62;_7">
<path id="&#60;Path&#62;_9" d="M98.2079 147.904C98.2079 146.304 99.5199 144.976 101.12 144.976C102.736 144.976 104.048 146.304 104.048 147.904V165.312H98.1919V147.904H98.2079Z" fill="#566375"/>
<path id="&#60;Path&#62;_10" d="M104.048 165.312C102.096 170.736 101.824 177.568 103.216 185.808C99.0401 181.36 97.3601 174.528 98.1921 165.312H104.048Z" fill="#EEFCFF"/>
</g>
<path id="&#60;Path&#62;_11" d="M109.28 154.944C109.28 156.496 108.016 157.744 106.464 157.744H2.8C1.264 157.744 0 156.48 0 154.944C0 153.392 1.264 152.128 2.8 152.128H106.464C108.016 152.128 109.28 153.392 109.28 154.944Z" fill="#627184"/>
<path id="&#60;Path&#62;_12" d="M111.888 154.944C111.888 156.496 110.72 157.744 109.264 157.744H12.0001C10.5601 157.744 9.39209 156.48 9.39209 154.944C9.39209 153.392 10.5601 152.128 12.0001 152.128H109.264C110.72 152.128 111.888 153.392 111.888 154.944Z" fill="#566375"/>
</g>
<g id="&#60;Group&#62;_8">
<path id="&#60;Path&#62;_13" d="M288.016 158.784H7.82422V143.088H288.016V158.784Z" fill="#E29805"/>
<path id="&#60;Path&#62;_14" d="M173.28 146.4H32.6401V97.824H173.28V146.4V146.4Z" fill="#E29805"/>
<path id="&#60;Path&#62;_15" d="M52.6241 158.784H4.36816V143.088H52.6241V158.784Z" fill="#FFBE17"/>
<path id="&#60;Path&#62;_16" d="M36.5603 146.4H16.2563V97.824H36.5603V146.4V146.4Z" fill="#FFBE17"/>
<path id="&#60;Path&#62;_17" d="M137.504 136.08H64.3203V114.736H137.504V136.08Z" fill="#FFBE17"/>
</g>
<g id="&#60;Group&#62;_9">
<g className="wheel">
<g id="&#60;Group&#62;_10">
<g id="&#60;Group&#62;_11">
<g id="&#60;Group&#62;_12">
<g id="&#60;Group&#62;_13">
<g id="&#60;Group&#62;_14">
<g id="&#60;Group&#62;_15">
<path id="&#60;Path&#62;_18" d="M354.336 97.92L362.768 94.8L364.704 100.032L356.272 103.104L354.336 97.904V97.92Z" fill="#212121"/>
</g>
</g>
<g id="&#60;Group&#62;_16">
<g id="&#60;Group&#62;_17">
<path id="&#60;Path&#62;_19" d="M383.312 181.808L393.472 177.76L395.408 182.976L386.976 186.08L383.312 181.808V181.808Z" fill="#212121"/>
</g>
</g>
</g>
<g id="&#60;Group&#62;_18">
<g id="&#60;Group&#62;_19">
<g id="&#60;Group&#62;_20">
<path id="&#60;Path&#62;_20" d="M417.52 119.952L420.64 128.368L415.392 130.304L412.304 121.888L417.52 119.968V119.952Z" fill="#212121"/>
</g>
</g>
<g id="&#60;Group&#62;_21">
<g id="&#60;Group&#62;_22">
<path id="&#60;Path&#62;_21" d="M334.336 150.592L337.456 158.992L332.24 160.928L329.12 152.528L334.336 150.592Z" fill="#212121"/>
</g>
</g>
</g>
</g>
<g id="&#60;Group&#62;_23">
<g id="&#60;Group&#62;_24">
<g id="&#60;Group&#62;_25">
<g id="&#60;Group&#62;_26">
<path id="&#60;Path&#62;_22" d="M390.528 95.872L398.688 99.632L396.336 104.672L388.176 100.928L390.528 95.872Z" fill="#212121"/>
</g>
</g>
<g id="&#60;Group&#62;_27">
<g id="&#60;Group&#62;_28">
<path id="&#60;Path&#62;_23" d="M353.408 176.208L361.568 179.952L359.216 184.992L351.072 181.248L353.408 176.208Z" fill="#212121"/>
</g>
</g>
</g>
<g id="&#60;Group&#62;_29">
<g id="&#60;Group&#62;_30">
<g id="&#60;Group&#62;_31">
<path id="&#60;Path&#62;_24" d="M419.536 156.048L415.792 164.176L410.72 161.872L414.48 153.712L419.536 156.048Z" fill="#212121"/>
</g>
</g>
<g id="&#60;Group&#62;_32">
<g id="&#60;Group&#62;_33">
<path id="&#60;Path&#62;_25" d="M339.04 119.024L335.264 127.168L330.192 124.832L333.952 116.688L339.04 119.008V119.024Z" fill="#212121"/>
</g>
</g>
</g>
</g>
<g id="&#60;Group&#62;_34">
<g id="&#60;Group&#62;_35">
<g id="&#60;Group&#62;_36">
<g id="&#60;Group&#62;_37">
<path id="&#60;Path&#62;_26" d="M406.288 105.12L412.432 111.696L408.352 115.488L402.224 108.912L406.288 105.12Z" fill="#212121"/>
</g>
</g>
<g id="&#60;Group&#62;_38">
<g id="&#60;Group&#62;_39">
<path id="&#60;Path&#62;_27" d="M341.408 165.408L347.536 171.968L343.472 175.76L337.344 169.2L341.408 165.408Z" fill="#212121"/>
</g>
</g>
</g>
<g id="&#60;Group&#62;_40">
<g id="&#60;Group&#62;_41">
<g id="&#60;Group&#62;_42">
<path id="&#60;Path&#62;_28" d="M410.272 171.776L403.696 177.888L399.888 173.808L406.48 167.712L410.272 171.776Z" fill="#212121"/>
</g>
</g>
<g id="&#60;Group&#62;_43">
<g id="&#60;Group&#62;_44">
<path id="&#60;Path&#62;_29" d="M349.872 107.072L343.264 113.184L339.472 109.12L346.048 103.008L349.856 107.072H349.872Z" fill="#212121"/>
</g>
</g>
</g>
</g>
<g id="&#60;Group&#62;_45">
<g id="&#60;Group&#62;_46">
<g id="&#60;Group&#62;_47">
<g id="&#60;Group&#62;_48">
<path id="&#60;Path&#62;_30" d="M422.16 138.288L421.696 147.248L416.128 146.96L416.576 138L422.16 138.288Z" fill="#212121"/>
</g>
</g>
<g id="&#60;Group&#62;_49">
<g id="&#60;Group&#62;_50">
<path id="&#60;Path&#62;_31" d="M333.616 133.92L333.152 142.88L327.6 142.592L328.048 133.632L333.632 133.92H333.616Z" fill="#212121"/>
</g>
</g>
</g>
<g id="&#60;Group&#62;_51">
<g id="&#60;Group&#62;_52">
<g id="&#60;Group&#62;_53">
<path id="&#60;Path&#62;_32" d="M377.024 187.6L366.096 187.232L365.312 181.488L377.328 182.048L377.04 187.6H377.024Z" fill="#212121"/>
</g>
</g>
<g id="&#60;Group&#62;_54">
<g id="&#60;Group&#62;_55">
<path id="&#60;Path&#62;_33" d="M381.44 99.28L372.464 98.832L372.72 93.28L381.728 93.728L381.44 99.28Z" fill="#212121"/>
</g>
</g>
</g>
</g>
</g>
<g id="&#60;Group&#62;_56">
<path id="&#60;Path&#62;_34" d="M418.656 138.4C419.808 162.816 401.168 183.552 377.024 184.672C352.912 185.808 332.432 166.928 331.264 142.528C330.128 118.096 348.752 97.376 372.88 96.24C397.024 95.12 417.488 113.984 418.656 138.416V138.4Z" fill="#212121"/>
</g>
<g id="&#60;Group&#62;_57">
<path id="&#60;Path&#62;_35" d="M416.496 138.608C417.616 162.016 399.904 181.856 376.944 182.944C354 184 334.512 165.904 333.408 142.512C332.288 119.104 350.016 99.296 372.96 98.192C395.904 97.12 415.408 115.2 416.496 138.592V138.608Z" fill="#212121"/>
</g>
<g id="&#60;Group&#62;_58">
<path id="&#60;Path&#62;_36" d="M409.424 139.6C410.368 159.264 395.488 175.92 376.192 176.832C356.896 177.744 340.528 162.544 339.584 142.88C338.672 123.216 353.536 106.56 372.816 105.632C392.096 104.736 408.48 119.952 409.408 139.6H409.424Z" fill="#212121"/>
</g>
<g id="&#60;Group&#62;_59">
<path id="&#60;Path&#62;_37" d="M401.408 139.328C402.128 154.512 390.624 167.408 375.728 168.112C360.816 168.8 348.16 157.056 347.456 141.856C346.736 126.656 358.208 113.792 373.12 113.072C388.032 112.384 400.688 124.128 401.408 139.328Z" fill="#212121"/>
</g>
<g id="&#60;Group&#62;_60">
<path id="&#60;Path&#62;_38" d="M389.456 139.632C389.856 148.24 383.36 155.52 374.944 155.904C366.48 156.32 359.344 149.664 358.928 141.088C358.528 132.48 365.024 125.2 373.456 124.8C381.888 124.4 389.04 131.056 389.456 139.632Z" fill="#212121"/>
</g>
<g id="&#60;Group&#62;_61">
<path id="&#60;Path&#62;_39" d="M380.624 139.824C380.816 143.584 377.968 146.768 374.288 146.928C370.608 147.104 367.488 144.208 367.328 140.464C367.152 136.72 369.984 133.536 373.664 133.344C377.328 133.168 380.464 136.064 380.624 139.824V139.824Z" fill="#212121"/>
</g>
</g>
<g id="&#60;Group&#62;_62">
<g id="&#60;Group&#62;_63">
<g id="&#60;Group&#62;_64">
<g id="&#60;Group&#62;_65">
<g id="&#60;Group&#62;_66">
<path id="&#60;Path&#62;_40" d="M348.096 96.992L356.688 94.288L358.352 99.6L349.776 102.288L348.096 96.992Z" fill="#373737"/>
</g>
</g>
<g id="&#60;Group&#62;_67">
<g id="&#60;Group&#62;_68">
<path id="&#60;Path&#62;_41" d="M374.864 181.312L383.44 178.576L385.12 183.904L376.544 186.592L374.864 181.312Z" fill="#373737"/>
</g>
</g>
</g>
<g id="&#60;Group&#62;_69">
<g id="&#60;Group&#62;_70">
<g id="&#60;Group&#62;_71">
<path id="&#60;Path&#62;_42" d="M410.176 121.984L412.88 130.528L407.568 132.208L404.832 123.664L410.16 121.984H410.176Z" fill="#373737"/>
</g>
</g>
<g id="&#60;Group&#62;_72">
<g id="&#60;Group&#62;_73">
<path id="&#60;Path&#62;_43" d="M325.664 148.688L328.368 157.248L323.056 158.912L320.352 150.368L325.68 148.688H325.664Z" fill="#373737"/>
</g>
</g>
</g>
</g>
<g id="&#60;Group&#62;_74">
<g id="&#60;Group&#62;_75">
<g id="&#60;Group&#62;_76">
<g id="&#60;Group&#62;_77">
<path id="&#60;Path&#62;_44" d="M384.321 96.656L392.305 100.784L389.729 105.712L381.745 101.584L384.321 96.64V96.656Z" fill="#373737"/>
</g>
</g>
<g id="&#60;Group&#62;_78">
<g id="&#60;Group&#62;_79">
<path id="&#60;Path&#62;_45" d="M343.489 175.152L351.473 179.28L348.896 184.224L340.913 180.096L343.489 175.152Z" fill="#373737"/>
</g>
</g>
</g>
<g id="&#60;Group&#62;_80">
<g id="&#60;Group&#62;_81">
<g id="&#60;Group&#62;_82">
<path id="&#60;Path&#62;_46" d="M410.496 158.128L406.368 166.08L401.408 163.52L405.52 155.552L410.496 158.128V158.128Z" fill="#373737"/>
</g>
</g>
<g id="&#60;Group&#62;_83">
<g id="&#60;Group&#62;_84">
<path id="&#60;Path&#62;_47" d="M331.808 117.376L327.68 125.328L322.736 122.752L326.864 114.8L331.808 117.376Z" fill="#373737"/>
</g>
</g>
</g>
</g>
<g id="&#60;Group&#62;_85">
<g id="&#60;Group&#62;_86">
<g id="&#60;Group&#62;_87">
<g id="&#60;Group&#62;_88">
<path id="&#60;Path&#62;_48" d="M399.632 106.64L405.472 113.488L401.2 117.056L395.392 110.224L399.632 106.64V106.64Z" fill="#373737"/>
</g>
</g>
<g id="&#60;Group&#62;_89">
<g id="&#60;Group&#62;_90">
<path id="&#60;Path&#62;_49" d="M332.016 163.808L337.824 170.64L333.552 174.256L327.76 167.408L332.016 163.824V163.808Z" fill="#373737"/>
</g>
</g>
</g>
<g id="&#60;Group&#62;_91">
<g id="&#60;Group&#62;_92">
<g id="&#60;Group&#62;_93">
<path id="&#60;Path&#62;_50" d="M400.48 173.408L393.632 179.216L390.016 174.976L396.88 169.152L400.464 173.408H400.48Z" fill="#373737"/>
</g>
</g>
<g id="&#60;Group&#62;_94">
<g id="&#60;Group&#62;_95">
<path id="&#60;Path&#62;_51" d="M343.168 105.936L336.32 111.744L332.704 107.488L339.568 101.696L343.152 105.936H343.168Z" fill="#373737"/>
</g>
</g>
</g>
</g>
<g id="&#60;Group&#62;_96">
<g id="&#60;Group&#62;_97">
<g id="&#60;Group&#62;_98">
<g id="&#60;Group&#62;_99">
<path id="&#60;Path&#62;_52" d="M413.952 140.512L413.088 149.44L407.536 148.88L408.4 139.968L413.952 140.496V140.512Z" fill="#373737"/>
</g>
</g>
<g id="&#60;Group&#62;_100">
<g id="&#60;Group&#62;_101">
<path id="&#60;Path&#62;_53" d="M325.696 131.984L324.832 140.912L319.28 140.384L320.144 131.456L325.696 131.984Z" fill="#373737"/>
</g>
</g>
</g>
<g id="&#60;Group&#62;_102">
<g id="&#60;Group&#62;_103">
<g id="&#60;Group&#62;_104">
<path id="&#60;Path&#62;_54" d="M366.528 187.664L357.6 186.8L358.128 181.264L367.088 182.128L366.528 187.68V187.664Z" fill="#373737"/>
</g>
</g>
<g id="&#60;Group&#62;_105">
<g id="&#60;Group&#62;_106">
<path id="&#60;Path&#62;_55" d="M375.072 99.632L366.128 98.784L366.656 93.216L375.616 94.08L375.056 99.632H375.072Z" fill="#373737"/>
</g>
</g>
</g>
</g>
</g>
<g id="&#60;Group&#62;_107">
<path id="&#60;Path&#62;_56" d="M410.416 140.48C410.416 164.912 390.816 184.736 366.688 184.736C342.544 184.736 322.944 164.912 322.944 140.48C322.944 116.016 342.544 96.208 366.688 96.208C390.832 96.208 410.416 116.016 410.416 140.48V140.48Z" fill="#373737"/>
</g>
<g id="&#60;Group&#62;_108">
<path id="&#60;Path&#62;_57" d="M408.288 140.56C408.288 163.984 389.648 182.976 366.688 182.976C343.696 182.976 325.088 163.968 325.088 140.56C325.088 117.136 343.696 98.16 366.688 98.16C389.648 98.16 408.288 117.152 408.288 140.56Z" fill="#373737"/>
</g>
<g id="&#60;Group&#62;_109">
<path id="&#60;Path&#62;_58" d="M401.168 141.232C401.168 160.896 385.504 176.864 366.208 176.864C346.912 176.864 331.264 160.912 331.264 141.232C331.264 121.568 346.912 105.6 366.208 105.6C385.504 105.6 401.168 121.568 401.168 141.232V141.232Z" fill="#474747"/>
</g>
<g id="&#60;Group&#62;_110">
<path id="&#60;Compound Path&#62;" fill-rule="evenodd" clip-rule="evenodd" d="M366.208 177.344C346.672 177.344 330.768 161.136 330.768 141.216C330.768 121.296 346.672 105.088 366.208 105.088C385.744 105.088 401.632 121.296 401.632 141.216C401.632 161.136 385.744 177.344 366.208 177.344ZM366.208 106.08C347.2 106.08 331.728 121.84 331.728 141.232C331.728 160.608 347.2 176.384 366.208 176.384C385.184 176.384 400.672 160.608 400.672 141.232C400.672 121.856 385.184 106.08 366.208 106.08V106.08Z" fill="#E5931C"/>
</g>
<g id="&#60;Group&#62;_111">
<path id="&#60;Path&#62;_59" d="M393.152 140.56C393.152 155.792 381.072 168.112 366.144 168.112C351.232 168.112 339.136 155.792 339.136 140.56C339.136 125.36 351.232 113.008 366.144 113.008C381.072 113.008 393.152 125.36 393.152 140.56V140.56Z" fill="#FDCA00"/>
</g>
<g id="&#60;Group&#62;_112">
<path id="&#60;Path&#62;_60" d="M381.2 140.32C381.2 148.928 374.368 155.904 365.92 155.904C357.488 155.904 350.64 148.928 350.64 140.32C350.64 131.728 357.488 124.752 365.92 124.752C374.368 124.752 381.2 131.712 381.2 140.32Z" fill="#EEEEEE"/>
</g>
<g id="&#60;Group&#62;_113">
<path id="&#60;Path&#62;_61" d="M372.384 140.096C372.384 143.856 369.392 146.896 365.712 146.896C362.048 146.896 359.04 143.856 359.04 140.096C359.04 136.352 362.048 133.296 365.712 133.296C369.392 133.296 372.384 136.352 372.384 140.096Z" fill="#474747"/>
</g>
<g id="&#60;Group&#62;_114">
<path id="&#60;Path&#62;_62" d="M410.176 121.984L417.52 119.952L420.64 128.368L412.896 130.528L410.192 121.984H410.176Z" fill="#333333"/>
</g>
<g id="&#60;Group&#62;_115">
<path id="&#60;Path&#62;_63" d="M413.952 140.512L422.176 138.304L421.712 147.264L413.072 149.456L413.936 140.528L413.952 140.512Z" fill="#333333"/>
</g>
<g id="&#60;Group&#62;_116">
<path id="&#60;Path&#62;_64" d="M410.496 158.128L419.536 156.048L415.792 164.176L406.368 166.08L410.496 158.128V158.128Z" fill="#333333"/>
</g>
<g id="&#60;Group&#62;_117">
<path id="&#60;Path&#62;_65" d="M400.48 173.408L410.272 171.776L403.696 177.888L393.632 179.216L400.48 173.408Z" fill="#333333"/>
</g>
<g id="&#60;Group&#62;_118">
<path id="&#60;Path&#62;_66" d="M385.12 183.904L395.408 182.976L386.976 186.08L376.544 186.592L385.12 183.904Z" fill="#333333"/>
</g>
<g id="&#60;Group&#62;_119">
<path id="&#60;Path&#62;_67" d="M366.496 187.056L368.048 187.168L377.024 187.616L366.528 187.68L366.496 187.072V187.056Z" fill="#212121"/>
</g>
<g id="&#60;Group&#62;_120">
<path id="&#60;Path&#62;_68" d="M399.632 106.64L406.288 105.104L412.432 111.68L405.472 113.488L399.632 106.64Z" fill="#333333"/>
</g>
<g id="&#60;Group&#62;_121">
<path id="&#60;Path&#62;_69" d="M384.32 96.656L390.528 95.872L398.688 99.632L392.304 100.784L384.32 96.656V96.656Z" fill="#333333"/>
</g>
<g id="&#60;Group&#62;_122">
<path id="&#60;Path&#62;_70" d="M366.672 93.216L372.72 93.28L381.728 93.728L375.648 94.096L366.688 93.232L366.672 93.216Z" fill="#333333"/>
</g>
<g id="&#60;Group&#62;_123">
<path id="&#60;Path&#62;_71" d="M356.688 94.272L362.768 94.8L357.456 96.784L356.688 94.288V94.272Z" fill="#333333"/>
</g>
<g id="&#60;Group&#62;_124">
<path id="&#60;Path&#62;_72" d="M384.96 125.408C384.96 127.408 383.344 128.992 381.36 128.992C379.36 128.992 377.744 127.392 377.744 125.408C377.744 123.408 379.36 121.792 381.36 121.792C383.36 121.792 384.96 123.408 384.96 125.408Z" fill="#474747"/>
</g>
<g id="&#60;Group&#62;_125">
<path id="&#60;Path&#62;_73" d="M354.256 124.272C354.256 126.256 352.64 127.856 350.656 127.856C348.656 127.856 347.04 126.256 347.04 124.272C347.04 122.272 348.656 120.656 350.656 120.656C352.64 120.656 354.256 122.272 354.256 124.272Z" fill="#474747"/>
</g>
<g id="&#60;Group&#62;_126">
<path id="&#60;Path&#62;_74" d="M383.808 156.112C383.808 158.112 382.208 159.728 380.208 159.728C378.24 159.728 376.592 158.112 376.592 156.112C376.592 154.128 378.24 152.512 380.208 152.512C382.208 152.512 383.808 154.128 383.808 156.112Z" fill="#474747"/>
</g>
<g id="&#60;Group&#62;_127">
<path id="&#60;Path&#62;_75" d="M370.16 161.792C370.16 163.776 368.544 165.392 366.576 165.392C364.576 165.392 362.96 163.776 362.96 161.792C362.96 159.808 364.576 158.176 366.576 158.176C368.56 158.176 370.16 159.792 370.16 161.792V161.792Z" fill="#474747"/>
</g>
<g id="&#60;Group&#62;_128">
<path id="&#60;Path&#62;_76" d="M369.04 118.192C369.04 120.176 367.424 121.776 365.44 121.776C363.44 121.776 361.824 120.16 361.824 118.192C361.824 116.208 363.44 114.576 365.44 114.576C367.424 114.576 369.04 116.192 369.04 118.192Z" fill="#474747"/>
</g>
<g id="&#60;Group&#62;_129">
<path id="&#60;Path&#62;_77" d="M391.408 139.792C391.408 141.792 389.792 143.408 387.808 143.408C385.824 143.408 384.224 141.792 384.224 139.792C384.224 137.808 385.824 136.208 387.808 136.208C389.792 136.208 391.408 137.808 391.408 139.792Z" fill="#474747"/>
</g>
<g id="&#60;Group&#62;_130">
<path id="&#60;Path&#62;_78" d="M348.192 139.792C348.192 141.792 346.56 143.408 344.576 143.408C342.592 143.408 340.976 141.792 340.976 139.792C340.976 137.808 342.592 136.208 344.576 136.208C346.56 136.208 348.192 137.808 348.192 139.792Z" fill="#474747"/>
</g>
<g id="&#60;Group&#62;_131">
<path id="&#60;Path&#62;_79" d="M354.256 156.112C354.256 158.112 352.64 159.728 350.656 159.728C348.656 159.728 347.04 158.112 347.04 156.112C347.04 154.128 348.656 152.512 350.656 152.512C352.64 152.512 354.256 154.128 354.256 156.112Z" fill="#474747"/>
</g>
</g>
<g className="wheel" id="&#60;Group&#62;_132">
<g id="&#60;Group&#62;_133">
<g id="&#60;Group&#62;_134">
<g id="&#60;Group&#62;_135">
<g id="&#60;Group&#62;_136">
<g id="&#60;Group&#62;_137">
<g id="&#60;Group&#62;_138">
<path id="&#60;Path&#62;_80" d="M169.424 118.432L176.032 116L177.536 120.112L170.928 122.544L169.424 118.448V118.432Z" fill="#212121"/>
</g>
</g>
<g id="&#60;Group&#62;_139">
<g id="&#60;Group&#62;_140">
<path id="&#60;Path&#62;_81" d="M192.128 184.128L200.064 180.96L201.6 185.04L194.976 187.472L192.128 184.112V184.128Z" fill="#212121"/>
</g>
</g>
</g>
<g id="&#60;Group&#62;_141">
<g id="&#60;Group&#62;_142">
<g id="&#60;Group&#62;_143">
<path id="&#60;Path&#62;_82" d="M218.896 135.696L221.328 142.288L217.232 143.792L214.8 137.216L218.896 135.696Z" fill="#212121"/>
</g>
</g>
<g id="&#60;Group&#62;_144">
<g id="&#60;Group&#62;_145">
<path id="&#60;Path&#62;_83" d="M153.776 159.696L156.208 166.272L152.112 167.776L149.68 161.184L153.776 159.68V159.696Z" fill="#212121"/>
</g>
</g>
</g>
</g>
<g id="&#60;Group&#62;_146">
<g id="&#60;Group&#62;_147">
<g id="&#60;Group&#62;_148">
<g id="&#60;Group&#62;_149">
<path id="&#60;Path&#62;_84" d="M197.744 116.848L204.144 119.776L202.32 123.76L195.92 120.8L197.744 116.848V116.848Z" fill="#212121"/>
</g>
</g>
<g id="&#60;Group&#62;_150">
<g id="&#60;Group&#62;_151">
<path id="&#60;Path&#62;_85" d="M168.704 179.744L175.104 182.672L173.264 186.624L166.88 183.696L168.704 179.744Z" fill="#212121"/>
</g>
</g>
</g>
<g id="&#60;Group&#62;_152">
<g id="&#60;Group&#62;_153">
<g id="&#60;Group&#62;_154">
<path id="&#60;Path&#62;_86" d="M220.48 163.952L217.536 170.336L213.552 168.48L216.512 162.144L220.48 163.952Z" fill="#212121"/>
</g>
</g>
<g id="&#60;Group&#62;_155">
<g id="&#60;Group&#62;_156">
<path id="&#60;Path&#62;_87" d="M157.44 134.992L154.512 141.376L150.544 139.552L153.472 133.184L157.44 134.992V134.992Z" fill="#212121"/>
</g>
</g>
</g>
</g>
<g id="&#60;Group&#62;_157">
<g id="&#60;Group&#62;_158">
<g id="&#60;Group&#62;_159">
<g id="&#60;Group&#62;_160">
<path id="&#60;Path&#62;_88" d="M210.096 124.08L214.896 129.216L211.696 132.192L206.88 127.072L210.08 124.08H210.096Z" fill="#212121"/>
</g>
</g>
<g id="&#60;Group&#62;_161">
<g id="&#60;Group&#62;_162">
<path id="&#60;Path&#62;_89" d="M159.312 171.296L164.096 176.416L160.912 179.408L156.096 174.256L159.296 171.296H159.312Z" fill="#212121"/>
</g>
</g>
</g>
<g id="&#60;Group&#62;_163">
<g id="&#60;Group&#62;_164">
<g id="&#60;Group&#62;_165">
<path id="&#60;Path&#62;_90" d="M213.216 176.272L208.064 181.056L205.104 177.856L210.256 173.072L213.232 176.256L213.216 176.272Z" fill="#212121"/>
</g>
</g>
<g id="&#60;Group&#62;_166">
<g id="&#60;Group&#62;_167">
<path id="&#60;Path&#62;_91" d="M165.92 125.616L160.769 130.4L157.792 127.2L162.944 122.416L165.92 125.6V125.616Z" fill="#212121"/>
</g>
</g>
</g>
</g>
<g id="&#60;Group&#62;_168">
<g id="&#60;Group&#62;_169">
<g id="&#60;Group&#62;_170">
<g id="&#60;Group&#62;_171">
<path id="&#60;Path&#62;_92" d="M222.528 150.064L222.176 157.072L217.824 156.864L218.176 149.856L222.544 150.064H222.528Z" fill="#212121"/>
</g>
</g>
<g id="&#60;Group&#62;_172">
<g id="&#60;Group&#62;_173">
<path id="&#60;Path&#62;_93" d="M153.2 146.64L152.848 153.648L148.48 153.424L148.832 146.432L153.2 146.64Z" fill="#212121"/>
</g>
</g>
</g>
<g id="&#60;Group&#62;_174">
<g id="&#60;Group&#62;_175">
<g id="&#60;Group&#62;_176">
<path id="&#60;Path&#62;_94" d="M187.184 188.672L178.608 188.368L177.984 183.856L187.392 184.304L187.184 188.656V188.672Z" fill="#212121"/>
</g>
</g>
<g id="&#60;Group&#62;_177">
<g id="&#60;Group&#62;_178">
<path id="&#60;Path&#62;_95" d="M190.64 119.52L183.616 119.168L183.824 114.832L190.848 115.184L190.64 119.52Z" fill="#212121"/>
</g>
</g>
</g>
</g>
</g>
<g id="&#60;Group&#62;_179">
<path id="&#60;Path&#62;_96" d="M219.76 150.144C220.672 169.248 206.08 185.488 187.184 186.384C168.288 187.28 152.256 172.48 151.36 153.36C150.448 134.256 165.04 118.016 183.936 117.152C202.816 116.24 218.864 131.04 219.744 150.16L219.76 150.144Z" fill="#212121"/>
</g>
<g id="&#60;Group&#62;_180">
<path id="&#60;Path&#62;_97" d="M218.08 150.32C218.944 168.608 205.088 184.16 187.12 184.992C169.168 185.84 153.888 171.664 153.04 153.376C152.16 135.056 166.048 119.536 184.016 118.672C201.968 117.824 217.232 131.984 218.08 150.32V150.32Z" fill="#212121"/>
</g>
<g id="&#60;Group&#62;_181">
<path id="&#60;Path&#62;_98" d="M212.544 151.088C213.28 166.48 201.632 179.536 186.544 180.256C171.456 180.96 158.624 169.04 157.904 153.664C157.184 138.288 168.816 125.216 183.92 124.528C199.008 123.808 211.824 135.712 212.544 151.104V151.088Z" fill="#212121"/>
</g>
<g id="&#60;Group&#62;_182">
<path id="&#60;Path&#62;_99" d="M206.272 150.88C206.832 162.784 197.808 172.848 186.16 173.408C174.48 173.968 164.576 164.752 164.016 152.864C163.44 140.944 172.464 130.864 184.128 130.32C195.776 129.76 205.696 138.96 206.256 150.864L206.272 150.88Z" fill="#212121"/>
</g>
<g id="&#60;Group&#62;_183">
<path id="&#60;Path&#62;_100" d="M196.928 151.104C197.232 157.84 192.144 163.552 185.536 163.872C178.944 164.176 173.344 158.96 173.024 152.224C172.688 145.504 177.792 139.808 184.4 139.488C191.008 139.168 196.592 144.368 196.928 151.088V151.104Z" fill="#212121"/>
</g>
<g id="&#60;Group&#62;_184">
<path id="&#60;Path&#62;_101" d="M190 151.264C190.16 154.208 187.936 156.688 185.056 156.848C182.176 156.992 179.728 154.688 179.584 151.76C179.44 148.832 181.664 146.352 184.56 146.208C187.424 146.08 189.888 148.352 190 151.28V151.264Z" fill="#212121"/>
</g>
</g>
<g id="&#60;Group&#62;_185">
<g id="&#60;Group&#62;_186">
<g id="&#60;Group&#62;_187">
<g id="&#60;Group&#62;_188">
<g id="&#60;Group&#62;_189">
<path id="&#60;Path&#62;_102" d="M164.543 117.728L171.263 115.6L172.575 119.776L165.855 121.888L164.559 117.728H164.543Z" fill="#373737"/>
</g>
</g>
<g id="&#60;Group&#62;_190">
<g id="&#60;Group&#62;_191">
<path id="&#60;Path&#62;_103" d="M185.488 183.728L192.208 181.616L193.536 185.76L186.816 187.888L185.488 183.728V183.728Z" fill="#373737"/>
</g>
</g>
</g>
<g id="&#60;Group&#62;_192">
<g id="&#60;Group&#62;_193">
<g id="&#60;Group&#62;_194">
<path id="&#60;Path&#62;_104" d="M213.135 137.296L215.263 143.984L211.087 145.312L208.959 138.624L213.135 137.312V137.296Z" fill="#373737"/>
</g>
</g>
<g id="&#60;Group&#62;_195">
<g id="&#60;Group&#62;_196">
<path id="&#60;Path&#62;_105" d="M146.96 158.208L149.088 164.88L144.912 166.176L142.784 159.488L146.96 158.192V158.208Z" fill="#373737"/>
</g>
</g>
</g>
</g>
<g id="&#60;Group&#62;_197">
<g id="&#60;Group&#62;_198">
<g id="&#60;Group&#62;_199">
<g id="&#60;Group&#62;_200">
<path id="&#60;Path&#62;_106" d="M192.896 117.472L199.136 120.704L197.12 124.576L190.88 121.344L192.88 117.472H192.896Z" fill="#373737"/>
</g>
</g>
<g id="&#60;Group&#62;_201">
<g id="&#60;Group&#62;_202">
<path id="&#60;Path&#62;_107" d="M160.928 178.912L167.184 182.16L165.152 186.016L158.896 182.784L160.912 178.912H160.928Z" fill="#373737"/>
</g>
</g>
</g>
<g id="&#60;Group&#62;_203">
<g id="&#60;Group&#62;_204">
<g id="&#60;Group&#62;_205">
<path id="&#60;Path&#62;_108" d="M213.392 165.568L210.144 171.792L206.288 169.808L209.52 163.568L213.392 165.568Z" fill="#373737"/>
</g>
</g>
<g id="&#60;Group&#62;_206">
<g id="&#60;Group&#62;_207">
<path id="&#60;Path&#62;_109" d="M151.776 133.68L148.544 139.92L144.672 137.92L147.904 131.68L151.776 133.68Z" fill="#373737"/>
</g>
</g>
</g>
</g>
<g id="&#60;Group&#62;_208">
<g id="&#60;Group&#62;_209">
<g id="&#60;Group&#62;_210">
<g id="&#60;Group&#62;_211">
<path id="&#60;Path&#62;_110" d="M204.896 125.264L209.456 130.64L206.112 133.456L201.568 128.096L204.912 125.264H204.896Z" fill="#373737"/>
</g>
</g>
<g id="&#60;Group&#62;_212">
<g id="&#60;Group&#62;_213">
<path id="&#60;Path&#62;_111" d="M151.952 170.032L156.496 175.392L153.152 178.208L148.608 172.848L151.952 170.032Z" fill="#373737"/>
</g>
</g>
</g>
<g id="&#60;Group&#62;_214">
<g id="&#60;Group&#62;_215">
<g id="&#60;Group&#62;_216">
<path id="&#60;Path&#62;_112" d="M205.552 177.536L200.176 182.096L197.36 178.768L202.72 174.224L205.536 177.536H205.552Z" fill="#373737"/>
</g>
</g>
<g id="&#60;Group&#62;_217">
<g id="&#60;Group&#62;_218">
<path id="&#60;Path&#62;_113" d="M160.704 124.736L155.344 129.28L152.496 125.968L157.872 121.424L160.704 124.736Z" fill="#373737"/>
</g>
</g>
</g>
</g>
<g id="&#60;Group&#62;_219">
<g id="&#60;Group&#62;_220">
<g id="&#60;Group&#62;_221">
<g id="&#60;Group&#62;_222">
<path id="&#60;Path&#62;_114" d="M216.08 151.792L215.392 158.784L211.056 158.368L211.728 151.392L216.08 151.792Z" fill="#373737"/>
</g>
</g>
<g id="&#60;Group&#62;_223">
<g id="&#60;Group&#62;_224">
<path id="&#60;Path&#62;_115" d="M147.008 145.136L146.32 152.128L141.984 151.712L142.656 144.72L147.008 145.136Z" fill="#373737"/>
</g>
</g>
</g>
<g id="&#60;Group&#62;_225">
<g id="&#60;Group&#62;_226">
<g id="&#60;Group&#62;_227">
<path id="&#60;Path&#62;_116" d="M178.976 188.736L171.968 188.032L172.416 183.712L179.424 184.384L178.992 188.736H178.976Z" fill="#373737"/>
</g>
</g>
<g id="&#60;Group&#62;_228">
<g id="&#60;Group&#62;_229">
<path id="&#60;Path&#62;_117" d="M185.664 119.792L178.656 119.12L179.072 114.784L186.096 115.472L185.664 119.808V119.792Z" fill="#373737"/>
</g>
</g>
</g>
</g>
</g>
<g id="&#60;Group&#62;_230">
<path id="&#60;Path&#62;_118" d="M213.344 151.76C213.344 170.896 198.016 186.416 179.104 186.416C160.192 186.416 144.848 170.896 144.848 151.76C144.848 132.608 160.192 117.104 179.104 117.104C198.016 117.104 213.344 132.608 213.344 151.76V151.76Z" fill="#373737"/>
</g>
<g id="&#60;Group&#62;_231">
<path id="&#60;Path&#62;_119" d="M211.664 151.84C211.664 170.176 197.072 185.04 179.088 185.04C161.104 185.04 146.528 170.176 146.528 151.84C146.528 133.504 161.104 118.64 179.088 118.64C197.072 118.64 211.664 133.52 211.664 151.84Z" fill="#373737"/>
</g>
<g id="&#60;Group&#62;_232">
<path id="&#60;Path&#62;_120" d="M206.064 152.352C206.064 167.76 193.824 180.256 178.704 180.256C163.584 180.256 151.344 167.76 151.344 152.352C151.344 136.944 163.584 124.464 178.704 124.464C193.824 124.464 206.064 136.944 206.064 152.352Z" fill="#474747"/>
</g>
<g id="&#60;Group&#62;_233">
<path id="&#60;Compound Path&#62;_2" fill-rule="evenodd" clip-rule="evenodd" d="M178.704 180.752C163.344 180.752 150.864 168.016 150.864 152.352C150.864 136.704 163.344 123.968 178.704 123.968C194.096 123.968 206.544 136.704 206.544 152.352C206.544 168.016 194.08 180.752 178.704 180.752ZM178.704 124.944C163.904 124.944 151.84 137.232 151.84 152.336C151.84 167.456 163.888 179.76 178.704 179.76C193.52 179.76 205.584 167.456 205.584 152.336C205.584 137.232 193.536 124.944 178.704 124.944Z" fill="#E5931C"/>
</g>
<g id="&#60;Group&#62;_234">
<path id="&#60;Path&#62;_121" d="M199.824 151.84C199.824 163.76 190.352 173.408 178.688 173.408C167.008 173.408 157.552 163.76 157.552 151.84C157.552 139.936 167.008 130.272 178.688 130.272C190.352 130.272 199.824 139.92 199.824 151.84V151.84Z" fill="#FDCA00"/>
</g>
<g id="&#60;Group&#62;_235">
<path id="&#60;Path&#62;_122" d="M190.464 151.648C190.464 158.384 185.104 163.84 178.496 163.84C171.888 163.84 166.528 158.384 166.528 151.648C166.528 144.912 171.888 139.472 178.496 139.472C185.12 139.472 190.464 144.912 190.464 151.648Z" fill="#EEEEEE"/>
</g>
<g id="&#60;Group&#62;_236">
<path id="&#60;Path&#62;_123" d="M183.552 151.488C183.552 154.432 181.216 156.8 178.336 156.8C175.456 156.8 173.12 154.432 173.12 151.488C173.12 148.528 175.456 146.16 178.336 146.16C181.2 146.16 183.552 148.544 183.552 151.488Z" fill="#474747"/>
</g>
<g id="&#60;Group&#62;_237">
<path id="&#60;Path&#62;_124" d="M213.136 137.296L218.896 135.696L221.328 142.288L215.264 143.968L213.136 137.28V137.296Z" fill="#333333"/>
</g>
<g id="&#60;Group&#62;_238">
<path id="&#60;Path&#62;_125" d="M216.08 151.792L222.528 150.064L222.176 157.072L215.408 158.784L216.096 151.792H216.08Z" fill="#333333"/>
</g>
<g id="&#60;Group&#62;_239">
<path id="&#60;Path&#62;_126" d="M213.392 165.568L220.496 163.952L217.552 170.336L210.16 171.792L213.408 165.568H213.392Z" fill="#333333"/>
</g>
<g id="&#60;Group&#62;_240">
<path id="&#60;Path&#62;_127" d="M205.552 177.536L213.216 176.272L208.064 181.056L200.192 182.08L205.568 177.52L205.552 177.536Z" fill="#333333"/>
</g>
<g id="&#60;Group&#62;_241">
<path id="&#60;Path&#62;_128" d="M193.536 185.76L201.6 185.04L194.976 187.472L186.816 187.872L193.536 185.744V185.76Z" fill="#333333"/>
</g>
<g id="&#60;Group&#62;_242">
<path id="&#60;Path&#62;_129" d="M178.944 188.272L180.16 188.336L187.184 188.672L178.96 188.72L178.944 188.256V188.272Z" fill="#212121"/>
</g>
<g id="&#60;Group&#62;_243">
<path id="&#60;Path&#62;_130" d="M204.896 125.264L210.096 124.08L214.896 129.216L209.456 130.624L204.896 125.248V125.264Z" fill="#333333"/>
</g>
<g id="&#60;Group&#62;_244">
<path id="&#60;Path&#62;_131" d="M192.896 117.472L197.728 116.848L204.128 119.776L199.136 120.688L192.896 117.456V117.472Z" fill="#333333"/>
</g>
<g id="&#60;Group&#62;_245">
<path id="&#60;Path&#62;_132" d="M179.072 114.784L183.824 114.832L190.848 115.184L186.096 115.472L179.072 114.784Z" fill="#333333"/>
</g>
<g id="&#60;Group&#62;_246">
<path id="&#60;Path&#62;_133" d="M171.248 115.6L176.032 116L171.872 117.568L171.248 115.6Z" fill="#333333"/>
</g>
<g id="&#60;Group&#62;_247">
<path id="&#60;Path&#62;_134" d="M193.408 139.952C193.408 141.536 192.128 142.784 190.576 142.784C189.024 142.784 187.76 141.536 187.76 139.952C187.76 138.4 189.04 137.152 190.576 137.152C192.128 137.152 193.408 138.4 193.408 139.952Z" fill="#474747"/>
</g>
<g id="&#60;Group&#62;_248">
<path id="&#60;Path&#62;_135" d="M169.344 139.088C169.344 140.656 168.08 141.904 166.528 141.904C164.976 141.904 163.696 140.656 163.696 139.088C163.696 137.536 164.976 136.24 166.528 136.24C168.08 136.24 169.344 137.52 169.344 139.088Z" fill="#474747"/>
</g>
<g id="&#60;Group&#62;_249">
<path id="&#60;Path&#62;_136" d="M192.512 164.016C192.512 165.568 191.264 166.832 189.68 166.832C188.128 166.832 186.864 165.568 186.864 164.016C186.864 162.464 188.128 161.168 189.68 161.168C191.248 161.168 192.512 162.448 192.512 164.016Z" fill="#474747"/>
</g>
<g id="&#60;Group&#62;_250">
<path id="&#60;Path&#62;_137" d="M181.824 168.464C181.824 170.016 180.576 171.296 179.008 171.296C177.456 171.296 176.192 170.016 176.192 168.464C176.192 166.912 177.472 165.648 179.008 165.648C180.576 165.648 181.824 166.928 181.824 168.464Z" fill="#474747"/>
</g>
<g id="&#60;Group&#62;_251">
<path id="&#60;Path&#62;_138" d="M180.944 134.336C180.944 135.888 179.664 137.152 178.128 137.152C176.56 137.152 175.296 135.872 175.296 134.336C175.296 132.768 176.56 131.504 178.128 131.504C179.68 131.504 180.944 132.768 180.944 134.336Z" fill="#474747"/>
</g>
<g id="&#60;Group&#62;_252">
<path id="&#60;Path&#62;_139" d="M198.448 151.248C198.448 152.816 197.168 154.064 195.632 154.064C194.112 154.064 192.816 152.8 192.816 151.248C192.816 149.68 194.112 148.432 195.632 148.432C197.184 148.432 198.448 149.68 198.448 151.248Z" fill="#474747"/>
</g>
<g id="&#60;Group&#62;_253">
<path id="&#60;Path&#62;_140" d="M164.624 151.248C164.624 152.816 163.344 154.064 161.808 154.064C160.24 154.064 158.992 152.8 158.992 151.248C158.992 149.68 160.256 148.432 161.808 148.432C163.344 148.432 164.624 149.68 164.624 151.248Z" fill="#474747"/>
</g>
<g id="&#60;Group&#62;_254">
<path id="&#60;Path&#62;_141" d="M169.344 164.016C169.344 165.568 168.08 166.832 166.528 166.832C164.976 166.832 163.696 165.568 163.696 164.016C163.696 162.464 164.976 161.168 166.528 161.168C168.08 161.168 169.344 162.448 169.344 164.016Z" fill="#474747"/>
</g>
</g>
<path id="&#60;Path&#62;_142" d="M396.432 82.512V166.128H305.968H212.352H167.168C155.536 166.128 146.128 156.704 146.128 145.104V107.76C146.128 96.144 155.536 86.72 167.168 86.72H212.352H231.296H241.808H252.048C248.32 90.512 246 95.696 246 101.44V105.392C246 117.008 255.408 126.432 267.04 126.432H306.624L336.464 52H392.224V82.512H396.432V82.512Z" fill="#F5AB00"/>
<path id="&#60;Path&#62;_143" d="M358.56 86.72V166.128H268.112H174.496H129.312C117.696 166.128 108.288 156.704 108.288 145.104V107.76C108.288 96.144 117.696 86.72 129.312 86.72H174.496H193.44H203.952H214.192C210.464 90.512 208.16 95.696 208.16 101.44V105.392C208.16 117.008 217.584 126.432 229.2 126.432H268.768L298.624 52H354.368V86.72H358.56V86.72Z" fill="#FFBE17"/>
<path id="&#60;Path&#62;_144" d="M270.416 98.784C268.96 99.968 266.8 99.744 265.6 98.272L256.448 87.024L226.72 111.168C226.08 111.696 224.752 111.12 223.76 109.888C222.768 108.672 222.48 107.248 223.12 106.72L252.832 82.576L243.728 71.36C242.512 69.888 242.752 67.744 244.208 66.544C245.664 65.36 247.824 65.584 249.024 67.04L270.912 93.952C272.096 95.424 271.872 97.568 270.4 98.784H270.416Z" fill="#212121"/>
<path id="&#60;Path&#62;_145" d="M266.208 98.784C264.752 99.968 262.592 99.744 261.392 98.272L252.256 87.024L222.512 111.168C221.872 111.696 220.544 111.12 219.552 109.888C218.544 108.672 218.272 107.248 218.912 106.72L248.64 82.576L239.52 71.36C238.336 69.888 238.56 67.744 240.032 66.544C241.488 65.36 243.648 65.584 244.832 67.04L266.72 93.952C267.92 95.424 267.696 97.568 266.208 98.784V98.784Z" fill="#404041"/>
<path id="&#60;Path&#62;_146" d="M229.456 108.128C229.456 113.648 226.384 118.128 222.608 118.128C218.848 118.128 215.776 113.648 215.776 108.128C215.776 102.608 218.848 98.16 222.608 98.16C226.4 98.16 229.456 102.624 229.456 108.128Z" fill="#F5AB00"/>
<g id="&#60;Group&#62;_255">
<g id="&#60;Group&#62;_256">
<g id="&#60;Group&#62;_257">
<path id="&#60;Path&#62;_147" d="M141.808 98.48H135.6V66.592C135.6 60.432 141.712 54.816 148.928 52L149.088 62.272C145.504 62.736 141.904 59.584 141.904 64L141.824 98.48H141.808Z" fill="#373737"/>
</g>
</g>
</g>
<g id="&#60;Group&#62;_258">
<g id="&#60;Group&#62;_259">
<g id="&#60;Group&#62;_260">
<path id="&#60;Path&#62;_148" d="M137.6 98.48H131.376V66.592C131.376 60.432 137.488 54.816 144.704 52L144.849 62.272C141.264 62.736 137.664 59.584 137.664 64L137.6 98.48V98.48Z" fill="#404041"/>
</g>
</g>
</g>
<path id="&#60;Path&#62;_149" d="M144.72 54.048V52H148.928L144.72 54.048Z" fill="#373737"/>
<path id="&#60;Path&#62;_150" d="M144.864 61.024L149.072 62.256H144.864V61.024Z" fill="#373737"/>
<g id="&#60;Group&#62;_261">
<g id="&#60;Group&#62;_262">
<path id="&#60;Path&#62;_151" d="M345.888 167.36H161.712V158.32H345.888V167.36Z" fill="#51535C"/>
</g>
</g>
<g id="&#60;Group&#62;_263">
<g id="&#60;Group&#62;_264">
<path id="&#60;Path&#62;_152" d="M345.888 157.392H161.712V148.352H345.888V157.392Z" fill="#51535C"/>
</g>
</g>
<g id="&#60;Group&#62;_265">
<g id="&#60;Group&#62;_266">
<path id="&#60;Path&#62;_153" d="M346.208 159.568H154.704V156.448H346.208V159.568V159.568Z" fill="#757373"/>
</g>
</g>
<g id="&#60;Group&#62;_267">
<g id="&#60;Group&#62;_268">
<path id="&#60;Path&#62;_154" d="M158.704 136.688C170.08 128.256 188.864 123.504 215.056 122.432L262.752 122.736C254.496 133.824 250.176 142.352 249.76 148.336L160.8 149.168L158.72 136.688H158.704Z" fill="#757373"/>
</g>
</g>
<g id="&#60;Group&#62;_269">
<g id="&#60;Group&#62;_270">
<path id="&#60;Compound Path&#62;_3" fill-rule="evenodd" clip-rule="evenodd" d="M160.048 149.648L157.824 136.512L158.064 136.368C158.224 136.256 175.792 123.536 214.816 122L263.632 122.288L263.152 122.992C263.008 123.136 250.848 139.616 250.272 148.384L250.208 148.832L160.064 149.664L160.048 149.648ZM159.28 136.864L161.28 148.672L248.88 147.872C249.744 139.776 259.056 126.416 261.376 123.216L214.832 122.928C178.752 124.368 161.392 135.392 159.28 136.848V136.864Z" fill="#51535C"/>
</g>
</g>
<g id="&#60;Group&#62;_271">
<g id="&#60;Group&#62;_272">
<path id="&#60;Path&#62;_155" d="M266.32 151.76H154.688V147.088H266.32V151.76Z" fill="#43454C"/>
</g>
</g>
<g id="&#60;Group&#62;_273">
<g id="&#60;Group&#62;_274">
<path id="&#60;Path&#62;_156" d="M266.32 163.008H154.688V158.32H266.32V163.008Z" fill="#43454C"/>
</g>
</g>
<g id="&#60;Group&#62;_275">
<g id="&#60;Group&#62;_276">
<path id="&#60;Path&#62;_157" d="M182.384 91.36L179.888 124.896L162.416 124.96L159.92 91.824L182.4 91.344L182.384 91.36Z" fill="#757373"/>
</g>
</g>
<g id="&#60;Group&#62;_277">
<g id="&#60;Group&#62;_278">
<path id="&#60;Path&#62;_158" d="M179.92 124.864L171.12 124.88V91.536L182.416 91.296L179.92 124.864V124.864Z" fill="#43454C"/>
</g>
</g>
<g id="&#60;Group&#62;_279">
<g id="&#60;Group&#62;_280" opacity="0.4">
<g id="&#60;Group&#62;_281" opacity="0.4">
<path id="&#60;Compound Path&#62;_4" opacity="0.4" fill-rule="evenodd" clip-rule="evenodd" d="M178.464 107.152H164.192C163.6 107.152 163.104 106.672 163.104 106.08V97.344C163.104 96.752 163.6 96.272 164.192 96.272H178.464C179.056 96.272 179.552 96.752 179.552 97.344V106.08C179.552 106.672 179.056 107.152 178.464 107.152ZM164.192 96.752C163.856 96.752 163.6 97.024 163.6 97.36V106.096C163.6 106.448 163.856 106.688 164.192 106.688H178.464C178.8 106.688 179.072 106.448 179.072 106.096V97.36C179.072 97.024 178.784 96.752 178.464 96.752H164.192Z" fill="#373737"/>
</g>
</g>
<g id="&#60;Group&#62;_282" opacity="0.8">
<g id="&#60;Group&#62;_283" opacity="0.8">
<g id="&#60;Group&#62;_284" opacity="0.8">
<path id="&#60;Path&#62;_159" opacity="0.8" d="M172.512 98.16H177.12C177.248 98.16 177.344 98.352 177.344 98.576C177.344 98.816 177.248 99.008 177.12 99.008H172.512C172.4 99.008 172.288 98.816 172.288 98.576C172.288 98.336 172.4 98.16 172.512 98.16Z" fill="#373737"/>
</g>
</g>
<g id="&#60;Group&#62;_285" opacity="0.8">
<g id="&#60;Group&#62;_286" opacity="0.8">
<path id="&#60;Path&#62;_160" opacity="0.8" d="M165.52 98.16H170.128C170.256 98.16 170.352 98.352 170.352 98.576C170.352 98.816 170.256 99.008 170.128 99.008H165.52C165.408 99.008 165.28 98.816 165.28 98.576C165.28 98.336 165.408 98.16 165.52 98.16Z" fill="#373737"/>
</g>
</g>
</g>
<g id="&#60;Group&#62;_287" opacity="0.8">
<g id="&#60;Group&#62;_288" opacity="0.8">
<g id="&#60;Group&#62;_289" opacity="0.8">
<path id="&#60;Path&#62;_161" opacity="0.8" d="M172.512 101.264H177.12C177.248 101.264 177.344 101.44 177.344 101.696C177.344 101.92 177.248 102.112 177.12 102.112H172.512C172.4 102.112 172.288 101.92 172.288 101.696C172.288 101.44 172.4 101.264 172.512 101.264Z" fill="#373737"/>
</g>
</g>
<g id="&#60;Group&#62;_290" opacity="0.8">
<g id="&#60;Group&#62;_291" opacity="0.8">
<path id="&#60;Path&#62;_162" opacity="0.8" d="M165.52 101.264H170.128C170.256 101.264 170.352 101.44 170.352 101.696C170.352 101.92 170.256 102.112 170.128 102.112H165.52C165.408 102.112 165.28 101.92 165.28 101.696C165.28 101.44 165.408 101.264 165.52 101.264Z" fill="#373737"/>
</g>
</g>
</g>
<g id="&#60;Group&#62;_292" opacity="0.8">
<g id="&#60;Group&#62;_293" opacity="0.8">
<g id="&#60;Group&#62;_294" opacity="0.8">
<path id="&#60;Path&#62;_163" opacity="0.8" d="M172.512 104.352H177.12C177.248 104.352 177.344 104.544 177.344 104.784C177.344 105.008 177.248 105.2 177.12 105.2H172.512C172.4 105.2 172.288 105.008 172.288 104.784C172.288 104.544 172.4 104.352 172.512 104.352Z" fill="#373737"/>
</g>
</g>
<g id="&#60;Group&#62;_295" opacity="0.8">
<g id="&#60;Group&#62;_296" opacity="0.8">
<path id="&#60;Path&#62;_164" opacity="0.8" d="M165.52 104.352H170.128C170.256 104.352 170.352 104.544 170.352 104.784C170.352 105.008 170.256 105.2 170.128 105.2H165.52C165.408 105.2 165.28 105.008 165.28 104.784C165.28 104.544 165.408 104.352 165.52 104.352Z" fill="#373737"/>
</g>
</g>
</g>
</g>
<g id="&#60;Group&#62;_297">
<g id="&#60;Group&#62;_298">
<path id="&#60;Path&#62;_165" d="M357.952 85.392L358.56 166.128L246.544 167.376C247.728 124.864 263.536 97.808 293.984 86.176C326.224 75.248 347.536 74.992 357.952 85.392V85.392Z" fill="#191919"/>
</g>
</g>
<g id="&#60;Group&#62;_299">
<g id="&#60;Group&#62;_300">
<path id="&#60;Path&#62;_166" d="M247.344 167.472L238.56 167.024C239.952 133.36 250.32 108.208 269.328 92.24C302.128 64.688 356.016 74.96 357.952 75.392V85.392C357.504 85.296 304.24 74.944 274.672 99.792C257.808 113.968 248.592 136.736 247.328 167.472H247.344Z" fill="#474747"/>
</g>
</g>
<g className="wheel">
<g id="&#60;Group&#62;_301">
<g id="&#60;Group&#62;_302">
<g id="&#60;Group&#62;_303">
<g id="&#60;Group&#62;_304">
<g id="&#60;Group&#62;_305">
<g id="&#60;Group&#62;_306">
<path id="&#60;Path&#62;_167" d="M291.232 97.92L299.664 94.8L301.6 100.032L293.184 103.104L291.232 97.904V97.92Z" fill="#212121"/>
</g>
</g>
<g id="&#60;Group&#62;_307">
<g id="&#60;Group&#62;_308">
<path id="&#60;Path&#62;_168" d="M320.208 181.808L330.368 177.76L332.304 182.976L323.872 186.08L320.208 181.808V181.808Z" fill="#212121"/>
</g>
</g>
</g>
<g id="&#60;Group&#62;_309">
<g id="&#60;Group&#62;_310">
<g id="&#60;Group&#62;_311">
<path id="&#60;Path&#62;_169" d="M354.4 119.952L357.536 128.368L352.288 130.304L349.184 121.888L354.4 119.968V119.952Z" fill="#212121"/>
</g>
</g>
<g id="&#60;Group&#62;_312">
<g id="&#60;Group&#62;_313">
<path id="&#60;Path&#62;_170" d="M271.232 150.592L274.368 158.992L269.136 160.928L266.016 152.528L271.232 150.592Z" fill="#212121"/>
</g>
</g>
</g>
</g>
<g id="&#60;Group&#62;_314">
<g id="&#60;Group&#62;_315">
<g id="&#60;Group&#62;_316">
<g id="&#60;Group&#62;_317">
<path id="&#60;Path&#62;_171" d="M327.409 95.872L335.569 99.632L333.233 104.672L325.073 100.928L327.409 95.872Z" fill="#212121"/>
</g>
</g>
<g id="&#60;Group&#62;_318">
<g id="&#60;Group&#62;_319">
<path id="&#60;Path&#62;_172" d="M290.305 176.208L298.465 179.952L296.097 184.992L287.953 181.248L290.289 176.208H290.305Z" fill="#212121"/>
</g>
</g>
</g>
<g id="&#60;Group&#62;_320">
<g id="&#60;Group&#62;_321">
<g id="&#60;Group&#62;_322">
<path id="&#60;Path&#62;_173" d="M356.433 156.048L352.689 164.176L347.617 161.872L351.377 153.712L356.433 156.048Z" fill="#212121"/>
</g>
</g>
<g id="&#60;Group&#62;_323">
<g id="&#60;Group&#62;_324">
<path id="&#60;Path&#62;_174" d="M275.92 119.024L272.144 127.168L267.088 124.832L270.848 116.688L275.92 119.008V119.024Z" fill="#212121"/>
</g>
</g>
</g>
</g>
<g id="&#60;Group&#62;_325">
<g id="&#60;Group&#62;_326">
<g id="&#60;Group&#62;_327">
<g id="&#60;Group&#62;_328">
<path id="&#60;Path&#62;_175" d="M343.168 105.12L349.296 111.696L345.216 115.488L339.088 108.912L343.152 105.12H343.168Z" fill="#212121"/>
</g>
</g>
<g id="&#60;Group&#62;_329">
<g id="&#60;Group&#62;_330">
<path id="&#60;Path&#62;_176" d="M278.304 165.408L284.432 171.968L280.368 175.76L274.24 169.2L278.304 165.408Z" fill="#212121"/>
</g>
</g>
</g>
<g id="&#60;Group&#62;_331">
<g id="&#60;Group&#62;_332">
<g id="&#60;Group&#62;_333">
<path id="&#60;Path&#62;_177" d="M347.152 171.776L340.592 177.888L336.769 173.808L343.361 167.712L347.152 171.776Z" fill="#212121"/>
</g>
</g>
<g id="&#60;Group&#62;_334">
<g id="&#60;Group&#62;_335">
<path id="&#60;Path&#62;_178" d="M286.752 107.072L280.176 113.184L276.384 109.12L282.96 103.008L286.752 107.072Z" fill="#212121"/>
</g>
</g>
</g>
</g>
<g id="&#60;Group&#62;_336">
<g id="&#60;Group&#62;_337">
<g id="&#60;Group&#62;_338">
<g id="&#60;Group&#62;_339">
<path id="&#60;Path&#62;_179" d="M359.056 138.288L358.592 147.248L353.04 146.96L353.488 138L359.056 138.288Z" fill="#212121"/>
</g>
</g>
<g id="&#60;Group&#62;_340">
<g id="&#60;Group&#62;_341">
<path id="&#60;Path&#62;_180" d="M270.512 133.92L270.048 142.88L264.496 142.592L264.944 133.632L270.528 133.92H270.512Z" fill="#212121"/>
</g>
</g>
</g>
<g id="&#60;Group&#62;_342">
<g id="&#60;Group&#62;_343">
<g id="&#60;Group&#62;_344">
<path id="&#60;Path&#62;_181" d="M313.92 187.6L302.976 187.232L302.192 181.488L314.208 182.048L313.92 187.6V187.6Z" fill="#212121"/>
</g>
</g>
<g id="&#60;Group&#62;_345">
<g id="&#60;Group&#62;_346">
<path id="&#60;Path&#62;_182" d="M318.336 99.28L309.36 98.832L309.616 93.28L318.624 93.728L318.336 99.28Z" fill="#212121"/>
</g>
</g>
</g>
</g>
</g>
<g id="&#60;Group&#62;_347">
<path id="&#60;Path&#62;_183" d="M355.536 138.4C356.704 162.816 338.064 183.552 313.92 184.672C289.808 185.808 269.312 166.928 268.144 142.528C267.008 118.096 285.664 97.376 309.76 96.24C333.904 95.12 354.384 113.984 355.536 138.416V138.4Z" fill="#212121"/>
</g>
<g id="&#60;Group&#62;_348">
<path id="&#60;Path&#62;_184" d="M353.408 138.608C354.512 162.016 336.8 181.856 313.856 182.944C290.912 184 271.408 165.904 270.304 142.512C269.2 119.104 286.928 99.296 309.856 98.192C332.8 97.12 352.304 115.2 353.392 138.592L353.408 138.608Z" fill="#212121"/>
</g>
<g id="&#60;Group&#62;_349">
<path id="&#60;Path&#62;_185" d="M346.32 139.6C347.248 159.264 332.368 175.92 313.088 176.832C293.808 177.744 277.424 162.544 276.512 142.88C275.584 123.216 290.464 106.56 309.728 105.632C329.008 104.736 345.392 119.952 346.336 139.6H346.32Z" fill="#212121"/>
</g>
<g id="&#60;Group&#62;_350">
<path id="&#60;Path&#62;_186" d="M338.304 139.328C339.024 154.512 327.52 167.408 312.624 168.112C297.712 168.8 285.073 157.056 284.353 141.856C283.649 126.656 295.12 113.792 310.032 113.072C324.928 112.384 337.584 124.128 338.304 139.328Z" fill="#212121"/>
</g>
<g id="&#60;Group&#62;_351">
<path id="&#60;Path&#62;_187" d="M326.352 139.632C326.752 148.24 320.24 155.52 311.84 155.904C303.376 156.32 296.24 149.664 295.824 141.088C295.424 132.48 301.92 125.2 310.352 124.8C318.784 124.4 325.936 131.056 326.352 139.632Z" fill="#212121"/>
</g>
<g id="&#60;Group&#62;_352">
<path id="&#60;Path&#62;_188" d="M317.52 139.824C317.712 143.584 314.864 146.768 311.184 146.928C307.504 147.104 304.384 144.208 304.224 140.464C304.032 136.72 306.864 133.536 310.56 133.344C314.208 133.168 317.36 136.064 317.52 139.824V139.824Z" fill="#212121"/>
</g>
</g>
<g id="&#60;Group&#62;_353">
<g id="&#60;Group&#62;_354">
<g id="&#60;Group&#62;_355">
<g id="&#60;Group&#62;_356">
<g id="&#60;Group&#62;_357">
<path id="&#60;Path&#62;_189" d="M284.992 96.992L293.568 94.288L295.248 99.6L286.672 102.288L285.008 96.992H284.992Z" fill="#373737"/>
</g>
</g>
<g id="&#60;Group&#62;_358">
<g id="&#60;Group&#62;_359">
<path id="&#60;Path&#62;_190" d="M311.744 181.312L320.32 178.576L322 183.904L313.44 186.592L311.744 181.312Z" fill="#373737"/>
</g>
</g>
</g>
<g id="&#60;Group&#62;_360">
<g id="&#60;Group&#62;_361">
<g id="&#60;Group&#62;_362">
<path id="&#60;Path&#62;_191" d="M347.056 121.984L349.776 130.528L344.464 132.208L341.728 123.664L347.056 121.984Z" fill="#373737"/>
</g>
</g>
<g id="&#60;Group&#62;_363">
<g id="&#60;Group&#62;_364">
<path id="&#60;Path&#62;_192" d="M262.544 148.688L265.264 157.248L259.952 158.912L257.232 150.368L262.544 148.688V148.688Z" fill="#373737"/>
</g>
</g>
</g>
</g>
<g id="&#60;Group&#62;_365">
<g id="&#60;Group&#62;_366">
<g id="&#60;Group&#62;_367">
<g id="&#60;Group&#62;_368">
<path id="&#60;Path&#62;_193" d="M321.2 96.656L329.2 100.784L326.624 105.712L318.64 101.584L321.216 96.64L321.2 96.656Z" fill="#373737"/>
</g>
</g>
<g id="&#60;Group&#62;_369">
<g id="&#60;Group&#62;_370">
<path id="&#60;Path&#62;_194" d="M280.368 175.152L288.352 179.28L285.808 184.224L277.824 180.096L280.384 175.152H280.368Z" fill="#373737"/>
</g>
</g>
</g>
<g id="&#60;Group&#62;_371">
<g id="&#60;Group&#62;_372">
<g id="&#60;Group&#62;_373">
<path id="&#60;Path&#62;_195" d="M347.392 158.128L343.248 166.08L338.304 163.52L342.416 155.552L347.392 158.128V158.128Z" fill="#373737"/>
</g>
</g>
<g id="&#60;Group&#62;_374">
<g id="&#60;Group&#62;_375">
<path id="&#60;Path&#62;_196" d="M268.704 117.376L264.576 125.328L259.616 122.752L263.744 114.8L268.704 117.376Z" fill="#373737"/>
</g>
</g>
</g>
</g>
<g id="&#60;Group&#62;_376">
<g id="&#60;Group&#62;_377">
<g id="&#60;Group&#62;_378">
<g id="&#60;Group&#62;_379">
<path id="&#60;Path&#62;_197" d="M336.528 106.64L342.336 113.488L338.08 117.056L332.272 110.224L336.528 106.64V106.64Z" fill="#373737"/>
</g>
</g>
<g id="&#60;Group&#62;_380">
<g id="&#60;Group&#62;_381">
<path id="&#60;Path&#62;_198" d="M268.896 163.808L274.704 170.64L270.464 174.256L264.656 167.408L268.896 163.824V163.808Z" fill="#373737"/>
</g>
</g>
</g>
<g id="&#60;Group&#62;_382">
<g id="&#60;Group&#62;_383">
<g id="&#60;Group&#62;_384">
<path id="&#60;Path&#62;_199" d="M337.376 173.408L330.528 179.216L326.912 174.976L333.776 169.152L337.36 173.408H337.376Z" fill="#373737"/>
</g>
</g>
<g id="&#60;Group&#62;_385">
<g id="&#60;Group&#62;_386">
<path id="&#60;Path&#62;_200" d="M280.064 105.936L273.216 111.744L269.6 107.488L276.448 101.696L280.064 105.936Z" fill="#373737"/>
</g>
</g>
</g>
</g>
<g id="&#60;Group&#62;_387">
<g id="&#60;Group&#62;_388">
<g id="&#60;Group&#62;_389">
<g id="&#60;Group&#62;_390">
<path id="&#60;Path&#62;_201" d="M350.832 140.512L349.968 149.44L344.416 148.88L345.296 139.968L350.848 140.496L350.832 140.512Z" fill="#373737"/>
</g>
</g>
<g id="&#60;Group&#62;_391">
<g id="&#60;Group&#62;_392">
<path id="&#60;Path&#62;_202" d="M262.592 131.984L261.728 140.912L256.176 140.384L257.04 131.456L262.592 131.984Z" fill="#373737"/>
</g>
</g>
</g>
<g id="&#60;Group&#62;_393">
<g id="&#60;Group&#62;_394">
<g id="&#60;Group&#62;_395">
<path id="&#60;Path&#62;_203" d="M303.424 187.664L294.496 186.8L295.024 181.264L303.968 182.128L303.424 187.68V187.664Z" fill="#373737"/>
</g>
</g>
<g id="&#60;Group&#62;_396">
<g id="&#60;Group&#62;_397">
<path id="&#60;Path&#62;_204" d="M311.968 99.632L303.008 98.784L303.552 93.216L312.496 94.08L311.968 99.632Z" fill="#373737"/>
</g>
</g>
</g>
</g>
</g>
<g id="&#60;Group&#62;_398">
<path id="&#60;Path&#62;_205" d="M347.312 140.48C347.312 164.912 327.712 184.736 303.584 184.736C279.44 184.736 259.84 164.912 259.84 140.48C259.84 116.016 279.44 96.208 303.584 96.208C327.728 96.208 347.312 116.016 347.312 140.48V140.48Z" fill="#373737"/>
</g>
<g id="&#60;Group&#62;_399">
<path id="&#60;Path&#62;_206" d="M345.168 140.56C345.168 163.984 326.544 182.976 303.584 182.976C280.592 182.976 261.984 163.968 261.984 140.56C261.984 117.136 280.608 98.16 303.584 98.16C326.544 98.16 345.168 117.152 345.168 140.56Z" fill="#373737"/>
</g>
<g id="&#60;Group&#62;_400">
<path id="&#60;Path&#62;_207" d="M338.064 141.232C338.064 160.896 322.4 176.864 303.088 176.864C283.792 176.864 268.144 160.912 268.144 141.232C268.144 121.568 283.808 105.6 303.088 105.6C322.384 105.6 338.064 121.568 338.064 141.232V141.232Z" fill="#474747"/>
</g>
<g id="&#60;Group&#62;_401">
<path id="&#60;Compound Path&#62;_5" fill-rule="evenodd" clip-rule="evenodd" d="M303.088 177.344C283.568 177.344 267.648 161.136 267.648 141.216C267.648 121.296 283.552 105.088 303.088 105.088C322.64 105.088 338.528 121.296 338.528 141.216C338.528 161.136 322.64 177.344 303.088 177.344ZM303.088 106.08C284.096 106.08 268.624 121.84 268.624 141.232C268.624 160.608 284.096 176.384 303.088 176.384C322.08 176.384 337.536 160.608 337.536 141.232C337.536 121.856 322.064 106.08 303.088 106.08V106.08Z" fill="#E5931C"/>
</g>
<g id="&#60;Group&#62;_402">
<path id="&#60;Path&#62;_208" d="M330.048 140.56C330.048 155.792 317.952 168.112 303.056 168.112C288.144 168.112 276.032 155.792 276.032 140.56C276.032 125.36 288.128 113.008 303.056 113.008C317.968 113.008 330.048 125.36 330.048 140.56V140.56Z" fill="#FDCA00"/>
</g>
<g id="&#60;Group&#62;_403">
<path id="&#60;Path&#62;_209" d="M318.096 140.32C318.096 148.928 311.264 155.904 302.832 155.904C294.4 155.904 287.536 148.928 287.536 140.32C287.536 131.728 294.384 124.752 302.832 124.752C311.264 124.752 318.096 131.712 318.096 140.32Z" fill="#EEEEEE"/>
</g>
<g id="&#60;Group&#62;_404">
<path id="&#60;Path&#62;_210" d="M309.264 140.096C309.264 143.856 306.288 146.896 302.608 146.896C298.928 146.896 295.936 143.856 295.936 140.096C295.936 136.352 298.928 133.296 302.608 133.296C306.288 133.296 309.264 136.352 309.264 140.096Z" fill="#474747"/>
</g>
<g id="&#60;Group&#62;_405">
<path id="&#60;Path&#62;_211" d="M347.056 121.984L354.384 119.952L357.52 128.368L349.776 130.528L347.056 121.984V121.984Z" fill="#333333"/>
</g>
<g id="&#60;Group&#62;_406">
<path id="&#60;Path&#62;_212" d="M350.832 140.512L359.056 138.304L358.592 147.264L349.952 149.456L350.816 140.528L350.832 140.512Z" fill="#333333"/>
</g>
<g id="&#60;Group&#62;_407">
<path id="&#60;Path&#62;_213" d="M347.392 158.128L356.432 156.048L352.688 164.176L343.264 166.08L347.408 158.128H347.392Z" fill="#333333"/>
</g>
<g id="&#60;Group&#62;_408">
<path id="&#60;Path&#62;_214" d="M337.376 173.408L347.152 171.776L340.592 177.888L330.528 179.216L337.376 173.408Z" fill="#333333"/>
</g>
<g id="&#60;Group&#62;_409">
<path id="&#60;Path&#62;_215" d="M322.016 183.904L332.304 182.976L323.872 186.08L313.44 186.592L322 183.904H322.016Z" fill="#333333"/>
</g>
<g id="&#60;Group&#62;_410">
<path id="&#60;Path&#62;_216" d="M303.392 187.056L304.928 187.168L313.904 187.616L303.408 187.68L303.376 187.072L303.392 187.056Z" fill="#212121"/>
</g>
<g id="&#60;Group&#62;_411">
<path id="&#60;Path&#62;_217" d="M336.528 106.64L343.168 105.104L349.296 111.68L342.336 113.488L336.528 106.64Z" fill="#333333"/>
</g>
<g id="&#60;Group&#62;_412">
<path id="&#60;Path&#62;_218" d="M321.2 96.656L327.408 95.872L335.568 99.632L329.2 100.784L321.2 96.656V96.656Z" fill="#333333"/>
</g>
<g id="&#60;Group&#62;_413">
<path id="&#60;Path&#62;_219" d="M303.568 93.216L309.6 93.28L318.608 93.728L312.512 94.096L303.568 93.232V93.216Z" fill="#333333"/>
</g>
<g id="&#60;Group&#62;_414">
<path id="&#60;Path&#62;_220" d="M293.568 94.272L299.664 94.8L294.336 96.784L293.552 94.288L293.568 94.272Z" fill="#333333"/>
</g>
<g id="&#60;Group&#62;_415">
<path id="&#60;Path&#62;_221" d="M321.84 125.408C321.84 127.408 320.24 128.992 318.24 128.992C316.24 128.992 314.624 127.392 314.624 125.408C314.624 123.408 316.24 121.792 318.24 121.792C320.24 121.792 321.84 123.408 321.84 125.408Z" fill="#474747"/>
</g>
<g id="&#60;Group&#62;_416">
<path id="&#60;Path&#62;_222" d="M291.136 124.272C291.136 126.256 289.536 127.856 287.536 127.856C285.552 127.856 283.936 126.256 283.936 124.272C283.936 122.272 285.552 120.656 287.536 120.656C289.536 120.656 291.136 122.272 291.136 124.272Z" fill="#474747"/>
</g>
<g id="&#60;Group&#62;_417">
<path id="&#60;Path&#62;_223" d="M320.72 156.112C320.72 158.112 319.104 159.728 317.104 159.728C315.136 159.728 313.504 158.112 313.504 156.112C313.504 154.128 315.136 152.512 317.104 152.512C319.088 152.512 320.72 154.128 320.72 156.112Z" fill="#474747"/>
</g>
<g id="&#60;Group&#62;_418">
<path id="&#60;Path&#62;_224" d="M307.056 161.792C307.056 163.776 305.44 165.392 303.472 165.392C301.472 165.392 299.856 163.776 299.856 161.792C299.856 159.808 301.472 158.176 303.472 158.176C305.44 158.176 307.056 159.792 307.056 161.792V161.792Z" fill="#474747"/>
</g>
<g id="&#60;Group&#62;_419">
<path id="&#60;Path&#62;_225" d="M305.92 118.192C305.92 120.176 304.32 121.776 302.336 121.776C300.336 121.776 298.72 120.16 298.72 118.192C298.72 116.208 300.336 114.576 302.336 114.576C304.32 114.576 305.92 116.192 305.92 118.192Z" fill="#474747"/>
</g>
<g id="&#60;Group&#62;_420">
<path id="&#60;Path&#62;_226" d="M328.288 139.792C328.288 141.792 326.672 143.408 324.688 143.408C322.704 143.408 321.104 141.792 321.104 139.792C321.104 137.808 322.72 136.208 324.688 136.208C326.672 136.208 328.288 137.808 328.288 139.792Z" fill="#474747"/>
</g>
<g id="&#60;Group&#62;_421">
<path id="&#60;Path&#62;_227" d="M285.088 139.792C285.088 141.792 283.456 143.408 281.472 143.408C279.472 143.408 277.872 141.792 277.872 139.792C277.872 137.808 279.472 136.208 281.472 136.208C283.456 136.208 285.088 137.808 285.088 139.792Z" fill="#474747"/>
</g>
<g id="&#60;Group&#62;_422">
<path id="&#60;Path&#62;_228" d="M291.136 156.112C291.136 158.112 289.536 159.728 287.536 159.728C285.552 159.728 283.936 158.112 283.936 156.112C283.936 154.128 285.552 152.512 287.536 152.512C289.536 152.512 291.136 154.128 291.136 156.112Z" fill="#474747"/>
</g>
</g>
<path id="&#60;Path&#62;_229" d="M400.768 85.392H357.952V75.392H400.768V85.392Z" fill="#373737"/>
<g id="&#60;Group&#62;_423">
<g id="&#60;Group&#62;_424">
<path id="&#60;Path&#62;_230" d="M164.704 168.144L125.744 167.232L109.136 166.128L107.904 134.96L108.08 106.4C153.232 104.128 172.112 124.704 164.704 168.144Z" fill="#191919"/>
</g>
</g>
<g id="&#60;Group&#62;_425">
<g id="&#60;Group&#62;_426">
<path id="&#60;Path&#62;_231" d="M107.904 101.088C153.328 102.192 173.904 124.496 169.616 168.016L164.704 168.144C165.104 124.032 146.176 103.744 107.904 107.28V101.088Z" fill="#424141"/>
</g>
</g>
<g id="&#60;Group&#62;_427">
<g id="&#60;Group&#62;_428">
<path id="&#60;Path&#62;_232" d="M108.08 107.28L108.064 103.728C166.064 106.336 168.128 156.224 167.776 168.064L164.864 168.144C165.264 124.032 146.336 103.744 108.08 107.28Z" fill="#373737"/>
</g>
</g>
<g className="wheel">
<g id="&#60;Group&#62;_429">
<g id="&#60;Group&#62;_430">
<g id="&#60;Group&#62;_431">
<g id="&#60;Group&#62;_432">
<g id="&#60;Group&#62;_433">
<g id="&#60;Group&#62;_434">
<path id="&#60;Path&#62;_233" d="M106.32 118.432L112.928 116L114.416 120.112L107.824 122.544L106.32 118.448V118.432Z" fill="#212121"/>
</g>
</g>
<g id="&#60;Group&#62;_435">
<g id="&#60;Group&#62;_436">
<path id="&#60;Path&#62;_234" d="M129.008 184.128L136.96 180.96L138.48 185.04L131.856 187.472L129.008 184.112V184.128Z" fill="#212121"/>
</g>
</g>
</g>
<g id="&#60;Group&#62;_437">
<g id="&#60;Group&#62;_438">
<g id="&#60;Group&#62;_439">
<path id="&#60;Path&#62;_235" d="M155.776 135.696L158.208 142.288L154.112 143.792L151.68 137.216L155.76 135.696H155.776Z" fill="#212121"/>
</g>
</g>
<g id="&#60;Group&#62;_440">
<g id="&#60;Group&#62;_441">
<path id="&#60;Path&#62;_236" d="M90.6722 159.696L93.1041 166.272L89.0081 167.776L86.5762 161.184L90.6722 159.68V159.696Z" fill="#212121"/>
</g>
</g>
</g>
</g>
<g id="&#60;Group&#62;_442">
<g id="&#60;Group&#62;_443">
<g id="&#60;Group&#62;_444">
<g id="&#60;Group&#62;_445">
<path id="&#60;Path&#62;_237" d="M134.64 116.848L141.04 119.776L139.216 123.76L132.816 120.8L134.64 116.848V116.848Z" fill="#212121"/>
</g>
</g>
<g id="&#60;Group&#62;_446">
<g id="&#60;Group&#62;_447">
<path id="&#60;Path&#62;_238" d="M105.584 179.744L111.968 182.672L110.144 186.624L103.744 183.696L105.568 179.744H105.584Z" fill="#212121"/>
</g>
</g>
</g>
<g id="&#60;Group&#62;_448">
<g id="&#60;Group&#62;_449">
<g id="&#60;Group&#62;_450">
<path id="&#60;Path&#62;_239" d="M157.376 163.952L154.432 170.336L150.464 168.48L153.424 162.144L157.392 163.952H157.376Z" fill="#212121"/>
</g>
</g>
<g id="&#60;Group&#62;_451">
<g id="&#60;Group&#62;_452">
<path id="&#60;Path&#62;_240" d="M94.3199 134.992L91.3919 141.376L87.4399 139.552L90.368 133.184L94.3359 134.992H94.3199Z" fill="#212121"/>
</g>
</g>
</g>
</g>
<g id="&#60;Group&#62;_453">
<g id="&#60;Group&#62;_454">
<g id="&#60;Group&#62;_455">
<g id="&#60;Group&#62;_456">
<path id="&#60;Path&#62;_241" d="M146.992 124.08L151.792 129.216L148.592 132.192L143.792 127.072L146.992 124.08V124.08Z" fill="#212121"/>
</g>
</g>
<g id="&#60;Group&#62;_457">
<g id="&#60;Group&#62;_458">
<path id="&#60;Path&#62;_242" d="M96.2083 171.296L100.992 176.416L97.8083 179.408L93.0083 174.256L96.2083 171.296V171.296Z" fill="#212121"/>
</g>
</g>
</g>
<g id="&#60;Group&#62;_459">
<g id="&#60;Group&#62;_460">
<g id="&#60;Group&#62;_461">
<path id="&#60;Path&#62;_243" d="M150.128 176.272L144.96 181.056L141.984 177.856L147.136 173.072L150.128 176.256V176.272Z" fill="#212121"/>
</g>
</g>
<g id="&#60;Group&#62;_462">
<g id="&#60;Group&#62;_463">
<path id="&#60;Path&#62;_244" d="M102.8 125.616L97.6483 130.4L94.6724 127.2L99.8243 122.416L102.8 125.6V125.616Z" fill="#212121"/>
</g>
</g>
</g>
</g>
<g id="&#60;Group&#62;_464">
<g id="&#60;Group&#62;_465">
<g id="&#60;Group&#62;_466">
<g id="&#60;Group&#62;_467">
<path id="&#60;Path&#62;_245" d="M159.408 150.064L159.056 157.072L154.704 156.864L155.056 149.856L159.408 150.064Z" fill="#212121"/>
</g>
</g>
<g id="&#60;Group&#62;_468">
<g id="&#60;Group&#62;_469">
<path id="&#60;Path&#62;_246" d="M90.096 146.64L89.7441 153.648L85.3921 153.424L85.7441 146.432L90.1121 146.64H90.096Z" fill="#212121"/>
</g>
</g>
</g>
<g id="&#60;Group&#62;_470">
<g id="&#60;Group&#62;_471">
<g id="&#60;Group&#62;_472">
<path id="&#60;Path&#62;_247" d="M124.08 188.672L115.52 188.368L114.896 183.856L124.304 184.304L124.096 188.656L124.08 188.672Z" fill="#212121"/>
</g>
</g>
<g id="&#60;Group&#62;_473">
<g id="&#60;Group&#62;_474">
<path id="&#60;Path&#62;_248" d="M127.536 119.52L120.496 119.168L120.72 114.832L127.744 115.184L127.536 119.52Z" fill="#212121"/>
</g>
</g>
</g>
</g>
</g>
<g id="&#60;Group&#62;_475">
<path id="&#60;Path&#62;_249" d="M156.64 150.144C157.552 169.248 142.96 185.488 124.08 186.384C105.184 187.28 89.1519 172.48 88.2559 153.36C87.3439 134.256 101.936 118.016 120.832 117.152C139.712 116.24 155.76 131.04 156.64 150.16V150.144Z" fill="#212121"/>
</g>
<g id="&#60;Group&#62;_476">
<path id="&#60;Path&#62;_250" d="M154.992 150.32C155.84 168.608 141.984 184.16 124.032 184.992C106.064 185.84 90.8002 171.664 89.9362 153.376C89.0722 135.056 102.944 119.536 120.896 118.672C138.864 117.824 154.128 131.984 154.976 150.32H154.992Z" fill="#212121"/>
</g>
<g id="&#60;Group&#62;_477">
<path id="&#60;Path&#62;_251" d="M149.44 151.088C150.16 166.48 138.512 179.536 123.424 180.256C108.336 180.96 95.4881 169.04 94.8001 153.664C94.0641 138.288 105.712 125.216 120.816 124.528C135.888 123.808 148.72 135.712 149.44 151.104V151.088Z" fill="#212121"/>
</g>
<g id="&#60;Group&#62;_478">
<path id="&#60;Path&#62;_252" d="M143.168 150.88C143.744 162.784 134.704 172.848 123.056 173.408C111.392 173.968 101.488 164.752 100.912 152.864C100.336 140.944 109.36 130.864 121.024 130.32C132.688 129.76 142.608 138.96 143.152 150.864L143.168 150.88Z" fill="#212121"/>
</g>
<g id="&#60;Group&#62;_479">
<path id="&#60;Path&#62;_253" d="M133.808 151.104C134.112 157.84 129.04 163.552 122.432 163.872C115.824 164.176 110.224 158.96 109.92 152.224C109.584 145.504 114.704 139.808 121.296 139.488C127.904 139.168 133.504 144.368 133.824 151.088L133.808 151.104Z" fill="#212121"/>
</g>
<g id="&#60;Group&#62;_480">
<path id="&#60;Path&#62;_254" d="M126.896 151.264C127.04 154.208 124.816 156.688 121.92 156.848C119.04 156.992 116.592 154.688 116.448 151.76C116.304 148.832 118.512 146.352 121.424 146.208C124.288 146.08 126.752 148.352 126.896 151.28V151.264Z" fill="#212121"/>
</g>
</g>
<g id="&#60;Group&#62;_481">
<g id="&#60;Group&#62;_482">
<g id="&#60;Group&#62;_483">
<g id="&#60;Group&#62;_484">
<g id="&#60;Group&#62;_485">
<path id="&#60;Path&#62;_255" d="M101.424 117.728L108.144 115.6L109.456 119.776L102.736 121.888L101.44 117.728H101.424Z" fill="#373737"/>
</g>
</g>
<g id="&#60;Group&#62;_486">
<g id="&#60;Group&#62;_487">
<path id="&#60;Path&#62;_256" d="M122.384 183.728L129.104 181.616L130.432 185.76L123.712 187.888L122.384 183.728V183.728Z" fill="#373737"/>
</g>
</g>
</g>
<g id="&#60;Group&#62;_488">
<g id="&#60;Group&#62;_489">
<g id="&#60;Group&#62;_490">
<path id="&#60;Path&#62;_257" d="M150.016 137.296L152.144 143.984L147.984 145.312L145.872 138.624L150.032 137.312L150.016 137.296Z" fill="#373737"/>
</g>
</g>
<g id="&#60;Group&#62;_491">
<g id="&#60;Group&#62;_492">
<path id="&#60;Path&#62;_258" d="M83.8562 158.208L85.9841 164.88L81.8241 166.176L79.6802 159.488L83.8562 158.192V158.208Z" fill="#373737"/>
</g>
</g>
</g>
</g>
<g id="&#60;Group&#62;_493">
<g id="&#60;Group&#62;_494">
<g id="&#60;Group&#62;_495">
<g id="&#60;Group&#62;_496">
<path id="&#60;Path&#62;_259" d="M129.792 117.472L136.048 120.704L134.016 124.576L127.776 121.344L129.792 117.472Z" fill="#373737"/>
</g>
</g>
<g id="&#60;Group&#62;_497">
<g id="&#60;Group&#62;_498">
<path id="&#60;Path&#62;_260" d="M97.808 178.912L104.064 182.16L102.048 186.016L95.792 182.784L97.792 178.912H97.808Z" fill="#373737"/>
</g>
</g>
</g>
<g id="&#60;Group&#62;_499">
<g id="&#60;Group&#62;_500">
<g id="&#60;Group&#62;_501">
<path id="&#60;Path&#62;_261" d="M150.288 165.568L147.04 171.792L143.168 169.808L146.416 163.568L150.288 165.568Z" fill="#373737"/>
</g>
</g>
<g id="&#60;Group&#62;_502">
<g id="&#60;Group&#62;_503">
<path id="&#60;Path&#62;_262" d="M88.6722 133.68L85.4242 139.92L81.5522 137.92L84.7842 131.68L88.6722 133.68Z" fill="#373737"/>
</g>
</g>
</g>
</g>
<g id="&#60;Group&#62;_504">
<g id="&#60;Group&#62;_505">
<g id="&#60;Group&#62;_506">
<g id="&#60;Group&#62;_507">
<path id="&#60;Path&#62;_263" d="M141.792 125.264L146.352 130.64L143.008 133.456L138.464 128.096L141.808 125.264H141.792Z" fill="#373737"/>
</g>
</g>
<g id="&#60;Group&#62;_508">
<g id="&#60;Group&#62;_509">
<path id="&#60;Path&#62;_264" d="M88.8324 170.032L93.3923 175.392L90.0484 178.208L85.5044 172.848L88.8484 170.032H88.8324Z" fill="#373737"/>
</g>
</g>
</g>
<g id="&#60;Group&#62;_510">
<g id="&#60;Group&#62;_511">
<g id="&#60;Group&#62;_512">
<path id="&#60;Path&#62;_265" d="M142.448 177.536L137.072 182.096L134.256 178.768L139.616 174.224L142.432 177.536H142.448Z" fill="#373737"/>
</g>
</g>
<g id="&#60;Group&#62;_513">
<g id="&#60;Group&#62;_514">
<path id="&#60;Path&#62;_266" d="M97.6003 124.736L92.2244 129.28L89.3765 125.968L94.7524 121.424L97.6003 124.736Z" fill="#373737"/>
</g>
</g>
</g>
</g>
<g id="&#60;Group&#62;_515">
<g id="&#60;Group&#62;_516">
<g id="&#60;Group&#62;_517">
<g id="&#60;Group&#62;_518">
<path id="&#60;Path&#62;_267" d="M152.976 151.792L152.304 158.784L147.952 158.368L148.624 151.392L152.976 151.792Z" fill="#373737"/>
</g>
</g>
<g id="&#60;Group&#62;_519">
<g id="&#60;Group&#62;_520">
<path id="&#60;Path&#62;_268" d="M83.9042 145.136L83.2002 152.128L78.8643 151.712L79.5522 144.72L83.9042 145.136V145.136Z" fill="#373737"/>
</g>
</g>
</g>
<g id="&#60;Group&#62;_521">
<g id="&#60;Group&#62;_522">
<g id="&#60;Group&#62;_523">
<path id="&#60;Path&#62;_269" d="M115.872 188.736L108.848 188.032L109.296 183.712L116.304 184.384L115.888 188.736H115.872Z" fill="#373737"/>
</g>
</g>
<g id="&#60;Group&#62;_524">
<g id="&#60;Group&#62;_525">
<path id="&#60;Path&#62;_270" d="M122.544 119.792L115.552 119.12L115.968 114.784L122.992 115.472L122.544 119.808V119.792Z" fill="#373737"/>
</g>
</g>
</g>
</g>
</g>
<g id="&#60;Group&#62;_526">
<path id="&#60;Path&#62;_271" d="M150.224 151.76C150.224 170.896 134.896 186.416 115.984 186.416C97.072 186.416 81.728 170.896 81.728 151.76C81.728 132.608 97.072 117.104 115.984 117.104C134.896 117.104 150.224 132.608 150.224 151.76V151.76Z" fill="#373737"/>
</g>
<g id="&#60;Group&#62;_527">
<path id="&#60;Path&#62;_272" d="M148.544 151.84C148.544 170.176 133.952 185.04 115.984 185.04C98.0002 185.04 83.4082 170.176 83.4082 151.84C83.4082 133.504 98.0002 118.64 115.984 118.64C133.952 118.64 148.544 133.52 148.544 151.84Z" fill="#373737"/>
</g>
<g id="&#60;Group&#62;_528">
<path id="&#60;Path&#62;_273" d="M142.96 152.352C142.96 167.76 130.72 180.256 115.6 180.256C100.48 180.256 88.2563 167.76 88.2563 152.352C88.2563 136.944 100.496 124.464 115.6 124.464C130.72 124.464 142.96 136.944 142.96 152.352Z" fill="#474747"/>
</g>
<g id="&#60;Group&#62;_529">
<path id="&#60;Compound Path&#62;_6" fill-rule="evenodd" clip-rule="evenodd" d="M115.6 180.752C100.24 180.752 87.7603 168.016 87.7603 152.352C87.7603 136.704 100.24 123.968 115.6 123.968C130.976 123.968 143.456 136.704 143.456 152.352C143.456 168.016 130.976 180.752 115.6 180.752ZM115.6 124.944C100.8 124.944 88.7362 137.232 88.7362 152.336C88.7362 167.456 100.8 179.76 115.6 179.76C130.416 179.76 142.48 167.456 142.48 152.336C142.48 137.232 130.416 124.944 115.6 124.944Z" fill="#E5931C"/>
</g>
<g id="&#60;Group&#62;_530">
<path id="&#60;Path&#62;_274" d="M136.72 151.84C136.72 163.76 127.248 173.408 115.568 173.408C103.888 173.408 94.4321 163.76 94.4321 151.84C94.4321 139.936 103.888 130.272 115.568 130.272C127.248 130.272 136.72 139.92 136.72 151.84V151.84Z" fill="#FDCA00"/>
</g>
<g id="&#60;Group&#62;_531">
<path id="&#60;Path&#62;_275" d="M127.344 151.648C127.344 158.384 121.984 163.84 115.376 163.84C108.768 163.84 103.424 158.384 103.424 151.648C103.424 144.912 108.784 139.472 115.376 139.472C122 139.472 127.344 144.912 127.344 151.648Z" fill="#EEEEEE"/>
</g>
<g id="&#60;Group&#62;_532">
<path id="&#60;Path&#62;_276" d="M120.448 151.488C120.448 154.432 118.08 156.8 115.216 156.8C112.336 156.8 110 154.432 110 151.488C110 148.528 112.336 146.16 115.216 146.16C118.08 146.16 120.448 148.544 120.448 151.488Z" fill="#474747"/>
</g>
<g id="&#60;Group&#62;_533">
<path id="&#60;Path&#62;_277" d="M150.016 137.296L155.776 135.696L158.208 142.288L152.144 143.968L150.016 137.28V137.296Z" fill="#333333"/>
</g>
<g id="&#60;Group&#62;_534">
<path id="&#60;Path&#62;_278" d="M152.976 151.792L159.408 150.064L159.056 157.072L152.304 158.784L152.976 151.792V151.792Z" fill="#333333"/>
</g>
<g id="&#60;Group&#62;_535">
<path id="&#60;Path&#62;_279" d="M150.288 165.568L157.376 163.952L154.432 170.336L147.041 171.792L150.288 165.568V165.568Z" fill="#333333"/>
</g>
<g id="&#60;Group&#62;_536">
<path id="&#60;Path&#62;_280" d="M142.448 177.536L150.128 176.272L144.96 181.056L137.072 182.08L142.448 177.52V177.536Z" fill="#333333"/>
</g>
<g id="&#60;Group&#62;_537">
<path id="&#60;Path&#62;_281" d="M130.416 185.76L138.464 185.04L131.84 187.472L123.696 187.872L130.416 185.744V185.76Z" fill="#333333"/>
</g>
<g id="&#60;Group&#62;_538">
<path id="&#60;Path&#62;_282" d="M115.84 188.272L117.056 188.336L124.08 188.672L115.872 188.72L115.84 188.256V188.272Z" fill="#212121"/>
</g>
<g id="&#60;Group&#62;_539">
<path id="&#60;Path&#62;_283" d="M141.792 125.264L146.992 124.08L151.792 129.216L146.352 130.624L141.792 125.248V125.264Z" fill="#333333"/>
</g>
<g id="&#60;Group&#62;_540">
<path id="&#60;Path&#62;_284" d="M129.792 117.472L134.64 116.848L141.04 119.776L136.048 120.688L129.792 117.456V117.472Z" fill="#333333"/>
</g>
<g id="&#60;Group&#62;_541">
<path id="&#60;Path&#62;_285" d="M115.968 114.784L120.72 114.832L127.744 115.184L122.992 115.472L115.968 114.784Z" fill="#333333"/>
</g>
<g id="&#60;Group&#62;_542">
<path id="&#60;Path&#62;_286" d="M108.144 115.6L112.928 116L108.768 117.568L108.144 115.6Z" fill="#333333"/>
</g>
<g id="&#60;Group&#62;_543">
<path id="&#60;Path&#62;_287" d="M130.304 139.952C130.304 141.536 129.024 142.784 127.472 142.784C125.92 142.784 124.656 141.536 124.656 139.952C124.656 138.4 125.92 137.152 127.472 137.152C129.04 137.152 130.304 138.4 130.304 139.952Z" fill="#474747"/>
</g>
<g id="&#60;Group&#62;_544">
<path id="&#60;Path&#62;_288" d="M106.24 139.088C106.24 140.656 104.976 141.904 103.408 141.904C101.856 141.904 100.576 140.656 100.576 139.088C100.576 137.536 101.856 136.24 103.408 136.24C104.976 136.24 106.24 137.52 106.24 139.088Z" fill="#474747"/>
</g>
<g id="&#60;Group&#62;_545">
<path id="&#60;Path&#62;_289" d="M129.392 164.016C129.392 165.568 128.128 166.832 126.56 166.832C125.008 166.832 123.744 165.568 123.744 164.016C123.744 162.464 125.008 161.168 126.56 161.168C128.128 161.168 129.392 162.448 129.392 164.016Z" fill="#474747"/>
</g>
<g id="&#60;Group&#62;_546">
<path id="&#60;Path&#62;_290" d="M118.72 168.464C118.72 170.016 117.456 171.296 115.888 171.296C114.352 171.296 113.072 170.016 113.072 168.464C113.072 166.912 114.352 165.648 115.888 165.648C117.456 165.648 118.72 166.928 118.72 168.464Z" fill="#474747"/>
</g>
<g id="&#60;Group&#62;_547">
<path id="&#60;Path&#62;_291" d="M117.824 134.336C117.824 135.888 116.544 137.152 114.992 137.152C113.44 137.152 112.176 135.872 112.176 134.336C112.176 132.768 113.456 131.504 114.992 131.504C116.544 131.504 117.824 132.768 117.824 134.336Z" fill="#474747"/>
</g>
<g id="&#60;Group&#62;_548">
<path id="&#60;Path&#62;_292" d="M135.344 151.248C135.344 152.816 134.08 154.064 132.528 154.064C130.976 154.064 129.712 152.8 129.712 151.248C129.712 149.68 130.992 148.432 132.528 148.432C134.08 148.432 135.344 149.68 135.344 151.248Z" fill="#474747"/>
</g>
<g id="&#60;Group&#62;_549">
<path id="&#60;Path&#62;_293" d="M101.504 151.248C101.504 152.816 100.224 154.064 98.688 154.064C97.12 154.064 95.8721 152.8 95.8721 151.248C95.8721 149.68 97.136 148.432 98.688 148.432C100.224 148.432 101.504 149.68 101.504 151.248Z" fill="#474747"/>
</g>
<g id="&#60;Group&#62;_550">
<path id="&#60;Path&#62;_294" d="M106.24 164.016C106.24 165.568 104.976 166.832 103.408 166.832C101.856 166.832 100.576 165.568 100.576 164.016C100.576 162.464 101.856 161.168 103.408 161.168C104.976 161.168 106.24 162.448 106.24 164.016Z" fill="#474747"/>
</g>
</g>
</g>
</g>
</g>
</g>
<defs>
<clipPath id="clip0_691_4834">
<rect width="71" height="141" fill="white" transform="matrix(-1 0 0 1 306 0)"/>
</clipPath>
</defs>
</svg>
